M48
; DRILL file {KiCad (5.99.0-1941-g4629b701e)} date Fri Jun 12 19:14:58 2020
; FORMAT={-:-/ absolute / inch / decimal}
; #@! TF.CreationDate,2020-06-12T19:14:58+08:00
; #@! TF.GenerationSoftware,Kicad,Pcbnew,(5.99.0-1941-g4629b701e)
; #@! TF.FileFunction,NonPlated,1,2,NPTH
FMAT,2
INCH
T1C0.0689
T2C0.0728
T3C0.1200
T4C0.1570
T5C0.3110
%
G90
G05
T1
X1.7124Y-4.1624
X2.1124Y-4.1624
X6.4937Y-1.1624
X6.8937Y-1.1624
X5.8375Y-2.6624
X6.2375Y-2.6624
X2.6499Y-1.9124
X3.0499Y-1.9124
X5.275Y-3.4124
X5.675Y-3.4124
X6.6812Y-2.6624
X7.0812Y-2.6624
X1.8999Y-1.9124
X2.2999Y-1.9124
X2.275Y-3.4124
X2.675Y-3.4124
X6.5875Y-1.9124
X6.9875Y-1.9124
X4.8999Y-1.9124
X5.2999Y-1.9124
X4.525Y-3.4124
X4.925Y-3.4124
X3.9624Y-1.1624
X4.3624Y-1.1624
X6.6559Y-4.2167
X7.0023Y-4.4167
X2.8373Y-2.6624
X3.2373Y-2.6624
X3.3999Y-1.9124
X3.7999Y-1.9124
X6.5554Y-5.8907
X6.9018Y-6.0907
X2.4624Y-1.1624
X2.8624Y-1.1624
X2.4624Y-4.1624
X2.8624Y-4.1624
X3.775Y-3.4124
X4.175Y-3.4124
X1.2437Y-3.4124
X1.6437Y-3.4124
X3.2124Y-1.1624
X3.6124Y-1.1624
X7.3054Y-4.5917
X7.6518Y-4.7917
X5.5171Y-5.0892
X5.7171Y-4.7427
X1.0562Y-1.9124
X1.4562Y-1.9124
X2.0873Y-2.6624
X2.4873Y-2.6624
X5.4624Y-1.1624
X5.8624Y-1.1624
X3.025Y-3.4124
X3.425Y-3.4124
X5.9059Y-5.5157
X6.2523Y-5.7157
X5.6499Y-1.9124
X6.0499Y-1.9124
X4.7124Y-4.1624
X5.1124Y-4.1624
X3.5873Y-2.6624
X3.9873Y-2.6624
X4.1499Y-1.9124
X4.5499Y-1.9124
X0.9624Y-1.1624
X1.3624Y-1.1624
X4.3373Y-2.6624
X4.7373Y-2.6624
X0.9624Y-4.1624
X1.3624Y-4.1624
X6.2809Y-4.8662
X6.6273Y-5.0662
X6.9304Y-5.2412
X7.2768Y-5.4412
X1.7124Y-1.1624
X2.1124Y-1.1624
X3.9624Y-4.1624
X4.3624Y-4.1624
X4.7124Y-1.1624
X5.1124Y-1.1624
X6.025Y-3.4124
X6.425Y-3.4124
X3.2124Y-4.1624
X3.6124Y-4.1624
X1.1499Y-2.6624
X1.5499Y-2.6624
X5.0873Y-2.6624
X5.4873Y-2.6624
T2
X7.7752Y-2.45
X7.7752Y-2.92
X7.7752Y-2.45
X7.7752Y-2.92
T3
X5.6203Y-5.4605
X6.0903Y-4.6464
T4
X1.1624Y-4.1624
X6.4541Y-4.9662
X7.1036Y-5.3412
X1.9124Y-1.1624
X4.1624Y-4.1624
X4.9124Y-1.1624
X6.225Y-3.4124
X3.4124Y-4.1624
X1.3499Y-2.6624
X5.2873Y-2.6624
X1.9124Y-4.1624
X6.6937Y-1.1624
X6.0375Y-2.6624
X2.8499Y-1.9124
X5.475Y-3.4124
X6.8812Y-2.6624
X2.0999Y-1.9124
X2.475Y-3.4124
X6.7875Y-1.9124
X5.0999Y-1.9124
X4.725Y-3.4124
X4.1624Y-1.1624
X6.8291Y-4.3167
X3.0373Y-2.6624
X3.5999Y-1.9124
X6.7286Y-5.9907
X2.6624Y-1.1624
X2.6624Y-4.1624
X3.975Y-3.4124
X1.4437Y-3.4124
X3.4124Y-1.1624
X7.4786Y-4.6917
X5.1006Y-5.1605
X5.5706Y-4.3464
X5.6171Y-4.9159
X1.2562Y-1.9124
X2.2873Y-2.6624
X5.6624Y-1.1624
X3.225Y-3.4124
X6.0791Y-5.6157
X5.8499Y-1.9124
X4.9124Y-4.1624
X3.7873Y-2.6624
X4.3499Y-1.9124
X1.1624Y-1.1624
X4.5373Y-2.6624
T5
G00X8.0055Y-2.797
M15
G01X8.0055Y-2.573
M16
G05
G00X8.0055Y-2.573
M15
G01X8.0055Y-2.797
M16
G05
T0
M30
