G04 #@! TF.GenerationSoftware,KiCad,Pcbnew,(5.99.0-1941-g4629b701e)*
G04 #@! TF.CreationDate,2020-06-12T19:14:52+08:00*
G04 #@! TF.ProjectId,Keyboar-layout,4b657962-6f61-4722-9d6c-61796f75742e,rev?*
G04 #@! TF.SameCoordinates,Original*
G04 #@! TF.FileFunction,Legend,Top*
G04 #@! TF.FilePolarity,Positive*
%FSLAX46Y46*%
G04 Gerber Fmt 4.6, Leading zero omitted, Abs format (unit mm)*
G04 Created by KiCad (PCBNEW (5.99.0-1941-g4629b701e)) date 2020-06-12 19:14:52*
%MOMM*%
%LPD*%
G01*
G04 APERTURE LIST*
%ADD10C,0.150000*%
%ADD11C,0.127000*%
%ADD12C,0.120000*%
%ADD13C,0.200000*%
%ADD14C,2.000000*%
%ADD15C,1.600000*%
%ADD16R,1.600000X1.600000*%
G04 APERTURE END LIST*
D10*
X192111380Y-81312380D02*
X191778047Y-80836190D01*
X191539952Y-81312380D02*
X191539952Y-80312380D01*
X191920904Y-80312380D01*
X192016142Y-80360000D01*
X192063761Y-80407619D01*
X192111380Y-80502857D01*
X192111380Y-80645714D01*
X192063761Y-80740952D01*
X192016142Y-80788571D01*
X191920904Y-80836190D01*
X191539952Y-80836190D01*
X192397095Y-80312380D02*
X192968523Y-80312380D01*
X192682809Y-81312380D02*
X192682809Y-80312380D01*
X193254238Y-80407619D02*
X193301857Y-80360000D01*
X193397095Y-80312380D01*
X193635190Y-80312380D01*
X193730428Y-80360000D01*
X193778047Y-80407619D01*
X193825666Y-80502857D01*
X193825666Y-80598095D01*
X193778047Y-80740952D01*
X193206619Y-81312380D01*
X193825666Y-81312380D01*
X197477095Y-80992380D02*
X197477095Y-79992380D01*
X198048523Y-80992380D02*
X197619952Y-80420952D01*
X198048523Y-79992380D02*
X197477095Y-80563809D01*
X194209619Y-64682809D02*
X195209619Y-64682809D01*
X194304857Y-65730428D02*
X194257238Y-65682809D01*
X194209619Y-65539952D01*
X194209619Y-65444714D01*
X194257238Y-65301857D01*
X194352476Y-65206619D01*
X194447714Y-65159000D01*
X194638190Y-65111380D01*
X194781047Y-65111380D01*
X194971523Y-65159000D01*
X195066761Y-65206619D01*
X195162000Y-65301857D01*
X195209619Y-65444714D01*
X195209619Y-65539952D01*
X195162000Y-65682809D01*
X195114380Y-65730428D01*
X195114380Y-66111380D02*
X195162000Y-66159000D01*
X195209619Y-66254238D01*
X195209619Y-66492333D01*
X195162000Y-66587571D01*
X195114380Y-66635190D01*
X195019142Y-66682809D01*
X194923904Y-66682809D01*
X194781047Y-66635190D01*
X194209619Y-66063761D01*
X194209619Y-66682809D01*
D11*
X195111914Y-25421771D02*
X195111914Y-24812171D01*
X195750542Y-25363714D02*
X195721514Y-25392742D01*
X195634428Y-25421771D01*
X195576371Y-25421771D01*
X195489285Y-25392742D01*
X195431228Y-25334685D01*
X195402200Y-25276628D01*
X195373171Y-25160514D01*
X195373171Y-25073428D01*
X195402200Y-24957314D01*
X195431228Y-24899257D01*
X195489285Y-24841200D01*
X195576371Y-24812171D01*
X195634428Y-24812171D01*
X195721514Y-24841200D01*
X195750542Y-24870228D01*
X196127914Y-24812171D02*
X196185971Y-24812171D01*
X196244028Y-24841200D01*
X196273057Y-24870228D01*
X196302085Y-24928285D01*
X196331114Y-25044400D01*
X196331114Y-25189542D01*
X196302085Y-25305657D01*
X196273057Y-25363714D01*
X196244028Y-25392742D01*
X196185971Y-25421771D01*
X196127914Y-25421771D01*
X196069857Y-25392742D01*
X196040828Y-25363714D01*
X196011800Y-25305657D01*
X195982771Y-25189542D01*
X195982771Y-25044400D01*
X196011800Y-24928285D01*
X196040828Y-24870228D01*
X196069857Y-24841200D01*
X196127914Y-24812171D01*
X194110428Y-55495371D02*
X194574885Y-55669542D01*
X194110428Y-55843714D01*
X194778085Y-55292171D02*
X194981285Y-55901771D01*
X195184485Y-55292171D01*
X195358657Y-55727600D02*
X195648942Y-55727600D01*
X195300600Y-55901771D02*
X195503800Y-55292171D01*
X195707000Y-55901771D01*
X196200485Y-55901771D02*
X195910200Y-55901771D01*
X195910200Y-55292171D01*
X196403685Y-55292171D02*
X196403685Y-55785657D01*
X196432714Y-55843714D01*
X196461742Y-55872742D01*
X196519800Y-55901771D01*
X196635914Y-55901771D01*
X196693971Y-55872742D01*
X196723000Y-55843714D01*
X196752028Y-55785657D01*
X196752028Y-55292171D01*
X197042314Y-55582457D02*
X197245514Y-55582457D01*
X197332600Y-55901771D02*
X197042314Y-55901771D01*
X197042314Y-55292171D01*
X197332600Y-55292171D01*
D10*
X189333095Y-92892619D02*
X189333095Y-93892619D01*
X189095000Y-93892619D01*
X188952142Y-93845000D01*
X188856904Y-93749761D01*
X188809285Y-93654523D01*
X188761666Y-93464047D01*
X188761666Y-93321190D01*
X188809285Y-93130714D01*
X188856904Y-93035476D01*
X188952142Y-92940238D01*
X189095000Y-92892619D01*
X189333095Y-92892619D01*
X187809285Y-92892619D02*
X188380714Y-92892619D01*
X188095000Y-92892619D02*
X188095000Y-93892619D01*
X188190238Y-93749761D01*
X188285476Y-93654523D01*
X188380714Y-93606904D01*
X199303095Y-24290761D02*
X199445952Y-24338380D01*
X199684047Y-24338380D01*
X199779285Y-24290761D01*
X199826904Y-24243142D01*
X199874523Y-24147904D01*
X199874523Y-24052666D01*
X199826904Y-23957428D01*
X199779285Y-23909809D01*
X199684047Y-23862190D01*
X199493571Y-23814571D01*
X199398333Y-23766952D01*
X199350714Y-23719333D01*
X199303095Y-23624095D01*
X199303095Y-23528857D01*
X199350714Y-23433619D01*
X199398333Y-23386000D01*
X199493571Y-23338380D01*
X199731666Y-23338380D01*
X199874523Y-23386000D01*
X200207857Y-23338380D02*
X200445952Y-24338380D01*
X200636428Y-23624095D01*
X200826904Y-24338380D01*
X201065000Y-23338380D01*
X201207857Y-24433619D02*
X201969761Y-24433619D01*
X202207857Y-24338380D02*
X202207857Y-23338380D01*
X202588809Y-23338380D01*
X202684047Y-23386000D01*
X202731666Y-23433619D01*
X202779285Y-23528857D01*
X202779285Y-23671714D01*
X202731666Y-23766952D01*
X202684047Y-23814571D01*
X202588809Y-23862190D01*
X202207857Y-23862190D01*
X203207857Y-23338380D02*
X203207857Y-24147904D01*
X203255476Y-24243142D01*
X203303095Y-24290761D01*
X203398333Y-24338380D01*
X203588809Y-24338380D01*
X203684047Y-24290761D01*
X203731666Y-24243142D01*
X203779285Y-24147904D01*
X203779285Y-23338380D01*
X204207857Y-24290761D02*
X204350714Y-24338380D01*
X204588809Y-24338380D01*
X204684047Y-24290761D01*
X204731666Y-24243142D01*
X204779285Y-24147904D01*
X204779285Y-24052666D01*
X204731666Y-23957428D01*
X204684047Y-23909809D01*
X204588809Y-23862190D01*
X204398333Y-23814571D01*
X204303095Y-23766952D01*
X204255476Y-23719333D01*
X204207857Y-23624095D01*
X204207857Y-23528857D01*
X204255476Y-23433619D01*
X204303095Y-23386000D01*
X204398333Y-23338380D01*
X204636428Y-23338380D01*
X204779285Y-23386000D01*
X205207857Y-24338380D02*
X205207857Y-23338380D01*
X205207857Y-23814571D02*
X205779285Y-23814571D01*
X205779285Y-24338380D02*
X205779285Y-23338380D01*
X193635380Y-68532333D02*
X194349666Y-68532333D01*
X194492523Y-68579952D01*
X194587761Y-68675190D01*
X194635380Y-68818047D01*
X194635380Y-68913285D01*
X193730619Y-68103761D02*
X193683000Y-68056142D01*
X193635380Y-67960904D01*
X193635380Y-67722809D01*
X193683000Y-67627571D01*
X193730619Y-67579952D01*
X193825857Y-67532333D01*
X193921095Y-67532333D01*
X194063952Y-67579952D01*
X194635380Y-68151380D01*
X194635380Y-67532333D01*
X169925059Y-52202380D02*
X169925059Y-51202380D01*
X170496488Y-52202380D02*
X170067916Y-51630952D01*
X170496488Y-51202380D02*
X169925059Y-51773809D01*
X170686964Y-52297619D02*
X171448869Y-52297619D01*
X171686964Y-52202380D02*
X171686964Y-51202380D01*
X171925059Y-51202380D01*
X172067916Y-51250000D01*
X172163154Y-51345238D01*
X172210773Y-51440476D01*
X172258392Y-51630952D01*
X172258392Y-51773809D01*
X172210773Y-51964285D01*
X172163154Y-52059523D01*
X172067916Y-52154761D01*
X171925059Y-52202380D01*
X171686964Y-52202380D01*
X172686964Y-51678571D02*
X173020297Y-51678571D01*
X173163154Y-52202380D02*
X172686964Y-52202380D01*
X172686964Y-51202380D01*
X173163154Y-51202380D01*
X174067916Y-52202380D02*
X173591726Y-52202380D01*
X173591726Y-51202380D01*
X174925059Y-52202380D02*
X174353630Y-52202380D01*
X174639345Y-52202380D02*
X174639345Y-51202380D01*
X174544107Y-51345238D01*
X174448869Y-51440476D01*
X174353630Y-51488095D01*
X156994702Y-90302380D02*
X156994702Y-89302380D01*
X157566130Y-90302380D02*
X157137559Y-89730952D01*
X157566130Y-89302380D02*
X156994702Y-89873809D01*
X157756607Y-90397619D02*
X158518511Y-90397619D01*
X158804226Y-90302380D02*
X158994702Y-90302380D01*
X159089940Y-90254761D01*
X159137559Y-90207142D01*
X159232797Y-90064285D01*
X159280416Y-89873809D01*
X159280416Y-89492857D01*
X159232797Y-89397619D01*
X159185178Y-89350000D01*
X159089940Y-89302380D01*
X158899464Y-89302380D01*
X158804226Y-89350000D01*
X158756607Y-89397619D01*
X158708988Y-89492857D01*
X158708988Y-89730952D01*
X158756607Y-89826190D01*
X158804226Y-89873809D01*
X158899464Y-89921428D01*
X159089940Y-89921428D01*
X159185178Y-89873809D01*
X159232797Y-89826190D01*
X159280416Y-89730952D01*
X177278603Y-138033740D02*
X177778603Y-137167715D01*
X177773474Y-138319455D02*
X177688035Y-137610297D01*
X178273474Y-137453429D02*
X177492888Y-137662587D01*
X177890812Y-138497171D02*
X178550641Y-138878124D01*
X179355037Y-138627727D02*
X179066362Y-138461060D01*
X178804457Y-138914693D02*
X179304457Y-138048667D01*
X179716850Y-138286763D01*
X180251251Y-138980200D02*
X179917918Y-139557550D01*
X180235531Y-138531238D02*
X179672192Y-139030780D01*
X180208303Y-139340303D01*
X113699880Y-71252380D02*
X113699880Y-70252380D01*
X114271309Y-71252380D02*
X113842738Y-70680952D01*
X114271309Y-70252380D02*
X113699880Y-70823809D01*
X114461785Y-71347619D02*
X115223690Y-71347619D01*
X115795119Y-70728571D02*
X115461785Y-70728571D01*
X115461785Y-71252380D02*
X115461785Y-70252380D01*
X115937976Y-70252380D01*
X116509404Y-70252380D02*
X116604642Y-70252380D01*
X116699880Y-70300000D01*
X116747500Y-70347619D01*
X116795119Y-70442857D01*
X116842738Y-70633333D01*
X116842738Y-70871428D01*
X116795119Y-71061904D01*
X116747500Y-71157142D01*
X116699880Y-71204761D01*
X116604642Y-71252380D01*
X116509404Y-71252380D01*
X116414166Y-71204761D01*
X116366547Y-71157142D01*
X116318928Y-71061904D01*
X116271309Y-70871428D01*
X116271309Y-70633333D01*
X116318928Y-70442857D01*
X116366547Y-70347619D01*
X116414166Y-70300000D01*
X116509404Y-70252380D01*
X132678452Y-71252380D02*
X132678452Y-70252380D01*
X133249880Y-71252380D02*
X132821309Y-70680952D01*
X133249880Y-70252380D02*
X132678452Y-70823809D01*
X133440357Y-71347619D02*
X134202261Y-71347619D01*
X134964166Y-70300000D02*
X134868928Y-70252380D01*
X134726071Y-70252380D01*
X134583214Y-70300000D01*
X134487976Y-70395238D01*
X134440357Y-70490476D01*
X134392738Y-70680952D01*
X134392738Y-70823809D01*
X134440357Y-71014285D01*
X134487976Y-71109523D01*
X134583214Y-71204761D01*
X134726071Y-71252380D01*
X134821309Y-71252380D01*
X134964166Y-71204761D01*
X135011785Y-71157142D01*
X135011785Y-70823809D01*
X134821309Y-70823809D01*
X135964166Y-71252380D02*
X135392738Y-71252380D01*
X135678452Y-71252380D02*
X135678452Y-70252380D01*
X135583214Y-70395238D01*
X135487976Y-70490476D01*
X135392738Y-70538095D01*
X56549880Y-71252380D02*
X56549880Y-70252380D01*
X57121309Y-71252380D02*
X56692738Y-70680952D01*
X57121309Y-70252380D02*
X56549880Y-70823809D01*
X57311785Y-71347619D02*
X58073690Y-71347619D01*
X58264166Y-70966666D02*
X58740357Y-70966666D01*
X58168928Y-71252380D02*
X58502261Y-70252380D01*
X58835595Y-71252380D01*
X59692738Y-71252380D02*
X59121309Y-71252380D01*
X59407023Y-71252380D02*
X59407023Y-70252380D01*
X59311785Y-70395238D01*
X59216547Y-70490476D01*
X59121309Y-70538095D01*
X85555952Y-33152380D02*
X85555952Y-32152380D01*
X86127380Y-33152380D02*
X85698809Y-32580952D01*
X86127380Y-32152380D02*
X85555952Y-32723809D01*
X86317857Y-33247619D02*
X87079761Y-33247619D01*
X87222619Y-32152380D02*
X87841666Y-32152380D01*
X87508333Y-32533333D01*
X87651190Y-32533333D01*
X87746428Y-32580952D01*
X87794047Y-32628571D01*
X87841666Y-32723809D01*
X87841666Y-32961904D01*
X87794047Y-33057142D01*
X87746428Y-33104761D01*
X87651190Y-33152380D01*
X87365476Y-33152380D01*
X87270238Y-33104761D01*
X87222619Y-33057142D01*
X46241666Y-109352380D02*
X46241666Y-108352380D01*
X46813095Y-109352380D02*
X46384523Y-108780952D01*
X46813095Y-108352380D02*
X46241666Y-108923809D01*
X47003571Y-109447619D02*
X47765476Y-109447619D01*
X47955952Y-109066666D02*
X48432142Y-109066666D01*
X47860714Y-109352380D02*
X48194047Y-108352380D01*
X48527380Y-109352380D01*
X49336904Y-109352380D02*
X48860714Y-109352380D01*
X48860714Y-108352380D01*
X49527380Y-108352380D02*
X50098809Y-108352380D01*
X49813095Y-109352380D02*
X49813095Y-108352380D01*
X50955952Y-109352380D02*
X50384523Y-109352380D01*
X50670238Y-109352380D02*
X50670238Y-108352380D01*
X50575000Y-108495238D01*
X50479761Y-108590476D01*
X50384523Y-108638095D01*
X66505952Y-33152380D02*
X66505952Y-32152380D01*
X67077380Y-33152380D02*
X66648809Y-32580952D01*
X67077380Y-32152380D02*
X66505952Y-32723809D01*
X67267857Y-33247619D02*
X68029761Y-33247619D01*
X68220238Y-32247619D02*
X68267857Y-32200000D01*
X68363095Y-32152380D01*
X68601190Y-32152380D01*
X68696428Y-32200000D01*
X68744047Y-32247619D01*
X68791666Y-32342857D01*
X68791666Y-32438095D01*
X68744047Y-32580952D01*
X68172619Y-33152380D01*
X68791666Y-33152380D01*
X147467202Y-52202380D02*
X147467202Y-51202380D01*
X148038630Y-52202380D02*
X147610059Y-51630952D01*
X148038630Y-51202380D02*
X147467202Y-51773809D01*
X148229107Y-52297619D02*
X148991011Y-52297619D01*
X149133869Y-51202380D02*
X149800535Y-51202380D01*
X149371964Y-52202380D01*
X64672619Y-109352380D02*
X64672619Y-108352380D01*
X65244047Y-109352380D02*
X64815476Y-108780952D01*
X65244047Y-108352380D02*
X64672619Y-108923809D01*
X65434523Y-109447619D02*
X66196428Y-109447619D01*
X66434523Y-109352380D02*
X66434523Y-108352380D01*
X66767857Y-109066666D01*
X67101190Y-108352380D01*
X67101190Y-109352380D01*
X67577380Y-108828571D02*
X67910714Y-108828571D01*
X68053571Y-109352380D02*
X67577380Y-109352380D01*
X67577380Y-108352380D01*
X68053571Y-108352380D01*
X68339285Y-108352380D02*
X68910714Y-108352380D01*
X68625000Y-109352380D02*
X68625000Y-108352380D01*
X69196428Y-109066666D02*
X69672619Y-109066666D01*
X69101190Y-109352380D02*
X69434523Y-108352380D01*
X69767857Y-109352380D01*
X70625000Y-109352380D02*
X70053571Y-109352380D01*
X70339285Y-109352380D02*
X70339285Y-108352380D01*
X70244047Y-108495238D01*
X70148809Y-108590476D01*
X70053571Y-108638095D01*
X104605952Y-33152380D02*
X104605952Y-32152380D01*
X105177380Y-33152380D02*
X104748809Y-32580952D01*
X105177380Y-32152380D02*
X104605952Y-32723809D01*
X105367857Y-33247619D02*
X106129761Y-33247619D01*
X106796428Y-32485714D02*
X106796428Y-33152380D01*
X106558333Y-32104761D02*
X106320238Y-32819047D01*
X106939285Y-32819047D01*
X26977380Y-33152380D02*
X26977380Y-32152380D01*
X27548809Y-33152380D02*
X27120238Y-32580952D01*
X27548809Y-32152380D02*
X26977380Y-32723809D01*
X27739285Y-33247619D02*
X28501190Y-33247619D01*
X28739285Y-32628571D02*
X29072619Y-32628571D01*
X29215476Y-33152380D02*
X28739285Y-33152380D01*
X28739285Y-32152380D01*
X29215476Y-32152380D01*
X29596428Y-33104761D02*
X29739285Y-33152380D01*
X29977380Y-33152380D01*
X30072619Y-33104761D01*
X30120238Y-33057142D01*
X30167857Y-32961904D01*
X30167857Y-32866666D01*
X30120238Y-32771428D01*
X30072619Y-32723809D01*
X29977380Y-32676190D01*
X29786904Y-32628571D01*
X29691666Y-32580952D01*
X29644047Y-32533333D01*
X29596428Y-32438095D01*
X29596428Y-32342857D01*
X29644047Y-32247619D01*
X29691666Y-32200000D01*
X29786904Y-32152380D01*
X30025000Y-32152380D01*
X30167857Y-32200000D01*
X31167857Y-33057142D02*
X31120238Y-33104761D01*
X30977380Y-33152380D01*
X30882142Y-33152380D01*
X30739285Y-33104761D01*
X30644047Y-33009523D01*
X30596428Y-32914285D01*
X30548809Y-32723809D01*
X30548809Y-32580952D01*
X30596428Y-32390476D01*
X30644047Y-32295238D01*
X30739285Y-32200000D01*
X30882142Y-32152380D01*
X30977380Y-32152380D01*
X31120238Y-32200000D01*
X31167857Y-32247619D01*
X32120238Y-33152380D02*
X31548809Y-33152380D01*
X31834523Y-33152380D02*
X31834523Y-32152380D01*
X31739285Y-32295238D01*
X31644047Y-32390476D01*
X31548809Y-32438095D01*
X151255819Y-145006524D02*
X151755819Y-144140499D01*
X151750690Y-145292239D02*
X151665251Y-144583081D01*
X152250690Y-144426213D02*
X151470104Y-144635371D01*
X151868028Y-145469955D02*
X152527857Y-145850908D01*
X153332253Y-145600511D02*
X153043578Y-145433844D01*
X152781673Y-145887477D02*
X153281673Y-145021451D01*
X153694066Y-145259547D01*
X154436373Y-145688118D02*
X154023980Y-145450023D01*
X153744646Y-145838606D01*
X153809695Y-145821177D01*
X153915983Y-145827556D01*
X154122179Y-145946604D01*
X154180848Y-146035462D01*
X154198278Y-146100511D01*
X154191898Y-146206799D01*
X154072851Y-146412996D01*
X153983992Y-146471665D01*
X153918944Y-146489095D01*
X153812656Y-146482715D01*
X153606459Y-146363667D01*
X153547790Y-146274809D01*
X153530360Y-146209760D01*
X152233452Y-71252380D02*
X152233452Y-70252380D01*
X152804880Y-71252380D02*
X152376309Y-70680952D01*
X152804880Y-70252380D02*
X152233452Y-70823809D01*
X152995357Y-71347619D02*
X153757261Y-71347619D01*
X154138214Y-70680952D02*
X154042976Y-70633333D01*
X153995357Y-70585714D01*
X153947738Y-70490476D01*
X153947738Y-70442857D01*
X153995357Y-70347619D01*
X154042976Y-70300000D01*
X154138214Y-70252380D01*
X154328690Y-70252380D01*
X154423928Y-70300000D01*
X154471547Y-70347619D01*
X154519166Y-70442857D01*
X154519166Y-70490476D01*
X154471547Y-70585714D01*
X154423928Y-70633333D01*
X154328690Y-70680952D01*
X154138214Y-70680952D01*
X154042976Y-70728571D01*
X153995357Y-70776190D01*
X153947738Y-70871428D01*
X153947738Y-71061904D01*
X153995357Y-71157142D01*
X154042976Y-71204761D01*
X154138214Y-71252380D01*
X154328690Y-71252380D01*
X154423928Y-71204761D01*
X154471547Y-71157142D01*
X154519166Y-71061904D01*
X154519166Y-70871428D01*
X154471547Y-70776190D01*
X154423928Y-70728571D01*
X154328690Y-70680952D01*
X27453571Y-109352380D02*
X27453571Y-108352380D01*
X28025000Y-109352380D02*
X27596428Y-108780952D01*
X28025000Y-108352380D02*
X27453571Y-108923809D01*
X28215476Y-109447619D02*
X28977380Y-109447619D01*
X29548809Y-108828571D02*
X29215476Y-108828571D01*
X29215476Y-109352380D02*
X29215476Y-108352380D01*
X29691666Y-108352380D01*
X30072619Y-109352380D02*
X30072619Y-108352380D01*
X30644047Y-109352380D01*
X30644047Y-108352380D01*
X31644047Y-109352380D02*
X31072619Y-109352380D01*
X31358333Y-109352380D02*
X31358333Y-108352380D01*
X31263095Y-108495238D01*
X31167857Y-108590476D01*
X31072619Y-108638095D01*
X170305819Y-112010956D02*
X170805819Y-111144931D01*
X170800690Y-112296671D02*
X170715251Y-111587513D01*
X171300690Y-111430645D02*
X170520104Y-111639803D01*
X170918028Y-112474387D02*
X171577857Y-112855340D01*
X172382253Y-112604943D02*
X172093578Y-112438276D01*
X171831673Y-112891909D02*
X172331673Y-112025883D01*
X172744066Y-112263979D01*
X173027613Y-113582385D02*
X172532741Y-113296671D01*
X172780177Y-113439528D02*
X173280177Y-112573502D01*
X173126270Y-112649601D01*
X172996172Y-112684461D01*
X172889884Y-112678081D01*
X186803603Y-121535956D02*
X187303603Y-120669931D01*
X187298474Y-121821671D02*
X187213035Y-121112513D01*
X187798474Y-120955645D02*
X187017888Y-121164803D01*
X187415812Y-121999387D02*
X188075641Y-122380340D01*
X188880037Y-122129943D02*
X188591362Y-121963276D01*
X188329457Y-122416909D02*
X188829457Y-121550883D01*
X189241850Y-121788979D01*
X189482906Y-122038124D02*
X189547955Y-122020694D01*
X189654243Y-122027074D01*
X189860440Y-122146121D01*
X189919109Y-122234980D01*
X189936538Y-122300029D01*
X189930159Y-122406317D01*
X189882540Y-122488795D01*
X189769872Y-122588704D01*
X188989286Y-122797861D01*
X189525397Y-123107385D01*
X47455952Y-33152380D02*
X47455952Y-32152380D01*
X48027380Y-33152380D02*
X47598809Y-32580952D01*
X48027380Y-32152380D02*
X47455952Y-32723809D01*
X48217857Y-33247619D02*
X48979761Y-33247619D01*
X49741666Y-33152380D02*
X49170238Y-33152380D01*
X49455952Y-33152380D02*
X49455952Y-32152380D01*
X49360714Y-32295238D01*
X49265476Y-32390476D01*
X49170238Y-32438095D01*
X121584523Y-109352380D02*
X121584523Y-108352380D01*
X122155952Y-109352380D02*
X121727380Y-108780952D01*
X122155952Y-108352380D02*
X121584523Y-108923809D01*
X122346428Y-109447619D02*
X123108333Y-109447619D01*
X123346428Y-109352380D02*
X123346428Y-108352380D01*
X123679761Y-109066666D01*
X124013095Y-108352380D01*
X124013095Y-109352380D01*
X124489285Y-108828571D02*
X124822619Y-108828571D01*
X124965476Y-109352380D02*
X124489285Y-109352380D01*
X124489285Y-108352380D01*
X124965476Y-108352380D01*
X125394047Y-109352380D02*
X125394047Y-108352380D01*
X125965476Y-109352380D01*
X125965476Y-108352380D01*
X126441666Y-108352380D02*
X126441666Y-109161904D01*
X126489285Y-109257142D01*
X126536904Y-109304761D01*
X126632142Y-109352380D01*
X126822619Y-109352380D01*
X126917857Y-109304761D01*
X126965476Y-109257142D01*
X127013095Y-109161904D01*
X127013095Y-108352380D01*
X128013095Y-109352380D02*
X127441666Y-109352380D01*
X127727380Y-109352380D02*
X127727380Y-108352380D01*
X127632142Y-108495238D01*
X127536904Y-108590476D01*
X127441666Y-108638095D01*
X137444702Y-90302380D02*
X137444702Y-89302380D01*
X138016130Y-90302380D02*
X137587559Y-89730952D01*
X138016130Y-89302380D02*
X137444702Y-89873809D01*
X138206607Y-90397619D02*
X138968511Y-90397619D01*
X139539940Y-89778571D02*
X139682797Y-89826190D01*
X139730416Y-89873809D01*
X139778035Y-89969047D01*
X139778035Y-90111904D01*
X139730416Y-90207142D01*
X139682797Y-90254761D01*
X139587559Y-90302380D01*
X139206607Y-90302380D01*
X139206607Y-89302380D01*
X139539940Y-89302380D01*
X139635178Y-89350000D01*
X139682797Y-89397619D01*
X139730416Y-89492857D01*
X139730416Y-89588095D01*
X139682797Y-89683333D01*
X139635178Y-89730952D01*
X139539940Y-89778571D01*
X139206607Y-89778571D01*
X140730416Y-90302380D02*
X140158988Y-90302380D01*
X140444702Y-90302380D02*
X140444702Y-89302380D01*
X140349464Y-89445238D01*
X140254226Y-89540476D01*
X140158988Y-89588095D01*
X99344702Y-90302380D02*
X99344702Y-89302380D01*
X99916130Y-90302380D02*
X99487559Y-89730952D01*
X99916130Y-89302380D02*
X99344702Y-89873809D01*
X100106607Y-90397619D02*
X100868511Y-90397619D01*
X101678035Y-90207142D02*
X101630416Y-90254761D01*
X101487559Y-90302380D01*
X101392321Y-90302380D01*
X101249464Y-90254761D01*
X101154226Y-90159523D01*
X101106607Y-90064285D01*
X101058988Y-89873809D01*
X101058988Y-89730952D01*
X101106607Y-89540476D01*
X101154226Y-89445238D01*
X101249464Y-89350000D01*
X101392321Y-89302380D01*
X101487559Y-89302380D01*
X101630416Y-89350000D01*
X101678035Y-89397619D01*
X102630416Y-90302380D02*
X102058988Y-90302380D01*
X102344702Y-90302380D02*
X102344702Y-89302380D01*
X102249464Y-89445238D01*
X102154226Y-89540476D01*
X102058988Y-89588095D01*
X94578452Y-71252380D02*
X94578452Y-70252380D01*
X95149880Y-71252380D02*
X94721309Y-70680952D01*
X95149880Y-70252380D02*
X94578452Y-70823809D01*
X95340357Y-71347619D02*
X96102261Y-71347619D01*
X96340357Y-71252380D02*
X96340357Y-70252380D01*
X96578452Y-70252380D01*
X96721309Y-70300000D01*
X96816547Y-70395238D01*
X96864166Y-70490476D01*
X96911785Y-70680952D01*
X96911785Y-70823809D01*
X96864166Y-71014285D01*
X96816547Y-71109523D01*
X96721309Y-71204761D01*
X96578452Y-71252380D01*
X96340357Y-71252380D01*
X97864166Y-71252380D02*
X97292738Y-71252380D01*
X97578452Y-71252380D02*
X97578452Y-70252380D01*
X97483214Y-70395238D01*
X97387976Y-70490476D01*
X97292738Y-70538095D01*
X167753603Y-154531524D02*
X168253603Y-153665499D01*
X168248474Y-154817239D02*
X168163035Y-154108081D01*
X168748474Y-153951213D02*
X167967888Y-154160371D01*
X168365812Y-154994955D02*
X169025641Y-155375908D01*
X169830037Y-155125511D02*
X169541362Y-154958844D01*
X169279457Y-155412477D02*
X169779457Y-154546451D01*
X170191850Y-154784547D01*
X170892918Y-155189308D02*
X170727961Y-155094070D01*
X170621673Y-155087691D01*
X170556624Y-155105120D01*
X170402717Y-155181219D01*
X170266239Y-155322367D01*
X170075763Y-155652281D01*
X170069383Y-155758570D01*
X170086813Y-155823618D01*
X170145482Y-155912477D01*
X170310440Y-156007715D01*
X170416728Y-156014095D01*
X170481776Y-155996665D01*
X170570635Y-155937996D01*
X170689682Y-155731799D01*
X170696062Y-155625511D01*
X170678632Y-155560462D01*
X170619963Y-155471604D01*
X170455006Y-155376366D01*
X170348718Y-155369986D01*
X170283669Y-155387416D01*
X170194811Y-155446085D01*
X160780819Y-128508740D02*
X161280819Y-127642715D01*
X161275690Y-128794455D02*
X161190251Y-128085297D01*
X161775690Y-127928429D02*
X160995104Y-128137587D01*
X161393028Y-128972171D02*
X162052857Y-129353124D01*
X162857253Y-129102727D02*
X162568578Y-128936060D01*
X162306673Y-129389693D02*
X162806673Y-128523667D01*
X163219066Y-128761763D01*
X163466502Y-128904620D02*
X164002613Y-129214144D01*
X163523461Y-129377391D01*
X163647179Y-129448820D01*
X163705848Y-129537678D01*
X163723278Y-129602727D01*
X163716898Y-129709015D01*
X163597851Y-129915212D01*
X163508992Y-129973881D01*
X163443944Y-129991311D01*
X163337656Y-129984931D01*
X163090220Y-129842074D01*
X163031551Y-129753215D01*
X163014121Y-129688167D01*
X180564353Y-157655338D02*
X179871532Y-157255338D01*
X179966770Y-157090381D01*
X180056905Y-157010454D01*
X180160983Y-156982566D01*
X180246013Y-156987670D01*
X180397027Y-157030869D01*
X180496001Y-157088012D01*
X180608919Y-157197194D01*
X180655854Y-157268281D01*
X180683742Y-157372359D01*
X180659591Y-157490381D01*
X180564353Y-157655338D01*
X180935097Y-157165570D02*
X181239859Y-156637707D01*
X181039542Y-155994190D02*
X180906209Y-156225131D01*
X181269115Y-156434654D02*
X180576294Y-156034654D01*
X180766770Y-155704740D01*
X180881056Y-155506791D02*
X181147723Y-155044911D01*
X181669115Y-155741834D01*
X136181334Y-134057422D02*
X136581334Y-133364602D01*
X136746291Y-133459840D01*
X136826218Y-133549974D01*
X136854105Y-133654052D01*
X136849002Y-133739083D01*
X136805803Y-133890096D01*
X136748660Y-133989070D01*
X136639478Y-134101989D01*
X136568391Y-134148924D01*
X136464313Y-134176811D01*
X136346291Y-134152660D01*
X136181334Y-134057422D01*
X136671102Y-134428167D02*
X137198965Y-134732929D01*
X137764923Y-134971708D02*
X137369026Y-134743136D01*
X137566974Y-134857422D02*
X137966974Y-134164602D01*
X137843849Y-134225481D01*
X137739771Y-134253368D01*
X137654740Y-134248265D01*
X138593812Y-134526506D02*
X138659795Y-134564602D01*
X138706730Y-134635688D01*
X138720674Y-134687727D01*
X138715570Y-134772758D01*
X138672371Y-134923771D01*
X138577133Y-135088729D01*
X138467951Y-135201647D01*
X138396864Y-135248582D01*
X138344825Y-135262526D01*
X138259795Y-135257422D01*
X138193812Y-135219327D01*
X138146877Y-135148240D01*
X138132933Y-135096201D01*
X138138037Y-135011170D01*
X138181236Y-134860157D01*
X138276474Y-134695200D01*
X138385656Y-134582282D01*
X138456742Y-134535346D01*
X138508781Y-134521403D01*
X138593812Y-134526506D01*
X60207737Y-30740238D02*
X59407737Y-30740238D01*
X59407737Y-30549761D01*
X59445833Y-30435476D01*
X59522023Y-30359285D01*
X59598213Y-30321190D01*
X59750594Y-30283095D01*
X59864880Y-30283095D01*
X60017261Y-30321190D01*
X60093452Y-30359285D01*
X60169642Y-30435476D01*
X60207737Y-30549761D01*
X60207737Y-30740238D01*
X60283928Y-30130714D02*
X60283928Y-29521190D01*
X60207737Y-28911666D02*
X60207737Y-29368809D01*
X60207737Y-29140238D02*
X59407737Y-29140238D01*
X59522023Y-29216428D01*
X59598213Y-29292619D01*
X59636309Y-29368809D01*
X161036904Y-49599738D02*
X160236904Y-49599738D01*
X160236904Y-49409261D01*
X160275000Y-49294976D01*
X160351190Y-49218785D01*
X160427380Y-49180690D01*
X160579761Y-49142595D01*
X160694047Y-49142595D01*
X160846428Y-49180690D01*
X160922619Y-49218785D01*
X160998809Y-49294976D01*
X161036904Y-49409261D01*
X161036904Y-49599738D01*
X161113095Y-48990214D02*
X161113095Y-48380690D01*
X160236904Y-48266404D02*
X160236904Y-47733071D01*
X161036904Y-48075928D01*
X169926904Y-87890238D02*
X169126904Y-87890238D01*
X169126904Y-87699761D01*
X169165000Y-87585476D01*
X169241190Y-87509285D01*
X169317380Y-87471190D01*
X169469761Y-87433095D01*
X169584047Y-87433095D01*
X169736428Y-87471190D01*
X169812619Y-87509285D01*
X169888809Y-87585476D01*
X169926904Y-87699761D01*
X169926904Y-87890238D01*
X170003095Y-87280714D02*
X170003095Y-86671190D01*
X169926904Y-86442619D02*
X169926904Y-86290238D01*
X169888809Y-86214047D01*
X169850714Y-86175952D01*
X169736428Y-86099761D01*
X169584047Y-86061666D01*
X169279285Y-86061666D01*
X169203095Y-86099761D01*
X169165000Y-86137857D01*
X169126904Y-86214047D01*
X169126904Y-86366428D01*
X169165000Y-86442619D01*
X169203095Y-86480714D01*
X169279285Y-86518809D01*
X169469761Y-86518809D01*
X169545952Y-86480714D01*
X169584047Y-86442619D01*
X169622142Y-86366428D01*
X169622142Y-86214047D01*
X169584047Y-86137857D01*
X169545952Y-86099761D01*
X169469761Y-86061666D01*
X136951069Y-30740238D02*
X136151069Y-30740238D01*
X136151069Y-30549761D01*
X136189165Y-30435476D01*
X136265355Y-30359285D01*
X136341545Y-30321190D01*
X136493926Y-30283095D01*
X136608212Y-30283095D01*
X136760593Y-30321190D01*
X136836784Y-30359285D01*
X136912974Y-30435476D01*
X136951069Y-30549761D01*
X136951069Y-30740238D01*
X137027260Y-30130714D02*
X137027260Y-29521190D01*
X136151069Y-28949761D02*
X136151069Y-29330714D01*
X136532022Y-29368809D01*
X136493926Y-29330714D01*
X136455831Y-29254523D01*
X136455831Y-29064047D01*
X136493926Y-28987857D01*
X136532022Y-28949761D01*
X136608212Y-28911666D01*
X136798688Y-28911666D01*
X136874879Y-28949761D01*
X136912974Y-28987857D01*
X136951069Y-29064047D01*
X136951069Y-29254523D01*
X136912974Y-29330714D01*
X136874879Y-29368809D01*
X164066569Y-148130338D02*
X163373748Y-147730338D01*
X163468986Y-147565381D01*
X163559121Y-147485454D01*
X163663199Y-147457566D01*
X163748229Y-147462670D01*
X163899243Y-147505869D01*
X163998217Y-147563012D01*
X164111135Y-147672194D01*
X164158070Y-147743281D01*
X164185958Y-147847359D01*
X164161807Y-147965381D01*
X164066569Y-148130338D01*
X164437313Y-147640570D02*
X164742075Y-147112707D01*
X164541758Y-146469190D02*
X164408425Y-146700131D01*
X164771331Y-146909654D02*
X164078510Y-146509654D01*
X164268986Y-146179740D01*
X164592796Y-145618885D02*
X164516605Y-145750851D01*
X164511502Y-145835882D01*
X164525445Y-145887921D01*
X164586325Y-146011046D01*
X164699243Y-146120228D01*
X164963174Y-146272609D01*
X165048205Y-146277713D01*
X165100244Y-146263769D01*
X165171331Y-146216834D01*
X165247521Y-146084868D01*
X165252625Y-145999838D01*
X165238681Y-145947799D01*
X165191746Y-145876712D01*
X165026788Y-145781474D01*
X164941758Y-145776370D01*
X164889719Y-145790314D01*
X164818632Y-145837249D01*
X164742442Y-145969215D01*
X164737338Y-146054246D01*
X164751282Y-146106285D01*
X164798217Y-146177371D01*
X112776904Y-88290238D02*
X111976904Y-88290238D01*
X111976904Y-88099761D01*
X112015000Y-87985476D01*
X112091190Y-87909285D01*
X112167380Y-87871190D01*
X112319761Y-87833095D01*
X112434047Y-87833095D01*
X112586428Y-87871190D01*
X112662619Y-87909285D01*
X112738809Y-87985476D01*
X112776904Y-88099761D01*
X112776904Y-88290238D01*
X112853095Y-87680714D02*
X112853095Y-87071190D01*
X112700714Y-86423571D02*
X112738809Y-86461666D01*
X112776904Y-86575952D01*
X112776904Y-86652142D01*
X112738809Y-86766428D01*
X112662619Y-86842619D01*
X112586428Y-86880714D01*
X112434047Y-86918809D01*
X112319761Y-86918809D01*
X112167380Y-86880714D01*
X112091190Y-86842619D01*
X112015000Y-86766428D01*
X111976904Y-86652142D01*
X111976904Y-86575952D01*
X112015000Y-86461666D01*
X112053095Y-86423571D01*
X112776904Y-85661666D02*
X112776904Y-86118809D01*
X112776904Y-85890238D02*
X111976904Y-85890238D01*
X112091190Y-85966428D01*
X112167380Y-86042619D01*
X112205476Y-86118809D01*
X184658904Y-70687857D02*
X183858904Y-70687857D01*
X183858904Y-70497380D01*
X183897000Y-70383095D01*
X183973190Y-70306904D01*
X184049380Y-70268809D01*
X184201761Y-70230714D01*
X184316047Y-70230714D01*
X184468428Y-70268809D01*
X184544619Y-70306904D01*
X184620809Y-70383095D01*
X184658904Y-70497380D01*
X184658904Y-70687857D01*
X184735095Y-70078333D02*
X184735095Y-69468809D01*
X184239857Y-69278333D02*
X184239857Y-69011666D01*
X184658904Y-68897380D02*
X184658904Y-69278333D01*
X183858904Y-69278333D01*
X183858904Y-68897380D01*
X184658904Y-68554523D02*
X183858904Y-68554523D01*
X184658904Y-68097380D01*
X183858904Y-68097380D01*
X183858904Y-67830714D02*
X183858904Y-67373571D01*
X184658904Y-67602142D02*
X183858904Y-67602142D01*
X184239857Y-67106904D02*
X184239857Y-66840238D01*
X184658904Y-66725952D02*
X184658904Y-67106904D01*
X183858904Y-67106904D01*
X183858904Y-66725952D01*
X184658904Y-65925952D02*
X184277952Y-66192619D01*
X184658904Y-66383095D02*
X183858904Y-66383095D01*
X183858904Y-66078333D01*
X183897000Y-66002142D01*
X183935095Y-65964047D01*
X184011285Y-65925952D01*
X184125571Y-65925952D01*
X184201761Y-65964047D01*
X184239857Y-66002142D01*
X184277952Y-66078333D01*
X184277952Y-66383095D01*
X184658904Y-65164047D02*
X184658904Y-65621190D01*
X184658904Y-65392619D02*
X183858904Y-65392619D01*
X183973190Y-65468809D01*
X184049380Y-65545000D01*
X184087476Y-65621190D01*
X122428904Y-49999738D02*
X121628904Y-49999738D01*
X121628904Y-49809261D01*
X121667000Y-49694976D01*
X121743190Y-49618785D01*
X121819380Y-49580690D01*
X121971761Y-49542595D01*
X122086047Y-49542595D01*
X122238428Y-49580690D01*
X122314619Y-49618785D01*
X122390809Y-49694976D01*
X122428904Y-49809261D01*
X122428904Y-49999738D01*
X122505095Y-49390214D02*
X122505095Y-48780690D01*
X122428904Y-48133071D02*
X122047952Y-48399738D01*
X122428904Y-48590214D02*
X121628904Y-48590214D01*
X121628904Y-48285452D01*
X121667000Y-48209261D01*
X121705095Y-48171166D01*
X121781285Y-48133071D01*
X121895571Y-48133071D01*
X121971761Y-48171166D01*
X122009857Y-48209261D01*
X122047952Y-48285452D01*
X122047952Y-48590214D01*
X122428904Y-47371166D02*
X122428904Y-47828309D01*
X122428904Y-47599738D02*
X121628904Y-47599738D01*
X121743190Y-47675928D01*
X121819380Y-47752119D01*
X121857476Y-47828309D01*
X180721904Y-31521190D02*
X179921904Y-31521190D01*
X179921904Y-31330714D01*
X179960000Y-31216428D01*
X180036190Y-31140238D01*
X180112380Y-31102142D01*
X180264761Y-31064047D01*
X180379047Y-31064047D01*
X180531428Y-31102142D01*
X180607619Y-31140238D01*
X180683809Y-31216428D01*
X180721904Y-31330714D01*
X180721904Y-31521190D01*
X180798095Y-30911666D02*
X180798095Y-30302142D01*
X180302857Y-29845000D02*
X180340952Y-29730714D01*
X180379047Y-29692619D01*
X180455238Y-29654523D01*
X180569523Y-29654523D01*
X180645714Y-29692619D01*
X180683809Y-29730714D01*
X180721904Y-29806904D01*
X180721904Y-30111666D01*
X179921904Y-30111666D01*
X179921904Y-29845000D01*
X179960000Y-29768809D01*
X179998095Y-29730714D01*
X180074285Y-29692619D01*
X180150476Y-29692619D01*
X180226666Y-29730714D01*
X180264761Y-29768809D01*
X180302857Y-29845000D01*
X180302857Y-30111666D01*
X180683809Y-29349761D02*
X180721904Y-29235476D01*
X180721904Y-29045000D01*
X180683809Y-28968809D01*
X180645714Y-28930714D01*
X180569523Y-28892619D01*
X180493333Y-28892619D01*
X180417142Y-28930714D01*
X180379047Y-28968809D01*
X180340952Y-29045000D01*
X180302857Y-29197380D01*
X180264761Y-29273571D01*
X180226666Y-29311666D01*
X180150476Y-29349761D01*
X180074285Y-29349761D01*
X179998095Y-29311666D01*
X179960000Y-29273571D01*
X179921904Y-29197380D01*
X179921904Y-29006904D01*
X179960000Y-28892619D01*
X180721904Y-28130714D02*
X180721904Y-28587857D01*
X180721904Y-28359285D02*
X179921904Y-28359285D01*
X180036190Y-28435476D01*
X180112380Y-28511666D01*
X180150476Y-28587857D01*
X135636904Y-107962380D02*
X134836904Y-107962380D01*
X134836904Y-107771904D01*
X134875000Y-107657619D01*
X134951190Y-107581428D01*
X135027380Y-107543333D01*
X135179761Y-107505238D01*
X135294047Y-107505238D01*
X135446428Y-107543333D01*
X135522619Y-107581428D01*
X135598809Y-107657619D01*
X135636904Y-107771904D01*
X135636904Y-107962380D01*
X135713095Y-107352857D02*
X135713095Y-106743333D01*
X135636904Y-106552857D02*
X134836904Y-106552857D01*
X135408333Y-106286190D01*
X134836904Y-106019523D01*
X135636904Y-106019523D01*
X135217857Y-105638571D02*
X135217857Y-105371904D01*
X135636904Y-105257619D02*
X135636904Y-105638571D01*
X134836904Y-105638571D01*
X134836904Y-105257619D01*
X135636904Y-104914761D02*
X134836904Y-104914761D01*
X135636904Y-104457619D01*
X134836904Y-104457619D01*
X134836904Y-104076666D02*
X135484523Y-104076666D01*
X135560714Y-104038571D01*
X135598809Y-104000476D01*
X135636904Y-103924285D01*
X135636904Y-103771904D01*
X135598809Y-103695714D01*
X135560714Y-103657619D01*
X135484523Y-103619523D01*
X134836904Y-103619523D01*
X135636904Y-102819523D02*
X135636904Y-103276666D01*
X135636904Y-103048095D02*
X134836904Y-103048095D01*
X134951190Y-103124285D01*
X135027380Y-103200476D01*
X135065476Y-103276666D01*
X189878448Y-141522852D02*
X189185627Y-141122852D01*
X189280865Y-140957895D01*
X189371000Y-140877968D01*
X189475078Y-140850080D01*
X189560108Y-140855184D01*
X189711122Y-140898383D01*
X189810096Y-140955526D01*
X189923014Y-141064708D01*
X189969949Y-141135795D01*
X189997837Y-141239873D01*
X189973686Y-141357895D01*
X189878448Y-141522852D01*
X190249192Y-141033084D02*
X190553954Y-140505221D01*
X190353637Y-139861704D02*
X190220304Y-140092645D01*
X190583210Y-140302168D02*
X189890389Y-139902168D01*
X190080865Y-139572254D01*
X190635615Y-139144733D02*
X191097495Y-139411399D01*
X190276445Y-139157309D02*
X190676079Y-139607981D01*
X190923698Y-139179092D01*
X33502083Y-90302380D02*
X33502083Y-89302380D01*
X34073511Y-90302380D02*
X33644940Y-89730952D01*
X34073511Y-89302380D02*
X33502083Y-89873809D01*
X34263988Y-90397619D02*
X35025892Y-90397619D01*
X35216369Y-90254761D02*
X35359226Y-90302380D01*
X35597321Y-90302380D01*
X35692559Y-90254761D01*
X35740178Y-90207142D01*
X35787797Y-90111904D01*
X35787797Y-90016666D01*
X35740178Y-89921428D01*
X35692559Y-89873809D01*
X35597321Y-89826190D01*
X35406845Y-89778571D01*
X35311607Y-89730952D01*
X35263988Y-89683333D01*
X35216369Y-89588095D01*
X35216369Y-89492857D01*
X35263988Y-89397619D01*
X35311607Y-89350000D01*
X35406845Y-89302380D01*
X35644940Y-89302380D01*
X35787797Y-89350000D01*
X36216369Y-90302380D02*
X36216369Y-89302380D01*
X36216369Y-89778571D02*
X36787797Y-89778571D01*
X36787797Y-90302380D02*
X36787797Y-89302380D01*
X37263988Y-90302380D02*
X37263988Y-89302380D01*
X38073511Y-89778571D02*
X37740178Y-89778571D01*
X37740178Y-90302380D02*
X37740178Y-89302380D01*
X38216369Y-89302380D01*
X38454464Y-89302380D02*
X39025892Y-89302380D01*
X38740178Y-90302380D02*
X38740178Y-89302380D01*
X39883035Y-90302380D02*
X39311607Y-90302380D01*
X39597321Y-90302380D02*
X39597321Y-89302380D01*
X39502083Y-89445238D01*
X39406845Y-89540476D01*
X39311607Y-89588095D01*
X199192543Y-125390366D02*
X198499722Y-124990366D01*
X198594960Y-124825409D01*
X198685095Y-124745482D01*
X198789173Y-124717594D01*
X198874203Y-124722698D01*
X199025217Y-124765897D01*
X199124191Y-124823040D01*
X199237109Y-124932222D01*
X199284044Y-125003309D01*
X199311932Y-125107387D01*
X199287781Y-125225409D01*
X199192543Y-125390366D01*
X199563287Y-124900598D02*
X199868049Y-124372735D01*
X199667732Y-123729218D02*
X199534399Y-123960159D01*
X199897305Y-124169682D02*
X199204484Y-123769682D01*
X199394960Y-123439768D01*
X199594277Y-123246923D02*
X199580333Y-123194884D01*
X199585437Y-123109854D01*
X199680675Y-122944896D01*
X199751761Y-122897961D01*
X199803800Y-122884017D01*
X199888831Y-122889121D01*
X199954814Y-122927216D01*
X200034741Y-123017351D01*
X200202066Y-123641819D01*
X200449685Y-123212931D01*
X98579403Y-30740238D02*
X97779403Y-30740238D01*
X97779403Y-30549761D01*
X97817499Y-30435476D01*
X97893689Y-30359285D01*
X97969879Y-30321190D01*
X98122260Y-30283095D01*
X98236546Y-30283095D01*
X98388927Y-30321190D01*
X98465118Y-30359285D01*
X98541308Y-30435476D01*
X98579403Y-30549761D01*
X98579403Y-30740238D01*
X98655594Y-30130714D02*
X98655594Y-29521190D01*
X97779403Y-29406904D02*
X97779403Y-28911666D01*
X98084165Y-29178333D01*
X98084165Y-29064047D01*
X98122260Y-28987857D01*
X98160356Y-28949761D01*
X98236546Y-28911666D01*
X98427022Y-28911666D01*
X98503213Y-28949761D01*
X98541308Y-28987857D01*
X98579403Y-29064047D01*
X98579403Y-29292619D01*
X98541308Y-29368809D01*
X98503213Y-29406904D01*
X171353928Y-71252380D02*
X171353928Y-70252380D01*
X171925357Y-71252380D02*
X171496785Y-70680952D01*
X171925357Y-70252380D02*
X171353928Y-70823809D01*
X172115833Y-71347619D02*
X172877738Y-71347619D01*
X173115833Y-70728571D02*
X173449166Y-70728571D01*
X173592023Y-71252380D02*
X173115833Y-71252380D01*
X173115833Y-70252380D01*
X173592023Y-70252380D01*
X174020595Y-71252380D02*
X174020595Y-70252380D01*
X174592023Y-71252380D01*
X174592023Y-70252380D01*
X174925357Y-70252380D02*
X175496785Y-70252380D01*
X175211071Y-71252380D02*
X175211071Y-70252380D01*
X175830119Y-70728571D02*
X176163452Y-70728571D01*
X176306309Y-71252380D02*
X175830119Y-71252380D01*
X175830119Y-70252380D01*
X176306309Y-70252380D01*
X177306309Y-71252380D02*
X176972976Y-70776190D01*
X176734880Y-71252380D02*
X176734880Y-70252380D01*
X177115833Y-70252380D01*
X177211071Y-70300000D01*
X177258690Y-70347619D01*
X177306309Y-70442857D01*
X177306309Y-70585714D01*
X177258690Y-70680952D01*
X177211071Y-70728571D01*
X177115833Y-70776190D01*
X176734880Y-70776190D01*
X178258690Y-71252380D02*
X177687261Y-71252380D01*
X177972976Y-71252380D02*
X177972976Y-70252380D01*
X177877738Y-70395238D01*
X177782500Y-70490476D01*
X177687261Y-70538095D01*
X182694759Y-115865366D02*
X182001938Y-115465366D01*
X182097176Y-115300409D01*
X182187311Y-115220482D01*
X182291389Y-115192594D01*
X182376419Y-115197698D01*
X182527433Y-115240897D01*
X182626407Y-115298040D01*
X182739325Y-115407222D01*
X182786260Y-115478309D01*
X182814148Y-115582387D01*
X182789997Y-115700409D01*
X182694759Y-115865366D01*
X183065503Y-115375598D02*
X183370265Y-114847735D01*
X183169948Y-114204218D02*
X183036615Y-114435159D01*
X183399521Y-114644682D02*
X182706700Y-114244682D01*
X182897176Y-113914768D01*
X183951901Y-113687931D02*
X183723330Y-114083828D01*
X183837616Y-113885879D02*
X183144795Y-113485879D01*
X183205675Y-113609005D01*
X183233562Y-113713083D01*
X183228458Y-113798114D01*
X156136904Y-30740238D02*
X155336904Y-30740238D01*
X155336904Y-30549761D01*
X155375000Y-30435476D01*
X155451190Y-30359285D01*
X155527380Y-30321190D01*
X155679761Y-30283095D01*
X155794047Y-30283095D01*
X155946428Y-30321190D01*
X156022619Y-30359285D01*
X156098809Y-30435476D01*
X156136904Y-30549761D01*
X156136904Y-30740238D01*
X156213095Y-30130714D02*
X156213095Y-29521190D01*
X155336904Y-28987857D02*
X155336904Y-29140238D01*
X155375000Y-29216428D01*
X155413095Y-29254523D01*
X155527380Y-29330714D01*
X155679761Y-29368809D01*
X155984523Y-29368809D01*
X156060714Y-29330714D01*
X156098809Y-29292619D01*
X156136904Y-29216428D01*
X156136904Y-29064047D01*
X156098809Y-28987857D01*
X156060714Y-28949761D01*
X155984523Y-28911666D01*
X155794047Y-28911666D01*
X155717857Y-28949761D01*
X155679761Y-28987857D01*
X155641666Y-29064047D01*
X155641666Y-29216428D01*
X155679761Y-29292619D01*
X155717857Y-29330714D01*
X155794047Y-29368809D01*
X79393570Y-30740238D02*
X78593570Y-30740238D01*
X78593570Y-30549761D01*
X78631666Y-30435476D01*
X78707856Y-30359285D01*
X78784046Y-30321190D01*
X78936427Y-30283095D01*
X79050713Y-30283095D01*
X79203094Y-30321190D01*
X79279285Y-30359285D01*
X79355475Y-30435476D01*
X79393570Y-30549761D01*
X79393570Y-30740238D01*
X79469761Y-30130714D02*
X79469761Y-29521190D01*
X78669761Y-29368809D02*
X78631666Y-29330714D01*
X78593570Y-29254523D01*
X78593570Y-29064047D01*
X78631666Y-28987857D01*
X78669761Y-28949761D01*
X78745951Y-28911666D01*
X78822142Y-28911666D01*
X78936427Y-28949761D01*
X79393570Y-29406904D01*
X79393570Y-28911666D01*
X126746904Y-69183095D02*
X125946904Y-69183095D01*
X125946904Y-68992619D01*
X125985000Y-68878333D01*
X126061190Y-68802142D01*
X126137380Y-68764047D01*
X126289761Y-68725952D01*
X126404047Y-68725952D01*
X126556428Y-68764047D01*
X126632619Y-68802142D01*
X126708809Y-68878333D01*
X126746904Y-68992619D01*
X126746904Y-69183095D01*
X126823095Y-68573571D02*
X126823095Y-67964047D01*
X126327857Y-67506904D02*
X126327857Y-67773571D01*
X126746904Y-67773571D02*
X125946904Y-67773571D01*
X125946904Y-67392619D01*
X125946904Y-66706904D02*
X125946904Y-67087857D01*
X126327857Y-67125952D01*
X126289761Y-67087857D01*
X126251666Y-67011666D01*
X126251666Y-66821190D01*
X126289761Y-66745000D01*
X126327857Y-66706904D01*
X126404047Y-66668809D01*
X126594523Y-66668809D01*
X126670714Y-66706904D01*
X126708809Y-66745000D01*
X126746904Y-66821190D01*
X126746904Y-67011666D01*
X126708809Y-67087857D01*
X126670714Y-67125952D01*
X164846904Y-68840238D02*
X164046904Y-68840238D01*
X164046904Y-68649761D01*
X164085000Y-68535476D01*
X164161190Y-68459285D01*
X164237380Y-68421190D01*
X164389761Y-68383095D01*
X164504047Y-68383095D01*
X164656428Y-68421190D01*
X164732619Y-68459285D01*
X164808809Y-68535476D01*
X164846904Y-68649761D01*
X164846904Y-68840238D01*
X164923095Y-68230714D02*
X164923095Y-67621190D01*
X164389761Y-67316428D02*
X164351666Y-67392619D01*
X164313571Y-67430714D01*
X164237380Y-67468809D01*
X164199285Y-67468809D01*
X164123095Y-67430714D01*
X164085000Y-67392619D01*
X164046904Y-67316428D01*
X164046904Y-67164047D01*
X164085000Y-67087857D01*
X164123095Y-67049761D01*
X164199285Y-67011666D01*
X164237380Y-67011666D01*
X164313571Y-67049761D01*
X164351666Y-67087857D01*
X164389761Y-67164047D01*
X164389761Y-67316428D01*
X164427857Y-67392619D01*
X164465952Y-67430714D01*
X164542142Y-67468809D01*
X164694523Y-67468809D01*
X164770714Y-67430714D01*
X164808809Y-67392619D01*
X164846904Y-67316428D01*
X164846904Y-67164047D01*
X164808809Y-67087857D01*
X164770714Y-67049761D01*
X164694523Y-67011666D01*
X164542142Y-67011666D01*
X164465952Y-67049761D01*
X164427857Y-67087857D01*
X164389761Y-67164047D01*
X117765236Y-30740238D02*
X116965236Y-30740238D01*
X116965236Y-30549761D01*
X117003332Y-30435476D01*
X117079522Y-30359285D01*
X117155712Y-30321190D01*
X117308093Y-30283095D01*
X117422379Y-30283095D01*
X117574760Y-30321190D01*
X117650951Y-30359285D01*
X117727141Y-30435476D01*
X117765236Y-30549761D01*
X117765236Y-30740238D01*
X117841427Y-30130714D02*
X117841427Y-29521190D01*
X117231903Y-28987857D02*
X117765236Y-28987857D01*
X116927141Y-29178333D02*
X117498570Y-29368809D01*
X117498570Y-28873571D01*
X64516904Y-50018785D02*
X63716904Y-50018785D01*
X63716904Y-49828309D01*
X63755000Y-49714023D01*
X63831190Y-49637833D01*
X63907380Y-49599738D01*
X64059761Y-49561642D01*
X64174047Y-49561642D01*
X64326428Y-49599738D01*
X64402619Y-49637833D01*
X64478809Y-49714023D01*
X64516904Y-49828309D01*
X64516904Y-50018785D01*
X64593095Y-49409261D02*
X64593095Y-48799738D01*
X64593095Y-48075928D02*
X64555000Y-48152119D01*
X64478809Y-48228309D01*
X64364523Y-48342595D01*
X64326428Y-48418785D01*
X64326428Y-48494976D01*
X64516904Y-48456880D02*
X64478809Y-48533071D01*
X64402619Y-48609261D01*
X64250238Y-48647357D01*
X63983571Y-48647357D01*
X63831190Y-48609261D01*
X63755000Y-48533071D01*
X63716904Y-48456880D01*
X63716904Y-48304500D01*
X63755000Y-48228309D01*
X63831190Y-48152119D01*
X63983571Y-48114023D01*
X64250238Y-48114023D01*
X64402619Y-48152119D01*
X64478809Y-48228309D01*
X64516904Y-48304500D01*
X64516904Y-48456880D01*
X64516904Y-47352119D02*
X64516904Y-47809261D01*
X64516904Y-47580690D02*
X63716904Y-47580690D01*
X63831190Y-47656880D01*
X63907380Y-47733071D01*
X63945476Y-47809261D01*
X40386904Y-107067142D02*
X39586904Y-107067142D01*
X39586904Y-106876666D01*
X39625000Y-106762380D01*
X39701190Y-106686190D01*
X39777380Y-106648095D01*
X39929761Y-106610000D01*
X40044047Y-106610000D01*
X40196428Y-106648095D01*
X40272619Y-106686190D01*
X40348809Y-106762380D01*
X40386904Y-106876666D01*
X40386904Y-107067142D01*
X40463095Y-106457619D02*
X40463095Y-105848095D01*
X39967857Y-105390952D02*
X39967857Y-105657619D01*
X40386904Y-105657619D02*
X39586904Y-105657619D01*
X39586904Y-105276666D01*
X40386904Y-104971904D02*
X39586904Y-104971904D01*
X40386904Y-104514761D01*
X39586904Y-104514761D01*
X40386904Y-103714761D02*
X40386904Y-104171904D01*
X40386904Y-103943333D02*
X39586904Y-103943333D01*
X39701190Y-104019523D01*
X39777380Y-104095714D01*
X39815476Y-104171904D01*
X145796904Y-69240238D02*
X144996904Y-69240238D01*
X144996904Y-69049761D01*
X145035000Y-68935476D01*
X145111190Y-68859285D01*
X145187380Y-68821190D01*
X145339761Y-68783095D01*
X145454047Y-68783095D01*
X145606428Y-68821190D01*
X145682619Y-68859285D01*
X145758809Y-68935476D01*
X145796904Y-69049761D01*
X145796904Y-69240238D01*
X145873095Y-68630714D02*
X145873095Y-68021190D01*
X145035000Y-67411666D02*
X144996904Y-67487857D01*
X144996904Y-67602142D01*
X145035000Y-67716428D01*
X145111190Y-67792619D01*
X145187380Y-67830714D01*
X145339761Y-67868809D01*
X145454047Y-67868809D01*
X145606428Y-67830714D01*
X145682619Y-67792619D01*
X145758809Y-67716428D01*
X145796904Y-67602142D01*
X145796904Y-67525952D01*
X145758809Y-67411666D01*
X145720714Y-67373571D01*
X145454047Y-67373571D01*
X145454047Y-67525952D01*
X145796904Y-66611666D02*
X145796904Y-67068809D01*
X145796904Y-66840238D02*
X144996904Y-66840238D01*
X145111190Y-66916428D01*
X145187380Y-66992619D01*
X145225476Y-67068809D01*
X41021904Y-31883095D02*
X40221904Y-31883095D01*
X40221904Y-31692619D01*
X40260000Y-31578333D01*
X40336190Y-31502142D01*
X40412380Y-31464047D01*
X40564761Y-31425952D01*
X40679047Y-31425952D01*
X40831428Y-31464047D01*
X40907619Y-31502142D01*
X40983809Y-31578333D01*
X41021904Y-31692619D01*
X41021904Y-31883095D01*
X41098095Y-31273571D02*
X41098095Y-30664047D01*
X40602857Y-30473571D02*
X40602857Y-30206904D01*
X41021904Y-30092619D02*
X41021904Y-30473571D01*
X40221904Y-30473571D01*
X40221904Y-30092619D01*
X40983809Y-29787857D02*
X41021904Y-29673571D01*
X41021904Y-29483095D01*
X40983809Y-29406904D01*
X40945714Y-29368809D01*
X40869523Y-29330714D01*
X40793333Y-29330714D01*
X40717142Y-29368809D01*
X40679047Y-29406904D01*
X40640952Y-29483095D01*
X40602857Y-29635476D01*
X40564761Y-29711666D01*
X40526666Y-29749761D01*
X40450476Y-29787857D01*
X40374285Y-29787857D01*
X40298095Y-29749761D01*
X40260000Y-29711666D01*
X40221904Y-29635476D01*
X40221904Y-29445000D01*
X40260000Y-29330714D01*
X40945714Y-28530714D02*
X40983809Y-28568809D01*
X41021904Y-28683095D01*
X41021904Y-28759285D01*
X40983809Y-28873571D01*
X40907619Y-28949761D01*
X40831428Y-28987857D01*
X40679047Y-29025952D01*
X40564761Y-29025952D01*
X40412380Y-28987857D01*
X40336190Y-28949761D01*
X40260000Y-28873571D01*
X40221904Y-28759285D01*
X40221904Y-28683095D01*
X40260000Y-28568809D01*
X40298095Y-28530714D01*
X41021904Y-27768809D02*
X41021904Y-28225952D01*
X41021904Y-27997380D02*
X40221904Y-27997380D01*
X40336190Y-28073571D01*
X40412380Y-28149761D01*
X40450476Y-28225952D01*
X103124904Y-49961642D02*
X102324904Y-49961642D01*
X102324904Y-49771166D01*
X102363000Y-49656880D01*
X102439190Y-49580690D01*
X102515380Y-49542595D01*
X102667761Y-49504500D01*
X102782047Y-49504500D01*
X102934428Y-49542595D01*
X103010619Y-49580690D01*
X103086809Y-49656880D01*
X103124904Y-49771166D01*
X103124904Y-49961642D01*
X103201095Y-49352119D02*
X103201095Y-48742595D01*
X102705857Y-48552119D02*
X102705857Y-48285452D01*
X103124904Y-48171166D02*
X103124904Y-48552119D01*
X102324904Y-48552119D01*
X102324904Y-48171166D01*
X103124904Y-47409261D02*
X103124904Y-47866404D01*
X103124904Y-47637833D02*
X102324904Y-47637833D01*
X102439190Y-47714023D01*
X102515380Y-47790214D01*
X102553476Y-47866404D01*
X182817404Y-50685452D02*
X182017404Y-50685452D01*
X182017404Y-50494976D01*
X182055500Y-50380690D01*
X182131690Y-50304500D01*
X182207880Y-50266404D01*
X182360261Y-50228309D01*
X182474547Y-50228309D01*
X182626928Y-50266404D01*
X182703119Y-50304500D01*
X182779309Y-50380690D01*
X182817404Y-50494976D01*
X182817404Y-50685452D01*
X182893595Y-50075928D02*
X182893595Y-49466404D01*
X182817404Y-49275928D02*
X182017404Y-49275928D01*
X182017404Y-49085452D01*
X182055500Y-48971166D01*
X182131690Y-48894976D01*
X182207880Y-48856880D01*
X182360261Y-48818785D01*
X182474547Y-48818785D01*
X182626928Y-48856880D01*
X182703119Y-48894976D01*
X182779309Y-48971166D01*
X182817404Y-49085452D01*
X182817404Y-49275928D01*
X182398357Y-48475928D02*
X182398357Y-48209261D01*
X182817404Y-48094976D02*
X182817404Y-48475928D01*
X182017404Y-48475928D01*
X182017404Y-48094976D01*
X182817404Y-47371166D02*
X182817404Y-47752119D01*
X182017404Y-47752119D01*
X182817404Y-46685452D02*
X182817404Y-47142595D01*
X182817404Y-46914023D02*
X182017404Y-46914023D01*
X182131690Y-46990214D01*
X182207880Y-47066404D01*
X182245976Y-47142595D01*
X46101904Y-71525952D02*
X45301904Y-71525952D01*
X45301904Y-71335476D01*
X45340000Y-71221190D01*
X45416190Y-71145000D01*
X45492380Y-71106904D01*
X45644761Y-71068809D01*
X45759047Y-71068809D01*
X45911428Y-71106904D01*
X45987619Y-71145000D01*
X46063809Y-71221190D01*
X46101904Y-71335476D01*
X46101904Y-71525952D01*
X46178095Y-70916428D02*
X46178095Y-70306904D01*
X46025714Y-69659285D02*
X46063809Y-69697380D01*
X46101904Y-69811666D01*
X46101904Y-69887857D01*
X46063809Y-70002142D01*
X45987619Y-70078333D01*
X45911428Y-70116428D01*
X45759047Y-70154523D01*
X45644761Y-70154523D01*
X45492380Y-70116428D01*
X45416190Y-70078333D01*
X45340000Y-70002142D01*
X45301904Y-69887857D01*
X45301904Y-69811666D01*
X45340000Y-69697380D01*
X45378095Y-69659285D01*
X45301904Y-69164047D02*
X45301904Y-69011666D01*
X45340000Y-68935476D01*
X45416190Y-68859285D01*
X45568571Y-68821190D01*
X45835238Y-68821190D01*
X45987619Y-68859285D01*
X46063809Y-68935476D01*
X46101904Y-69011666D01*
X46101904Y-69164047D01*
X46063809Y-69240238D01*
X45987619Y-69316428D01*
X45835238Y-69354523D01*
X45568571Y-69354523D01*
X45416190Y-69316428D01*
X45340000Y-69240238D01*
X45301904Y-69164047D01*
X46101904Y-68478333D02*
X45301904Y-68478333D01*
X46101904Y-68021190D01*
X45301904Y-68021190D01*
X45301904Y-67754523D02*
X45301904Y-67297380D01*
X46101904Y-67525952D02*
X45301904Y-67525952D01*
X46101904Y-66573571D02*
X45720952Y-66840238D01*
X46101904Y-67030714D02*
X45301904Y-67030714D01*
X45301904Y-66725952D01*
X45340000Y-66649761D01*
X45378095Y-66611666D01*
X45454285Y-66573571D01*
X45568571Y-66573571D01*
X45644761Y-66611666D01*
X45682857Y-66649761D01*
X45720952Y-66725952D01*
X45720952Y-67030714D01*
X45301904Y-66078333D02*
X45301904Y-65925952D01*
X45340000Y-65849761D01*
X45416190Y-65773571D01*
X45568571Y-65735476D01*
X45835238Y-65735476D01*
X45987619Y-65773571D01*
X46063809Y-65849761D01*
X46101904Y-65925952D01*
X46101904Y-66078333D01*
X46063809Y-66154523D01*
X45987619Y-66230714D01*
X45835238Y-66268809D01*
X45568571Y-66268809D01*
X45416190Y-66230714D01*
X45340000Y-66154523D01*
X45301904Y-66078333D01*
X46101904Y-65011666D02*
X46101904Y-65392619D01*
X45301904Y-65392619D01*
X46101904Y-64325952D02*
X46101904Y-64783095D01*
X46101904Y-64554523D02*
X45301904Y-64554523D01*
X45416190Y-64630714D01*
X45492380Y-64706904D01*
X45530476Y-64783095D01*
X78486904Y-107771904D02*
X77686904Y-107771904D01*
X77686904Y-107581428D01*
X77725000Y-107467142D01*
X77801190Y-107390952D01*
X77877380Y-107352857D01*
X78029761Y-107314761D01*
X78144047Y-107314761D01*
X78296428Y-107352857D01*
X78372619Y-107390952D01*
X78448809Y-107467142D01*
X78486904Y-107581428D01*
X78486904Y-107771904D01*
X78563095Y-107162380D02*
X78563095Y-106552857D01*
X78486904Y-106362380D02*
X77686904Y-106362380D01*
X78258333Y-106095714D01*
X77686904Y-105829047D01*
X78486904Y-105829047D01*
X78067857Y-105448095D02*
X78067857Y-105181428D01*
X78486904Y-105067142D02*
X78486904Y-105448095D01*
X77686904Y-105448095D01*
X77686904Y-105067142D01*
X77686904Y-104838571D02*
X77686904Y-104381428D01*
X78486904Y-104610000D02*
X77686904Y-104610000D01*
X78258333Y-104152857D02*
X78258333Y-103771904D01*
X78486904Y-104229047D02*
X77686904Y-103962380D01*
X78486904Y-103695714D01*
X78486904Y-103010000D02*
X78486904Y-103467142D01*
X78486904Y-103238571D02*
X77686904Y-103238571D01*
X77801190Y-103314761D01*
X77877380Y-103390952D01*
X77915476Y-103467142D01*
X107696904Y-69240238D02*
X106896904Y-69240238D01*
X106896904Y-69049761D01*
X106935000Y-68935476D01*
X107011190Y-68859285D01*
X107087380Y-68821190D01*
X107239761Y-68783095D01*
X107354047Y-68783095D01*
X107506428Y-68821190D01*
X107582619Y-68859285D01*
X107658809Y-68935476D01*
X107696904Y-69049761D01*
X107696904Y-69240238D01*
X107773095Y-68630714D02*
X107773095Y-68021190D01*
X107696904Y-67830714D02*
X106896904Y-67830714D01*
X106896904Y-67640238D01*
X106935000Y-67525952D01*
X107011190Y-67449761D01*
X107087380Y-67411666D01*
X107239761Y-67373571D01*
X107354047Y-67373571D01*
X107506428Y-67411666D01*
X107582619Y-67449761D01*
X107658809Y-67525952D01*
X107696904Y-67640238D01*
X107696904Y-67830714D01*
X107696904Y-66611666D02*
X107696904Y-67068809D01*
X107696904Y-66840238D02*
X106896904Y-66840238D01*
X107011190Y-66916428D01*
X107087380Y-66992619D01*
X107125476Y-67068809D01*
X69596904Y-69183095D02*
X68796904Y-69183095D01*
X68796904Y-68992619D01*
X68835000Y-68878333D01*
X68911190Y-68802142D01*
X68987380Y-68764047D01*
X69139761Y-68725952D01*
X69254047Y-68725952D01*
X69406428Y-68764047D01*
X69482619Y-68802142D01*
X69558809Y-68878333D01*
X69596904Y-68992619D01*
X69596904Y-69183095D01*
X69673095Y-68573571D02*
X69673095Y-67964047D01*
X69368333Y-67811666D02*
X69368333Y-67430714D01*
X69596904Y-67887857D02*
X68796904Y-67621190D01*
X69596904Y-67354523D01*
X69596904Y-66668809D02*
X69596904Y-67125952D01*
X69596904Y-66897380D02*
X68796904Y-66897380D01*
X68911190Y-66973571D01*
X68987380Y-67049761D01*
X69025476Y-67125952D01*
X59436904Y-107276666D02*
X58636904Y-107276666D01*
X58636904Y-107086190D01*
X58675000Y-106971904D01*
X58751190Y-106895714D01*
X58827380Y-106857619D01*
X58979761Y-106819523D01*
X59094047Y-106819523D01*
X59246428Y-106857619D01*
X59322619Y-106895714D01*
X59398809Y-106971904D01*
X59436904Y-107086190D01*
X59436904Y-107276666D01*
X59513095Y-106667142D02*
X59513095Y-106057619D01*
X59208333Y-105905238D02*
X59208333Y-105524285D01*
X59436904Y-105981428D02*
X58636904Y-105714761D01*
X59436904Y-105448095D01*
X59436904Y-104800476D02*
X59436904Y-105181428D01*
X58636904Y-105181428D01*
X58636904Y-104648095D02*
X58636904Y-104190952D01*
X59436904Y-104419523D02*
X58636904Y-104419523D01*
X59436904Y-103505238D02*
X59436904Y-103962380D01*
X59436904Y-103733809D02*
X58636904Y-103733809D01*
X58751190Y-103810000D01*
X58827380Y-103886190D01*
X58865476Y-103962380D01*
X150876904Y-88290238D02*
X150076904Y-88290238D01*
X150076904Y-88099761D01*
X150115000Y-87985476D01*
X150191190Y-87909285D01*
X150267380Y-87871190D01*
X150419761Y-87833095D01*
X150534047Y-87833095D01*
X150686428Y-87871190D01*
X150762619Y-87909285D01*
X150838809Y-87985476D01*
X150876904Y-88099761D01*
X150876904Y-88290238D01*
X150953095Y-87680714D02*
X150953095Y-87071190D01*
X150457857Y-86614047D02*
X150495952Y-86499761D01*
X150534047Y-86461666D01*
X150610238Y-86423571D01*
X150724523Y-86423571D01*
X150800714Y-86461666D01*
X150838809Y-86499761D01*
X150876904Y-86575952D01*
X150876904Y-86880714D01*
X150076904Y-86880714D01*
X150076904Y-86614047D01*
X150115000Y-86537857D01*
X150153095Y-86499761D01*
X150229285Y-86461666D01*
X150305476Y-86461666D01*
X150381666Y-86499761D01*
X150419761Y-86537857D01*
X150457857Y-86614047D01*
X150457857Y-86880714D01*
X150876904Y-85661666D02*
X150876904Y-86118809D01*
X150876904Y-85890238D02*
X150076904Y-85890238D01*
X150191190Y-85966428D01*
X150267380Y-86042619D01*
X150305476Y-86118809D01*
X74676904Y-88271190D02*
X73876904Y-88271190D01*
X73876904Y-88080714D01*
X73915000Y-87966428D01*
X73991190Y-87890238D01*
X74067380Y-87852142D01*
X74219761Y-87814047D01*
X74334047Y-87814047D01*
X74486428Y-87852142D01*
X74562619Y-87890238D01*
X74638809Y-87966428D01*
X74676904Y-88080714D01*
X74676904Y-88271190D01*
X74753095Y-87661666D02*
X74753095Y-87052142D01*
X73876904Y-86937857D02*
X73876904Y-86404523D01*
X74676904Y-86937857D01*
X74676904Y-86404523D01*
X74676904Y-85680714D02*
X74676904Y-86137857D01*
X74676904Y-85909285D02*
X73876904Y-85909285D01*
X73991190Y-85985476D01*
X74067380Y-86061666D01*
X74105476Y-86137857D01*
X48006904Y-89528333D02*
X47206904Y-89528333D01*
X47206904Y-89337857D01*
X47245000Y-89223571D01*
X47321190Y-89147380D01*
X47397380Y-89109285D01*
X47549761Y-89071190D01*
X47664047Y-89071190D01*
X47816428Y-89109285D01*
X47892619Y-89147380D01*
X47968809Y-89223571D01*
X48006904Y-89337857D01*
X48006904Y-89528333D01*
X48083095Y-88918809D02*
X48083095Y-88309285D01*
X47968809Y-88156904D02*
X48006904Y-88042619D01*
X48006904Y-87852142D01*
X47968809Y-87775952D01*
X47930714Y-87737857D01*
X47854523Y-87699761D01*
X47778333Y-87699761D01*
X47702142Y-87737857D01*
X47664047Y-87775952D01*
X47625952Y-87852142D01*
X47587857Y-88004523D01*
X47549761Y-88080714D01*
X47511666Y-88118809D01*
X47435476Y-88156904D01*
X47359285Y-88156904D01*
X47283095Y-88118809D01*
X47245000Y-88080714D01*
X47206904Y-88004523D01*
X47206904Y-87814047D01*
X47245000Y-87699761D01*
X48006904Y-87356904D02*
X47206904Y-87356904D01*
X47587857Y-87356904D02*
X47587857Y-86899761D01*
X48006904Y-86899761D02*
X47206904Y-86899761D01*
X48006904Y-86518809D02*
X47206904Y-86518809D01*
X47587857Y-85871190D02*
X47587857Y-86137857D01*
X48006904Y-86137857D02*
X47206904Y-86137857D01*
X47206904Y-85756904D01*
X47206904Y-85566428D02*
X47206904Y-85109285D01*
X48006904Y-85337857D02*
X47206904Y-85337857D01*
X48006904Y-84423571D02*
X48006904Y-84880714D01*
X48006904Y-84652142D02*
X47206904Y-84652142D01*
X47321190Y-84728333D01*
X47397380Y-84804523D01*
X47435476Y-84880714D01*
X116586904Y-107124285D02*
X115786904Y-107124285D01*
X115786904Y-106933809D01*
X115825000Y-106819523D01*
X115901190Y-106743333D01*
X115977380Y-106705238D01*
X116129761Y-106667142D01*
X116244047Y-106667142D01*
X116396428Y-106705238D01*
X116472619Y-106743333D01*
X116548809Y-106819523D01*
X116586904Y-106933809D01*
X116586904Y-107124285D01*
X116663095Y-106514761D02*
X116663095Y-105905238D01*
X116663095Y-105181428D02*
X116625000Y-105257619D01*
X116548809Y-105333809D01*
X116434523Y-105448095D01*
X116396428Y-105524285D01*
X116396428Y-105600476D01*
X116586904Y-105562380D02*
X116548809Y-105638571D01*
X116472619Y-105714761D01*
X116320238Y-105752857D01*
X116053571Y-105752857D01*
X115901190Y-105714761D01*
X115825000Y-105638571D01*
X115786904Y-105562380D01*
X115786904Y-105410000D01*
X115825000Y-105333809D01*
X115901190Y-105257619D01*
X116053571Y-105219523D01*
X116320238Y-105219523D01*
X116472619Y-105257619D01*
X116548809Y-105333809D01*
X116586904Y-105410000D01*
X116586904Y-105562380D01*
X116167857Y-104610000D02*
X116205952Y-104495714D01*
X116244047Y-104457619D01*
X116320238Y-104419523D01*
X116434523Y-104419523D01*
X116510714Y-104457619D01*
X116548809Y-104495714D01*
X116586904Y-104571904D01*
X116586904Y-104876666D01*
X115786904Y-104876666D01*
X115786904Y-104610000D01*
X115825000Y-104533809D01*
X115863095Y-104495714D01*
X115939285Y-104457619D01*
X116015476Y-104457619D01*
X116091666Y-104495714D01*
X116129761Y-104533809D01*
X116167857Y-104610000D01*
X116167857Y-104876666D01*
X116586904Y-103657619D02*
X116586904Y-104114761D01*
X116586904Y-103886190D02*
X115786904Y-103886190D01*
X115901190Y-103962380D01*
X115977380Y-104038571D01*
X116015476Y-104114761D01*
X44196904Y-50647357D02*
X43396904Y-50647357D01*
X43396904Y-50456880D01*
X43435000Y-50342595D01*
X43511190Y-50266404D01*
X43587380Y-50228309D01*
X43739761Y-50190214D01*
X43854047Y-50190214D01*
X44006428Y-50228309D01*
X44082619Y-50266404D01*
X44158809Y-50342595D01*
X44196904Y-50456880D01*
X44196904Y-50647357D01*
X44273095Y-50037833D02*
X44273095Y-49428309D01*
X43396904Y-49352119D02*
X43396904Y-48894976D01*
X44196904Y-49123547D02*
X43396904Y-49123547D01*
X43968333Y-48666404D02*
X43968333Y-48285452D01*
X44196904Y-48742595D02*
X43396904Y-48475928D01*
X44196904Y-48209261D01*
X43777857Y-47675928D02*
X43815952Y-47561642D01*
X43854047Y-47523547D01*
X43930238Y-47485452D01*
X44044523Y-47485452D01*
X44120714Y-47523547D01*
X44158809Y-47561642D01*
X44196904Y-47637833D01*
X44196904Y-47942595D01*
X43396904Y-47942595D01*
X43396904Y-47675928D01*
X43435000Y-47599738D01*
X43473095Y-47561642D01*
X43549285Y-47523547D01*
X43625476Y-47523547D01*
X43701666Y-47561642D01*
X43739761Y-47599738D01*
X43777857Y-47675928D01*
X43777857Y-47942595D01*
X44196904Y-46723547D02*
X44196904Y-47180690D01*
X44196904Y-46952119D02*
X43396904Y-46952119D01*
X43511190Y-47028309D01*
X43587380Y-47104500D01*
X43625476Y-47180690D01*
X131826904Y-88233095D02*
X131026904Y-88233095D01*
X131026904Y-88042619D01*
X131065000Y-87928333D01*
X131141190Y-87852142D01*
X131217380Y-87814047D01*
X131369761Y-87775952D01*
X131484047Y-87775952D01*
X131636428Y-87814047D01*
X131712619Y-87852142D01*
X131788809Y-87928333D01*
X131826904Y-88042619D01*
X131826904Y-88233095D01*
X131903095Y-87623571D02*
X131903095Y-87014047D01*
X131026904Y-86937857D02*
X131826904Y-86671190D01*
X131026904Y-86404523D01*
X131826904Y-85718809D02*
X131826904Y-86175952D01*
X131826904Y-85947380D02*
X131026904Y-85947380D01*
X131141190Y-86023571D01*
X131217380Y-86099761D01*
X131255476Y-86175952D01*
X83820904Y-50056880D02*
X83020904Y-50056880D01*
X83020904Y-49866404D01*
X83059000Y-49752119D01*
X83135190Y-49675928D01*
X83211380Y-49637833D01*
X83363761Y-49599738D01*
X83478047Y-49599738D01*
X83630428Y-49637833D01*
X83706619Y-49675928D01*
X83782809Y-49752119D01*
X83820904Y-49866404D01*
X83820904Y-50056880D01*
X83897095Y-49447357D02*
X83897095Y-48837833D01*
X83020904Y-48723547D02*
X83820904Y-48533071D01*
X83249476Y-48380690D01*
X83820904Y-48228309D01*
X83020904Y-48037833D01*
X83820904Y-47314023D02*
X83820904Y-47771166D01*
X83820904Y-47542595D02*
X83020904Y-47542595D01*
X83135190Y-47618785D01*
X83211380Y-47694976D01*
X83249476Y-47771166D01*
X93726904Y-88271190D02*
X92926904Y-88271190D01*
X92926904Y-88080714D01*
X92965000Y-87966428D01*
X93041190Y-87890238D01*
X93117380Y-87852142D01*
X93269761Y-87814047D01*
X93384047Y-87814047D01*
X93536428Y-87852142D01*
X93612619Y-87890238D01*
X93688809Y-87966428D01*
X93726904Y-88080714D01*
X93726904Y-88271190D01*
X93803095Y-87661666D02*
X93803095Y-87052142D01*
X92926904Y-86937857D02*
X93726904Y-86404523D01*
X92926904Y-86404523D02*
X93726904Y-86937857D01*
X93726904Y-85680714D02*
X93726904Y-86137857D01*
X93726904Y-85909285D02*
X92926904Y-85909285D01*
X93041190Y-85985476D01*
X93117380Y-86061666D01*
X93155476Y-86137857D01*
X138578551Y-126514198D02*
X137712525Y-126014198D01*
X138864265Y-126019327D02*
X138155108Y-126104766D01*
X137998240Y-125519327D02*
X138207397Y-126299913D01*
X139041982Y-125901988D02*
X139422934Y-125242160D01*
X139394454Y-125005774D02*
X139507122Y-124905865D01*
X139626170Y-124699669D01*
X139632549Y-124593381D01*
X139615120Y-124528332D01*
X139556451Y-124439474D01*
X139473972Y-124391854D01*
X139367684Y-124385475D01*
X139302635Y-124402904D01*
X139213777Y-124461574D01*
X139077299Y-124602721D01*
X138988441Y-124661390D01*
X138923392Y-124678820D01*
X138817104Y-124672440D01*
X138734625Y-124624821D01*
X138675956Y-124535963D01*
X138658526Y-124470914D01*
X138664906Y-124364626D01*
X138783954Y-124158430D01*
X138896622Y-124058521D01*
X139935694Y-124163558D02*
X139069668Y-123663558D01*
X139260144Y-123333643D01*
X139349003Y-123274974D01*
X139414051Y-123257545D01*
X139520340Y-123263924D01*
X139644058Y-123335353D01*
X139702727Y-123424211D01*
X139720156Y-123489260D01*
X139713777Y-123595548D01*
X139523300Y-123925463D01*
X140164448Y-123195915D02*
X140402543Y-122783522D01*
X140364265Y-123421250D02*
X139664906Y-122632575D01*
X140697598Y-122843900D01*
X141067501Y-122012734D02*
X141084930Y-122077783D01*
X141054741Y-122225311D01*
X141007122Y-122307789D01*
X140894454Y-122407698D01*
X140764357Y-122442557D01*
X140658068Y-122436177D01*
X140469302Y-122382179D01*
X140345584Y-122310750D01*
X140204436Y-122174273D01*
X140145767Y-122085414D01*
X140110907Y-121955317D01*
X140141097Y-121807789D01*
X140188716Y-121725311D01*
X140301384Y-121625402D01*
X140366432Y-121607972D01*
X140910633Y-121427295D02*
X141077299Y-121138620D01*
X141602360Y-121276807D02*
X141364265Y-121689200D01*
X140498240Y-121189200D01*
X140736335Y-120776807D01*
X142078551Y-120452020D02*
X141792836Y-120946892D01*
X141935694Y-120699456D02*
X141069668Y-120199456D01*
X141145767Y-120353363D01*
X141180627Y-120483461D01*
X141174247Y-120589749D01*
X97536904Y-106952857D02*
X96736904Y-106952857D01*
X96736904Y-106762380D01*
X96775000Y-106648095D01*
X96851190Y-106571904D01*
X96927380Y-106533809D01*
X97079761Y-106495714D01*
X97194047Y-106495714D01*
X97346428Y-106533809D01*
X97422619Y-106571904D01*
X97498809Y-106648095D01*
X97536904Y-106762380D01*
X97536904Y-106952857D01*
X97613095Y-106343333D02*
X97613095Y-105733809D01*
X96736904Y-105657619D02*
X96736904Y-105200476D01*
X97536904Y-105429047D02*
X96736904Y-105429047D01*
X97117857Y-104667142D02*
X97117857Y-104933809D01*
X97536904Y-104933809D02*
X96736904Y-104933809D01*
X96736904Y-104552857D01*
X97536904Y-103829047D02*
X97536904Y-104286190D01*
X97536904Y-104057619D02*
X96736904Y-104057619D01*
X96851190Y-104133809D01*
X96927380Y-104210000D01*
X96965476Y-104286190D01*
X141732904Y-49904500D02*
X140932904Y-49904500D01*
X140932904Y-49714023D01*
X140971000Y-49599738D01*
X141047190Y-49523547D01*
X141123380Y-49485452D01*
X141275761Y-49447357D01*
X141390047Y-49447357D01*
X141542428Y-49485452D01*
X141618619Y-49523547D01*
X141694809Y-49599738D01*
X141732904Y-49714023D01*
X141732904Y-49904500D01*
X141809095Y-49294976D02*
X141809095Y-48685452D01*
X140932904Y-48609261D02*
X140932904Y-48152119D01*
X141732904Y-48380690D02*
X140932904Y-48380690D01*
X141732904Y-47466404D02*
X141732904Y-47923547D01*
X141732904Y-47694976D02*
X140932904Y-47694976D01*
X141047190Y-47771166D01*
X141123380Y-47847357D01*
X141161476Y-47923547D01*
X88646904Y-69221190D02*
X87846904Y-69221190D01*
X87846904Y-69030714D01*
X87885000Y-68916428D01*
X87961190Y-68840238D01*
X88037380Y-68802142D01*
X88189761Y-68764047D01*
X88304047Y-68764047D01*
X88456428Y-68802142D01*
X88532619Y-68840238D01*
X88608809Y-68916428D01*
X88646904Y-69030714D01*
X88646904Y-69221190D01*
X88723095Y-68611666D02*
X88723095Y-68002142D01*
X88608809Y-67849761D02*
X88646904Y-67735476D01*
X88646904Y-67545000D01*
X88608809Y-67468809D01*
X88570714Y-67430714D01*
X88494523Y-67392619D01*
X88418333Y-67392619D01*
X88342142Y-67430714D01*
X88304047Y-67468809D01*
X88265952Y-67545000D01*
X88227857Y-67697380D01*
X88189761Y-67773571D01*
X88151666Y-67811666D01*
X88075476Y-67849761D01*
X87999285Y-67849761D01*
X87923095Y-67811666D01*
X87885000Y-67773571D01*
X87846904Y-67697380D01*
X87846904Y-67506904D01*
X87885000Y-67392619D01*
X88646904Y-66630714D02*
X88646904Y-67087857D01*
X88646904Y-66859285D02*
X87846904Y-66859285D01*
X87961190Y-66935476D01*
X88037380Y-67011666D01*
X88075476Y-67087857D01*
X173380664Y-131997852D02*
X172687843Y-131597852D01*
X172783081Y-131432895D01*
X172873216Y-131352968D01*
X172977294Y-131325080D01*
X173062324Y-131330184D01*
X173213338Y-131373383D01*
X173312312Y-131430526D01*
X173425230Y-131539708D01*
X173472165Y-131610795D01*
X173500053Y-131714873D01*
X173475902Y-131832895D01*
X173380664Y-131997852D01*
X173751408Y-131508084D02*
X174056170Y-130980221D01*
X173855853Y-130336704D02*
X173722520Y-130567645D01*
X174085426Y-130777168D02*
X173392605Y-130377168D01*
X173583081Y-130047254D01*
X173697367Y-129849305D02*
X173944986Y-129420417D01*
X174075584Y-129803738D01*
X174132727Y-129704763D01*
X174203814Y-129657828D01*
X174255853Y-129643884D01*
X174340883Y-129648988D01*
X174505841Y-129744226D01*
X174552776Y-129815313D01*
X174566720Y-129867352D01*
X174561616Y-129952382D01*
X174447330Y-130150331D01*
X174376244Y-130197266D01*
X174324205Y-130211210D01*
X167924761Y-33152380D02*
X167924761Y-32152380D01*
X168496190Y-33152380D02*
X168067619Y-32580952D01*
X168496190Y-32152380D02*
X167924761Y-32723809D01*
X168686666Y-33247619D02*
X169448571Y-33247619D01*
X170020000Y-32628571D02*
X170162857Y-32676190D01*
X170210476Y-32723809D01*
X170258095Y-32819047D01*
X170258095Y-32961904D01*
X170210476Y-33057142D01*
X170162857Y-33104761D01*
X170067619Y-33152380D01*
X169686666Y-33152380D01*
X169686666Y-32152380D01*
X170020000Y-32152380D01*
X170115238Y-32200000D01*
X170162857Y-32247619D01*
X170210476Y-32342857D01*
X170210476Y-32438095D01*
X170162857Y-32533333D01*
X170115238Y-32580952D01*
X170020000Y-32628571D01*
X169686666Y-32628571D01*
X170639047Y-33104761D02*
X170781904Y-33152380D01*
X171020000Y-33152380D01*
X171115238Y-33104761D01*
X171162857Y-33057142D01*
X171210476Y-32961904D01*
X171210476Y-32866666D01*
X171162857Y-32771428D01*
X171115238Y-32723809D01*
X171020000Y-32676190D01*
X170829523Y-32628571D01*
X170734285Y-32580952D01*
X170686666Y-32533333D01*
X170639047Y-32438095D01*
X170639047Y-32342857D01*
X170686666Y-32247619D01*
X170734285Y-32200000D01*
X170829523Y-32152380D01*
X171067619Y-32152380D01*
X171210476Y-32200000D01*
X172162857Y-33152380D02*
X171591428Y-33152380D01*
X171877142Y-33152380D02*
X171877142Y-32152380D01*
X171781904Y-32295238D01*
X171686666Y-32390476D01*
X171591428Y-32438095D01*
X128036250Y-52202380D02*
X128036250Y-51202380D01*
X128607678Y-52202380D02*
X128179107Y-51630952D01*
X128607678Y-51202380D02*
X128036250Y-51773809D01*
X128798154Y-52297619D02*
X129560059Y-52297619D01*
X129655297Y-51202380D02*
X130226726Y-51202380D01*
X129941011Y-52202380D02*
X129941011Y-51202380D01*
X131083869Y-52202380D02*
X130512440Y-52202380D01*
X130798154Y-52202380D02*
X130798154Y-51202380D01*
X130702916Y-51345238D01*
X130607678Y-51440476D01*
X130512440Y-51488095D01*
X61268511Y-90302380D02*
X61268511Y-89302380D01*
X61839940Y-90302380D02*
X61411369Y-89730952D01*
X61839940Y-89302380D02*
X61268511Y-89873809D01*
X62030416Y-90397619D02*
X62792321Y-90397619D01*
X62935178Y-89302380D02*
X63601845Y-89302380D01*
X62935178Y-90302380D01*
X63601845Y-90302380D01*
X64506607Y-90302380D02*
X63935178Y-90302380D01*
X64220892Y-90302380D02*
X64220892Y-89302380D01*
X64125654Y-89445238D01*
X64030416Y-89540476D01*
X63935178Y-89588095D01*
X118466130Y-90302380D02*
X118466130Y-89302380D01*
X119037559Y-90302380D02*
X118608988Y-89730952D01*
X119037559Y-89302380D02*
X118466130Y-89873809D01*
X119228035Y-90397619D02*
X119989940Y-90397619D01*
X120085178Y-89302380D02*
X120418511Y-90302380D01*
X120751845Y-89302380D01*
X121608988Y-90302380D02*
X121037559Y-90302380D01*
X121323273Y-90302380D02*
X121323273Y-89302380D01*
X121228035Y-89445238D01*
X121132797Y-89540476D01*
X121037559Y-89588095D01*
X80318511Y-90302380D02*
X80318511Y-89302380D01*
X80889940Y-90302380D02*
X80461369Y-89730952D01*
X80889940Y-89302380D02*
X80318511Y-89873809D01*
X81080416Y-90397619D02*
X81842321Y-90397619D01*
X81985178Y-89302380D02*
X82651845Y-90302380D01*
X82651845Y-89302380D02*
X81985178Y-90302380D01*
X83556607Y-90302380D02*
X82985178Y-90302380D01*
X83270892Y-90302380D02*
X83270892Y-89302380D01*
X83175654Y-89445238D01*
X83080416Y-89540476D01*
X82985178Y-89588095D01*
X108867202Y-52202380D02*
X108867202Y-51202380D01*
X109438630Y-52202380D02*
X109010059Y-51630952D01*
X109438630Y-51202380D02*
X108867202Y-51773809D01*
X109629107Y-52297619D02*
X110391011Y-52297619D01*
X111200535Y-52202380D02*
X110867202Y-51726190D01*
X110629107Y-52202380D02*
X110629107Y-51202380D01*
X111010059Y-51202380D01*
X111105297Y-51250000D01*
X111152916Y-51297619D01*
X111200535Y-51392857D01*
X111200535Y-51535714D01*
X111152916Y-51630952D01*
X111105297Y-51678571D01*
X111010059Y-51726190D01*
X110629107Y-51726190D01*
X112152916Y-52202380D02*
X111581488Y-52202380D01*
X111867202Y-52202380D02*
X111867202Y-51202380D01*
X111771964Y-51345238D01*
X111676726Y-51440476D01*
X111581488Y-51488095D01*
X84746428Y-109352380D02*
X84746428Y-108352380D01*
X85317857Y-109352380D02*
X84889285Y-108780952D01*
X85317857Y-108352380D02*
X84746428Y-108923809D01*
X85508333Y-109447619D02*
X86270238Y-109447619D01*
X86365476Y-108352380D02*
X86936904Y-108352380D01*
X86651190Y-109352380D02*
X86651190Y-108352380D01*
X87603571Y-108828571D02*
X87270238Y-108828571D01*
X87270238Y-109352380D02*
X87270238Y-108352380D01*
X87746428Y-108352380D01*
X88651190Y-109352380D02*
X88079761Y-109352380D01*
X88365476Y-109352380D02*
X88365476Y-108352380D01*
X88270238Y-108495238D01*
X88175000Y-108590476D01*
X88079761Y-108638095D01*
X103582142Y-109352380D02*
X103582142Y-108352380D01*
X104153571Y-109352380D02*
X103725000Y-108780952D01*
X104153571Y-108352380D02*
X103582142Y-108923809D01*
X104344047Y-109447619D02*
X105105952Y-109447619D01*
X106010714Y-109447619D02*
X105915476Y-109400000D01*
X105820238Y-109304761D01*
X105677380Y-109161904D01*
X105582142Y-109114285D01*
X105486904Y-109114285D01*
X105534523Y-109352380D02*
X105439285Y-109304761D01*
X105344047Y-109209523D01*
X105296428Y-109019047D01*
X105296428Y-108685714D01*
X105344047Y-108495238D01*
X105439285Y-108400000D01*
X105534523Y-108352380D01*
X105725000Y-108352380D01*
X105820238Y-108400000D01*
X105915476Y-108495238D01*
X105963095Y-108685714D01*
X105963095Y-109019047D01*
X105915476Y-109209523D01*
X105820238Y-109304761D01*
X105725000Y-109352380D01*
X105534523Y-109352380D01*
X106725000Y-108828571D02*
X106867857Y-108876190D01*
X106915476Y-108923809D01*
X106963095Y-109019047D01*
X106963095Y-109161904D01*
X106915476Y-109257142D01*
X106867857Y-109304761D01*
X106772619Y-109352380D01*
X106391666Y-109352380D01*
X106391666Y-108352380D01*
X106725000Y-108352380D01*
X106820238Y-108400000D01*
X106867857Y-108447619D01*
X106915476Y-108542857D01*
X106915476Y-108638095D01*
X106867857Y-108733333D01*
X106820238Y-108780952D01*
X106725000Y-108828571D01*
X106391666Y-108828571D01*
X107915476Y-109352380D02*
X107344047Y-109352380D01*
X107629761Y-109352380D02*
X107629761Y-108352380D01*
X107534523Y-108495238D01*
X107439285Y-108590476D01*
X107344047Y-108638095D01*
X75552261Y-71252380D02*
X75552261Y-70252380D01*
X76123690Y-71252380D02*
X75695119Y-70680952D01*
X76123690Y-70252380D02*
X75552261Y-70823809D01*
X76314166Y-71347619D02*
X77076071Y-71347619D01*
X77266547Y-71204761D02*
X77409404Y-71252380D01*
X77647500Y-71252380D01*
X77742738Y-71204761D01*
X77790357Y-71157142D01*
X77837976Y-71061904D01*
X77837976Y-70966666D01*
X77790357Y-70871428D01*
X77742738Y-70823809D01*
X77647500Y-70776190D01*
X77457023Y-70728571D01*
X77361785Y-70680952D01*
X77314166Y-70633333D01*
X77266547Y-70538095D01*
X77266547Y-70442857D01*
X77314166Y-70347619D01*
X77361785Y-70300000D01*
X77457023Y-70252380D01*
X77695119Y-70252380D01*
X77837976Y-70300000D01*
X78790357Y-71252380D02*
X78218928Y-71252380D01*
X78504642Y-71252380D02*
X78504642Y-70252380D01*
X78409404Y-70395238D01*
X78314166Y-70490476D01*
X78218928Y-70538095D01*
X142705952Y-33152380D02*
X142705952Y-32152380D01*
X143277380Y-33152380D02*
X142848809Y-32580952D01*
X143277380Y-32152380D02*
X142705952Y-32723809D01*
X143467857Y-33247619D02*
X144229761Y-33247619D01*
X144896428Y-32152380D02*
X144705952Y-32152380D01*
X144610714Y-32200000D01*
X144563095Y-32247619D01*
X144467857Y-32390476D01*
X144420238Y-32580952D01*
X144420238Y-32961904D01*
X144467857Y-33057142D01*
X144515476Y-33104761D01*
X144610714Y-33152380D01*
X144801190Y-33152380D01*
X144896428Y-33104761D01*
X144944047Y-33057142D01*
X144991666Y-32961904D01*
X144991666Y-32723809D01*
X144944047Y-32628571D01*
X144896428Y-32580952D01*
X144801190Y-32533333D01*
X144610714Y-32533333D01*
X144515476Y-32580952D01*
X144467857Y-32628571D01*
X144420238Y-32723809D01*
X123655952Y-33152380D02*
X123655952Y-32152380D01*
X124227380Y-33152380D02*
X123798809Y-32580952D01*
X124227380Y-32152380D02*
X123655952Y-32723809D01*
X124417857Y-33247619D02*
X125179761Y-33247619D01*
X125894047Y-32152380D02*
X125417857Y-32152380D01*
X125370238Y-32628571D01*
X125417857Y-32580952D01*
X125513095Y-32533333D01*
X125751190Y-32533333D01*
X125846428Y-32580952D01*
X125894047Y-32628571D01*
X125941666Y-32723809D01*
X125941666Y-32961904D01*
X125894047Y-33057142D01*
X125846428Y-33104761D01*
X125751190Y-33152380D01*
X125513095Y-33152380D01*
X125417857Y-33104761D01*
X125370238Y-33057142D01*
X89864821Y-52202380D02*
X89864821Y-51202380D01*
X90436250Y-52202380D02*
X90007678Y-51630952D01*
X90436250Y-51202380D02*
X89864821Y-51773809D01*
X90626726Y-52297619D02*
X91388630Y-52297619D01*
X91626726Y-51678571D02*
X91960059Y-51678571D01*
X92102916Y-52202380D02*
X91626726Y-52202380D01*
X91626726Y-51202380D01*
X92102916Y-51202380D01*
X93055297Y-52202380D02*
X92483869Y-52202380D01*
X92769583Y-52202380D02*
X92769583Y-51202380D01*
X92674345Y-51345238D01*
X92579107Y-51440476D01*
X92483869Y-51488095D01*
X51693392Y-52202380D02*
X51693392Y-51202380D01*
X52264821Y-52202380D02*
X51836250Y-51630952D01*
X52264821Y-51202380D02*
X51693392Y-51773809D01*
X52455297Y-52297619D02*
X53217202Y-52297619D01*
X54121964Y-52297619D02*
X54026726Y-52250000D01*
X53931488Y-52154761D01*
X53788630Y-52011904D01*
X53693392Y-51964285D01*
X53598154Y-51964285D01*
X53645773Y-52202380D02*
X53550535Y-52154761D01*
X53455297Y-52059523D01*
X53407678Y-51869047D01*
X53407678Y-51535714D01*
X53455297Y-51345238D01*
X53550535Y-51250000D01*
X53645773Y-51202380D01*
X53836250Y-51202380D01*
X53931488Y-51250000D01*
X54026726Y-51345238D01*
X54074345Y-51535714D01*
X54074345Y-51869047D01*
X54026726Y-52059523D01*
X53931488Y-52154761D01*
X53836250Y-52202380D01*
X53645773Y-52202380D01*
X55026726Y-52202380D02*
X54455297Y-52202380D01*
X54741011Y-52202380D02*
X54741011Y-51202380D01*
X54645773Y-51345238D01*
X54550535Y-51440476D01*
X54455297Y-51488095D01*
X70695773Y-52202380D02*
X70695773Y-51202380D01*
X71267202Y-52202380D02*
X70838630Y-51630952D01*
X71267202Y-51202380D02*
X70695773Y-51773809D01*
X71457678Y-52297619D02*
X72219583Y-52297619D01*
X72362440Y-51202380D02*
X72600535Y-52202380D01*
X72791011Y-51488095D01*
X72981488Y-52202380D01*
X73219583Y-51202380D01*
X74124345Y-52202380D02*
X73552916Y-52202380D01*
X73838630Y-52202380D02*
X73838630Y-51202380D01*
X73743392Y-51345238D01*
X73648154Y-51440476D01*
X73552916Y-51488095D01*
X29811309Y-71252380D02*
X29811309Y-70252380D01*
X30382738Y-71252380D02*
X29954166Y-70680952D01*
X30382738Y-70252380D02*
X29811309Y-70823809D01*
X30573214Y-71347619D02*
X31335119Y-71347619D01*
X32144642Y-71157142D02*
X32097023Y-71204761D01*
X31954166Y-71252380D01*
X31858928Y-71252380D01*
X31716071Y-71204761D01*
X31620833Y-71109523D01*
X31573214Y-71014285D01*
X31525595Y-70823809D01*
X31525595Y-70680952D01*
X31573214Y-70490476D01*
X31620833Y-70395238D01*
X31716071Y-70300000D01*
X31858928Y-70252380D01*
X31954166Y-70252380D01*
X32097023Y-70300000D01*
X32144642Y-70347619D01*
X32763690Y-70252380D02*
X32954166Y-70252380D01*
X33049404Y-70300000D01*
X33144642Y-70395238D01*
X33192261Y-70585714D01*
X33192261Y-70919047D01*
X33144642Y-71109523D01*
X33049404Y-71204761D01*
X32954166Y-71252380D01*
X32763690Y-71252380D01*
X32668452Y-71204761D01*
X32573214Y-71109523D01*
X32525595Y-70919047D01*
X32525595Y-70585714D01*
X32573214Y-70395238D01*
X32668452Y-70300000D01*
X32763690Y-70252380D01*
X33620833Y-71252380D02*
X33620833Y-70252380D01*
X34192261Y-71252380D01*
X34192261Y-70252380D01*
X34525595Y-70252380D02*
X35097023Y-70252380D01*
X34811309Y-71252380D02*
X34811309Y-70252380D01*
X36001785Y-71252380D02*
X35668452Y-70776190D01*
X35430357Y-71252380D02*
X35430357Y-70252380D01*
X35811309Y-70252380D01*
X35906547Y-70300000D01*
X35954166Y-70347619D01*
X36001785Y-70442857D01*
X36001785Y-70585714D01*
X35954166Y-70680952D01*
X35906547Y-70728571D01*
X35811309Y-70776190D01*
X35430357Y-70776190D01*
X36620833Y-70252380D02*
X36811309Y-70252380D01*
X36906547Y-70300000D01*
X37001785Y-70395238D01*
X37049404Y-70585714D01*
X37049404Y-70919047D01*
X37001785Y-71109523D01*
X36906547Y-71204761D01*
X36811309Y-71252380D01*
X36620833Y-71252380D01*
X36525595Y-71204761D01*
X36430357Y-71109523D01*
X36382738Y-70919047D01*
X36382738Y-70585714D01*
X36430357Y-70395238D01*
X36525595Y-70300000D01*
X36620833Y-70252380D01*
X37954166Y-71252380D02*
X37477976Y-71252380D01*
X37477976Y-70252380D01*
X38811309Y-71252380D02*
X38239880Y-71252380D01*
X38525595Y-71252380D02*
X38525595Y-70252380D01*
X38430357Y-70395238D01*
X38335119Y-70490476D01*
X38239880Y-70538095D01*
X29477678Y-52202380D02*
X29477678Y-51202380D01*
X30049107Y-52202380D02*
X29620535Y-51630952D01*
X30049107Y-51202380D02*
X29477678Y-51773809D01*
X30239583Y-52297619D02*
X31001488Y-52297619D01*
X31096726Y-51202380D02*
X31668154Y-51202380D01*
X31382440Y-52202380D02*
X31382440Y-51202380D01*
X31953869Y-51916666D02*
X32430059Y-51916666D01*
X31858630Y-52202380D02*
X32191964Y-51202380D01*
X32525297Y-52202380D01*
X33191964Y-51678571D02*
X33334821Y-51726190D01*
X33382440Y-51773809D01*
X33430059Y-51869047D01*
X33430059Y-52011904D01*
X33382440Y-52107142D01*
X33334821Y-52154761D01*
X33239583Y-52202380D01*
X32858630Y-52202380D01*
X32858630Y-51202380D01*
X33191964Y-51202380D01*
X33287202Y-51250000D01*
X33334821Y-51297619D01*
X33382440Y-51392857D01*
X33382440Y-51488095D01*
X33334821Y-51583333D01*
X33287202Y-51630952D01*
X33191964Y-51678571D01*
X32858630Y-51678571D01*
X34382440Y-52202380D02*
X33811011Y-52202380D01*
X34096726Y-52202380D02*
X34096726Y-51202380D01*
X34001488Y-51345238D01*
X33906250Y-51440476D01*
X33811011Y-51488095D01*
G36*
X165195289Y-105244368D02*
G01*
X165199944Y-105450705D01*
X165199432Y-105674242D01*
X165195289Y-105828276D01*
X165182998Y-106107978D01*
X165113392Y-105920294D01*
X165052227Y-105747086D01*
X165021256Y-105620355D01*
X165019270Y-105509300D01*
X165045061Y-105383117D01*
X165086884Y-105244241D01*
X165182998Y-104940162D01*
X165195289Y-105244368D01*
G37*
G36*
X145299125Y-105264209D02*
G01*
X145408181Y-105588255D01*
X145187051Y-106233101D01*
X145188560Y-105586632D01*
X145190069Y-104940162D01*
X145299125Y-105264209D01*
G37*
G36*
X153445487Y-101277874D02*
G01*
X153442610Y-101274388D01*
X153407733Y-101263636D01*
X153400568Y-101303249D01*
X153387892Y-101367624D01*
X153353292Y-101357403D01*
X153301914Y-101276893D01*
X153260886Y-101186311D01*
X153210404Y-101077440D01*
X153168040Y-101009783D01*
X153153238Y-100998783D01*
X153113600Y-101031459D01*
X153066940Y-101102989D01*
X153018158Y-101175635D01*
X152988280Y-101172816D01*
X152975997Y-101092269D01*
X152978943Y-100950733D01*
X152985309Y-100840130D01*
X152978695Y-100778607D01*
X152942461Y-100758474D01*
X152859967Y-100772040D01*
X152714573Y-100811615D01*
X152691537Y-100817902D01*
X152637466Y-100828915D01*
X152627800Y-100813379D01*
X152666895Y-100759373D01*
X152745586Y-100670012D01*
X152876039Y-100514115D01*
X152947078Y-100397807D01*
X152963771Y-100307766D01*
X152931190Y-100230667D01*
X152918729Y-100215069D01*
X152845511Y-100129557D01*
X152773910Y-100217980D01*
X152721601Y-100274897D01*
X152675341Y-100281575D01*
X152600368Y-100239836D01*
X152582227Y-100228030D01*
X152476785Y-100154218D01*
X152437643Y-100124635D01*
X157395063Y-100124635D01*
X157396600Y-100200790D01*
X157415149Y-100283140D01*
X157428303Y-100328351D01*
X157507144Y-100497416D01*
X157619874Y-100596782D01*
X157703570Y-100620591D01*
X157721671Y-100584114D01*
X157742353Y-100485731D01*
X157761169Y-100346653D01*
X157761333Y-100345131D01*
X157771678Y-100183446D01*
X157773462Y-99992743D01*
X157767769Y-99794671D01*
X157755683Y-99610879D01*
X157738290Y-99463016D01*
X157716675Y-99372730D01*
X157712153Y-99363827D01*
X157686786Y-99380747D01*
X157640150Y-99462133D01*
X157579433Y-99594040D01*
X157526588Y-99723887D01*
X157456651Y-99907129D01*
X157413945Y-100033730D01*
X157395063Y-100124635D01*
X152437643Y-100124635D01*
X152348950Y-100057603D01*
X152215307Y-99951716D01*
X152092444Y-99850087D01*
X151996949Y-99766245D01*
X151945408Y-99713721D01*
X151940798Y-99704824D01*
X151968436Y-99659215D01*
X152024213Y-99601574D01*
X152088361Y-99502432D01*
X152107629Y-99412756D01*
X152118455Y-99336656D01*
X152166661Y-99296723D01*
X152268290Y-99273737D01*
X152400020Y-99225455D01*
X152536166Y-99132372D01*
X152659502Y-99012750D01*
X152752805Y-98884851D01*
X152798850Y-98766937D01*
X152797668Y-98712453D01*
X152751139Y-98380691D01*
X152761289Y-98017666D01*
X152825119Y-97650393D01*
X152939626Y-97305887D01*
X152958684Y-97262859D01*
X153133912Y-96970423D01*
X153362534Y-96732591D01*
X153634111Y-96558075D01*
X153921914Y-96458968D01*
X154062550Y-96438257D01*
X154265810Y-96420825D01*
X154515212Y-96406919D01*
X154794271Y-96396781D01*
X155086505Y-96390657D01*
X155375430Y-96388792D01*
X155644563Y-96391430D01*
X155877420Y-96398815D01*
X156057519Y-96411192D01*
X156156730Y-96425803D01*
X156521728Y-96549778D01*
X156837155Y-96737873D01*
X157097942Y-96986117D01*
X157299019Y-97290544D01*
X157322639Y-97338523D01*
X157384823Y-97477096D01*
X157429202Y-97589589D01*
X157446183Y-97651686D01*
X157446184Y-97651739D01*
X157472234Y-97699163D01*
X157525169Y-97690007D01*
X157550486Y-97662166D01*
X157606390Y-97633035D01*
X157705792Y-97620321D01*
X157709351Y-97620302D01*
X157836295Y-97597772D01*
X157968467Y-97543019D01*
X157980665Y-97535872D01*
X158109196Y-97474638D01*
X158266583Y-97421656D01*
X158321494Y-97408148D01*
X158529581Y-97395241D01*
X158697200Y-97452548D01*
X158819644Y-97578223D01*
X158837959Y-97610737D01*
X158913418Y-97816448D01*
X158958579Y-98063640D01*
X158972577Y-98325300D01*
X158954545Y-98574416D01*
X158903617Y-98783977D01*
X158877508Y-98843669D01*
X158842688Y-98939474D01*
X158840718Y-99048555D01*
X158861769Y-99170106D01*
X158897339Y-99310404D01*
X158936586Y-99428581D01*
X158953493Y-99466432D01*
X158976557Y-99540404D01*
X158939717Y-99601670D01*
X158907918Y-99629251D01*
X158854574Y-99678068D01*
X158836195Y-99727176D01*
X158850040Y-99804836D01*
X158881359Y-99903146D01*
X158915699Y-100022001D01*
X158958437Y-100192317D01*
X159005360Y-100394434D01*
X159052254Y-100608690D01*
X159094903Y-100815426D01*
X159129095Y-100994979D01*
X159150614Y-101127690D01*
X159155902Y-101184012D01*
X159151813Y-101239908D01*
X159126922Y-101223892D01*
X159101818Y-101190556D01*
X159070731Y-101158054D01*
X159054712Y-101178146D01*
X159049507Y-101262950D01*
X159049684Y-101338988D01*
X159034751Y-101496642D01*
X158992742Y-101701275D01*
X158931678Y-101925654D01*
X158859583Y-102142547D01*
X158784478Y-102324721D01*
X158730264Y-102423284D01*
X158675841Y-102518329D01*
X158650250Y-102590115D01*
X158639712Y-102592295D01*
X158620285Y-102528305D01*
X158614033Y-102500261D01*
X158583306Y-102354284D01*
X158577815Y-102489834D01*
X158562835Y-102582165D01*
X158533727Y-102625012D01*
X158530617Y-102625384D01*
X158499745Y-102661411D01*
X158487028Y-102740080D01*
X158485147Y-102854776D01*
X158434894Y-102737203D01*
X158376463Y-102640040D01*
X158319766Y-102626205D01*
X158279362Y-102668724D01*
X158260683Y-102656171D01*
X158239868Y-102576789D01*
X158220962Y-102446939D01*
X158218314Y-102421876D01*
X158197543Y-102257957D01*
X158175427Y-102150747D01*
X158154987Y-102106747D01*
X158139244Y-102132462D01*
X158131219Y-102234392D01*
X158117750Y-102342627D01*
X158090069Y-102415596D01*
X158059137Y-102441432D01*
X158035918Y-102408268D01*
X158030125Y-102343824D01*
X158014772Y-102168896D01*
X157972384Y-101943213D01*
X157908460Y-101692828D01*
X157858310Y-101530205D01*
X157813115Y-101359674D01*
X157774266Y-101153521D01*
X157752343Y-100977578D01*
X157725930Y-100665121D01*
X157290155Y-100665121D01*
X157325887Y-100863233D01*
X157352190Y-101002968D01*
X157376459Y-101122174D01*
X157383859Y-101155187D01*
X157389892Y-101232204D01*
X157359146Y-101239632D01*
X157298233Y-101179122D01*
X157258532Y-101123906D01*
X157196453Y-101041448D01*
X157151572Y-101000041D01*
X157147070Y-100998903D01*
X157117131Y-101034218D01*
X157078842Y-101121613D01*
X157070847Y-101144760D01*
X157028376Y-101238501D01*
X156984029Y-101289484D01*
X156952458Y-101285500D01*
X156945724Y-101249029D01*
X156932333Y-101202387D01*
X156900528Y-101219787D01*
X156862862Y-101287816D01*
X156838383Y-101363725D01*
X156804748Y-101459795D01*
X156768658Y-101506079D01*
X156759668Y-101506616D01*
X156713805Y-101528098D01*
X156689110Y-101569178D01*
X156663778Y-101617403D01*
X156643518Y-101592024D01*
X156630482Y-101551410D01*
X156592255Y-101471479D01*
X156551244Y-101474178D01*
X156508644Y-101558818D01*
X156486300Y-101634826D01*
X156448729Y-101772506D01*
X156412218Y-101893478D01*
X156404570Y-101916353D01*
X156381521Y-101973376D01*
X156369462Y-101964344D01*
X156363040Y-101881405D01*
X156361903Y-101853791D01*
X156355405Y-101686960D01*
X156301743Y-101853791D01*
X156248080Y-102020622D01*
X156231960Y-101791230D01*
X156215839Y-101561837D01*
X156144520Y-101686960D01*
X156097874Y-101752752D01*
X156071864Y-101758623D01*
X156070205Y-101749522D01*
X156059320Y-101712968D01*
X156023402Y-101744954D01*
X156012277Y-101759300D01*
X155953725Y-101806975D01*
X155915501Y-101776454D01*
X155903031Y-101682179D01*
X155895359Y-101619314D01*
X155856142Y-101607444D01*
X155777908Y-101630648D01*
X155697323Y-101678677D01*
X155652478Y-101740735D01*
X155648366Y-101795006D01*
X155689978Y-101819673D01*
X155736405Y-101812018D01*
X155815548Y-101815203D01*
X155850783Y-101881348D01*
X155838326Y-102000285D01*
X155823895Y-102047128D01*
X155799775Y-102171087D01*
X155820276Y-102229956D01*
X155873051Y-102267990D01*
X155984209Y-102332557D01*
X156136858Y-102414250D01*
X156294081Y-102493816D01*
X156451203Y-102572660D01*
X156578281Y-102642654D01*
X156686932Y-102714482D01*
X156788773Y-102798828D01*
X156895421Y-102906378D01*
X157018493Y-103047815D01*
X157169606Y-103233825D01*
X157358786Y-103473071D01*
X157492166Y-103636576D01*
X157612430Y-103773101D01*
X157708156Y-103870448D01*
X157767922Y-103916419D01*
X157775863Y-103918455D01*
X157846591Y-103907141D01*
X157971542Y-103877169D01*
X158125307Y-103834705D01*
X158145402Y-103828791D01*
X158448365Y-103738996D01*
X158915868Y-103854487D01*
X159143652Y-103907644D01*
X159324522Y-103939880D01*
X159491334Y-103954662D01*
X159676945Y-103955459D01*
X159822429Y-103950157D01*
X160022305Y-103936968D01*
X160199290Y-103913364D01*
X160368303Y-103873993D01*
X160544265Y-103813502D01*
X160742094Y-103726541D01*
X160976710Y-103607756D01*
X161263034Y-103451795D01*
X161355365Y-103400252D01*
X161605797Y-103265204D01*
X161886676Y-103122176D01*
X162164619Y-102987718D01*
X162406242Y-102878382D01*
X162418713Y-102873043D01*
X162641323Y-102776503D01*
X162865895Y-102676350D01*
X163065851Y-102584593D01*
X163211267Y-102514912D01*
X163352632Y-102447283D01*
X163467154Y-102397651D01*
X163532738Y-102375505D01*
X163536740Y-102375138D01*
X163580065Y-102402744D01*
X163672488Y-102479344D01*
X163803466Y-102595612D01*
X163962459Y-102742220D01*
X164114186Y-102886057D01*
X164311244Y-103071703D01*
X164511212Y-103254078D01*
X164696919Y-103417929D01*
X164851191Y-103548003D01*
X164924210Y-103605515D01*
X165201774Y-103814054D01*
X165202813Y-104159610D01*
X165203454Y-104284257D01*
X165199295Y-104375890D01*
X165182483Y-104432310D01*
X165145163Y-104451316D01*
X165079481Y-104430709D01*
X164977582Y-104368289D01*
X164831613Y-104261854D01*
X164633718Y-104109206D01*
X164415866Y-103939177D01*
X164365650Y-103902992D01*
X164347592Y-103903270D01*
X164364199Y-103950137D01*
X164417979Y-104053720D01*
X164465959Y-104141534D01*
X164623032Y-104427306D01*
X164496527Y-105142519D01*
X164449681Y-105408373D01*
X164402977Y-105675188D01*
X164360456Y-105919758D01*
X164326159Y-106118877D01*
X164311618Y-106204452D01*
X164281681Y-106366415D01*
X164252872Y-106495455D01*
X164230102Y-106570389D01*
X164224631Y-106579756D01*
X164182055Y-106573358D01*
X164138387Y-106529486D01*
X164108187Y-106466743D01*
X164057755Y-106338420D01*
X163991708Y-106158289D01*
X163914663Y-105940119D01*
X163831234Y-105697681D01*
X163746038Y-105444744D01*
X163663691Y-105195079D01*
X163588808Y-104962456D01*
X163526006Y-104760645D01*
X163479900Y-104603416D01*
X163455106Y-104504538D01*
X163452128Y-104482243D01*
X163469462Y-104377360D01*
X163514439Y-104235516D01*
X163576519Y-104081083D01*
X163645162Y-103938436D01*
X163709830Y-103831947D01*
X163751891Y-103789021D01*
X163813994Y-103722590D01*
X163812154Y-103655617D01*
X163821232Y-103549765D01*
X163855428Y-103493426D01*
X163887927Y-103447228D01*
X163892077Y-103397442D01*
X163861075Y-103330082D01*
X163788115Y-103231161D01*
X163666394Y-103086691D01*
X163646184Y-103063315D01*
X163501722Y-102896484D01*
X163038994Y-103124363D01*
X162823788Y-103234662D01*
X162679418Y-103321250D01*
X162599206Y-103391228D01*
X162576470Y-103451697D01*
X162604533Y-103509759D01*
X162642435Y-103545948D01*
X162695812Y-103611922D01*
X162766142Y-103727054D01*
X162843111Y-103870393D01*
X162916409Y-104020989D01*
X162975721Y-104157891D01*
X163010736Y-104260149D01*
X163014644Y-104302118D01*
X163002396Y-104357140D01*
X162978493Y-104482224D01*
X162945137Y-104665174D01*
X162904531Y-104893797D01*
X162858878Y-105155898D01*
X162829562Y-105326604D01*
X162774165Y-105648755D01*
X162730081Y-105897882D01*
X162695085Y-106083268D01*
X162666950Y-106214200D01*
X162643451Y-106299961D01*
X162622362Y-106349836D01*
X162601457Y-106373110D01*
X162578511Y-106379069D01*
X162577254Y-106379078D01*
X162560541Y-106371728D01*
X162540349Y-106344325D01*
X162513769Y-106288848D01*
X162477893Y-106197272D01*
X162429813Y-106061572D01*
X162366620Y-105873725D01*
X162285406Y-105625706D01*
X162183263Y-105309493D01*
X162133796Y-105155581D01*
X161854773Y-104286600D01*
X161952181Y-103976004D01*
X162005499Y-103821846D01*
X162057727Y-103697237D01*
X162098923Y-103625439D01*
X162104389Y-103619928D01*
X162151174Y-103552845D01*
X162152426Y-103488719D01*
X162107592Y-103460520D01*
X162107054Y-103460528D01*
X162004324Y-103483883D01*
X161850212Y-103545482D01*
X161662322Y-103636680D01*
X161458261Y-103748832D01*
X161255636Y-103873291D01*
X161223894Y-103894190D01*
X161053919Y-104011396D01*
X160945235Y-104098146D01*
X160886558Y-104165107D01*
X160866603Y-104222948D01*
X160866249Y-104232312D01*
X160899813Y-104331918D01*
X160949377Y-104376954D01*
X161006032Y-104434664D01*
X161080608Y-104547078D01*
X161158720Y-104691994D01*
X161173307Y-104722510D01*
X161314110Y-105023578D01*
X161155907Y-106033872D01*
X161101275Y-106381331D01*
X161057397Y-106654470D01*
X161022345Y-106861413D01*
X160994190Y-107010287D01*
X160971003Y-107109216D01*
X160950856Y-107166325D01*
X160931819Y-107189740D01*
X160911965Y-107187587D01*
X160889363Y-107167989D01*
X160887225Y-107165749D01*
X160860066Y-107111871D01*
X160811672Y-106989799D01*
X160746096Y-106810826D01*
X160667389Y-106586249D01*
X160579604Y-106327362D01*
X160500819Y-106088597D01*
X160168279Y-105068230D01*
X160266929Y-104778185D01*
X160324409Y-104624760D01*
X160382021Y-104496300D01*
X160427719Y-104419539D01*
X160429416Y-104417602D01*
X160460645Y-104374178D01*
X160444014Y-104348492D01*
X160365471Y-104330103D01*
X160298560Y-104320378D01*
X160172901Y-104309028D01*
X159992263Y-104300078D01*
X159785075Y-104294707D01*
X159655367Y-104293693D01*
X159447870Y-104295966D01*
X159310094Y-104303975D01*
X159228436Y-104319504D01*
X159189297Y-104344336D01*
X159183102Y-104355618D01*
X159196211Y-104423402D01*
X159243479Y-104462573D01*
X159300285Y-104520731D01*
X159374275Y-104633790D01*
X159451165Y-104779400D01*
X159465269Y-104809659D01*
X159602920Y-105111714D01*
X159428926Y-106184028D01*
X159368934Y-106545591D01*
X159318336Y-106830550D01*
X159275564Y-107044993D01*
X159239050Y-107195008D01*
X159207227Y-107286682D01*
X159178527Y-107326105D01*
X159151381Y-107319364D01*
X159140322Y-107304647D01*
X159118677Y-107249986D01*
X159077576Y-107129010D01*
X159021077Y-106954945D01*
X158953235Y-106741015D01*
X158878107Y-106500444D01*
X158799749Y-106246456D01*
X158722217Y-105992276D01*
X158649567Y-105751128D01*
X158585856Y-105536237D01*
X158535140Y-105360827D01*
X158501475Y-105238123D01*
X158488918Y-105181349D01*
X158488909Y-105180874D01*
X158504320Y-105072328D01*
X158544181Y-104924366D01*
X158598931Y-104763732D01*
X158659014Y-104617172D01*
X158714870Y-104511431D01*
X158738791Y-104481708D01*
X158794658Y-104403616D01*
X158771679Y-104344869D01*
X158672620Y-104307546D01*
X158500243Y-104293729D01*
X158489016Y-104293693D01*
X158329586Y-104298333D01*
X158183265Y-104310211D01*
X158118753Y-104319760D01*
X158032234Y-104346206D01*
X157995801Y-104397614D01*
X157988417Y-104500980D01*
X157961458Y-104651144D01*
X157909425Y-104727620D01*
X157858778Y-104784990D01*
X157857540Y-104844019D01*
X157891626Y-104921769D01*
X157944142Y-105005845D01*
X157988964Y-105044198D01*
X157991472Y-105044432D01*
X158022711Y-105079451D01*
X158030125Y-105129254D01*
X157991567Y-105213786D01*
X157884926Y-105299733D01*
X157881798Y-105301590D01*
X157781123Y-105378405D01*
X157754889Y-105443736D01*
X157756624Y-105449439D01*
X157804874Y-105601523D01*
X157856868Y-105807316D01*
X157906465Y-106037702D01*
X157947520Y-106263564D01*
X157973891Y-106455783D01*
X157977604Y-106496913D01*
X157993053Y-106658978D01*
X158014058Y-106759715D01*
X158048433Y-106821179D01*
X158103996Y-106865428D01*
X158109370Y-106868750D01*
X158288470Y-106983182D01*
X158516178Y-107136191D01*
X158774912Y-107315594D01*
X159047090Y-107509206D01*
X159302210Y-107695288D01*
X159548547Y-107877280D01*
X159738409Y-108015472D01*
X159882702Y-108115239D01*
X159992330Y-108181955D01*
X160078198Y-108220992D01*
X160151212Y-108237726D01*
X160222278Y-108237530D01*
X160302300Y-108225779D01*
X160358091Y-108215608D01*
X160523910Y-108193523D01*
X160676119Y-108195782D01*
X160855228Y-108223905D01*
X160915115Y-108236490D01*
X161136880Y-108288126D01*
X161294498Y-108334949D01*
X161406327Y-108384425D01*
X161490726Y-108444018D01*
X161537531Y-108489531D01*
X161598978Y-108562560D01*
X161605042Y-108609974D01*
X161562915Y-108661536D01*
X161505503Y-108704460D01*
X161438108Y-108706943D01*
X161342155Y-108677332D01*
X161212149Y-108647495D01*
X161141251Y-108669266D01*
X161134641Y-108738346D01*
X161173881Y-108816934D01*
X161245342Y-108884993D01*
X161375259Y-108973051D01*
X161544348Y-109070867D01*
X161733324Y-109168198D01*
X161922903Y-109254802D01*
X162093801Y-109320437D01*
X162159525Y-109340417D01*
X162291264Y-109365005D01*
X162471181Y-109384667D01*
X162664048Y-109395724D01*
X162696546Y-109396501D01*
X162898400Y-109406188D01*
X163022574Y-109426283D01*
X163065610Y-109452778D01*
X163045929Y-109515777D01*
X162959096Y-109587376D01*
X162820147Y-109661899D01*
X162644115Y-109733670D01*
X162446033Y-109797015D01*
X162240936Y-109846256D01*
X162043857Y-109875718D01*
X161929796Y-109881572D01*
X161686884Y-109873211D01*
X161474583Y-109842178D01*
X161269861Y-109781354D01*
X161049685Y-109683621D01*
X160791023Y-109541859D01*
X160746678Y-109515885D01*
X160534746Y-109395839D01*
X160316588Y-109280538D01*
X160117904Y-109183101D01*
X159964667Y-109116747D01*
X159834498Y-109061840D01*
X159668869Y-108982166D01*
X159461715Y-108874422D01*
X159206970Y-108735308D01*
X158898567Y-108561521D01*
X158530439Y-108349759D01*
X158173484Y-108141792D01*
X157864313Y-107947622D01*
X157606624Y-107758438D01*
X157407707Y-107580543D01*
X157274851Y-107420240D01*
X157225020Y-107321741D01*
X157188599Y-107302829D01*
X157140608Y-107332690D01*
X157085178Y-107364538D01*
X157050577Y-107329261D01*
X157036425Y-107294278D01*
X157002151Y-107227235D01*
X156979268Y-107233922D01*
X156969010Y-107305275D01*
X156972616Y-107432229D01*
X156991321Y-107605719D01*
X156992640Y-107615204D01*
X157017516Y-107825059D01*
X157037391Y-108052114D01*
X157047450Y-108235072D01*
X157059807Y-108407666D01*
X157091276Y-108558742D01*
X157150980Y-108722780D01*
X157213002Y-108860688D01*
X157405287Y-109290362D01*
X157560340Y-109686038D01*
X157690666Y-110080680D01*
X157739631Y-110249038D01*
X157789766Y-110430561D01*
X157830136Y-110582400D01*
X157856073Y-110686618D01*
X157863294Y-110723914D01*
X157822749Y-110729899D01*
X157705770Y-110735555D01*
X157519335Y-110740790D01*
X157270424Y-110745516D01*
X156966017Y-110749642D01*
X156613094Y-110753078D01*
X156218635Y-110755733D01*
X155789620Y-110757518D01*
X155333027Y-110758342D01*
X155194000Y-110758389D01*
X154730605Y-110757914D01*
X154292729Y-110756543D01*
X153887352Y-110754358D01*
X153521453Y-110751441D01*
X153202012Y-110747874D01*
X152936007Y-110743738D01*
X152730419Y-110739116D01*
X152592227Y-110734088D01*
X152528410Y-110728737D01*
X152524811Y-110727108D01*
X152535035Y-110675591D01*
X152562406Y-110562978D01*
X152602118Y-110408648D01*
X152627827Y-110311702D01*
X152760605Y-109878050D01*
X152935304Y-109405069D01*
X153142200Y-108918933D01*
X153159262Y-108881542D01*
X153254822Y-108656961D01*
X153316432Y-108476430D01*
X153341595Y-108349039D01*
X153327815Y-108283879D01*
X153324119Y-108281085D01*
X153315204Y-108233920D01*
X153317001Y-108122850D01*
X153328768Y-107966598D01*
X153341136Y-107851964D01*
X153362755Y-107650682D01*
X153370098Y-107510058D01*
X153362698Y-107408487D01*
X153340091Y-107324363D01*
X153329173Y-107296648D01*
X153275939Y-107167970D01*
X153229183Y-107052991D01*
X153226546Y-107046402D01*
X153202578Y-106996208D01*
X153178849Y-106989666D01*
X153145246Y-107036557D01*
X153091657Y-107146661D01*
X153066767Y-107200935D01*
X152984679Y-107359680D01*
X152884759Y-107507655D01*
X152757897Y-107653304D01*
X152594981Y-107805074D01*
X152386902Y-107971410D01*
X152124547Y-108160757D01*
X151798807Y-108381561D01*
X151778876Y-108394783D01*
X151396718Y-108646286D01*
X151074473Y-108854124D01*
X150804102Y-109023008D01*
X150577563Y-109157652D01*
X150386816Y-109262768D01*
X150223822Y-109343068D01*
X150080540Y-109403265D01*
X150022243Y-109424400D01*
X149864287Y-109482178D01*
X149661736Y-109560889D01*
X149446407Y-109648018D01*
X149328776Y-109697231D01*
X149137376Y-109776162D01*
X148956671Y-109846599D01*
X148811037Y-109899249D01*
X148743400Y-109920439D01*
X148565309Y-109942653D01*
X148336974Y-109933871D01*
X148084090Y-109897603D01*
X147832357Y-109837361D01*
X147636749Y-109769210D01*
X147470237Y-109692053D01*
X147304708Y-109601979D01*
X147157120Y-109509887D01*
X147044430Y-109426671D01*
X146983596Y-109363228D01*
X146977579Y-109345648D01*
X147014436Y-109294737D01*
X147119621Y-109278282D01*
X147285058Y-109297269D01*
X147318588Y-109304091D01*
X147575137Y-109330309D01*
X147872951Y-109305754D01*
X148220996Y-109229324D01*
X148428602Y-109167500D01*
X148678928Y-109077216D01*
X148850962Y-108990827D01*
X148949538Y-108905295D01*
X148979550Y-108821441D01*
X148955912Y-108751249D01*
X148880456Y-108737726D01*
X148777273Y-108766822D01*
X148677008Y-108794702D01*
X148612481Y-108778135D01*
X148581944Y-108752057D01*
X148534842Y-108666747D01*
X148563038Y-108588334D01*
X148658466Y-108520775D01*
X148813060Y-108468028D01*
X149018755Y-108434049D01*
X149253156Y-108422757D01*
X149466639Y-108429157D01*
X149621692Y-108450869D01*
X149742499Y-108491660D01*
X149764669Y-108502434D01*
X149882360Y-108551346D01*
X149964634Y-108552649D01*
X150001967Y-108536715D01*
X150055462Y-108499046D01*
X150164257Y-108416387D01*
X150318800Y-108296212D01*
X150509543Y-108145996D01*
X150726933Y-107973213D01*
X150938953Y-107803403D01*
X151181041Y-107610151D01*
X151413448Y-107427092D01*
X151624730Y-107263052D01*
X151803441Y-107126857D01*
X151938138Y-107027332D01*
X152007042Y-106979708D01*
X152219262Y-106843929D01*
X152268439Y-106492402D01*
X152305971Y-106275730D01*
X152359523Y-106029143D01*
X152418313Y-105801723D01*
X152425734Y-105776275D01*
X152533852Y-105411674D01*
X152383302Y-105287578D01*
X152277691Y-105189892D01*
X152241069Y-105115955D01*
X152271181Y-105046132D01*
X152347448Y-104975440D01*
X152421413Y-104909815D01*
X152438352Y-104857583D01*
X152405341Y-104780750D01*
X152389156Y-104751528D01*
X152337686Y-104618883D01*
X152316168Y-104483304D01*
X152316167Y-104482856D01*
X152316167Y-104345118D01*
X152055494Y-104318481D01*
X151828952Y-104305581D01*
X151666701Y-104318354D01*
X151572971Y-104355134D01*
X151551987Y-104414259D01*
X151607978Y-104494063D01*
X151608414Y-104494470D01*
X151666763Y-104576139D01*
X151733397Y-104709999D01*
X151794369Y-104867843D01*
X151797089Y-104876073D01*
X151894115Y-105172292D01*
X151606748Y-106151006D01*
X151525314Y-106426009D01*
X151449825Y-106676525D01*
X151383953Y-106890716D01*
X151331369Y-107056745D01*
X151295747Y-107162777D01*
X151282868Y-107194966D01*
X151256534Y-107227935D01*
X151230048Y-107225926D01*
X151201305Y-107182089D01*
X151168199Y-107089575D01*
X151128626Y-106941532D01*
X151080481Y-106731111D01*
X151021657Y-106451462D01*
X150959227Y-106141855D01*
X150758261Y-105133040D01*
X150876452Y-104854947D01*
X150950696Y-104700674D01*
X151030725Y-104565838D01*
X151097688Y-104481305D01*
X151200734Y-104385756D01*
X151108182Y-104336224D01*
X151031606Y-104314398D01*
X150899541Y-104304426D01*
X150702312Y-104305986D01*
X150487656Y-104315506D01*
X150248600Y-104329506D01*
X150082263Y-104342568D01*
X149978010Y-104356953D01*
X149925205Y-104374925D01*
X149913213Y-104398748D01*
X149931399Y-104430686D01*
X149933634Y-104433413D01*
X149965861Y-104494722D01*
X150013899Y-104612018D01*
X150068239Y-104761808D01*
X150077126Y-104787940D01*
X150180052Y-105093590D01*
X149850168Y-106080423D01*
X149739348Y-106410672D01*
X149651166Y-106669487D01*
X149582398Y-106864739D01*
X149529822Y-107004299D01*
X149490213Y-107096038D01*
X149460347Y-107147827D01*
X149437000Y-107167536D01*
X149416950Y-107163037D01*
X149409422Y-107156515D01*
X149393621Y-107107720D01*
X149366774Y-106988084D01*
X149331110Y-106809117D01*
X149288854Y-106582332D01*
X149242233Y-106319238D01*
X149203929Y-106094176D01*
X149031884Y-105065285D01*
X149166920Y-104769211D01*
X149243089Y-104618488D01*
X149319828Y-104493220D01*
X149382126Y-104417545D01*
X149389002Y-104412168D01*
X149462856Y-104324361D01*
X149455140Y-104221282D01*
X149365751Y-104102624D01*
X149254172Y-104009870D01*
X149120900Y-103920798D01*
X148953621Y-103821565D01*
X148770737Y-103721603D01*
X148590651Y-103630345D01*
X148431763Y-103557226D01*
X148312478Y-103511676D01*
X148261949Y-103501246D01*
X148197813Y-103526523D01*
X148197598Y-103592617D01*
X148244272Y-103664793D01*
X148285569Y-103736343D01*
X148339189Y-103861029D01*
X148393621Y-104012048D01*
X148394328Y-104014202D01*
X148487213Y-104297765D01*
X148166793Y-105239948D01*
X148048616Y-105586483D01*
X147953792Y-105860752D01*
X147879142Y-106069571D01*
X147821486Y-106219756D01*
X147777645Y-106318125D01*
X147744442Y-106371495D01*
X147718696Y-106386681D01*
X147697229Y-106370502D01*
X147676863Y-106329774D01*
X147668472Y-106308553D01*
X147650912Y-106238278D01*
X147623988Y-106100475D01*
X147590082Y-105910203D01*
X147551576Y-105682519D01*
X147510850Y-105432481D01*
X147470285Y-105175146D01*
X147432262Y-104925573D01*
X147399163Y-104698818D01*
X147373369Y-104509939D01*
X147357261Y-104373993D01*
X147352949Y-104313289D01*
X147377511Y-104173004D01*
X147442747Y-103996483D01*
X147535983Y-103811612D01*
X147644543Y-103646278D01*
X147671353Y-103612742D01*
X147736785Y-103521439D01*
X147769250Y-103450411D01*
X147770026Y-103442986D01*
X147734754Y-103405205D01*
X147638781Y-103340951D01*
X147496868Y-103259294D01*
X147328181Y-103171493D01*
X146886337Y-102951858D01*
X146781830Y-103049294D01*
X146689627Y-103144127D01*
X146584514Y-103264331D01*
X146551466Y-103304878D01*
X146478082Y-103402669D01*
X146452923Y-103462507D01*
X146469670Y-103509556D01*
X146493055Y-103537555D01*
X146547072Y-103631130D01*
X146560502Y-103696178D01*
X146590041Y-103787713D01*
X146641547Y-103853616D01*
X146697871Y-103933799D01*
X146761975Y-104067075D01*
X146823144Y-104225197D01*
X146870666Y-104379918D01*
X146893825Y-104502993D01*
X146894589Y-104520757D01*
X146881474Y-104584218D01*
X146844951Y-104712392D01*
X146789643Y-104891571D01*
X146720176Y-105108047D01*
X146641174Y-105348112D01*
X146557261Y-105598059D01*
X146473062Y-105844178D01*
X146393202Y-106072763D01*
X146322305Y-106270104D01*
X146264996Y-106422496D01*
X146225900Y-106516228D01*
X146214292Y-106537250D01*
X146159300Y-106566267D01*
X146135003Y-106554170D01*
X146118425Y-106505008D01*
X146090987Y-106387413D01*
X146055195Y-106215287D01*
X146013558Y-106002533D01*
X145968585Y-105763055D01*
X145922784Y-105510757D01*
X145878663Y-105259541D01*
X145838730Y-105023310D01*
X145805493Y-104815968D01*
X145781462Y-104651418D01*
X145769144Y-104543563D01*
X145768056Y-104520211D01*
X145786681Y-104424220D01*
X145834336Y-104292441D01*
X145872325Y-104210277D01*
X145929764Y-104093375D01*
X145967635Y-104009491D01*
X145976594Y-103983189D01*
X145946754Y-103997259D01*
X145867218Y-104053255D01*
X145752968Y-104140419D01*
X145706486Y-104177147D01*
X145561832Y-104289906D01*
X145425405Y-104391940D01*
X145323075Y-104463979D01*
X145310263Y-104472280D01*
X145184148Y-104552130D01*
X145184148Y-103849048D01*
X145382259Y-103707111D01*
X145475109Y-103632833D01*
X145613848Y-103511865D01*
X145785169Y-103356292D01*
X145975765Y-103178193D01*
X146170934Y-102991009D01*
X146354544Y-102814700D01*
X146519658Y-102660308D01*
X146656422Y-102536711D01*
X146754984Y-102452788D01*
X146805489Y-102417417D01*
X146808166Y-102416845D01*
X146867608Y-102434493D01*
X146976050Y-102480477D01*
X147093465Y-102536689D01*
X147221428Y-102597772D01*
X147404168Y-102680832D01*
X147619396Y-102775924D01*
X147844825Y-102873101D01*
X147895149Y-102894438D01*
X148146644Y-103005370D01*
X148418034Y-103132761D01*
X148677089Y-103261065D01*
X148891578Y-103374734D01*
X148896134Y-103377278D01*
X149301542Y-103595783D01*
X149654902Y-103765070D01*
X149969857Y-103887333D01*
X150260047Y-103964764D01*
X150539116Y-103999556D01*
X150820706Y-103993901D01*
X151118458Y-103949992D01*
X151446015Y-103870022D01*
X151627990Y-103816351D01*
X151732869Y-103787077D01*
X151821298Y-103774916D01*
X151918421Y-103781140D01*
X152049380Y-103807022D01*
X152206992Y-103845659D01*
X152577455Y-103939177D01*
X152707484Y-103779027D01*
X152786888Y-103677232D01*
X152897774Y-103529872D01*
X153023367Y-103359421D01*
X153110396Y-103239307D01*
X153326822Y-102967414D01*
X153546577Y-102757993D01*
X153792543Y-102592426D01*
X154067891Y-102460227D01*
X154214969Y-102393525D01*
X154346894Y-102324492D01*
X154407614Y-102286813D01*
X154476135Y-102230184D01*
X154498505Y-102171400D01*
X154484076Y-102076318D01*
X154475149Y-102040247D01*
X154450069Y-101917825D01*
X154460025Y-101852606D01*
X154512359Y-101823107D01*
X154551874Y-101815737D01*
X154627701Y-101783169D01*
X154628170Y-101723688D01*
X154554026Y-101644543D01*
X154532709Y-101628694D01*
X154431742Y-101562049D01*
X154379502Y-101547140D01*
X154360346Y-101582649D01*
X154358367Y-101613972D01*
X154337490Y-101705502D01*
X154301891Y-101786173D01*
X154269765Y-101837360D01*
X154249415Y-101837417D01*
X154233352Y-101775320D01*
X154216887Y-101661049D01*
X154198434Y-101535485D01*
X154182340Y-101481847D01*
X154161225Y-101489216D01*
X154132966Y-101536870D01*
X154088707Y-101598838D01*
X154061220Y-101583962D01*
X154059230Y-101578578D01*
X154042814Y-101580984D01*
X154021959Y-101649951D01*
X154008560Y-101723749D01*
X153977439Y-101899114D01*
X153949075Y-102003454D01*
X153925573Y-102033788D01*
X153909043Y-101987139D01*
X153901823Y-101874645D01*
X153898349Y-101745555D01*
X153890927Y-101690562D01*
X153874040Y-101700360D01*
X153842172Y-101765645D01*
X153840005Y-101770376D01*
X153782712Y-101895499D01*
X153779325Y-101787754D01*
X153756000Y-101701776D01*
X153705312Y-101684005D01*
X153644802Y-101732352D01*
X153604347Y-101808608D01*
X153578643Y-101869166D01*
X153560994Y-101882582D01*
X153546748Y-101838884D01*
X153531259Y-101728097D01*
X153519608Y-101626818D01*
X153497314Y-101470801D01*
X153496717Y-101467995D01*
X153738387Y-101467995D01*
X153745523Y-101568467D01*
X153768428Y-101621793D01*
X153775937Y-101624399D01*
X153811955Y-101591941D01*
X153813488Y-101572264D01*
X153798170Y-101494312D01*
X153775937Y-101415860D01*
X153755931Y-101362181D01*
X154789450Y-101362181D01*
X154790905Y-101377478D01*
X154835605Y-101401226D01*
X154841489Y-101403878D01*
X154959705Y-101432406D01*
X155121494Y-101442510D01*
X155292501Y-101435083D01*
X155438370Y-101411020D01*
X155503881Y-101386632D01*
X155500443Y-101368336D01*
X155416247Y-101355892D01*
X155253764Y-101349559D01*
X155144957Y-101348765D01*
X154956435Y-101349648D01*
X154841279Y-101353512D01*
X154789450Y-101362181D01*
X153755931Y-101362181D01*
X153754307Y-101357826D01*
X153743616Y-101368303D01*
X153738763Y-101454373D01*
X153738387Y-101467995D01*
X153496717Y-101467995D01*
X153470845Y-101346419D01*
X153445487Y-101277874D01*
G37*
D12*
X194179000Y-79860000D02*
X194179000Y-77620000D01*
X193939000Y-79860000D02*
X193939000Y-77620000D01*
X194059000Y-79860000D02*
X194059000Y-77620000D01*
X188619000Y-78740000D02*
X190539000Y-78740000D01*
X196699000Y-78740000D02*
X194779000Y-78740000D01*
X190539000Y-79860000D02*
X194779000Y-79860000D01*
X190539000Y-77620000D02*
X190539000Y-79860000D01*
X194779000Y-77620000D02*
X190539000Y-77620000D01*
X194779000Y-79860000D02*
X194779000Y-77620000D01*
X193822000Y-65659000D02*
X193822000Y-62209000D01*
X193822000Y-65659000D02*
X193822000Y-67609000D01*
X188702000Y-65659000D02*
X188702000Y-63709000D01*
X188702000Y-65659000D02*
X188702000Y-67609000D01*
X207645000Y-79105000D02*
X207645000Y-91805000D01*
X169545000Y-79105000D02*
X207645000Y-79105000D01*
X169545000Y-91805000D02*
X169545000Y-79105000D01*
X207645000Y-91805000D02*
X169545000Y-91805000D01*
D10*
X198915000Y-18786000D02*
X198915000Y-22386000D01*
X206215000Y-18786000D02*
X198915000Y-18786000D01*
X206215000Y-22386000D02*
X206215000Y-18786000D01*
X206315000Y-25336000D02*
X198815000Y-25336000D01*
X201065000Y-17586000D02*
X201065000Y-18586000D01*
X204065000Y-17586000D02*
X201065000Y-17586000D01*
X204065000Y-18586000D02*
X204065000Y-17586000D01*
D13*
X181642113Y-153614793D02*
X178742113Y-158637740D01*
X179563653Y-152414793D02*
X181642113Y-153614793D01*
X176663653Y-157437740D02*
X179563653Y-152414793D01*
X176701153Y-157372788D02*
X178779613Y-158572788D01*
X176763653Y-157264535D02*
X178842113Y-158464535D01*
X178729613Y-158659391D02*
X176651153Y-157459391D01*
X176851153Y-157112981D02*
X178929613Y-158312981D01*
X176938653Y-156961426D02*
X179017113Y-158161426D01*
X177026153Y-156809872D02*
X179104613Y-158009872D01*
X140254871Y-135154230D02*
X135231924Y-132254230D01*
X141454871Y-133075770D02*
X140254871Y-135154230D01*
X136431924Y-130175770D02*
X141454871Y-133075770D01*
X136496876Y-130213270D02*
X135296876Y-132291730D01*
X136605129Y-130275770D02*
X135405129Y-132354230D01*
X135210273Y-132241730D02*
X136410273Y-130163270D01*
X136756683Y-130363270D02*
X135556683Y-132441730D01*
X136908238Y-130450770D02*
X135708238Y-132529230D01*
X137059792Y-130538270D02*
X135859792Y-132616730D01*
X59120833Y-27045000D02*
X59120833Y-32845000D01*
X56720833Y-27045000D02*
X59120833Y-27045000D01*
X56720833Y-32845000D02*
X56720833Y-27045000D01*
X56720833Y-32770000D02*
X59120833Y-32770000D01*
X56720833Y-32645000D02*
X59120833Y-32645000D01*
X59120833Y-32870000D02*
X56720833Y-32870000D01*
X56720833Y-32470000D02*
X59120833Y-32470000D01*
X56720833Y-32295000D02*
X59120833Y-32295000D01*
X56720833Y-32120000D02*
X59120833Y-32120000D01*
X159950000Y-45904500D02*
X159950000Y-51704500D01*
X157550000Y-45904500D02*
X159950000Y-45904500D01*
X157550000Y-51704500D02*
X157550000Y-45904500D01*
X157550000Y-51629500D02*
X159950000Y-51629500D01*
X157550000Y-51504500D02*
X159950000Y-51504500D01*
X159950000Y-51729500D02*
X157550000Y-51729500D01*
X157550000Y-51329500D02*
X159950000Y-51329500D01*
X157550000Y-51154500D02*
X159950000Y-51154500D01*
X157550000Y-50979500D02*
X159950000Y-50979500D01*
X168840000Y-84195000D02*
X168840000Y-89995000D01*
X166440000Y-84195000D02*
X168840000Y-84195000D01*
X166440000Y-89995000D02*
X166440000Y-84195000D01*
X166440000Y-89920000D02*
X168840000Y-89920000D01*
X166440000Y-89795000D02*
X168840000Y-89795000D01*
X168840000Y-90020000D02*
X166440000Y-90020000D01*
X166440000Y-89620000D02*
X168840000Y-89620000D01*
X166440000Y-89445000D02*
X168840000Y-89445000D01*
X166440000Y-89270000D02*
X168840000Y-89270000D01*
X135864165Y-27045000D02*
X135864165Y-32845000D01*
X133464165Y-27045000D02*
X135864165Y-27045000D01*
X133464165Y-32845000D02*
X133464165Y-27045000D01*
X133464165Y-32770000D02*
X135864165Y-32770000D01*
X133464165Y-32645000D02*
X135864165Y-32645000D01*
X135864165Y-32870000D02*
X133464165Y-32870000D01*
X133464165Y-32470000D02*
X135864165Y-32470000D01*
X133464165Y-32295000D02*
X135864165Y-32295000D01*
X133464165Y-32120000D02*
X135864165Y-32120000D01*
X165144329Y-144089793D02*
X162244329Y-149112740D01*
X163065869Y-142889793D02*
X165144329Y-144089793D01*
X160165869Y-147912740D02*
X163065869Y-142889793D01*
X160203369Y-147847788D02*
X162281829Y-149047788D01*
X160265869Y-147739535D02*
X162344329Y-148939535D01*
X162231829Y-149134391D02*
X160153369Y-147934391D01*
X160353369Y-147587981D02*
X162431829Y-148787981D01*
X160440869Y-147436426D02*
X162519329Y-148636426D01*
X160528369Y-147284872D02*
X162606829Y-148484872D01*
X111690000Y-84195000D02*
X111690000Y-89995000D01*
X109290000Y-84195000D02*
X111690000Y-84195000D01*
X109290000Y-89995000D02*
X109290000Y-84195000D01*
X109290000Y-89920000D02*
X111690000Y-89920000D01*
X109290000Y-89795000D02*
X111690000Y-89795000D01*
X111690000Y-90020000D02*
X109290000Y-90020000D01*
X109290000Y-89620000D02*
X111690000Y-89620000D01*
X109290000Y-89445000D02*
X111690000Y-89445000D01*
X109290000Y-89270000D02*
X111690000Y-89270000D01*
X183572000Y-65145000D02*
X183572000Y-70945000D01*
X181172000Y-65145000D02*
X183572000Y-65145000D01*
X181172000Y-70945000D02*
X181172000Y-65145000D01*
X181172000Y-70870000D02*
X183572000Y-70870000D01*
X181172000Y-70745000D02*
X183572000Y-70745000D01*
X183572000Y-70970000D02*
X181172000Y-70970000D01*
X181172000Y-70570000D02*
X183572000Y-70570000D01*
X181172000Y-70395000D02*
X183572000Y-70395000D01*
X181172000Y-70220000D02*
X183572000Y-70220000D01*
X121342000Y-45904500D02*
X121342000Y-51704500D01*
X118942000Y-45904500D02*
X121342000Y-45904500D01*
X118942000Y-51704500D02*
X118942000Y-45904500D01*
X118942000Y-51629500D02*
X121342000Y-51629500D01*
X118942000Y-51504500D02*
X121342000Y-51504500D01*
X121342000Y-51729500D02*
X118942000Y-51729500D01*
X118942000Y-51329500D02*
X121342000Y-51329500D01*
X118942000Y-51154500D02*
X121342000Y-51154500D01*
X118942000Y-50979500D02*
X121342000Y-50979500D01*
X179635000Y-27045000D02*
X179635000Y-32845000D01*
X177235000Y-27045000D02*
X179635000Y-27045000D01*
X177235000Y-32845000D02*
X177235000Y-27045000D01*
X177235000Y-32770000D02*
X179635000Y-32770000D01*
X177235000Y-32645000D02*
X179635000Y-32645000D01*
X179635000Y-32870000D02*
X177235000Y-32870000D01*
X177235000Y-32470000D02*
X179635000Y-32470000D01*
X177235000Y-32295000D02*
X179635000Y-32295000D01*
X177235000Y-32120000D02*
X179635000Y-32120000D01*
X134550000Y-102610000D02*
X134550000Y-108410000D01*
X132150000Y-102610000D02*
X134550000Y-102610000D01*
X132150000Y-108410000D02*
X132150000Y-102610000D01*
X132150000Y-108335000D02*
X134550000Y-108335000D01*
X132150000Y-108210000D02*
X134550000Y-108210000D01*
X134550000Y-108435000D02*
X132150000Y-108435000D01*
X132150000Y-108035000D02*
X134550000Y-108035000D01*
X132150000Y-107860000D02*
X134550000Y-107860000D01*
X132150000Y-107685000D02*
X134550000Y-107685000D01*
X190956208Y-137482307D02*
X188056208Y-142505254D01*
X188877748Y-136282307D02*
X190956208Y-137482307D01*
X185977748Y-141305254D02*
X188877748Y-136282307D01*
X186015248Y-141240302D02*
X188093708Y-142440302D01*
X186077748Y-141132049D02*
X188156208Y-142332049D01*
X188043708Y-142526905D02*
X185965248Y-141326905D01*
X186165248Y-140980495D02*
X188243708Y-142180495D01*
X186252748Y-140828940D02*
X188331208Y-142028940D01*
X186340248Y-140677386D02*
X188418708Y-141877386D01*
X200270303Y-121349821D02*
X197370303Y-126372768D01*
X198191843Y-120149821D02*
X200270303Y-121349821D01*
X195291843Y-125172768D02*
X198191843Y-120149821D01*
X195329343Y-125107816D02*
X197407803Y-126307816D01*
X195391843Y-124999563D02*
X197470303Y-126199563D01*
X197357803Y-126394419D02*
X195279343Y-125194419D01*
X195479343Y-124848009D02*
X197557803Y-126048009D01*
X195566843Y-124696454D02*
X197645303Y-125896454D01*
X195654343Y-124544900D02*
X197732803Y-125744900D01*
X97492499Y-27045000D02*
X97492499Y-32845000D01*
X95092499Y-27045000D02*
X97492499Y-27045000D01*
X95092499Y-32845000D02*
X95092499Y-27045000D01*
X95092499Y-32770000D02*
X97492499Y-32770000D01*
X95092499Y-32645000D02*
X97492499Y-32645000D01*
X97492499Y-32870000D02*
X95092499Y-32870000D01*
X95092499Y-32470000D02*
X97492499Y-32470000D01*
X95092499Y-32295000D02*
X97492499Y-32295000D01*
X95092499Y-32120000D02*
X97492499Y-32120000D01*
X183772519Y-111824821D02*
X180872519Y-116847768D01*
X181694059Y-110624821D02*
X183772519Y-111824821D01*
X178794059Y-115647768D02*
X181694059Y-110624821D01*
X178831559Y-115582816D02*
X180910019Y-116782816D01*
X178894059Y-115474563D02*
X180972519Y-116674563D01*
X180860019Y-116869419D02*
X178781559Y-115669419D01*
X178981559Y-115323009D02*
X181060019Y-116523009D01*
X179069059Y-115171454D02*
X181147519Y-116371454D01*
X179156559Y-115019900D02*
X181235019Y-116219900D01*
X155050000Y-27045000D02*
X155050000Y-32845000D01*
X152650000Y-27045000D02*
X155050000Y-27045000D01*
X152650000Y-32845000D02*
X152650000Y-27045000D01*
X152650000Y-32770000D02*
X155050000Y-32770000D01*
X152650000Y-32645000D02*
X155050000Y-32645000D01*
X155050000Y-32870000D02*
X152650000Y-32870000D01*
X152650000Y-32470000D02*
X155050000Y-32470000D01*
X152650000Y-32295000D02*
X155050000Y-32295000D01*
X152650000Y-32120000D02*
X155050000Y-32120000D01*
X78306666Y-27045000D02*
X78306666Y-32845000D01*
X75906666Y-27045000D02*
X78306666Y-27045000D01*
X75906666Y-32845000D02*
X75906666Y-27045000D01*
X75906666Y-32770000D02*
X78306666Y-32770000D01*
X75906666Y-32645000D02*
X78306666Y-32645000D01*
X78306666Y-32870000D02*
X75906666Y-32870000D01*
X75906666Y-32470000D02*
X78306666Y-32470000D01*
X75906666Y-32295000D02*
X78306666Y-32295000D01*
X75906666Y-32120000D02*
X78306666Y-32120000D01*
X125660000Y-65145000D02*
X125660000Y-70945000D01*
X123260000Y-65145000D02*
X125660000Y-65145000D01*
X123260000Y-70945000D02*
X123260000Y-65145000D01*
X123260000Y-70870000D02*
X125660000Y-70870000D01*
X123260000Y-70745000D02*
X125660000Y-70745000D01*
X125660000Y-70970000D02*
X123260000Y-70970000D01*
X123260000Y-70570000D02*
X125660000Y-70570000D01*
X123260000Y-70395000D02*
X125660000Y-70395000D01*
X123260000Y-70220000D02*
X125660000Y-70220000D01*
X163760000Y-65145000D02*
X163760000Y-70945000D01*
X161360000Y-65145000D02*
X163760000Y-65145000D01*
X161360000Y-70945000D02*
X161360000Y-65145000D01*
X161360000Y-70870000D02*
X163760000Y-70870000D01*
X161360000Y-70745000D02*
X163760000Y-70745000D01*
X163760000Y-70970000D02*
X161360000Y-70970000D01*
X161360000Y-70570000D02*
X163760000Y-70570000D01*
X161360000Y-70395000D02*
X163760000Y-70395000D01*
X161360000Y-70220000D02*
X163760000Y-70220000D01*
X116678332Y-27045000D02*
X116678332Y-32845000D01*
X114278332Y-27045000D02*
X116678332Y-27045000D01*
X114278332Y-32845000D02*
X114278332Y-27045000D01*
X114278332Y-32770000D02*
X116678332Y-32770000D01*
X114278332Y-32645000D02*
X116678332Y-32645000D01*
X116678332Y-32870000D02*
X114278332Y-32870000D01*
X114278332Y-32470000D02*
X116678332Y-32470000D01*
X114278332Y-32295000D02*
X116678332Y-32295000D01*
X114278332Y-32120000D02*
X116678332Y-32120000D01*
X63430000Y-45904500D02*
X63430000Y-51704500D01*
X61030000Y-45904500D02*
X63430000Y-45904500D01*
X61030000Y-51704500D02*
X61030000Y-45904500D01*
X61030000Y-51629500D02*
X63430000Y-51629500D01*
X61030000Y-51504500D02*
X63430000Y-51504500D01*
X63430000Y-51729500D02*
X61030000Y-51729500D01*
X61030000Y-51329500D02*
X63430000Y-51329500D01*
X61030000Y-51154500D02*
X63430000Y-51154500D01*
X61030000Y-50979500D02*
X63430000Y-50979500D01*
X39300000Y-102610000D02*
X39300000Y-108410000D01*
X36900000Y-102610000D02*
X39300000Y-102610000D01*
X36900000Y-108410000D02*
X36900000Y-102610000D01*
X36900000Y-108335000D02*
X39300000Y-108335000D01*
X36900000Y-108210000D02*
X39300000Y-108210000D01*
X39300000Y-108435000D02*
X36900000Y-108435000D01*
X36900000Y-108035000D02*
X39300000Y-108035000D01*
X36900000Y-107860000D02*
X39300000Y-107860000D01*
X36900000Y-107685000D02*
X39300000Y-107685000D01*
X144710000Y-65145000D02*
X144710000Y-70945000D01*
X142310000Y-65145000D02*
X144710000Y-65145000D01*
X142310000Y-70945000D02*
X142310000Y-65145000D01*
X142310000Y-70870000D02*
X144710000Y-70870000D01*
X142310000Y-70745000D02*
X144710000Y-70745000D01*
X144710000Y-70970000D02*
X142310000Y-70970000D01*
X142310000Y-70570000D02*
X144710000Y-70570000D01*
X142310000Y-70395000D02*
X144710000Y-70395000D01*
X142310000Y-70220000D02*
X144710000Y-70220000D01*
X39935000Y-27045000D02*
X39935000Y-32845000D01*
X37535000Y-27045000D02*
X39935000Y-27045000D01*
X37535000Y-32845000D02*
X37535000Y-27045000D01*
X37535000Y-32770000D02*
X39935000Y-32770000D01*
X37535000Y-32645000D02*
X39935000Y-32645000D01*
X39935000Y-32870000D02*
X37535000Y-32870000D01*
X37535000Y-32470000D02*
X39935000Y-32470000D01*
X37535000Y-32295000D02*
X39935000Y-32295000D01*
X37535000Y-32120000D02*
X39935000Y-32120000D01*
X102038000Y-45904500D02*
X102038000Y-51704500D01*
X99638000Y-45904500D02*
X102038000Y-45904500D01*
X99638000Y-51704500D02*
X99638000Y-45904500D01*
X99638000Y-51629500D02*
X102038000Y-51629500D01*
X99638000Y-51504500D02*
X102038000Y-51504500D01*
X102038000Y-51729500D02*
X99638000Y-51729500D01*
X99638000Y-51329500D02*
X102038000Y-51329500D01*
X99638000Y-51154500D02*
X102038000Y-51154500D01*
X99638000Y-50979500D02*
X102038000Y-50979500D01*
X181730500Y-45904500D02*
X181730500Y-51704500D01*
X179330500Y-45904500D02*
X181730500Y-45904500D01*
X179330500Y-51704500D02*
X179330500Y-45904500D01*
X179330500Y-51629500D02*
X181730500Y-51629500D01*
X179330500Y-51504500D02*
X181730500Y-51504500D01*
X181730500Y-51729500D02*
X179330500Y-51729500D01*
X179330500Y-51329500D02*
X181730500Y-51329500D01*
X179330500Y-51154500D02*
X181730500Y-51154500D01*
X179330500Y-50979500D02*
X181730500Y-50979500D01*
X45015000Y-65145000D02*
X45015000Y-70945000D01*
X42615000Y-65145000D02*
X45015000Y-65145000D01*
X42615000Y-70945000D02*
X42615000Y-65145000D01*
X42615000Y-70870000D02*
X45015000Y-70870000D01*
X42615000Y-70745000D02*
X45015000Y-70745000D01*
X45015000Y-70970000D02*
X42615000Y-70970000D01*
X42615000Y-70570000D02*
X45015000Y-70570000D01*
X42615000Y-70395000D02*
X45015000Y-70395000D01*
X42615000Y-70220000D02*
X45015000Y-70220000D01*
X77400000Y-102610000D02*
X77400000Y-108410000D01*
X75000000Y-102610000D02*
X77400000Y-102610000D01*
X75000000Y-108410000D02*
X75000000Y-102610000D01*
X75000000Y-108335000D02*
X77400000Y-108335000D01*
X75000000Y-108210000D02*
X77400000Y-108210000D01*
X77400000Y-108435000D02*
X75000000Y-108435000D01*
X75000000Y-108035000D02*
X77400000Y-108035000D01*
X75000000Y-107860000D02*
X77400000Y-107860000D01*
X75000000Y-107685000D02*
X77400000Y-107685000D01*
X106610000Y-65145000D02*
X106610000Y-70945000D01*
X104210000Y-65145000D02*
X106610000Y-65145000D01*
X104210000Y-70945000D02*
X104210000Y-65145000D01*
X104210000Y-70870000D02*
X106610000Y-70870000D01*
X104210000Y-70745000D02*
X106610000Y-70745000D01*
X106610000Y-70970000D02*
X104210000Y-70970000D01*
X104210000Y-70570000D02*
X106610000Y-70570000D01*
X104210000Y-70395000D02*
X106610000Y-70395000D01*
X104210000Y-70220000D02*
X106610000Y-70220000D01*
X68510000Y-65145000D02*
X68510000Y-70945000D01*
X66110000Y-65145000D02*
X68510000Y-65145000D01*
X66110000Y-70945000D02*
X66110000Y-65145000D01*
X66110000Y-70870000D02*
X68510000Y-70870000D01*
X66110000Y-70745000D02*
X68510000Y-70745000D01*
X68510000Y-70970000D02*
X66110000Y-70970000D01*
X66110000Y-70570000D02*
X68510000Y-70570000D01*
X66110000Y-70395000D02*
X68510000Y-70395000D01*
X66110000Y-70220000D02*
X68510000Y-70220000D01*
X58350000Y-102610000D02*
X58350000Y-108410000D01*
X55950000Y-102610000D02*
X58350000Y-102610000D01*
X55950000Y-108410000D02*
X55950000Y-102610000D01*
X55950000Y-108335000D02*
X58350000Y-108335000D01*
X55950000Y-108210000D02*
X58350000Y-108210000D01*
X58350000Y-108435000D02*
X55950000Y-108435000D01*
X55950000Y-108035000D02*
X58350000Y-108035000D01*
X55950000Y-107860000D02*
X58350000Y-107860000D01*
X55950000Y-107685000D02*
X58350000Y-107685000D01*
X149790000Y-84195000D02*
X149790000Y-89995000D01*
X147390000Y-84195000D02*
X149790000Y-84195000D01*
X147390000Y-89995000D02*
X147390000Y-84195000D01*
X147390000Y-89920000D02*
X149790000Y-89920000D01*
X147390000Y-89795000D02*
X149790000Y-89795000D01*
X149790000Y-90020000D02*
X147390000Y-90020000D01*
X147390000Y-89620000D02*
X149790000Y-89620000D01*
X147390000Y-89445000D02*
X149790000Y-89445000D01*
X147390000Y-89270000D02*
X149790000Y-89270000D01*
X73590000Y-84195000D02*
X73590000Y-89995000D01*
X71190000Y-84195000D02*
X73590000Y-84195000D01*
X71190000Y-89995000D02*
X71190000Y-84195000D01*
X71190000Y-89920000D02*
X73590000Y-89920000D01*
X71190000Y-89795000D02*
X73590000Y-89795000D01*
X73590000Y-90020000D02*
X71190000Y-90020000D01*
X71190000Y-89620000D02*
X73590000Y-89620000D01*
X71190000Y-89445000D02*
X73590000Y-89445000D01*
X71190000Y-89270000D02*
X73590000Y-89270000D01*
X46920000Y-84195000D02*
X46920000Y-89995000D01*
X44520000Y-84195000D02*
X46920000Y-84195000D01*
X44520000Y-89995000D02*
X44520000Y-84195000D01*
X44520000Y-89920000D02*
X46920000Y-89920000D01*
X44520000Y-89795000D02*
X46920000Y-89795000D01*
X46920000Y-90020000D02*
X44520000Y-90020000D01*
X44520000Y-89620000D02*
X46920000Y-89620000D01*
X44520000Y-89445000D02*
X46920000Y-89445000D01*
X44520000Y-89270000D02*
X46920000Y-89270000D01*
X115500000Y-102610000D02*
X115500000Y-108410000D01*
X113100000Y-102610000D02*
X115500000Y-102610000D01*
X113100000Y-108410000D02*
X113100000Y-102610000D01*
X113100000Y-108335000D02*
X115500000Y-108335000D01*
X113100000Y-108210000D02*
X115500000Y-108210000D01*
X115500000Y-108435000D02*
X113100000Y-108435000D01*
X113100000Y-108035000D02*
X115500000Y-108035000D01*
X113100000Y-107860000D02*
X115500000Y-107860000D01*
X113100000Y-107685000D02*
X115500000Y-107685000D01*
X43110000Y-45904500D02*
X43110000Y-51704500D01*
X40710000Y-45904500D02*
X43110000Y-45904500D01*
X40710000Y-51704500D02*
X40710000Y-45904500D01*
X40710000Y-51629500D02*
X43110000Y-51629500D01*
X40710000Y-51504500D02*
X43110000Y-51504500D01*
X43110000Y-51729500D02*
X40710000Y-51729500D01*
X40710000Y-51329500D02*
X43110000Y-51329500D01*
X40710000Y-51154500D02*
X43110000Y-51154500D01*
X40710000Y-50979500D02*
X43110000Y-50979500D01*
X130740000Y-84195000D02*
X130740000Y-89995000D01*
X128340000Y-84195000D02*
X130740000Y-84195000D01*
X128340000Y-89995000D02*
X128340000Y-84195000D01*
X128340000Y-89920000D02*
X130740000Y-89920000D01*
X128340000Y-89795000D02*
X130740000Y-89795000D01*
X130740000Y-90020000D02*
X128340000Y-90020000D01*
X128340000Y-89620000D02*
X130740000Y-89620000D01*
X128340000Y-89445000D02*
X130740000Y-89445000D01*
X128340000Y-89270000D02*
X130740000Y-89270000D01*
X82734000Y-45904500D02*
X82734000Y-51704500D01*
X80334000Y-45904500D02*
X82734000Y-45904500D01*
X80334000Y-51704500D02*
X80334000Y-45904500D01*
X80334000Y-51629500D02*
X82734000Y-51629500D01*
X80334000Y-51504500D02*
X82734000Y-51504500D01*
X82734000Y-51729500D02*
X80334000Y-51729500D01*
X80334000Y-51329500D02*
X82734000Y-51329500D01*
X80334000Y-51154500D02*
X82734000Y-51154500D01*
X80334000Y-50979500D02*
X82734000Y-50979500D01*
X92640000Y-84195000D02*
X92640000Y-89995000D01*
X90240000Y-84195000D02*
X92640000Y-84195000D01*
X90240000Y-89995000D02*
X90240000Y-84195000D01*
X90240000Y-89920000D02*
X92640000Y-89920000D01*
X90240000Y-89795000D02*
X92640000Y-89795000D01*
X92640000Y-90020000D02*
X90240000Y-90020000D01*
X90240000Y-89620000D02*
X92640000Y-89620000D01*
X90240000Y-89445000D02*
X92640000Y-89445000D01*
X90240000Y-89270000D02*
X92640000Y-89270000D01*
X96450000Y-102610000D02*
X96450000Y-108410000D01*
X94050000Y-102610000D02*
X96450000Y-102610000D01*
X94050000Y-108410000D02*
X94050000Y-102610000D01*
X94050000Y-108335000D02*
X96450000Y-108335000D01*
X94050000Y-108210000D02*
X96450000Y-108210000D01*
X96450000Y-108435000D02*
X94050000Y-108435000D01*
X94050000Y-108035000D02*
X96450000Y-108035000D01*
X94050000Y-107860000D02*
X96450000Y-107860000D01*
X94050000Y-107685000D02*
X96450000Y-107685000D01*
X140646000Y-45904500D02*
X140646000Y-51704500D01*
X138246000Y-45904500D02*
X140646000Y-45904500D01*
X138246000Y-51704500D02*
X138246000Y-45904500D01*
X138246000Y-51629500D02*
X140646000Y-51629500D01*
X138246000Y-51504500D02*
X140646000Y-51504500D01*
X140646000Y-51729500D02*
X138246000Y-51729500D01*
X138246000Y-51329500D02*
X140646000Y-51329500D01*
X138246000Y-51154500D02*
X140646000Y-51154500D01*
X138246000Y-50979500D02*
X140646000Y-50979500D01*
X87560000Y-65145000D02*
X87560000Y-70945000D01*
X85160000Y-65145000D02*
X87560000Y-65145000D01*
X85160000Y-70945000D02*
X85160000Y-65145000D01*
X85160000Y-70870000D02*
X87560000Y-70870000D01*
X85160000Y-70745000D02*
X87560000Y-70745000D01*
X87560000Y-70970000D02*
X85160000Y-70970000D01*
X85160000Y-70570000D02*
X87560000Y-70570000D01*
X85160000Y-70395000D02*
X87560000Y-70395000D01*
X85160000Y-70220000D02*
X87560000Y-70220000D01*
X174458424Y-127957307D02*
X171558424Y-132980254D01*
X172379964Y-126757307D02*
X174458424Y-127957307D01*
X169479964Y-131780254D02*
X172379964Y-126757307D01*
X169517464Y-131715302D02*
X171595924Y-132915302D01*
X169579964Y-131607049D02*
X171658424Y-132807049D01*
X171545924Y-133001905D02*
X169467464Y-131801905D01*
X169667464Y-131455495D02*
X171745924Y-132655495D01*
X169754964Y-131303940D02*
X171833424Y-132503940D01*
X169842464Y-131152386D02*
X171920924Y-132352386D01*
D14*
X206065000Y-23886000D03*
X199065000Y-23836000D03*
D15*
X205065000Y-21336000D03*
X200065000Y-21336000D03*
X181152883Y-152062165D03*
G36*
X177545703Y-159909983D02*
G01*
X176160063Y-159109983D01*
X176960063Y-157724343D01*
X178345703Y-158524343D01*
X177545703Y-159909983D01*
G37*
X141807499Y-134665000D03*
G36*
X133959681Y-131057820D02*
G01*
X134759681Y-129672180D01*
X136145321Y-130472180D01*
X135345321Y-131857820D01*
X133959681Y-131057820D01*
G37*
X57920833Y-25945000D03*
D16*
X57920833Y-33745000D03*
D15*
X158750000Y-44804500D03*
D16*
X158750000Y-52604500D03*
D15*
X167640000Y-83095000D03*
D16*
X167640000Y-90895000D03*
D15*
X134664165Y-25945000D03*
D16*
X134664165Y-33745000D03*
D15*
X164655099Y-142537165D03*
G36*
X161047919Y-150384983D02*
G01*
X159662279Y-149584983D01*
X160462279Y-148199343D01*
X161847919Y-148999343D01*
X161047919Y-150384983D01*
G37*
X110490000Y-83095000D03*
D16*
X110490000Y-90895000D03*
D15*
X182372000Y-64045000D03*
D16*
X182372000Y-71845000D03*
D15*
X120142000Y-44804500D03*
D16*
X120142000Y-52604500D03*
D15*
X178435000Y-25945000D03*
D16*
X178435000Y-33745000D03*
D15*
X133350000Y-101510000D03*
D16*
X133350000Y-109310000D03*
D15*
X190466978Y-135929679D03*
G36*
X186859798Y-143777497D02*
G01*
X185474158Y-142977497D01*
X186274158Y-141591857D01*
X187659798Y-142391857D01*
X186859798Y-143777497D01*
G37*
X199781073Y-119797193D03*
G36*
X196173893Y-127645011D02*
G01*
X194788253Y-126845011D01*
X195588253Y-125459371D01*
X196973893Y-126259371D01*
X196173893Y-127645011D01*
G37*
X96292499Y-25945000D03*
D16*
X96292499Y-33745000D03*
D15*
X183283289Y-110272193D03*
G36*
X179676109Y-118120011D02*
G01*
X178290469Y-117320011D01*
X179090469Y-115934371D01*
X180476109Y-116734371D01*
X179676109Y-118120011D01*
G37*
X153850000Y-25945000D03*
D16*
X153850000Y-33745000D03*
D15*
X77106666Y-25945000D03*
D16*
X77106666Y-33745000D03*
D15*
X124460000Y-64045000D03*
D16*
X124460000Y-71845000D03*
D15*
X162560000Y-64045000D03*
D16*
X162560000Y-71845000D03*
D15*
X115478332Y-25945000D03*
D16*
X115478332Y-33745000D03*
D15*
X62230000Y-44804500D03*
D16*
X62230000Y-52604500D03*
D15*
X38100000Y-101510000D03*
D16*
X38100000Y-109310000D03*
D15*
X143510000Y-64045000D03*
D16*
X143510000Y-71845000D03*
D15*
X38735000Y-25945000D03*
D16*
X38735000Y-33745000D03*
D15*
X100838000Y-44804500D03*
D16*
X100838000Y-52604500D03*
D15*
X180530500Y-44804500D03*
D16*
X180530500Y-52604500D03*
D15*
X43815000Y-64045000D03*
D16*
X43815000Y-71845000D03*
D15*
X76200000Y-101510000D03*
D16*
X76200000Y-109310000D03*
D15*
X105410000Y-64045000D03*
D16*
X105410000Y-71845000D03*
D15*
X67310000Y-64045000D03*
D16*
X67310000Y-71845000D03*
D15*
X57150000Y-101510000D03*
D16*
X57150000Y-109310000D03*
D15*
X148590000Y-83095000D03*
D16*
X148590000Y-90895000D03*
D15*
X72390000Y-83095000D03*
D16*
X72390000Y-90895000D03*
D15*
X45720000Y-83095000D03*
D16*
X45720000Y-90895000D03*
D15*
X114300000Y-101510000D03*
D16*
X114300000Y-109310000D03*
D15*
X41910000Y-44804500D03*
D16*
X41910000Y-52604500D03*
D15*
X129540000Y-83095000D03*
D16*
X129540000Y-90895000D03*
D15*
X81534000Y-44804500D03*
D16*
X81534000Y-52604500D03*
D15*
X91440000Y-83095000D03*
D16*
X91440000Y-90895000D03*
D15*
X95250000Y-101510000D03*
D16*
X95250000Y-109310000D03*
D15*
X139446000Y-44804500D03*
D16*
X139446000Y-52604500D03*
D15*
X86360000Y-64045000D03*
D16*
X86360000Y-71845000D03*
D15*
X173969194Y-126404679D03*
G36*
X170362014Y-134252497D02*
G01*
X168976374Y-133452497D01*
X169776374Y-132066857D01*
X171162014Y-132866857D01*
X170362014Y-134252497D01*
G37*
M02*
