G04 #@! TF.GenerationSoftware,KiCad,Pcbnew,(5.99.0-1941-g4629b701e)*
G04 #@! TF.CreationDate,2020-06-12T19:14:52+08:00*
G04 #@! TF.ProjectId,Keyboar-layout,4b657962-6f61-4722-9d6c-61796f75742e,rev?*
G04 #@! TF.SameCoordinates,Original*
G04 #@! TF.FileFunction,Paste,Bot*
G04 #@! TF.FilePolarity,Positive*
%FSLAX46Y46*%
G04 Gerber Fmt 4.6, Leading zero omitted, Abs format (unit mm)*
G04 Created by KiCad (PCBNEW (5.99.0-1941-g4629b701e)) date 2020-06-12 19:14:52*
%MOMM*%
%LPD*%
G01*
G04 APERTURE LIST*
%ADD10R,2.400000X0.700000*%
G04 APERTURE END LIST*
G36*
G01*
X189207000Y-67459000D02*
X189507000Y-67459000D01*
G75*
G02*
X189657000Y-67609000I0J-150000D01*
G01*
X189657000Y-68959000D01*
G75*
G02*
X189507000Y-69109000I-150000J0D01*
G01*
X189207000Y-69109000D01*
G75*
G02*
X189057000Y-68959000I0J150000D01*
G01*
X189057000Y-67609000D01*
G75*
G02*
X189207000Y-67459000I150000J0D01*
G01*
G37*
G36*
G01*
X190477000Y-67459000D02*
X190777000Y-67459000D01*
G75*
G02*
X190927000Y-67609000I0J-150000D01*
G01*
X190927000Y-68959000D01*
G75*
G02*
X190777000Y-69109000I-150000J0D01*
G01*
X190477000Y-69109000D01*
G75*
G02*
X190327000Y-68959000I0J150000D01*
G01*
X190327000Y-67609000D01*
G75*
G02*
X190477000Y-67459000I150000J0D01*
G01*
G37*
G36*
G01*
X191747000Y-67459000D02*
X192047000Y-67459000D01*
G75*
G02*
X192197000Y-67609000I0J-150000D01*
G01*
X192197000Y-68959000D01*
G75*
G02*
X192047000Y-69109000I-150000J0D01*
G01*
X191747000Y-69109000D01*
G75*
G02*
X191597000Y-68959000I0J150000D01*
G01*
X191597000Y-67609000D01*
G75*
G02*
X191747000Y-67459000I150000J0D01*
G01*
G37*
G36*
G01*
X193017000Y-67459000D02*
X193317000Y-67459000D01*
G75*
G02*
X193467000Y-67609000I0J-150000D01*
G01*
X193467000Y-68959000D01*
G75*
G02*
X193317000Y-69109000I-150000J0D01*
G01*
X193017000Y-69109000D01*
G75*
G02*
X192867000Y-68959000I0J150000D01*
G01*
X192867000Y-67609000D01*
G75*
G02*
X193017000Y-67459000I150000J0D01*
G01*
G37*
G36*
G01*
X193017000Y-62209000D02*
X193317000Y-62209000D01*
G75*
G02*
X193467000Y-62359000I0J-150000D01*
G01*
X193467000Y-63709000D01*
G75*
G02*
X193317000Y-63859000I-150000J0D01*
G01*
X193017000Y-63859000D01*
G75*
G02*
X192867000Y-63709000I0J150000D01*
G01*
X192867000Y-62359000D01*
G75*
G02*
X193017000Y-62209000I150000J0D01*
G01*
G37*
G36*
G01*
X191747000Y-62209000D02*
X192047000Y-62209000D01*
G75*
G02*
X192197000Y-62359000I0J-150000D01*
G01*
X192197000Y-63709000D01*
G75*
G02*
X192047000Y-63859000I-150000J0D01*
G01*
X191747000Y-63859000D01*
G75*
G02*
X191597000Y-63709000I0J150000D01*
G01*
X191597000Y-62359000D01*
G75*
G02*
X191747000Y-62209000I150000J0D01*
G01*
G37*
G36*
G01*
X190477000Y-62209000D02*
X190777000Y-62209000D01*
G75*
G02*
X190927000Y-62359000I0J-150000D01*
G01*
X190927000Y-63709000D01*
G75*
G02*
X190777000Y-63859000I-150000J0D01*
G01*
X190477000Y-63859000D01*
G75*
G02*
X190327000Y-63709000I0J150000D01*
G01*
X190327000Y-62359000D01*
G75*
G02*
X190477000Y-62209000I150000J0D01*
G01*
G37*
G36*
G01*
X189207000Y-62209000D02*
X189507000Y-62209000D01*
G75*
G02*
X189657000Y-62359000I0J-150000D01*
G01*
X189657000Y-63709000D01*
G75*
G02*
X189507000Y-63859000I-150000J0D01*
G01*
X189207000Y-63859000D01*
G75*
G02*
X189057000Y-63709000I0J150000D01*
G01*
X189057000Y-62359000D01*
G75*
G02*
X189207000Y-62209000I150000J0D01*
G01*
G37*
D10*
X197215000Y-71769000D03*
X197215000Y-70749000D03*
X197215000Y-69729000D03*
X197215000Y-68709000D03*
X197215000Y-67689000D03*
X197215000Y-66669000D03*
X197215000Y-65649000D03*
X197215000Y-64629000D03*
M02*
