G04 #@! TF.GenerationSoftware,KiCad,Pcbnew,(5.99.0-1941-g4629b701e)*
G04 #@! TF.CreationDate,2020-06-12T19:14:52+08:00*
G04 #@! TF.ProjectId,Keyboar-layout,4b657962-6f61-4722-9d6c-61796f75742e,rev?*
G04 #@! TF.SameCoordinates,Original*
G04 #@! TF.FileFunction,Soldermask,Bot*
G04 #@! TF.FilePolarity,Negative*
%FSLAX46Y46*%
G04 Gerber Fmt 4.6, Leading zero omitted, Abs format (unit mm)*
G04 Created by KiCad (PCBNEW (5.99.0-1941-g4629b701e)) date 2020-06-12 19:14:52*
%MOMM*%
%LPD*%
G01*
G04 APERTURE LIST*
%ADD10C,1.524000*%
%ADD11R,1.524000X1.524000*%
%ADD12O,1.600000X1.600000*%
%ADD13R,1.600000X1.600000*%
%ADD14C,2.082800*%
%ADD15C,2.000000*%
%ADD16C,1.600000*%
%ADD17C,1.850000*%
%ADD18R,2.400000X0.700000*%
%ADD19C,2.250000*%
%ADD20C,1.750000*%
%ADD21C,1.905000*%
%ADD22C,3.987800*%
%ADD23R,1.905000X1.905000*%
%ADD24C,3.048000*%
G04 APERTURE END LIST*
D10*
X205105000Y-81915000D03*
X205105000Y-84455000D03*
X205105000Y-86995000D03*
D11*
X205105000Y-89535000D03*
D12*
X200025000Y-78740000D03*
D13*
X189865000Y-78740000D03*
D12*
X187579000Y-78740000D03*
D13*
X197739000Y-78740000D03*
G36*
G01*
X189207000Y-67459000D02*
X189507000Y-67459000D01*
G75*
G02*
X189657000Y-67609000I0J-150000D01*
G01*
X189657000Y-68959000D01*
G75*
G02*
X189507000Y-69109000I-150000J0D01*
G01*
X189207000Y-69109000D01*
G75*
G02*
X189057000Y-68959000I0J150000D01*
G01*
X189057000Y-67609000D01*
G75*
G02*
X189207000Y-67459000I150000J0D01*
G01*
G37*
G36*
G01*
X190477000Y-67459000D02*
X190777000Y-67459000D01*
G75*
G02*
X190927000Y-67609000I0J-150000D01*
G01*
X190927000Y-68959000D01*
G75*
G02*
X190777000Y-69109000I-150000J0D01*
G01*
X190477000Y-69109000D01*
G75*
G02*
X190327000Y-68959000I0J150000D01*
G01*
X190327000Y-67609000D01*
G75*
G02*
X190477000Y-67459000I150000J0D01*
G01*
G37*
G36*
G01*
X191747000Y-67459000D02*
X192047000Y-67459000D01*
G75*
G02*
X192197000Y-67609000I0J-150000D01*
G01*
X192197000Y-68959000D01*
G75*
G02*
X192047000Y-69109000I-150000J0D01*
G01*
X191747000Y-69109000D01*
G75*
G02*
X191597000Y-68959000I0J150000D01*
G01*
X191597000Y-67609000D01*
G75*
G02*
X191747000Y-67459000I150000J0D01*
G01*
G37*
G36*
G01*
X193017000Y-67459000D02*
X193317000Y-67459000D01*
G75*
G02*
X193467000Y-67609000I0J-150000D01*
G01*
X193467000Y-68959000D01*
G75*
G02*
X193317000Y-69109000I-150000J0D01*
G01*
X193017000Y-69109000D01*
G75*
G02*
X192867000Y-68959000I0J150000D01*
G01*
X192867000Y-67609000D01*
G75*
G02*
X193017000Y-67459000I150000J0D01*
G01*
G37*
G36*
G01*
X193017000Y-62209000D02*
X193317000Y-62209000D01*
G75*
G02*
X193467000Y-62359000I0J-150000D01*
G01*
X193467000Y-63709000D01*
G75*
G02*
X193317000Y-63859000I-150000J0D01*
G01*
X193017000Y-63859000D01*
G75*
G02*
X192867000Y-63709000I0J150000D01*
G01*
X192867000Y-62359000D01*
G75*
G02*
X193017000Y-62209000I150000J0D01*
G01*
G37*
G36*
G01*
X191747000Y-62209000D02*
X192047000Y-62209000D01*
G75*
G02*
X192197000Y-62359000I0J-150000D01*
G01*
X192197000Y-63709000D01*
G75*
G02*
X192047000Y-63859000I-150000J0D01*
G01*
X191747000Y-63859000D01*
G75*
G02*
X191597000Y-63709000I0J150000D01*
G01*
X191597000Y-62359000D01*
G75*
G02*
X191747000Y-62209000I150000J0D01*
G01*
G37*
G36*
G01*
X190477000Y-62209000D02*
X190777000Y-62209000D01*
G75*
G02*
X190927000Y-62359000I0J-150000D01*
G01*
X190927000Y-63709000D01*
G75*
G02*
X190777000Y-63859000I-150000J0D01*
G01*
X190477000Y-63859000D01*
G75*
G02*
X190327000Y-63709000I0J150000D01*
G01*
X190327000Y-62359000D01*
G75*
G02*
X190477000Y-62209000I150000J0D01*
G01*
G37*
G36*
G01*
X189207000Y-62209000D02*
X189507000Y-62209000D01*
G75*
G02*
X189657000Y-62359000I0J-150000D01*
G01*
X189657000Y-63709000D01*
G75*
G02*
X189507000Y-63859000I-150000J0D01*
G01*
X189207000Y-63859000D01*
G75*
G02*
X189057000Y-63709000I0J150000D01*
G01*
X189057000Y-62359000D01*
G75*
G02*
X189207000Y-62209000I150000J0D01*
G01*
G37*
D14*
X203327000Y-27686000D03*
X203327000Y-30226000D03*
X203327000Y-32766000D03*
X203327000Y-35306000D03*
X203327000Y-37846000D03*
X203327000Y-40386000D03*
X203327000Y-42926000D03*
X203327000Y-45466000D03*
X203327000Y-48006000D03*
X203327000Y-50546000D03*
X203327000Y-53086000D03*
X203327000Y-55626000D03*
X188087000Y-55626000D03*
X188087000Y-53086000D03*
X188087000Y-50546000D03*
X188087000Y-48006000D03*
X188087000Y-45466000D03*
X188087000Y-42926000D03*
X188087000Y-40386000D03*
X188087000Y-37846000D03*
X188087000Y-35306000D03*
X188087000Y-32766000D03*
X188087000Y-30226000D03*
X188087000Y-27686000D03*
D10*
X172085000Y-81915000D03*
X172085000Y-84455000D03*
X172085000Y-86995000D03*
D11*
X172085000Y-89535000D03*
D15*
X206065000Y-23886000D03*
X199065000Y-23836000D03*
D16*
X205065000Y-21336000D03*
X200065000Y-21336000D03*
D17*
X197490000Y-74169000D03*
X197490000Y-62229000D03*
G36*
G01*
X206389000Y-61049000D02*
X202191000Y-61049000D01*
G75*
G02*
X202140000Y-60998000I0J51000D01*
G01*
X202140000Y-58550000D01*
G75*
G02*
X202191000Y-58499000I51000J0D01*
G01*
X206389000Y-58499000D01*
G75*
G02*
X206440000Y-58550000I0J-51000D01*
G01*
X206440000Y-60998000D01*
G75*
G02*
X206389000Y-61049000I-51000J0D01*
G01*
G37*
G36*
G01*
X206389000Y-77899000D02*
X202191000Y-77899000D01*
G75*
G02*
X202140000Y-77848000I0J51000D01*
G01*
X202140000Y-75400000D01*
G75*
G02*
X202191000Y-75349000I51000J0D01*
G01*
X206389000Y-75349000D01*
G75*
G02*
X206440000Y-75400000I0J-51000D01*
G01*
X206440000Y-77848000D01*
G75*
G02*
X206389000Y-77899000I-51000J0D01*
G01*
G37*
G36*
G01*
X202191000Y-58499000D02*
X206389000Y-58499000D01*
G75*
G02*
X206440000Y-58550000I0J-51000D01*
G01*
X206440000Y-60998000D01*
G75*
G02*
X206389000Y-61049000I-51000J0D01*
G01*
X202191000Y-61049000D01*
G75*
G02*
X202140000Y-60998000I0J51000D01*
G01*
X202140000Y-58550000D01*
G75*
G02*
X202191000Y-58499000I51000J0D01*
G01*
G37*
G36*
G01*
X202191000Y-75349000D02*
X206389000Y-75349000D01*
G75*
G02*
X206440000Y-75400000I0J-51000D01*
G01*
X206440000Y-77848000D01*
G75*
G02*
X206389000Y-77899000I-51000J0D01*
G01*
X202191000Y-77899000D01*
G75*
G02*
X202140000Y-77848000I0J51000D01*
G01*
X202140000Y-75400000D01*
G75*
G02*
X202191000Y-75349000I51000J0D01*
G01*
G37*
X197490000Y-74169000D03*
X197490000Y-62229000D03*
D18*
X197215000Y-71769000D03*
X197215000Y-70749000D03*
X197215000Y-69729000D03*
X197215000Y-68709000D03*
X197215000Y-67689000D03*
X197215000Y-66669000D03*
X197215000Y-65649000D03*
X197215000Y-64629000D03*
G36*
G01*
X174822774Y-45197259D02*
X174822774Y-45197260D01*
G75*
G02*
X173778990Y-43996524I78476J1122260D01*
G01*
X173819544Y-43416562D01*
G75*
G02*
X175020280Y-42372778I1122260J-78476D01*
G01*
X175020280Y-42372778D01*
G75*
G02*
X176064064Y-43573514I-78476J-1122260D01*
G01*
X176023510Y-44153476D01*
G75*
G02*
X174822774Y-45197260I-1122260J78476D01*
G01*
G37*
G36*
G01*
X169782220Y-42372779D02*
X169782220Y-42372778D01*
G75*
G02*
X170982956Y-43416562I78476J-1122260D01*
G01*
X171023510Y-43996524D01*
G75*
G02*
X169979726Y-45197260I-1122260J-78476D01*
G01*
X169979726Y-45197260D01*
G75*
G02*
X168778990Y-44153476I-78476J1122260D01*
G01*
X168738436Y-43573514D01*
G75*
G02*
X169782220Y-42372778I1122260J78476D01*
G01*
G37*
D19*
X174941250Y-43495000D03*
D20*
X167321250Y-48575000D03*
D19*
X169901250Y-44575000D03*
D21*
X171131250Y-53655000D03*
D19*
X174901250Y-44575000D03*
G36*
G01*
X167838478Y-46871038D02*
X167838478Y-46871038D01*
G75*
G02*
X167755212Y-45282228I752772J836038D01*
G01*
X169067750Y-43824508D01*
G75*
G02*
X170656560Y-43741242I836038J-752772D01*
G01*
X170656560Y-43741242D01*
G75*
G02*
X170739826Y-45330052I-752772J-836038D01*
G01*
X169427288Y-46787772D01*
G75*
G02*
X167838478Y-46871038I-836038J752772D01*
G01*
G37*
D22*
X172401250Y-48575000D03*
D19*
X169861250Y-43495000D03*
G36*
G01*
X174145940Y-43741242D02*
X174145940Y-43741242D01*
G75*
G02*
X175734750Y-43824508I752772J-836038D01*
G01*
X177047288Y-45282228D01*
G75*
G02*
X176964022Y-46871038I-836038J-752772D01*
G01*
X176964022Y-46871038D01*
G75*
G02*
X175375212Y-46787772I-752772J836038D01*
G01*
X174062674Y-45330052D01*
G75*
G02*
X174145940Y-43741242I836038J752772D01*
G01*
G37*
D20*
X177481250Y-48575000D03*
D23*
X173671250Y-53655000D03*
D19*
X160653750Y-81595000D03*
D23*
X159383750Y-91755000D03*
D19*
X155573750Y-81595000D03*
X160613750Y-82675000D03*
G36*
G01*
X160535274Y-83297259D02*
X160535274Y-83297260D01*
G75*
G02*
X159491490Y-82096524I78476J1122260D01*
G01*
X159532044Y-81516562D01*
G75*
G02*
X160732780Y-80472778I1122260J-78476D01*
G01*
X160732780Y-80472778D01*
G75*
G02*
X161776564Y-81673514I-78476J-1122260D01*
G01*
X161736010Y-82253476D01*
G75*
G02*
X160535274Y-83297260I-1122260J78476D01*
G01*
G37*
G36*
G01*
X155494720Y-80472779D02*
X155494720Y-80472778D01*
G75*
G02*
X156695456Y-81516562I78476J-1122260D01*
G01*
X156736010Y-82096524D01*
G75*
G02*
X155692226Y-83297260I-1122260J-78476D01*
G01*
X155692226Y-83297260D01*
G75*
G02*
X154491490Y-82253476I-78476J1122260D01*
G01*
X154450936Y-81673514D01*
G75*
G02*
X155494720Y-80472778I1122260J78476D01*
G01*
G37*
D21*
X156843750Y-91755000D03*
G36*
G01*
X153550978Y-84971038D02*
X153550978Y-84971038D01*
G75*
G02*
X153467712Y-83382228I752772J836038D01*
G01*
X154780250Y-81924508D01*
G75*
G02*
X156369060Y-81841242I836038J-752772D01*
G01*
X156369060Y-81841242D01*
G75*
G02*
X156452326Y-83430052I-752772J-836038D01*
G01*
X155139788Y-84887772D01*
G75*
G02*
X153550978Y-84971038I-836038J752772D01*
G01*
G37*
G36*
G01*
X159858440Y-81841242D02*
X159858440Y-81841242D01*
G75*
G02*
X161447250Y-81924508I752772J-836038D01*
G01*
X162759788Y-83382228D01*
G75*
G02*
X162676522Y-84971038I-836038J-752772D01*
G01*
X162676522Y-84971038D01*
G75*
G02*
X161087712Y-84887772I-752772J836038D01*
G01*
X159775174Y-83430052D01*
G75*
G02*
X159858440Y-81841242I836038J752772D01*
G01*
G37*
D19*
X155613750Y-82675000D03*
D20*
X163193750Y-86675000D03*
X153033750Y-86675000D03*
D22*
X158113750Y-86675000D03*
D19*
X185172276Y-132536737D03*
G36*
X177691284Y-141049194D02*
G01*
X178643784Y-139399416D01*
X180293562Y-140351916D01*
X179341062Y-142001694D01*
X177691284Y-141049194D01*
G37*
X180772866Y-129996737D03*
X184597635Y-133452044D03*
G36*
G01*
X184218543Y-133951699D02*
X184218543Y-133951699D01*
G75*
G02*
X183914968Y-132389940I629092J932667D01*
G01*
X184240070Y-131907956D01*
G75*
G02*
X185801829Y-131604381I932667J-629092D01*
G01*
X185801829Y-131604381D01*
G75*
G02*
X186105404Y-133166140I-629092J-932667D01*
G01*
X185780302Y-133648124D01*
G75*
G02*
X184218543Y-133951699I-932667J629092D01*
G01*
G37*
G36*
G01*
X181265534Y-128985349D02*
X181265535Y-128985349D01*
G75*
G02*
X181783510Y-130489660I-493168J-1011143D01*
G01*
X181528650Y-131012200D01*
G75*
G02*
X180024339Y-131530175I-1011143J493168D01*
G01*
X180024339Y-131530175D01*
G75*
G02*
X179506364Y-130025864I493168J1011143D01*
G01*
X179761224Y-129503324D01*
G75*
G02*
X181265535Y-128985349I1011143J-493168D01*
G01*
G37*
D21*
X176792719Y-139430555D03*
G36*
G01*
X177333075Y-131909085D02*
X177333075Y-131909085D01*
G75*
G02*
X178055370Y-130491502I1069939J347644D01*
G01*
X179920920Y-129885348D01*
G75*
G02*
X181338503Y-130607643I347644J-1069939D01*
G01*
X181338503Y-130607643D01*
G75*
G02*
X180616208Y-132025226I-1069939J-347644D01*
G01*
X178750658Y-132631380D01*
G75*
G02*
X177333075Y-131909085I-347644J1069939D01*
G01*
G37*
G36*
G01*
X184360397Y-132352333D02*
X184360397Y-132352333D01*
G75*
G02*
X185694714Y-133218848I233901J-1100416D01*
G01*
X186102544Y-135137540D01*
G75*
G02*
X185236029Y-136471857I-1100416J-233901D01*
G01*
X185236029Y-136471857D01*
G75*
G02*
X183901712Y-135605342I-233901J1100416D01*
G01*
X183493882Y-133686650D01*
G75*
G02*
X184360397Y-132352333I1100416J233901D01*
G01*
G37*
D19*
X180267507Y-130952044D03*
D20*
X184831980Y-138206146D03*
X176033162Y-133126146D03*
D22*
X180432571Y-135666146D03*
D19*
X117787500Y-62545000D03*
D23*
X116517500Y-72705000D03*
D19*
X112707500Y-62545000D03*
X117747500Y-63625000D03*
G36*
G01*
X117669024Y-64247259D02*
X117669024Y-64247260D01*
G75*
G02*
X116625240Y-63046524I78476J1122260D01*
G01*
X116665794Y-62466562D01*
G75*
G02*
X117866530Y-61422778I1122260J-78476D01*
G01*
X117866530Y-61422778D01*
G75*
G02*
X118910314Y-62623514I-78476J-1122260D01*
G01*
X118869760Y-63203476D01*
G75*
G02*
X117669024Y-64247260I-1122260J78476D01*
G01*
G37*
G36*
G01*
X112628470Y-61422779D02*
X112628470Y-61422778D01*
G75*
G02*
X113829206Y-62466562I78476J-1122260D01*
G01*
X113869760Y-63046524D01*
G75*
G02*
X112825976Y-64247260I-1122260J-78476D01*
G01*
X112825976Y-64247260D01*
G75*
G02*
X111625240Y-63203476I-78476J1122260D01*
G01*
X111584686Y-62623514D01*
G75*
G02*
X112628470Y-61422778I1122260J78476D01*
G01*
G37*
D21*
X113977500Y-72705000D03*
G36*
G01*
X110684728Y-65921038D02*
X110684728Y-65921038D01*
G75*
G02*
X110601462Y-64332228I752772J836038D01*
G01*
X111914000Y-62874508D01*
G75*
G02*
X113502810Y-62791242I836038J-752772D01*
G01*
X113502810Y-62791242D01*
G75*
G02*
X113586076Y-64380052I-752772J-836038D01*
G01*
X112273538Y-65837772D01*
G75*
G02*
X110684728Y-65921038I-836038J752772D01*
G01*
G37*
G36*
G01*
X116992190Y-62791242D02*
X116992190Y-62791242D01*
G75*
G02*
X118581000Y-62874508I752772J-836038D01*
G01*
X119893538Y-64332228D01*
G75*
G02*
X119810272Y-65921038I-836038J-752772D01*
G01*
X119810272Y-65921038D01*
G75*
G02*
X118221462Y-65837772I-752772J836038D01*
G01*
X116908924Y-64380052D01*
G75*
G02*
X116992190Y-62791242I836038J752772D01*
G01*
G37*
D19*
X112747500Y-63625000D03*
D20*
X120327500Y-67625000D03*
X110167500Y-67625000D03*
D22*
X115247500Y-67625000D03*
D19*
X136837500Y-62545000D03*
D23*
X135567500Y-72705000D03*
D19*
X131757500Y-62545000D03*
X136797500Y-63625000D03*
G36*
G01*
X136719024Y-64247259D02*
X136719024Y-64247260D01*
G75*
G02*
X135675240Y-63046524I78476J1122260D01*
G01*
X135715794Y-62466562D01*
G75*
G02*
X136916530Y-61422778I1122260J-78476D01*
G01*
X136916530Y-61422778D01*
G75*
G02*
X137960314Y-62623514I-78476J-1122260D01*
G01*
X137919760Y-63203476D01*
G75*
G02*
X136719024Y-64247260I-1122260J78476D01*
G01*
G37*
G36*
G01*
X131678470Y-61422779D02*
X131678470Y-61422778D01*
G75*
G02*
X132879206Y-62466562I78476J-1122260D01*
G01*
X132919760Y-63046524D01*
G75*
G02*
X131875976Y-64247260I-1122260J-78476D01*
G01*
X131875976Y-64247260D01*
G75*
G02*
X130675240Y-63203476I-78476J1122260D01*
G01*
X130634686Y-62623514D01*
G75*
G02*
X131678470Y-61422778I1122260J78476D01*
G01*
G37*
D21*
X133027500Y-72705000D03*
G36*
G01*
X129734728Y-65921038D02*
X129734728Y-65921038D01*
G75*
G02*
X129651462Y-64332228I752772J836038D01*
G01*
X130964000Y-62874508D01*
G75*
G02*
X132552810Y-62791242I836038J-752772D01*
G01*
X132552810Y-62791242D01*
G75*
G02*
X132636076Y-64380052I-752772J-836038D01*
G01*
X131323538Y-65837772D01*
G75*
G02*
X129734728Y-65921038I-836038J752772D01*
G01*
G37*
G36*
G01*
X136042190Y-62791242D02*
X136042190Y-62791242D01*
G75*
G02*
X137631000Y-62874508I752772J-836038D01*
G01*
X138943538Y-64332228D01*
G75*
G02*
X138860272Y-65921038I-836038J-752772D01*
G01*
X138860272Y-65921038D01*
G75*
G02*
X137271462Y-65837772I-752772J836038D01*
G01*
X135958924Y-64380052D01*
G75*
G02*
X136042190Y-62791242I836038J752772D01*
G01*
G37*
D19*
X131797500Y-63625000D03*
D20*
X139377500Y-67625000D03*
X129217500Y-67625000D03*
D22*
X134297500Y-67625000D03*
D19*
X60637500Y-62545000D03*
D23*
X59367500Y-72705000D03*
D19*
X55557500Y-62545000D03*
X60597500Y-63625000D03*
G36*
G01*
X60519024Y-64247259D02*
X60519024Y-64247260D01*
G75*
G02*
X59475240Y-63046524I78476J1122260D01*
G01*
X59515794Y-62466562D01*
G75*
G02*
X60716530Y-61422778I1122260J-78476D01*
G01*
X60716530Y-61422778D01*
G75*
G02*
X61760314Y-62623514I-78476J-1122260D01*
G01*
X61719760Y-63203476D01*
G75*
G02*
X60519024Y-64247260I-1122260J78476D01*
G01*
G37*
G36*
G01*
X55478470Y-61422779D02*
X55478470Y-61422778D01*
G75*
G02*
X56679206Y-62466562I78476J-1122260D01*
G01*
X56719760Y-63046524D01*
G75*
G02*
X55675976Y-64247260I-1122260J-78476D01*
G01*
X55675976Y-64247260D01*
G75*
G02*
X54475240Y-63203476I-78476J1122260D01*
G01*
X54434686Y-62623514D01*
G75*
G02*
X55478470Y-61422778I1122260J78476D01*
G01*
G37*
D21*
X56827500Y-72705000D03*
G36*
G01*
X53534728Y-65921038D02*
X53534728Y-65921038D01*
G75*
G02*
X53451462Y-64332228I752772J836038D01*
G01*
X54764000Y-62874508D01*
G75*
G02*
X56352810Y-62791242I836038J-752772D01*
G01*
X56352810Y-62791242D01*
G75*
G02*
X56436076Y-64380052I-752772J-836038D01*
G01*
X55123538Y-65837772D01*
G75*
G02*
X53534728Y-65921038I-836038J752772D01*
G01*
G37*
G36*
G01*
X59842190Y-62791242D02*
X59842190Y-62791242D01*
G75*
G02*
X61431000Y-62874508I752772J-836038D01*
G01*
X62743538Y-64332228D01*
G75*
G02*
X62660272Y-65921038I-836038J-752772D01*
G01*
X62660272Y-65921038D01*
G75*
G02*
X61071462Y-65837772I-752772J836038D01*
G01*
X59758924Y-64380052D01*
G75*
G02*
X59842190Y-62791242I836038J752772D01*
G01*
G37*
D19*
X55597500Y-63625000D03*
D20*
X63177500Y-67625000D03*
X53017500Y-67625000D03*
D22*
X58097500Y-67625000D03*
D19*
X89215000Y-24445000D03*
D23*
X87945000Y-34605000D03*
D19*
X84135000Y-24445000D03*
X89175000Y-25525000D03*
G36*
G01*
X89096524Y-26147259D02*
X89096524Y-26147260D01*
G75*
G02*
X88052740Y-24946524I78476J1122260D01*
G01*
X88093294Y-24366562D01*
G75*
G02*
X89294030Y-23322778I1122260J-78476D01*
G01*
X89294030Y-23322778D01*
G75*
G02*
X90337814Y-24523514I-78476J-1122260D01*
G01*
X90297260Y-25103476D01*
G75*
G02*
X89096524Y-26147260I-1122260J78476D01*
G01*
G37*
G36*
G01*
X84055970Y-23322779D02*
X84055970Y-23322778D01*
G75*
G02*
X85256706Y-24366562I78476J-1122260D01*
G01*
X85297260Y-24946524D01*
G75*
G02*
X84253476Y-26147260I-1122260J-78476D01*
G01*
X84253476Y-26147260D01*
G75*
G02*
X83052740Y-25103476I-78476J1122260D01*
G01*
X83012186Y-24523514D01*
G75*
G02*
X84055970Y-23322778I1122260J78476D01*
G01*
G37*
D21*
X85405000Y-34605000D03*
G36*
G01*
X82112228Y-27821038D02*
X82112228Y-27821038D01*
G75*
G02*
X82028962Y-26232228I752772J836038D01*
G01*
X83341500Y-24774508D01*
G75*
G02*
X84930310Y-24691242I836038J-752772D01*
G01*
X84930310Y-24691242D01*
G75*
G02*
X85013576Y-26280052I-752772J-836038D01*
G01*
X83701038Y-27737772D01*
G75*
G02*
X82112228Y-27821038I-836038J752772D01*
G01*
G37*
G36*
G01*
X88419690Y-24691242D02*
X88419690Y-24691242D01*
G75*
G02*
X90008500Y-24774508I752772J-836038D01*
G01*
X91321038Y-26232228D01*
G75*
G02*
X91237772Y-27821038I-836038J-752772D01*
G01*
X91237772Y-27821038D01*
G75*
G02*
X89648962Y-27737772I-752772J836038D01*
G01*
X88336424Y-26280052D01*
G75*
G02*
X88419690Y-24691242I836038J752772D01*
G01*
G37*
D19*
X84175000Y-25525000D03*
D20*
X91755000Y-29525000D03*
X81595000Y-29525000D03*
D22*
X86675000Y-29525000D03*
D19*
X51115000Y-100645000D03*
D23*
X49845000Y-110805000D03*
D19*
X46035000Y-100645000D03*
X51075000Y-101725000D03*
G36*
G01*
X50996524Y-102347259D02*
X50996524Y-102347260D01*
G75*
G02*
X49952740Y-101146524I78476J1122260D01*
G01*
X49993294Y-100566562D01*
G75*
G02*
X51194030Y-99522778I1122260J-78476D01*
G01*
X51194030Y-99522778D01*
G75*
G02*
X52237814Y-100723514I-78476J-1122260D01*
G01*
X52197260Y-101303476D01*
G75*
G02*
X50996524Y-102347260I-1122260J78476D01*
G01*
G37*
G36*
G01*
X45955970Y-99522779D02*
X45955970Y-99522778D01*
G75*
G02*
X47156706Y-100566562I78476J-1122260D01*
G01*
X47197260Y-101146524D01*
G75*
G02*
X46153476Y-102347260I-1122260J-78476D01*
G01*
X46153476Y-102347260D01*
G75*
G02*
X44952740Y-101303476I-78476J1122260D01*
G01*
X44912186Y-100723514D01*
G75*
G02*
X45955970Y-99522778I1122260J78476D01*
G01*
G37*
D21*
X47305000Y-110805000D03*
G36*
G01*
X44012228Y-104021038D02*
X44012228Y-104021038D01*
G75*
G02*
X43928962Y-102432228I752772J836038D01*
G01*
X45241500Y-100974508D01*
G75*
G02*
X46830310Y-100891242I836038J-752772D01*
G01*
X46830310Y-100891242D01*
G75*
G02*
X46913576Y-102480052I-752772J-836038D01*
G01*
X45601038Y-103937772D01*
G75*
G02*
X44012228Y-104021038I-836038J752772D01*
G01*
G37*
G36*
G01*
X50319690Y-100891242D02*
X50319690Y-100891242D01*
G75*
G02*
X51908500Y-100974508I752772J-836038D01*
G01*
X53221038Y-102432228D01*
G75*
G02*
X53137772Y-104021038I-836038J-752772D01*
G01*
X53137772Y-104021038D01*
G75*
G02*
X51548962Y-103937772I-752772J836038D01*
G01*
X50236424Y-102480052D01*
G75*
G02*
X50319690Y-100891242I836038J752772D01*
G01*
G37*
D19*
X46075000Y-101725000D03*
D20*
X53655000Y-105725000D03*
X43495000Y-105725000D03*
D22*
X48575000Y-105725000D03*
D19*
X70165000Y-24445000D03*
D23*
X68895000Y-34605000D03*
D19*
X65085000Y-24445000D03*
X70125000Y-25525000D03*
G36*
G01*
X70046524Y-26147259D02*
X70046524Y-26147260D01*
G75*
G02*
X69002740Y-24946524I78476J1122260D01*
G01*
X69043294Y-24366562D01*
G75*
G02*
X70244030Y-23322778I1122260J-78476D01*
G01*
X70244030Y-23322778D01*
G75*
G02*
X71287814Y-24523514I-78476J-1122260D01*
G01*
X71247260Y-25103476D01*
G75*
G02*
X70046524Y-26147260I-1122260J78476D01*
G01*
G37*
G36*
G01*
X65005970Y-23322779D02*
X65005970Y-23322778D01*
G75*
G02*
X66206706Y-24366562I78476J-1122260D01*
G01*
X66247260Y-24946524D01*
G75*
G02*
X65203476Y-26147260I-1122260J-78476D01*
G01*
X65203476Y-26147260D01*
G75*
G02*
X64002740Y-25103476I-78476J1122260D01*
G01*
X63962186Y-24523514D01*
G75*
G02*
X65005970Y-23322778I1122260J78476D01*
G01*
G37*
D21*
X66355000Y-34605000D03*
G36*
G01*
X63062228Y-27821038D02*
X63062228Y-27821038D01*
G75*
G02*
X62978962Y-26232228I752772J836038D01*
G01*
X64291500Y-24774508D01*
G75*
G02*
X65880310Y-24691242I836038J-752772D01*
G01*
X65880310Y-24691242D01*
G75*
G02*
X65963576Y-26280052I-752772J-836038D01*
G01*
X64651038Y-27737772D01*
G75*
G02*
X63062228Y-27821038I-836038J752772D01*
G01*
G37*
G36*
G01*
X69369690Y-24691242D02*
X69369690Y-24691242D01*
G75*
G02*
X70958500Y-24774508I752772J-836038D01*
G01*
X72271038Y-26232228D01*
G75*
G02*
X72187772Y-27821038I-836038J-752772D01*
G01*
X72187772Y-27821038D01*
G75*
G02*
X70598962Y-27737772I-752772J836038D01*
G01*
X69286424Y-26280052D01*
G75*
G02*
X69369690Y-24691242I836038J752772D01*
G01*
G37*
D19*
X65125000Y-25525000D03*
D20*
X72705000Y-29525000D03*
X62545000Y-29525000D03*
D22*
X67625000Y-29525000D03*
D19*
X151126250Y-43495000D03*
D23*
X149856250Y-53655000D03*
D19*
X146046250Y-43495000D03*
X151086250Y-44575000D03*
G36*
G01*
X151007774Y-45197259D02*
X151007774Y-45197260D01*
G75*
G02*
X149963990Y-43996524I78476J1122260D01*
G01*
X150004544Y-43416562D01*
G75*
G02*
X151205280Y-42372778I1122260J-78476D01*
G01*
X151205280Y-42372778D01*
G75*
G02*
X152249064Y-43573514I-78476J-1122260D01*
G01*
X152208510Y-44153476D01*
G75*
G02*
X151007774Y-45197260I-1122260J78476D01*
G01*
G37*
G36*
G01*
X145967220Y-42372779D02*
X145967220Y-42372778D01*
G75*
G02*
X147167956Y-43416562I78476J-1122260D01*
G01*
X147208510Y-43996524D01*
G75*
G02*
X146164726Y-45197260I-1122260J-78476D01*
G01*
X146164726Y-45197260D01*
G75*
G02*
X144963990Y-44153476I-78476J1122260D01*
G01*
X144923436Y-43573514D01*
G75*
G02*
X145967220Y-42372778I1122260J78476D01*
G01*
G37*
D21*
X147316250Y-53655000D03*
G36*
G01*
X144023478Y-46871038D02*
X144023478Y-46871038D01*
G75*
G02*
X143940212Y-45282228I752772J836038D01*
G01*
X145252750Y-43824508D01*
G75*
G02*
X146841560Y-43741242I836038J-752772D01*
G01*
X146841560Y-43741242D01*
G75*
G02*
X146924826Y-45330052I-752772J-836038D01*
G01*
X145612288Y-46787772D01*
G75*
G02*
X144023478Y-46871038I-836038J752772D01*
G01*
G37*
G36*
G01*
X150330940Y-43741242D02*
X150330940Y-43741242D01*
G75*
G02*
X151919750Y-43824508I752772J-836038D01*
G01*
X153232288Y-45282228D01*
G75*
G02*
X153149022Y-46871038I-836038J-752772D01*
G01*
X153149022Y-46871038D01*
G75*
G02*
X151560212Y-46787772I-752772J836038D01*
G01*
X150247674Y-45330052D01*
G75*
G02*
X150330940Y-43741242I836038J752772D01*
G01*
G37*
D19*
X146086250Y-44575000D03*
D20*
X153666250Y-48575000D03*
X143506250Y-48575000D03*
D22*
X148586250Y-48575000D03*
D19*
X70165000Y-100645000D03*
D23*
X68895000Y-110805000D03*
D19*
X65085000Y-100645000D03*
X70125000Y-101725000D03*
G36*
G01*
X70046524Y-102347259D02*
X70046524Y-102347260D01*
G75*
G02*
X69002740Y-101146524I78476J1122260D01*
G01*
X69043294Y-100566562D01*
G75*
G02*
X70244030Y-99522778I1122260J-78476D01*
G01*
X70244030Y-99522778D01*
G75*
G02*
X71287814Y-100723514I-78476J-1122260D01*
G01*
X71247260Y-101303476D01*
G75*
G02*
X70046524Y-102347260I-1122260J78476D01*
G01*
G37*
G36*
G01*
X65005970Y-99522779D02*
X65005970Y-99522778D01*
G75*
G02*
X66206706Y-100566562I78476J-1122260D01*
G01*
X66247260Y-101146524D01*
G75*
G02*
X65203476Y-102347260I-1122260J-78476D01*
G01*
X65203476Y-102347260D01*
G75*
G02*
X64002740Y-101303476I-78476J1122260D01*
G01*
X63962186Y-100723514D01*
G75*
G02*
X65005970Y-99522778I1122260J78476D01*
G01*
G37*
D21*
X66355000Y-110805000D03*
G36*
G01*
X63062228Y-104021038D02*
X63062228Y-104021038D01*
G75*
G02*
X62978962Y-102432228I752772J836038D01*
G01*
X64291500Y-100974508D01*
G75*
G02*
X65880310Y-100891242I836038J-752772D01*
G01*
X65880310Y-100891242D01*
G75*
G02*
X65963576Y-102480052I-752772J-836038D01*
G01*
X64651038Y-103937772D01*
G75*
G02*
X63062228Y-104021038I-836038J752772D01*
G01*
G37*
G36*
G01*
X69369690Y-100891242D02*
X69369690Y-100891242D01*
G75*
G02*
X70958500Y-100974508I752772J-836038D01*
G01*
X72271038Y-102432228D01*
G75*
G02*
X72187772Y-104021038I-836038J-752772D01*
G01*
X72187772Y-104021038D01*
G75*
G02*
X70598962Y-103937772I-752772J836038D01*
G01*
X69286424Y-102480052D01*
G75*
G02*
X69369690Y-100891242I836038J752772D01*
G01*
G37*
D19*
X65125000Y-101725000D03*
D20*
X72705000Y-105725000D03*
X62545000Y-105725000D03*
D22*
X67625000Y-105725000D03*
D19*
X108265000Y-24445000D03*
D23*
X106995000Y-34605000D03*
D19*
X103185000Y-24445000D03*
X108225000Y-25525000D03*
G36*
G01*
X108146524Y-26147259D02*
X108146524Y-26147260D01*
G75*
G02*
X107102740Y-24946524I78476J1122260D01*
G01*
X107143294Y-24366562D01*
G75*
G02*
X108344030Y-23322778I1122260J-78476D01*
G01*
X108344030Y-23322778D01*
G75*
G02*
X109387814Y-24523514I-78476J-1122260D01*
G01*
X109347260Y-25103476D01*
G75*
G02*
X108146524Y-26147260I-1122260J78476D01*
G01*
G37*
G36*
G01*
X103105970Y-23322779D02*
X103105970Y-23322778D01*
G75*
G02*
X104306706Y-24366562I78476J-1122260D01*
G01*
X104347260Y-24946524D01*
G75*
G02*
X103303476Y-26147260I-1122260J-78476D01*
G01*
X103303476Y-26147260D01*
G75*
G02*
X102102740Y-25103476I-78476J1122260D01*
G01*
X102062186Y-24523514D01*
G75*
G02*
X103105970Y-23322778I1122260J78476D01*
G01*
G37*
D21*
X104455000Y-34605000D03*
G36*
G01*
X101162228Y-27821038D02*
X101162228Y-27821038D01*
G75*
G02*
X101078962Y-26232228I752772J836038D01*
G01*
X102391500Y-24774508D01*
G75*
G02*
X103980310Y-24691242I836038J-752772D01*
G01*
X103980310Y-24691242D01*
G75*
G02*
X104063576Y-26280052I-752772J-836038D01*
G01*
X102751038Y-27737772D01*
G75*
G02*
X101162228Y-27821038I-836038J752772D01*
G01*
G37*
G36*
G01*
X107469690Y-24691242D02*
X107469690Y-24691242D01*
G75*
G02*
X109058500Y-24774508I752772J-836038D01*
G01*
X110371038Y-26232228D01*
G75*
G02*
X110287772Y-27821038I-836038J-752772D01*
G01*
X110287772Y-27821038D01*
G75*
G02*
X108698962Y-27737772I-752772J836038D01*
G01*
X107386424Y-26280052D01*
G75*
G02*
X107469690Y-24691242I836038J752772D01*
G01*
G37*
D19*
X103225000Y-25525000D03*
D20*
X110805000Y-29525000D03*
X100645000Y-29525000D03*
D22*
X105725000Y-29525000D03*
D19*
X32065000Y-24445000D03*
D23*
X30795000Y-34605000D03*
D19*
X26985000Y-24445000D03*
X32025000Y-25525000D03*
G36*
G01*
X31946524Y-26147259D02*
X31946524Y-26147260D01*
G75*
G02*
X30902740Y-24946524I78476J1122260D01*
G01*
X30943294Y-24366562D01*
G75*
G02*
X32144030Y-23322778I1122260J-78476D01*
G01*
X32144030Y-23322778D01*
G75*
G02*
X33187814Y-24523514I-78476J-1122260D01*
G01*
X33147260Y-25103476D01*
G75*
G02*
X31946524Y-26147260I-1122260J78476D01*
G01*
G37*
G36*
G01*
X26905970Y-23322779D02*
X26905970Y-23322778D01*
G75*
G02*
X28106706Y-24366562I78476J-1122260D01*
G01*
X28147260Y-24946524D01*
G75*
G02*
X27103476Y-26147260I-1122260J-78476D01*
G01*
X27103476Y-26147260D01*
G75*
G02*
X25902740Y-25103476I-78476J1122260D01*
G01*
X25862186Y-24523514D01*
G75*
G02*
X26905970Y-23322778I1122260J78476D01*
G01*
G37*
D21*
X28255000Y-34605000D03*
G36*
G01*
X24962228Y-27821038D02*
X24962228Y-27821038D01*
G75*
G02*
X24878962Y-26232228I752772J836038D01*
G01*
X26191500Y-24774508D01*
G75*
G02*
X27780310Y-24691242I836038J-752772D01*
G01*
X27780310Y-24691242D01*
G75*
G02*
X27863576Y-26280052I-752772J-836038D01*
G01*
X26551038Y-27737772D01*
G75*
G02*
X24962228Y-27821038I-836038J752772D01*
G01*
G37*
G36*
G01*
X31269690Y-24691242D02*
X31269690Y-24691242D01*
G75*
G02*
X32858500Y-24774508I752772J-836038D01*
G01*
X34171038Y-26232228D01*
G75*
G02*
X34087772Y-27821038I-836038J-752772D01*
G01*
X34087772Y-27821038D01*
G75*
G02*
X32498962Y-27737772I-752772J836038D01*
G01*
X31186424Y-26280052D01*
G75*
G02*
X31269690Y-24691242I836038J752772D01*
G01*
G37*
D19*
X27025000Y-25525000D03*
D20*
X34605000Y-29525000D03*
X24445000Y-29525000D03*
D22*
X29525000Y-29525000D03*
D19*
X159149492Y-139509521D03*
G36*
X151668500Y-148021978D02*
G01*
X152621000Y-146372200D01*
X154270778Y-147324700D01*
X153318278Y-148974478D01*
X151668500Y-148021978D01*
G37*
X154750082Y-136969521D03*
X158574851Y-140424828D03*
G36*
G01*
X158195759Y-140924483D02*
X158195759Y-140924483D01*
G75*
G02*
X157892184Y-139362724I629092J932667D01*
G01*
X158217286Y-138880740D01*
G75*
G02*
X159779045Y-138577165I932667J-629092D01*
G01*
X159779045Y-138577165D01*
G75*
G02*
X160082620Y-140138924I-629092J-932667D01*
G01*
X159757518Y-140620908D01*
G75*
G02*
X158195759Y-140924483I-932667J629092D01*
G01*
G37*
G36*
G01*
X155242750Y-135958133D02*
X155242751Y-135958133D01*
G75*
G02*
X155760726Y-137462444I-493168J-1011143D01*
G01*
X155505866Y-137984984D01*
G75*
G02*
X154001555Y-138502959I-1011143J493168D01*
G01*
X154001555Y-138502959D01*
G75*
G02*
X153483580Y-136998648I493168J1011143D01*
G01*
X153738440Y-136476108D01*
G75*
G02*
X155242751Y-135958133I1011143J-493168D01*
G01*
G37*
D21*
X150769935Y-146403339D03*
G36*
G01*
X151310291Y-138881869D02*
X151310291Y-138881869D01*
G75*
G02*
X152032586Y-137464286I1069939J347644D01*
G01*
X153898136Y-136858132D01*
G75*
G02*
X155315719Y-137580427I347644J-1069939D01*
G01*
X155315719Y-137580427D01*
G75*
G02*
X154593424Y-138998010I-1069939J-347644D01*
G01*
X152727874Y-139604164D01*
G75*
G02*
X151310291Y-138881869I-347644J1069939D01*
G01*
G37*
G36*
G01*
X158337613Y-139325117D02*
X158337613Y-139325117D01*
G75*
G02*
X159671930Y-140191632I233901J-1100416D01*
G01*
X160079760Y-142110324D01*
G75*
G02*
X159213245Y-143444641I-1100416J-233901D01*
G01*
X159213245Y-143444641D01*
G75*
G02*
X157878928Y-142578126I-233901J1100416D01*
G01*
X157471098Y-140659434D01*
G75*
G02*
X158337613Y-139325117I1100416J233901D01*
G01*
G37*
D19*
X154244723Y-137924828D03*
D20*
X158809196Y-145178930D03*
X150010378Y-140098930D03*
D22*
X154409787Y-142638930D03*
D19*
X155892500Y-62545000D03*
D23*
X154622500Y-72705000D03*
D19*
X150812500Y-62545000D03*
X155852500Y-63625000D03*
G36*
G01*
X155774024Y-64247259D02*
X155774024Y-64247260D01*
G75*
G02*
X154730240Y-63046524I78476J1122260D01*
G01*
X154770794Y-62466562D01*
G75*
G02*
X155971530Y-61422778I1122260J-78476D01*
G01*
X155971530Y-61422778D01*
G75*
G02*
X157015314Y-62623514I-78476J-1122260D01*
G01*
X156974760Y-63203476D01*
G75*
G02*
X155774024Y-64247260I-1122260J78476D01*
G01*
G37*
G36*
G01*
X150733470Y-61422779D02*
X150733470Y-61422778D01*
G75*
G02*
X151934206Y-62466562I78476J-1122260D01*
G01*
X151974760Y-63046524D01*
G75*
G02*
X150930976Y-64247260I-1122260J-78476D01*
G01*
X150930976Y-64247260D01*
G75*
G02*
X149730240Y-63203476I-78476J1122260D01*
G01*
X149689686Y-62623514D01*
G75*
G02*
X150733470Y-61422778I1122260J78476D01*
G01*
G37*
D21*
X152082500Y-72705000D03*
G36*
G01*
X148789728Y-65921038D02*
X148789728Y-65921038D01*
G75*
G02*
X148706462Y-64332228I752772J836038D01*
G01*
X150019000Y-62874508D01*
G75*
G02*
X151607810Y-62791242I836038J-752772D01*
G01*
X151607810Y-62791242D01*
G75*
G02*
X151691076Y-64380052I-752772J-836038D01*
G01*
X150378538Y-65837772D01*
G75*
G02*
X148789728Y-65921038I-836038J752772D01*
G01*
G37*
G36*
G01*
X155097190Y-62791242D02*
X155097190Y-62791242D01*
G75*
G02*
X156686000Y-62874508I752772J-836038D01*
G01*
X157998538Y-64332228D01*
G75*
G02*
X157915272Y-65921038I-836038J-752772D01*
G01*
X157915272Y-65921038D01*
G75*
G02*
X156326462Y-65837772I-752772J836038D01*
G01*
X155013924Y-64380052D01*
G75*
G02*
X155097190Y-62791242I836038J752772D01*
G01*
G37*
D19*
X150852500Y-63625000D03*
D20*
X158432500Y-67625000D03*
X148272500Y-67625000D03*
D22*
X153352500Y-67625000D03*
D19*
X32065000Y-100645000D03*
D23*
X30795000Y-110805000D03*
D19*
X26985000Y-100645000D03*
X32025000Y-101725000D03*
G36*
G01*
X31946524Y-102347259D02*
X31946524Y-102347260D01*
G75*
G02*
X30902740Y-101146524I78476J1122260D01*
G01*
X30943294Y-100566562D01*
G75*
G02*
X32144030Y-99522778I1122260J-78476D01*
G01*
X32144030Y-99522778D01*
G75*
G02*
X33187814Y-100723514I-78476J-1122260D01*
G01*
X33147260Y-101303476D01*
G75*
G02*
X31946524Y-102347260I-1122260J78476D01*
G01*
G37*
G36*
G01*
X26905970Y-99522779D02*
X26905970Y-99522778D01*
G75*
G02*
X28106706Y-100566562I78476J-1122260D01*
G01*
X28147260Y-101146524D01*
G75*
G02*
X27103476Y-102347260I-1122260J-78476D01*
G01*
X27103476Y-102347260D01*
G75*
G02*
X25902740Y-101303476I-78476J1122260D01*
G01*
X25862186Y-100723514D01*
G75*
G02*
X26905970Y-99522778I1122260J78476D01*
G01*
G37*
D21*
X28255000Y-110805000D03*
G36*
G01*
X24962228Y-104021038D02*
X24962228Y-104021038D01*
G75*
G02*
X24878962Y-102432228I752772J836038D01*
G01*
X26191500Y-100974508D01*
G75*
G02*
X27780310Y-100891242I836038J-752772D01*
G01*
X27780310Y-100891242D01*
G75*
G02*
X27863576Y-102480052I-752772J-836038D01*
G01*
X26551038Y-103937772D01*
G75*
G02*
X24962228Y-104021038I-836038J752772D01*
G01*
G37*
G36*
G01*
X31269690Y-100891242D02*
X31269690Y-100891242D01*
G75*
G02*
X32858500Y-100974508I752772J-836038D01*
G01*
X34171038Y-102432228D01*
G75*
G02*
X34087772Y-104021038I-836038J-752772D01*
G01*
X34087772Y-104021038D01*
G75*
G02*
X32498962Y-103937772I-752772J836038D01*
G01*
X31186424Y-102480052D01*
G75*
G02*
X31269690Y-100891242I836038J752772D01*
G01*
G37*
D19*
X27025000Y-101725000D03*
D20*
X34605000Y-105725000D03*
X24445000Y-105725000D03*
D22*
X29525000Y-105725000D03*
D19*
X178199492Y-106513953D03*
G36*
X170718500Y-115026410D02*
G01*
X171671000Y-113376632D01*
X173320778Y-114329132D01*
X172368278Y-115978910D01*
X170718500Y-115026410D01*
G37*
X173800082Y-103973953D03*
X177624851Y-107429260D03*
G36*
G01*
X177245759Y-107928915D02*
X177245759Y-107928915D01*
G75*
G02*
X176942184Y-106367156I629092J932667D01*
G01*
X177267286Y-105885172D01*
G75*
G02*
X178829045Y-105581597I932667J-629092D01*
G01*
X178829045Y-105581597D01*
G75*
G02*
X179132620Y-107143356I-629092J-932667D01*
G01*
X178807518Y-107625340D01*
G75*
G02*
X177245759Y-107928915I-932667J629092D01*
G01*
G37*
G36*
G01*
X174292750Y-102962565D02*
X174292751Y-102962565D01*
G75*
G02*
X174810726Y-104466876I-493168J-1011143D01*
G01*
X174555866Y-104989416D01*
G75*
G02*
X173051555Y-105507391I-1011143J493168D01*
G01*
X173051555Y-105507391D01*
G75*
G02*
X172533580Y-104003080I493168J1011143D01*
G01*
X172788440Y-103480540D01*
G75*
G02*
X174292751Y-102962565I1011143J-493168D01*
G01*
G37*
D21*
X169819935Y-113407771D03*
G36*
G01*
X170360291Y-105886301D02*
X170360291Y-105886301D01*
G75*
G02*
X171082586Y-104468718I1069939J347644D01*
G01*
X172948136Y-103862564D01*
G75*
G02*
X174365719Y-104584859I347644J-1069939D01*
G01*
X174365719Y-104584859D01*
G75*
G02*
X173643424Y-106002442I-1069939J-347644D01*
G01*
X171777874Y-106608596D01*
G75*
G02*
X170360291Y-105886301I-347644J1069939D01*
G01*
G37*
G36*
G01*
X177387613Y-106329549D02*
X177387613Y-106329549D01*
G75*
G02*
X178721930Y-107196064I233901J-1100416D01*
G01*
X179129760Y-109114756D01*
G75*
G02*
X178263245Y-110449073I-1100416J-233901D01*
G01*
X178263245Y-110449073D01*
G75*
G02*
X176928928Y-109582558I-233901J1100416D01*
G01*
X176521098Y-107663866D01*
G75*
G02*
X177387613Y-106329549I1100416J233901D01*
G01*
G37*
D19*
X173294723Y-104929260D03*
D20*
X177859196Y-112183362D03*
X169060378Y-107103362D03*
D22*
X173459787Y-109643362D03*
D19*
X194697276Y-116038953D03*
G36*
X187216284Y-124551410D02*
G01*
X188168784Y-122901632D01*
X189818562Y-123854132D01*
X188866062Y-125503910D01*
X187216284Y-124551410D01*
G37*
X190297866Y-113498953D03*
X194122635Y-116954260D03*
G36*
G01*
X193743543Y-117453915D02*
X193743543Y-117453915D01*
G75*
G02*
X193439968Y-115892156I629092J932667D01*
G01*
X193765070Y-115410172D01*
G75*
G02*
X195326829Y-115106597I932667J-629092D01*
G01*
X195326829Y-115106597D01*
G75*
G02*
X195630404Y-116668356I-629092J-932667D01*
G01*
X195305302Y-117150340D01*
G75*
G02*
X193743543Y-117453915I-932667J629092D01*
G01*
G37*
G36*
G01*
X190790534Y-112487565D02*
X190790535Y-112487565D01*
G75*
G02*
X191308510Y-113991876I-493168J-1011143D01*
G01*
X191053650Y-114514416D01*
G75*
G02*
X189549339Y-115032391I-1011143J493168D01*
G01*
X189549339Y-115032391D01*
G75*
G02*
X189031364Y-113528080I493168J1011143D01*
G01*
X189286224Y-113005540D01*
G75*
G02*
X190790535Y-112487565I1011143J-493168D01*
G01*
G37*
D21*
X186317719Y-122932771D03*
G36*
G01*
X186858075Y-115411301D02*
X186858075Y-115411301D01*
G75*
G02*
X187580370Y-113993718I1069939J347644D01*
G01*
X189445920Y-113387564D01*
G75*
G02*
X190863503Y-114109859I347644J-1069939D01*
G01*
X190863503Y-114109859D01*
G75*
G02*
X190141208Y-115527442I-1069939J-347644D01*
G01*
X188275658Y-116133596D01*
G75*
G02*
X186858075Y-115411301I-347644J1069939D01*
G01*
G37*
G36*
G01*
X193885397Y-115854549D02*
X193885397Y-115854549D01*
G75*
G02*
X195219714Y-116721064I233901J-1100416D01*
G01*
X195627544Y-118639756D01*
G75*
G02*
X194761029Y-119974073I-1100416J-233901D01*
G01*
X194761029Y-119974073D01*
G75*
G02*
X193426712Y-119107558I-233901J1100416D01*
G01*
X193018882Y-117188866D01*
G75*
G02*
X193885397Y-115854549I1100416J233901D01*
G01*
G37*
D19*
X189792507Y-114454260D03*
D20*
X194356980Y-121708362D03*
X185558162Y-116628362D03*
D22*
X189957571Y-119168362D03*
D19*
X51115000Y-24445000D03*
D23*
X49845000Y-34605000D03*
D19*
X46035000Y-24445000D03*
X51075000Y-25525000D03*
G36*
G01*
X50996524Y-26147259D02*
X50996524Y-26147260D01*
G75*
G02*
X49952740Y-24946524I78476J1122260D01*
G01*
X49993294Y-24366562D01*
G75*
G02*
X51194030Y-23322778I1122260J-78476D01*
G01*
X51194030Y-23322778D01*
G75*
G02*
X52237814Y-24523514I-78476J-1122260D01*
G01*
X52197260Y-25103476D01*
G75*
G02*
X50996524Y-26147260I-1122260J78476D01*
G01*
G37*
G36*
G01*
X45955970Y-23322779D02*
X45955970Y-23322778D01*
G75*
G02*
X47156706Y-24366562I78476J-1122260D01*
G01*
X47197260Y-24946524D01*
G75*
G02*
X46153476Y-26147260I-1122260J-78476D01*
G01*
X46153476Y-26147260D01*
G75*
G02*
X44952740Y-25103476I-78476J1122260D01*
G01*
X44912186Y-24523514D01*
G75*
G02*
X45955970Y-23322778I1122260J78476D01*
G01*
G37*
D21*
X47305000Y-34605000D03*
G36*
G01*
X44012228Y-27821038D02*
X44012228Y-27821038D01*
G75*
G02*
X43928962Y-26232228I752772J836038D01*
G01*
X45241500Y-24774508D01*
G75*
G02*
X46830310Y-24691242I836038J-752772D01*
G01*
X46830310Y-24691242D01*
G75*
G02*
X46913576Y-26280052I-752772J-836038D01*
G01*
X45601038Y-27737772D01*
G75*
G02*
X44012228Y-27821038I-836038J752772D01*
G01*
G37*
G36*
G01*
X50319690Y-24691242D02*
X50319690Y-24691242D01*
G75*
G02*
X51908500Y-24774508I752772J-836038D01*
G01*
X53221038Y-26232228D01*
G75*
G02*
X53137772Y-27821038I-836038J-752772D01*
G01*
X53137772Y-27821038D01*
G75*
G02*
X51548962Y-27737772I-752772J836038D01*
G01*
X50236424Y-26280052D01*
G75*
G02*
X50319690Y-24691242I836038J752772D01*
G01*
G37*
D19*
X46075000Y-25525000D03*
D20*
X53655000Y-29525000D03*
X43495000Y-29525000D03*
D22*
X48575000Y-29525000D03*
D19*
X127315000Y-100645000D03*
D23*
X126045000Y-110805000D03*
D19*
X122235000Y-100645000D03*
X127275000Y-101725000D03*
G36*
G01*
X127196524Y-102347259D02*
X127196524Y-102347260D01*
G75*
G02*
X126152740Y-101146524I78476J1122260D01*
G01*
X126193294Y-100566562D01*
G75*
G02*
X127394030Y-99522778I1122260J-78476D01*
G01*
X127394030Y-99522778D01*
G75*
G02*
X128437814Y-100723514I-78476J-1122260D01*
G01*
X128397260Y-101303476D01*
G75*
G02*
X127196524Y-102347260I-1122260J78476D01*
G01*
G37*
G36*
G01*
X122155970Y-99522779D02*
X122155970Y-99522778D01*
G75*
G02*
X123356706Y-100566562I78476J-1122260D01*
G01*
X123397260Y-101146524D01*
G75*
G02*
X122353476Y-102347260I-1122260J-78476D01*
G01*
X122353476Y-102347260D01*
G75*
G02*
X121152740Y-101303476I-78476J1122260D01*
G01*
X121112186Y-100723514D01*
G75*
G02*
X122155970Y-99522778I1122260J78476D01*
G01*
G37*
D21*
X123505000Y-110805000D03*
G36*
G01*
X120212228Y-104021038D02*
X120212228Y-104021038D01*
G75*
G02*
X120128962Y-102432228I752772J836038D01*
G01*
X121441500Y-100974508D01*
G75*
G02*
X123030310Y-100891242I836038J-752772D01*
G01*
X123030310Y-100891242D01*
G75*
G02*
X123113576Y-102480052I-752772J-836038D01*
G01*
X121801038Y-103937772D01*
G75*
G02*
X120212228Y-104021038I-836038J752772D01*
G01*
G37*
G36*
G01*
X126519690Y-100891242D02*
X126519690Y-100891242D01*
G75*
G02*
X128108500Y-100974508I752772J-836038D01*
G01*
X129421038Y-102432228D01*
G75*
G02*
X129337772Y-104021038I-836038J-752772D01*
G01*
X129337772Y-104021038D01*
G75*
G02*
X127748962Y-103937772I-752772J836038D01*
G01*
X126436424Y-102480052D01*
G75*
G02*
X126519690Y-100891242I836038J752772D01*
G01*
G37*
D19*
X122275000Y-101725000D03*
D20*
X129855000Y-105725000D03*
X119695000Y-105725000D03*
D22*
X124775000Y-105725000D03*
D19*
X141603750Y-81595000D03*
D23*
X140333750Y-91755000D03*
D19*
X136523750Y-81595000D03*
X141563750Y-82675000D03*
G36*
G01*
X141485274Y-83297259D02*
X141485274Y-83297260D01*
G75*
G02*
X140441490Y-82096524I78476J1122260D01*
G01*
X140482044Y-81516562D01*
G75*
G02*
X141682780Y-80472778I1122260J-78476D01*
G01*
X141682780Y-80472778D01*
G75*
G02*
X142726564Y-81673514I-78476J-1122260D01*
G01*
X142686010Y-82253476D01*
G75*
G02*
X141485274Y-83297260I-1122260J78476D01*
G01*
G37*
G36*
G01*
X136444720Y-80472779D02*
X136444720Y-80472778D01*
G75*
G02*
X137645456Y-81516562I78476J-1122260D01*
G01*
X137686010Y-82096524D01*
G75*
G02*
X136642226Y-83297260I-1122260J-78476D01*
G01*
X136642226Y-83297260D01*
G75*
G02*
X135441490Y-82253476I-78476J1122260D01*
G01*
X135400936Y-81673514D01*
G75*
G02*
X136444720Y-80472778I1122260J78476D01*
G01*
G37*
D21*
X137793750Y-91755000D03*
G36*
G01*
X134500978Y-84971038D02*
X134500978Y-84971038D01*
G75*
G02*
X134417712Y-83382228I752772J836038D01*
G01*
X135730250Y-81924508D01*
G75*
G02*
X137319060Y-81841242I836038J-752772D01*
G01*
X137319060Y-81841242D01*
G75*
G02*
X137402326Y-83430052I-752772J-836038D01*
G01*
X136089788Y-84887772D01*
G75*
G02*
X134500978Y-84971038I-836038J752772D01*
G01*
G37*
G36*
G01*
X140808440Y-81841242D02*
X140808440Y-81841242D01*
G75*
G02*
X142397250Y-81924508I752772J-836038D01*
G01*
X143709788Y-83382228D01*
G75*
G02*
X143626522Y-84971038I-836038J-752772D01*
G01*
X143626522Y-84971038D01*
G75*
G02*
X142037712Y-84887772I-752772J836038D01*
G01*
X140725174Y-83430052D01*
G75*
G02*
X140808440Y-81841242I836038J752772D01*
G01*
G37*
D19*
X136563750Y-82675000D03*
D20*
X144143750Y-86675000D03*
X133983750Y-86675000D03*
D22*
X139063750Y-86675000D03*
D19*
X103503750Y-81595000D03*
D23*
X102233750Y-91755000D03*
D19*
X98423750Y-81595000D03*
X103463750Y-82675000D03*
G36*
G01*
X103385274Y-83297259D02*
X103385274Y-83297260D01*
G75*
G02*
X102341490Y-82096524I78476J1122260D01*
G01*
X102382044Y-81516562D01*
G75*
G02*
X103582780Y-80472778I1122260J-78476D01*
G01*
X103582780Y-80472778D01*
G75*
G02*
X104626564Y-81673514I-78476J-1122260D01*
G01*
X104586010Y-82253476D01*
G75*
G02*
X103385274Y-83297260I-1122260J78476D01*
G01*
G37*
G36*
G01*
X98344720Y-80472779D02*
X98344720Y-80472778D01*
G75*
G02*
X99545456Y-81516562I78476J-1122260D01*
G01*
X99586010Y-82096524D01*
G75*
G02*
X98542226Y-83297260I-1122260J-78476D01*
G01*
X98542226Y-83297260D01*
G75*
G02*
X97341490Y-82253476I-78476J1122260D01*
G01*
X97300936Y-81673514D01*
G75*
G02*
X98344720Y-80472778I1122260J78476D01*
G01*
G37*
D21*
X99693750Y-91755000D03*
G36*
G01*
X96400978Y-84971038D02*
X96400978Y-84971038D01*
G75*
G02*
X96317712Y-83382228I752772J836038D01*
G01*
X97630250Y-81924508D01*
G75*
G02*
X99219060Y-81841242I836038J-752772D01*
G01*
X99219060Y-81841242D01*
G75*
G02*
X99302326Y-83430052I-752772J-836038D01*
G01*
X97989788Y-84887772D01*
G75*
G02*
X96400978Y-84971038I-836038J752772D01*
G01*
G37*
G36*
G01*
X102708440Y-81841242D02*
X102708440Y-81841242D01*
G75*
G02*
X104297250Y-81924508I752772J-836038D01*
G01*
X105609788Y-83382228D01*
G75*
G02*
X105526522Y-84971038I-836038J-752772D01*
G01*
X105526522Y-84971038D01*
G75*
G02*
X103937712Y-84887772I-752772J836038D01*
G01*
X102625174Y-83430052D01*
G75*
G02*
X102708440Y-81841242I836038J752772D01*
G01*
G37*
D19*
X98463750Y-82675000D03*
D20*
X106043750Y-86675000D03*
X95883750Y-86675000D03*
D22*
X100963750Y-86675000D03*
D19*
X98737500Y-62545000D03*
D23*
X97467500Y-72705000D03*
D19*
X93657500Y-62545000D03*
X98697500Y-63625000D03*
G36*
G01*
X98619024Y-64247259D02*
X98619024Y-64247260D01*
G75*
G02*
X97575240Y-63046524I78476J1122260D01*
G01*
X97615794Y-62466562D01*
G75*
G02*
X98816530Y-61422778I1122260J-78476D01*
G01*
X98816530Y-61422778D01*
G75*
G02*
X99860314Y-62623514I-78476J-1122260D01*
G01*
X99819760Y-63203476D01*
G75*
G02*
X98619024Y-64247260I-1122260J78476D01*
G01*
G37*
G36*
G01*
X93578470Y-61422779D02*
X93578470Y-61422778D01*
G75*
G02*
X94779206Y-62466562I78476J-1122260D01*
G01*
X94819760Y-63046524D01*
G75*
G02*
X93775976Y-64247260I-1122260J-78476D01*
G01*
X93775976Y-64247260D01*
G75*
G02*
X92575240Y-63203476I-78476J1122260D01*
G01*
X92534686Y-62623514D01*
G75*
G02*
X93578470Y-61422778I1122260J78476D01*
G01*
G37*
D21*
X94927500Y-72705000D03*
G36*
G01*
X91634728Y-65921038D02*
X91634728Y-65921038D01*
G75*
G02*
X91551462Y-64332228I752772J836038D01*
G01*
X92864000Y-62874508D01*
G75*
G02*
X94452810Y-62791242I836038J-752772D01*
G01*
X94452810Y-62791242D01*
G75*
G02*
X94536076Y-64380052I-752772J-836038D01*
G01*
X93223538Y-65837772D01*
G75*
G02*
X91634728Y-65921038I-836038J752772D01*
G01*
G37*
G36*
G01*
X97942190Y-62791242D02*
X97942190Y-62791242D01*
G75*
G02*
X99531000Y-62874508I752772J-836038D01*
G01*
X100843538Y-64332228D01*
G75*
G02*
X100760272Y-65921038I-836038J-752772D01*
G01*
X100760272Y-65921038D01*
G75*
G02*
X99171462Y-65837772I-752772J836038D01*
G01*
X97858924Y-64380052D01*
G75*
G02*
X97942190Y-62791242I836038J752772D01*
G01*
G37*
D19*
X93697500Y-63625000D03*
D20*
X101277500Y-67625000D03*
X91117500Y-67625000D03*
D22*
X96197500Y-67625000D03*
D19*
X175647276Y-149034521D03*
G36*
X168166284Y-157546978D02*
G01*
X169118784Y-155897200D01*
X170768562Y-156849700D01*
X169816062Y-158499478D01*
X168166284Y-157546978D01*
G37*
X171247866Y-146494521D03*
X175072635Y-149949828D03*
G36*
G01*
X174693543Y-150449483D02*
X174693543Y-150449483D01*
G75*
G02*
X174389968Y-148887724I629092J932667D01*
G01*
X174715070Y-148405740D01*
G75*
G02*
X176276829Y-148102165I932667J-629092D01*
G01*
X176276829Y-148102165D01*
G75*
G02*
X176580404Y-149663924I-629092J-932667D01*
G01*
X176255302Y-150145908D01*
G75*
G02*
X174693543Y-150449483I-932667J629092D01*
G01*
G37*
G36*
G01*
X171740534Y-145483133D02*
X171740535Y-145483133D01*
G75*
G02*
X172258510Y-146987444I-493168J-1011143D01*
G01*
X172003650Y-147509984D01*
G75*
G02*
X170499339Y-148027959I-1011143J493168D01*
G01*
X170499339Y-148027959D01*
G75*
G02*
X169981364Y-146523648I493168J1011143D01*
G01*
X170236224Y-146001108D01*
G75*
G02*
X171740535Y-145483133I1011143J-493168D01*
G01*
G37*
D21*
X167267719Y-155928339D03*
G36*
G01*
X167808075Y-148406869D02*
X167808075Y-148406869D01*
G75*
G02*
X168530370Y-146989286I1069939J347644D01*
G01*
X170395920Y-146383132D01*
G75*
G02*
X171813503Y-147105427I347644J-1069939D01*
G01*
X171813503Y-147105427D01*
G75*
G02*
X171091208Y-148523010I-1069939J-347644D01*
G01*
X169225658Y-149129164D01*
G75*
G02*
X167808075Y-148406869I-347644J1069939D01*
G01*
G37*
G36*
G01*
X174835397Y-148850117D02*
X174835397Y-148850117D01*
G75*
G02*
X176169714Y-149716632I233901J-1100416D01*
G01*
X176577544Y-151635324D01*
G75*
G02*
X175711029Y-152969641I-1100416J-233901D01*
G01*
X175711029Y-152969641D01*
G75*
G02*
X174376712Y-152103126I-233901J1100416D01*
G01*
X173968882Y-150184434D01*
G75*
G02*
X174835397Y-148850117I1100416J233901D01*
G01*
G37*
D19*
X170742507Y-147449828D03*
D20*
X175306980Y-154703930D03*
X166508162Y-149623930D03*
D22*
X170907571Y-152163930D03*
D19*
X168674492Y-123011737D03*
G36*
X161193500Y-131524194D02*
G01*
X162146000Y-129874416D01*
X163795778Y-130826916D01*
X162843278Y-132476694D01*
X161193500Y-131524194D01*
G37*
X164275082Y-120471737D03*
X168099851Y-123927044D03*
G36*
G01*
X167720759Y-124426699D02*
X167720759Y-124426699D01*
G75*
G02*
X167417184Y-122864940I629092J932667D01*
G01*
X167742286Y-122382956D01*
G75*
G02*
X169304045Y-122079381I932667J-629092D01*
G01*
X169304045Y-122079381D01*
G75*
G02*
X169607620Y-123641140I-629092J-932667D01*
G01*
X169282518Y-124123124D01*
G75*
G02*
X167720759Y-124426699I-932667J629092D01*
G01*
G37*
G36*
G01*
X164767750Y-119460349D02*
X164767751Y-119460349D01*
G75*
G02*
X165285726Y-120964660I-493168J-1011143D01*
G01*
X165030866Y-121487200D01*
G75*
G02*
X163526555Y-122005175I-1011143J493168D01*
G01*
X163526555Y-122005175D01*
G75*
G02*
X163008580Y-120500864I493168J1011143D01*
G01*
X163263440Y-119978324D01*
G75*
G02*
X164767751Y-119460349I1011143J-493168D01*
G01*
G37*
D21*
X160294935Y-129905555D03*
G36*
G01*
X160835291Y-122384085D02*
X160835291Y-122384085D01*
G75*
G02*
X161557586Y-120966502I1069939J347644D01*
G01*
X163423136Y-120360348D01*
G75*
G02*
X164840719Y-121082643I347644J-1069939D01*
G01*
X164840719Y-121082643D01*
G75*
G02*
X164118424Y-122500226I-1069939J-347644D01*
G01*
X162252874Y-123106380D01*
G75*
G02*
X160835291Y-122384085I-347644J1069939D01*
G01*
G37*
G36*
G01*
X167862613Y-122827333D02*
X167862613Y-122827333D01*
G75*
G02*
X169196930Y-123693848I233901J-1100416D01*
G01*
X169604760Y-125612540D01*
G75*
G02*
X168738245Y-126946857I-1100416J-233901D01*
G01*
X168738245Y-126946857D01*
G75*
G02*
X167403928Y-126080342I-233901J1100416D01*
G01*
X166996098Y-124161650D01*
G75*
G02*
X167862613Y-122827333I1100416J233901D01*
G01*
G37*
D19*
X163769723Y-121427044D03*
D20*
X168334196Y-128681146D03*
X159535378Y-123601146D03*
D22*
X163934787Y-126141146D03*
D16*
X181152883Y-152062165D03*
G36*
X177545703Y-159909983D02*
G01*
X176160063Y-159109983D01*
X176960063Y-157724343D01*
X178345703Y-158524343D01*
X177545703Y-159909983D01*
G37*
X141807499Y-134665000D03*
G36*
X133959681Y-131057820D02*
G01*
X134759681Y-129672180D01*
X136145321Y-130472180D01*
X135345321Y-131857820D01*
X133959681Y-131057820D01*
G37*
X57920833Y-25945000D03*
D13*
X57920833Y-33745000D03*
D16*
X158750000Y-44804500D03*
D13*
X158750000Y-52604500D03*
D16*
X167640000Y-83095000D03*
D13*
X167640000Y-90895000D03*
D16*
X134664165Y-25945000D03*
D13*
X134664165Y-33745000D03*
D16*
X164655099Y-142537165D03*
G36*
X161047919Y-150384983D02*
G01*
X159662279Y-149584983D01*
X160462279Y-148199343D01*
X161847919Y-148999343D01*
X161047919Y-150384983D01*
G37*
X110490000Y-83095000D03*
D13*
X110490000Y-90895000D03*
D16*
X182372000Y-64045000D03*
D13*
X182372000Y-71845000D03*
D16*
X120142000Y-44804500D03*
D13*
X120142000Y-52604500D03*
D16*
X178435000Y-25945000D03*
D13*
X178435000Y-33745000D03*
D16*
X133350000Y-101510000D03*
D13*
X133350000Y-109310000D03*
D16*
X190466978Y-135929679D03*
G36*
X186859798Y-143777497D02*
G01*
X185474158Y-142977497D01*
X186274158Y-141591857D01*
X187659798Y-142391857D01*
X186859798Y-143777497D01*
G37*
G36*
G01*
X39090274Y-83297259D02*
X39090274Y-83297260D01*
G75*
G02*
X38046490Y-82096524I78476J1122260D01*
G01*
X38087044Y-81516562D01*
G75*
G02*
X39287780Y-80472778I1122260J-78476D01*
G01*
X39287780Y-80472778D01*
G75*
G02*
X40331564Y-81673514I-78476J-1122260D01*
G01*
X40291010Y-82253476D01*
G75*
G02*
X39090274Y-83297260I-1122260J78476D01*
G01*
G37*
G36*
G01*
X34049720Y-80472779D02*
X34049720Y-80472778D01*
G75*
G02*
X35250456Y-81516562I78476J-1122260D01*
G01*
X35291010Y-82096524D01*
G75*
G02*
X34247226Y-83297260I-1122260J-78476D01*
G01*
X34247226Y-83297260D01*
G75*
G02*
X33046490Y-82253476I-78476J1122260D01*
G01*
X33005936Y-81673514D01*
G75*
G02*
X34049720Y-80472778I1122260J78476D01*
G01*
G37*
D19*
X39208750Y-81595000D03*
D20*
X31588750Y-86675000D03*
D19*
X34168750Y-82675000D03*
D21*
X35398750Y-91755000D03*
D19*
X39168750Y-82675000D03*
G36*
G01*
X32105978Y-84971038D02*
X32105978Y-84971038D01*
G75*
G02*
X32022712Y-83382228I752772J836038D01*
G01*
X33335250Y-81924508D01*
G75*
G02*
X34924060Y-81841242I836038J-752772D01*
G01*
X34924060Y-81841242D01*
G75*
G02*
X35007326Y-83430052I-752772J-836038D01*
G01*
X33694788Y-84887772D01*
G75*
G02*
X32105978Y-84971038I-836038J752772D01*
G01*
G37*
D22*
X36668750Y-86675000D03*
D19*
X34128750Y-81595000D03*
G36*
G01*
X38413440Y-81841242D02*
X38413440Y-81841242D01*
G75*
G02*
X40002250Y-81924508I752772J-836038D01*
G01*
X41314788Y-83382228D01*
G75*
G02*
X41231522Y-84971038I-836038J-752772D01*
G01*
X41231522Y-84971038D01*
G75*
G02*
X39642712Y-84887772I-752772J836038D01*
G01*
X38330174Y-83430052D01*
G75*
G02*
X38413440Y-81841242I836038J752772D01*
G01*
G37*
D20*
X41748750Y-86675000D03*
D23*
X37938750Y-91755000D03*
D16*
X199781073Y-119797193D03*
G36*
X196173893Y-127645011D02*
G01*
X194788253Y-126845011D01*
X195588253Y-125459371D01*
X196973893Y-126259371D01*
X196173893Y-127645011D01*
G37*
X96292499Y-25945000D03*
D13*
X96292499Y-33745000D03*
G36*
G01*
X177204024Y-64247259D02*
X177204024Y-64247260D01*
G75*
G02*
X176160240Y-63046524I78476J1122260D01*
G01*
X176200794Y-62466562D01*
G75*
G02*
X177401530Y-61422778I1122260J-78476D01*
G01*
X177401530Y-61422778D01*
G75*
G02*
X178445314Y-62623514I-78476J-1122260D01*
G01*
X178404760Y-63203476D01*
G75*
G02*
X177204024Y-64247260I-1122260J78476D01*
G01*
G37*
G36*
G01*
X172163470Y-61422779D02*
X172163470Y-61422778D01*
G75*
G02*
X173364206Y-62466562I78476J-1122260D01*
G01*
X173404760Y-63046524D01*
G75*
G02*
X172360976Y-64247260I-1122260J-78476D01*
G01*
X172360976Y-64247260D01*
G75*
G02*
X171160240Y-63203476I-78476J1122260D01*
G01*
X171119686Y-62623514D01*
G75*
G02*
X172163470Y-61422778I1122260J78476D01*
G01*
G37*
D19*
X177322500Y-62545000D03*
D20*
X169702500Y-67625000D03*
D19*
X172282500Y-63625000D03*
D21*
X173512500Y-72705000D03*
D19*
X177282500Y-63625000D03*
G36*
G01*
X170219728Y-65921038D02*
X170219728Y-65921038D01*
G75*
G02*
X170136462Y-64332228I752772J836038D01*
G01*
X171449000Y-62874508D01*
G75*
G02*
X173037810Y-62791242I836038J-752772D01*
G01*
X173037810Y-62791242D01*
G75*
G02*
X173121076Y-64380052I-752772J-836038D01*
G01*
X171808538Y-65837772D01*
G75*
G02*
X170219728Y-65921038I-836038J752772D01*
G01*
G37*
D22*
X174782500Y-67625000D03*
D19*
X172242500Y-62545000D03*
G36*
G01*
X176527190Y-62791242D02*
X176527190Y-62791242D01*
G75*
G02*
X178116000Y-62874508I752772J-836038D01*
G01*
X179428538Y-64332228D01*
G75*
G02*
X179345272Y-65921038I-836038J-752772D01*
G01*
X179345272Y-65921038D01*
G75*
G02*
X177756462Y-65837772I-752772J836038D01*
G01*
X176443924Y-64380052D01*
G75*
G02*
X176527190Y-62791242I836038J752772D01*
G01*
G37*
D20*
X179862500Y-67625000D03*
D23*
X176052500Y-72705000D03*
D16*
X183283289Y-110272193D03*
G36*
X179676109Y-118120011D02*
G01*
X178290469Y-117320011D01*
X179090469Y-115934371D01*
X180476109Y-116734371D01*
X179676109Y-118120011D01*
G37*
X153850000Y-25945000D03*
D13*
X153850000Y-33745000D03*
D16*
X77106666Y-25945000D03*
D13*
X77106666Y-33745000D03*
D16*
X124460000Y-64045000D03*
D13*
X124460000Y-71845000D03*
D16*
X162560000Y-64045000D03*
D13*
X162560000Y-71845000D03*
D16*
X115478332Y-25945000D03*
D13*
X115478332Y-33745000D03*
D16*
X62230000Y-44804500D03*
D13*
X62230000Y-52604500D03*
D16*
X38100000Y-101510000D03*
D13*
X38100000Y-109310000D03*
D16*
X143510000Y-64045000D03*
D13*
X143510000Y-71845000D03*
D16*
X38735000Y-25945000D03*
D13*
X38735000Y-33745000D03*
D16*
X100838000Y-44804500D03*
D13*
X100838000Y-52604500D03*
D16*
X180530500Y-44804500D03*
D13*
X180530500Y-52604500D03*
D16*
X43815000Y-64045000D03*
D13*
X43815000Y-71845000D03*
D16*
X76200000Y-101510000D03*
D13*
X76200000Y-109310000D03*
D16*
X105410000Y-64045000D03*
D13*
X105410000Y-71845000D03*
D16*
X67310000Y-64045000D03*
D13*
X67310000Y-71845000D03*
D16*
X57150000Y-101510000D03*
D13*
X57150000Y-109310000D03*
D16*
X148590000Y-83095000D03*
D13*
X148590000Y-90895000D03*
D16*
X72390000Y-83095000D03*
D13*
X72390000Y-90895000D03*
D16*
X45720000Y-83095000D03*
D13*
X45720000Y-90895000D03*
D16*
X114300000Y-101510000D03*
D13*
X114300000Y-109310000D03*
D16*
X41910000Y-44804500D03*
D13*
X41910000Y-52604500D03*
D16*
X129540000Y-83095000D03*
D13*
X129540000Y-90895000D03*
D16*
X81534000Y-44804500D03*
D13*
X81534000Y-52604500D03*
D16*
X91440000Y-83095000D03*
D13*
X91440000Y-90895000D03*
G36*
G01*
X144388951Y-128651011D02*
X144388951Y-128651011D01*
G75*
G02*
X145950710Y-128347436I932667J-629092D01*
G01*
X146432694Y-128672538D01*
G75*
G02*
X146736269Y-130234297I-629092J-932667D01*
G01*
X146736269Y-130234297D01*
G75*
G02*
X145174510Y-130537872I-932667J629092D01*
G01*
X144692526Y-130212770D01*
G75*
G02*
X144388951Y-128651011I629092J932667D01*
G01*
G37*
G36*
G01*
X149355301Y-125698002D02*
X149355301Y-125698003D01*
G75*
G02*
X147850990Y-126215978I-1011143J493168D01*
G01*
X147328450Y-125961118D01*
G75*
G02*
X146810475Y-124456807I493168J1011143D01*
G01*
X146810475Y-124456807D01*
G75*
G02*
X148314786Y-123938832I1011143J-493168D01*
G01*
X148837326Y-124193692D01*
G75*
G02*
X149355301Y-125698003I-493168J-1011143D01*
G01*
G37*
D19*
X145803913Y-129604744D03*
D20*
X145214504Y-120465630D03*
D19*
X147388606Y-124699975D03*
D21*
X138910095Y-121225187D03*
D19*
X144888606Y-129030103D03*
G36*
G01*
X146431565Y-121765543D02*
X146431565Y-121765543D01*
G75*
G02*
X147849148Y-122487838I347644J-1069939D01*
G01*
X148455302Y-124353388D01*
G75*
G02*
X147733007Y-125770971I-1069939J-347644D01*
G01*
X147733007Y-125770971D01*
G75*
G02*
X146315424Y-125048676I-347644J1069939D01*
G01*
X145709270Y-123183126D01*
G75*
G02*
X146431565Y-121765543I1069939J347644D01*
G01*
G37*
D22*
X142674504Y-124865039D03*
D19*
X148343913Y-125205334D03*
G36*
G01*
X145988317Y-128792865D02*
X145988317Y-128792865D01*
G75*
G02*
X145121802Y-130127182I-1100416J-233901D01*
G01*
X143203110Y-130535012D01*
G75*
G02*
X141868793Y-129668497I-233901J1100416D01*
G01*
X141868793Y-129668497D01*
G75*
G02*
X142735308Y-128334180I1100416J233901D01*
G01*
X144654000Y-127926350D01*
G75*
G02*
X145988317Y-128792865I233901J-1100416D01*
G01*
G37*
D20*
X140134504Y-129264448D03*
G36*
X137291456Y-122123752D02*
G01*
X138941234Y-123076252D01*
X137988734Y-124726030D01*
X136338956Y-123773530D01*
X137291456Y-122123752D01*
G37*
D22*
X129556464Y-131076150D03*
X141494464Y-110398928D03*
D24*
X142754691Y-138696150D03*
X154692691Y-118018928D03*
D16*
X95250000Y-101510000D03*
D13*
X95250000Y-109310000D03*
D16*
X139446000Y-44804500D03*
D13*
X139446000Y-52604500D03*
D16*
X86360000Y-64045000D03*
D13*
X86360000Y-71845000D03*
D16*
X173969194Y-126404679D03*
G36*
X170362014Y-134252497D02*
G01*
X168976374Y-133452497D01*
X169776374Y-132066857D01*
X171162014Y-132866857D01*
X170362014Y-134252497D01*
G37*
G36*
G01*
X172441524Y-26147259D02*
X172441524Y-26147260D01*
G75*
G02*
X171397740Y-24946524I78476J1122260D01*
G01*
X171438294Y-24366562D01*
G75*
G02*
X172639030Y-23322778I1122260J-78476D01*
G01*
X172639030Y-23322778D01*
G75*
G02*
X173682814Y-24523514I-78476J-1122260D01*
G01*
X173642260Y-25103476D01*
G75*
G02*
X172441524Y-26147260I-1122260J78476D01*
G01*
G37*
G36*
G01*
X167400970Y-23322779D02*
X167400970Y-23322778D01*
G75*
G02*
X168601706Y-24366562I78476J-1122260D01*
G01*
X168642260Y-24946524D01*
G75*
G02*
X167598476Y-26147260I-1122260J-78476D01*
G01*
X167598476Y-26147260D01*
G75*
G02*
X166397740Y-25103476I-78476J1122260D01*
G01*
X166357186Y-24523514D01*
G75*
G02*
X167400970Y-23322778I1122260J78476D01*
G01*
G37*
D19*
X172560000Y-24445000D03*
D20*
X164940000Y-29525000D03*
D19*
X167520000Y-25525000D03*
D21*
X168750000Y-34605000D03*
D19*
X172520000Y-25525000D03*
G36*
G01*
X165457228Y-27821038D02*
X165457228Y-27821038D01*
G75*
G02*
X165373962Y-26232228I752772J836038D01*
G01*
X166686500Y-24774508D01*
G75*
G02*
X168275310Y-24691242I836038J-752772D01*
G01*
X168275310Y-24691242D01*
G75*
G02*
X168358576Y-26280052I-752772J-836038D01*
G01*
X167046038Y-27737772D01*
G75*
G02*
X165457228Y-27821038I-836038J752772D01*
G01*
G37*
D22*
X170020000Y-29525000D03*
D19*
X167480000Y-24445000D03*
G36*
G01*
X171764690Y-24691242D02*
X171764690Y-24691242D01*
G75*
G02*
X173353500Y-24774508I752772J-836038D01*
G01*
X174666038Y-26232228D01*
G75*
G02*
X174582772Y-27821038I-836038J-752772D01*
G01*
X174582772Y-27821038D01*
G75*
G02*
X172993962Y-27737772I-752772J836038D01*
G01*
X171681424Y-26280052D01*
G75*
G02*
X171764690Y-24691242I836038J752772D01*
G01*
G37*
D20*
X175100000Y-29525000D03*
D23*
X171290000Y-34605000D03*
D19*
X132076250Y-43495000D03*
D23*
X130806250Y-53655000D03*
D19*
X126996250Y-43495000D03*
X132036250Y-44575000D03*
G36*
G01*
X131957774Y-45197259D02*
X131957774Y-45197260D01*
G75*
G02*
X130913990Y-43996524I78476J1122260D01*
G01*
X130954544Y-43416562D01*
G75*
G02*
X132155280Y-42372778I1122260J-78476D01*
G01*
X132155280Y-42372778D01*
G75*
G02*
X133199064Y-43573514I-78476J-1122260D01*
G01*
X133158510Y-44153476D01*
G75*
G02*
X131957774Y-45197260I-1122260J78476D01*
G01*
G37*
G36*
G01*
X126917220Y-42372779D02*
X126917220Y-42372778D01*
G75*
G02*
X128117956Y-43416562I78476J-1122260D01*
G01*
X128158510Y-43996524D01*
G75*
G02*
X127114726Y-45197260I-1122260J-78476D01*
G01*
X127114726Y-45197260D01*
G75*
G02*
X125913990Y-44153476I-78476J1122260D01*
G01*
X125873436Y-43573514D01*
G75*
G02*
X126917220Y-42372778I1122260J78476D01*
G01*
G37*
D21*
X128266250Y-53655000D03*
G36*
G01*
X124973478Y-46871038D02*
X124973478Y-46871038D01*
G75*
G02*
X124890212Y-45282228I752772J836038D01*
G01*
X126202750Y-43824508D01*
G75*
G02*
X127791560Y-43741242I836038J-752772D01*
G01*
X127791560Y-43741242D01*
G75*
G02*
X127874826Y-45330052I-752772J-836038D01*
G01*
X126562288Y-46787772D01*
G75*
G02*
X124973478Y-46871038I-836038J752772D01*
G01*
G37*
G36*
G01*
X131280940Y-43741242D02*
X131280940Y-43741242D01*
G75*
G02*
X132869750Y-43824508I752772J-836038D01*
G01*
X134182288Y-45282228D01*
G75*
G02*
X134099022Y-46871038I-836038J-752772D01*
G01*
X134099022Y-46871038D01*
G75*
G02*
X132510212Y-46787772I-752772J836038D01*
G01*
X131197674Y-45330052D01*
G75*
G02*
X131280940Y-43741242I836038J752772D01*
G01*
G37*
D19*
X127036250Y-44575000D03*
D20*
X134616250Y-48575000D03*
X124456250Y-48575000D03*
D22*
X129536250Y-48575000D03*
D19*
X65403750Y-81595000D03*
D23*
X64133750Y-91755000D03*
D19*
X60323750Y-81595000D03*
X65363750Y-82675000D03*
G36*
G01*
X65285274Y-83297259D02*
X65285274Y-83297260D01*
G75*
G02*
X64241490Y-82096524I78476J1122260D01*
G01*
X64282044Y-81516562D01*
G75*
G02*
X65482780Y-80472778I1122260J-78476D01*
G01*
X65482780Y-80472778D01*
G75*
G02*
X66526564Y-81673514I-78476J-1122260D01*
G01*
X66486010Y-82253476D01*
G75*
G02*
X65285274Y-83297260I-1122260J78476D01*
G01*
G37*
G36*
G01*
X60244720Y-80472779D02*
X60244720Y-80472778D01*
G75*
G02*
X61445456Y-81516562I78476J-1122260D01*
G01*
X61486010Y-82096524D01*
G75*
G02*
X60442226Y-83297260I-1122260J-78476D01*
G01*
X60442226Y-83297260D01*
G75*
G02*
X59241490Y-82253476I-78476J1122260D01*
G01*
X59200936Y-81673514D01*
G75*
G02*
X60244720Y-80472778I1122260J78476D01*
G01*
G37*
D21*
X61593750Y-91755000D03*
G36*
G01*
X58300978Y-84971038D02*
X58300978Y-84971038D01*
G75*
G02*
X58217712Y-83382228I752772J836038D01*
G01*
X59530250Y-81924508D01*
G75*
G02*
X61119060Y-81841242I836038J-752772D01*
G01*
X61119060Y-81841242D01*
G75*
G02*
X61202326Y-83430052I-752772J-836038D01*
G01*
X59889788Y-84887772D01*
G75*
G02*
X58300978Y-84971038I-836038J752772D01*
G01*
G37*
G36*
G01*
X64608440Y-81841242D02*
X64608440Y-81841242D01*
G75*
G02*
X66197250Y-81924508I752772J-836038D01*
G01*
X67509788Y-83382228D01*
G75*
G02*
X67426522Y-84971038I-836038J-752772D01*
G01*
X67426522Y-84971038D01*
G75*
G02*
X65837712Y-84887772I-752772J836038D01*
G01*
X64525174Y-83430052D01*
G75*
G02*
X64608440Y-81841242I836038J752772D01*
G01*
G37*
D19*
X60363750Y-82675000D03*
D20*
X67943750Y-86675000D03*
X57783750Y-86675000D03*
D22*
X62863750Y-86675000D03*
D19*
X122553750Y-81595000D03*
D23*
X121283750Y-91755000D03*
D19*
X117473750Y-81595000D03*
X122513750Y-82675000D03*
G36*
G01*
X122435274Y-83297259D02*
X122435274Y-83297260D01*
G75*
G02*
X121391490Y-82096524I78476J1122260D01*
G01*
X121432044Y-81516562D01*
G75*
G02*
X122632780Y-80472778I1122260J-78476D01*
G01*
X122632780Y-80472778D01*
G75*
G02*
X123676564Y-81673514I-78476J-1122260D01*
G01*
X123636010Y-82253476D01*
G75*
G02*
X122435274Y-83297260I-1122260J78476D01*
G01*
G37*
G36*
G01*
X117394720Y-80472779D02*
X117394720Y-80472778D01*
G75*
G02*
X118595456Y-81516562I78476J-1122260D01*
G01*
X118636010Y-82096524D01*
G75*
G02*
X117592226Y-83297260I-1122260J-78476D01*
G01*
X117592226Y-83297260D01*
G75*
G02*
X116391490Y-82253476I-78476J1122260D01*
G01*
X116350936Y-81673514D01*
G75*
G02*
X117394720Y-80472778I1122260J78476D01*
G01*
G37*
D21*
X118743750Y-91755000D03*
G36*
G01*
X115450978Y-84971038D02*
X115450978Y-84971038D01*
G75*
G02*
X115367712Y-83382228I752772J836038D01*
G01*
X116680250Y-81924508D01*
G75*
G02*
X118269060Y-81841242I836038J-752772D01*
G01*
X118269060Y-81841242D01*
G75*
G02*
X118352326Y-83430052I-752772J-836038D01*
G01*
X117039788Y-84887772D01*
G75*
G02*
X115450978Y-84971038I-836038J752772D01*
G01*
G37*
G36*
G01*
X121758440Y-81841242D02*
X121758440Y-81841242D01*
G75*
G02*
X123347250Y-81924508I752772J-836038D01*
G01*
X124659788Y-83382228D01*
G75*
G02*
X124576522Y-84971038I-836038J-752772D01*
G01*
X124576522Y-84971038D01*
G75*
G02*
X122987712Y-84887772I-752772J836038D01*
G01*
X121675174Y-83430052D01*
G75*
G02*
X121758440Y-81841242I836038J752772D01*
G01*
G37*
D19*
X117513750Y-82675000D03*
D20*
X125093750Y-86675000D03*
X114933750Y-86675000D03*
D22*
X120013750Y-86675000D03*
D19*
X84453750Y-81595000D03*
D23*
X83183750Y-91755000D03*
D19*
X79373750Y-81595000D03*
X84413750Y-82675000D03*
G36*
G01*
X84335274Y-83297259D02*
X84335274Y-83297260D01*
G75*
G02*
X83291490Y-82096524I78476J1122260D01*
G01*
X83332044Y-81516562D01*
G75*
G02*
X84532780Y-80472778I1122260J-78476D01*
G01*
X84532780Y-80472778D01*
G75*
G02*
X85576564Y-81673514I-78476J-1122260D01*
G01*
X85536010Y-82253476D01*
G75*
G02*
X84335274Y-83297260I-1122260J78476D01*
G01*
G37*
G36*
G01*
X79294720Y-80472779D02*
X79294720Y-80472778D01*
G75*
G02*
X80495456Y-81516562I78476J-1122260D01*
G01*
X80536010Y-82096524D01*
G75*
G02*
X79492226Y-83297260I-1122260J-78476D01*
G01*
X79492226Y-83297260D01*
G75*
G02*
X78291490Y-82253476I-78476J1122260D01*
G01*
X78250936Y-81673514D01*
G75*
G02*
X79294720Y-80472778I1122260J78476D01*
G01*
G37*
D21*
X80643750Y-91755000D03*
G36*
G01*
X77350978Y-84971038D02*
X77350978Y-84971038D01*
G75*
G02*
X77267712Y-83382228I752772J836038D01*
G01*
X78580250Y-81924508D01*
G75*
G02*
X80169060Y-81841242I836038J-752772D01*
G01*
X80169060Y-81841242D01*
G75*
G02*
X80252326Y-83430052I-752772J-836038D01*
G01*
X78939788Y-84887772D01*
G75*
G02*
X77350978Y-84971038I-836038J752772D01*
G01*
G37*
G36*
G01*
X83658440Y-81841242D02*
X83658440Y-81841242D01*
G75*
G02*
X85247250Y-81924508I752772J-836038D01*
G01*
X86559788Y-83382228D01*
G75*
G02*
X86476522Y-84971038I-836038J-752772D01*
G01*
X86476522Y-84971038D01*
G75*
G02*
X84887712Y-84887772I-752772J836038D01*
G01*
X83575174Y-83430052D01*
G75*
G02*
X83658440Y-81841242I836038J752772D01*
G01*
G37*
D19*
X79413750Y-82675000D03*
D20*
X86993750Y-86675000D03*
X76833750Y-86675000D03*
D22*
X81913750Y-86675000D03*
D19*
X113026250Y-43495000D03*
D23*
X111756250Y-53655000D03*
D19*
X107946250Y-43495000D03*
X112986250Y-44575000D03*
G36*
G01*
X112907774Y-45197259D02*
X112907774Y-45197260D01*
G75*
G02*
X111863990Y-43996524I78476J1122260D01*
G01*
X111904544Y-43416562D01*
G75*
G02*
X113105280Y-42372778I1122260J-78476D01*
G01*
X113105280Y-42372778D01*
G75*
G02*
X114149064Y-43573514I-78476J-1122260D01*
G01*
X114108510Y-44153476D01*
G75*
G02*
X112907774Y-45197260I-1122260J78476D01*
G01*
G37*
G36*
G01*
X107867220Y-42372779D02*
X107867220Y-42372778D01*
G75*
G02*
X109067956Y-43416562I78476J-1122260D01*
G01*
X109108510Y-43996524D01*
G75*
G02*
X108064726Y-45197260I-1122260J-78476D01*
G01*
X108064726Y-45197260D01*
G75*
G02*
X106863990Y-44153476I-78476J1122260D01*
G01*
X106823436Y-43573514D01*
G75*
G02*
X107867220Y-42372778I1122260J78476D01*
G01*
G37*
D21*
X109216250Y-53655000D03*
G36*
G01*
X105923478Y-46871038D02*
X105923478Y-46871038D01*
G75*
G02*
X105840212Y-45282228I752772J836038D01*
G01*
X107152750Y-43824508D01*
G75*
G02*
X108741560Y-43741242I836038J-752772D01*
G01*
X108741560Y-43741242D01*
G75*
G02*
X108824826Y-45330052I-752772J-836038D01*
G01*
X107512288Y-46787772D01*
G75*
G02*
X105923478Y-46871038I-836038J752772D01*
G01*
G37*
G36*
G01*
X112230940Y-43741242D02*
X112230940Y-43741242D01*
G75*
G02*
X113819750Y-43824508I752772J-836038D01*
G01*
X115132288Y-45282228D01*
G75*
G02*
X115049022Y-46871038I-836038J-752772D01*
G01*
X115049022Y-46871038D01*
G75*
G02*
X113460212Y-46787772I-752772J836038D01*
G01*
X112147674Y-45330052D01*
G75*
G02*
X112230940Y-43741242I836038J752772D01*
G01*
G37*
D19*
X107986250Y-44575000D03*
D20*
X115566250Y-48575000D03*
X105406250Y-48575000D03*
D22*
X110486250Y-48575000D03*
D19*
X89215000Y-100645000D03*
D23*
X87945000Y-110805000D03*
D19*
X84135000Y-100645000D03*
X89175000Y-101725000D03*
G36*
G01*
X89096524Y-102347259D02*
X89096524Y-102347260D01*
G75*
G02*
X88052740Y-101146524I78476J1122260D01*
G01*
X88093294Y-100566562D01*
G75*
G02*
X89294030Y-99522778I1122260J-78476D01*
G01*
X89294030Y-99522778D01*
G75*
G02*
X90337814Y-100723514I-78476J-1122260D01*
G01*
X90297260Y-101303476D01*
G75*
G02*
X89096524Y-102347260I-1122260J78476D01*
G01*
G37*
G36*
G01*
X84055970Y-99522779D02*
X84055970Y-99522778D01*
G75*
G02*
X85256706Y-100566562I78476J-1122260D01*
G01*
X85297260Y-101146524D01*
G75*
G02*
X84253476Y-102347260I-1122260J-78476D01*
G01*
X84253476Y-102347260D01*
G75*
G02*
X83052740Y-101303476I-78476J1122260D01*
G01*
X83012186Y-100723514D01*
G75*
G02*
X84055970Y-99522778I1122260J78476D01*
G01*
G37*
D21*
X85405000Y-110805000D03*
G36*
G01*
X82112228Y-104021038D02*
X82112228Y-104021038D01*
G75*
G02*
X82028962Y-102432228I752772J836038D01*
G01*
X83341500Y-100974508D01*
G75*
G02*
X84930310Y-100891242I836038J-752772D01*
G01*
X84930310Y-100891242D01*
G75*
G02*
X85013576Y-102480052I-752772J-836038D01*
G01*
X83701038Y-103937772D01*
G75*
G02*
X82112228Y-104021038I-836038J752772D01*
G01*
G37*
G36*
G01*
X88419690Y-100891242D02*
X88419690Y-100891242D01*
G75*
G02*
X90008500Y-100974508I752772J-836038D01*
G01*
X91321038Y-102432228D01*
G75*
G02*
X91237772Y-104021038I-836038J-752772D01*
G01*
X91237772Y-104021038D01*
G75*
G02*
X89648962Y-103937772I-752772J836038D01*
G01*
X88336424Y-102480052D01*
G75*
G02*
X88419690Y-100891242I836038J752772D01*
G01*
G37*
D19*
X84175000Y-101725000D03*
D20*
X91755000Y-105725000D03*
X81595000Y-105725000D03*
D22*
X86675000Y-105725000D03*
D19*
X108265000Y-100645000D03*
D23*
X106995000Y-110805000D03*
D19*
X103185000Y-100645000D03*
X108225000Y-101725000D03*
G36*
G01*
X108146524Y-102347259D02*
X108146524Y-102347260D01*
G75*
G02*
X107102740Y-101146524I78476J1122260D01*
G01*
X107143294Y-100566562D01*
G75*
G02*
X108344030Y-99522778I1122260J-78476D01*
G01*
X108344030Y-99522778D01*
G75*
G02*
X109387814Y-100723514I-78476J-1122260D01*
G01*
X109347260Y-101303476D01*
G75*
G02*
X108146524Y-102347260I-1122260J78476D01*
G01*
G37*
G36*
G01*
X103105970Y-99522779D02*
X103105970Y-99522778D01*
G75*
G02*
X104306706Y-100566562I78476J-1122260D01*
G01*
X104347260Y-101146524D01*
G75*
G02*
X103303476Y-102347260I-1122260J-78476D01*
G01*
X103303476Y-102347260D01*
G75*
G02*
X102102740Y-101303476I-78476J1122260D01*
G01*
X102062186Y-100723514D01*
G75*
G02*
X103105970Y-99522778I1122260J78476D01*
G01*
G37*
D21*
X104455000Y-110805000D03*
G36*
G01*
X101162228Y-104021038D02*
X101162228Y-104021038D01*
G75*
G02*
X101078962Y-102432228I752772J836038D01*
G01*
X102391500Y-100974508D01*
G75*
G02*
X103980310Y-100891242I836038J-752772D01*
G01*
X103980310Y-100891242D01*
G75*
G02*
X104063576Y-102480052I-752772J-836038D01*
G01*
X102751038Y-103937772D01*
G75*
G02*
X101162228Y-104021038I-836038J752772D01*
G01*
G37*
G36*
G01*
X107469690Y-100891242D02*
X107469690Y-100891242D01*
G75*
G02*
X109058500Y-100974508I752772J-836038D01*
G01*
X110371038Y-102432228D01*
G75*
G02*
X110287772Y-104021038I-836038J-752772D01*
G01*
X110287772Y-104021038D01*
G75*
G02*
X108698962Y-103937772I-752772J836038D01*
G01*
X107386424Y-102480052D01*
G75*
G02*
X107469690Y-100891242I836038J752772D01*
G01*
G37*
D19*
X103225000Y-101725000D03*
D20*
X110805000Y-105725000D03*
X100645000Y-105725000D03*
D22*
X105725000Y-105725000D03*
D19*
X79687500Y-62545000D03*
D23*
X78417500Y-72705000D03*
D19*
X74607500Y-62545000D03*
X79647500Y-63625000D03*
G36*
G01*
X79569024Y-64247259D02*
X79569024Y-64247260D01*
G75*
G02*
X78525240Y-63046524I78476J1122260D01*
G01*
X78565794Y-62466562D01*
G75*
G02*
X79766530Y-61422778I1122260J-78476D01*
G01*
X79766530Y-61422778D01*
G75*
G02*
X80810314Y-62623514I-78476J-1122260D01*
G01*
X80769760Y-63203476D01*
G75*
G02*
X79569024Y-64247260I-1122260J78476D01*
G01*
G37*
G36*
G01*
X74528470Y-61422779D02*
X74528470Y-61422778D01*
G75*
G02*
X75729206Y-62466562I78476J-1122260D01*
G01*
X75769760Y-63046524D01*
G75*
G02*
X74725976Y-64247260I-1122260J-78476D01*
G01*
X74725976Y-64247260D01*
G75*
G02*
X73525240Y-63203476I-78476J1122260D01*
G01*
X73484686Y-62623514D01*
G75*
G02*
X74528470Y-61422778I1122260J78476D01*
G01*
G37*
D21*
X75877500Y-72705000D03*
G36*
G01*
X72584728Y-65921038D02*
X72584728Y-65921038D01*
G75*
G02*
X72501462Y-64332228I752772J836038D01*
G01*
X73814000Y-62874508D01*
G75*
G02*
X75402810Y-62791242I836038J-752772D01*
G01*
X75402810Y-62791242D01*
G75*
G02*
X75486076Y-64380052I-752772J-836038D01*
G01*
X74173538Y-65837772D01*
G75*
G02*
X72584728Y-65921038I-836038J752772D01*
G01*
G37*
G36*
G01*
X78892190Y-62791242D02*
X78892190Y-62791242D01*
G75*
G02*
X80481000Y-62874508I752772J-836038D01*
G01*
X81793538Y-64332228D01*
G75*
G02*
X81710272Y-65921038I-836038J-752772D01*
G01*
X81710272Y-65921038D01*
G75*
G02*
X80121462Y-65837772I-752772J836038D01*
G01*
X78808924Y-64380052D01*
G75*
G02*
X78892190Y-62791242I836038J752772D01*
G01*
G37*
D19*
X74647500Y-63625000D03*
D20*
X82227500Y-67625000D03*
X72067500Y-67625000D03*
D22*
X77147500Y-67625000D03*
D19*
X146365000Y-24445000D03*
D23*
X145095000Y-34605000D03*
D19*
X141285000Y-24445000D03*
X146325000Y-25525000D03*
G36*
G01*
X146246524Y-26147259D02*
X146246524Y-26147260D01*
G75*
G02*
X145202740Y-24946524I78476J1122260D01*
G01*
X145243294Y-24366562D01*
G75*
G02*
X146444030Y-23322778I1122260J-78476D01*
G01*
X146444030Y-23322778D01*
G75*
G02*
X147487814Y-24523514I-78476J-1122260D01*
G01*
X147447260Y-25103476D01*
G75*
G02*
X146246524Y-26147260I-1122260J78476D01*
G01*
G37*
G36*
G01*
X141205970Y-23322779D02*
X141205970Y-23322778D01*
G75*
G02*
X142406706Y-24366562I78476J-1122260D01*
G01*
X142447260Y-24946524D01*
G75*
G02*
X141403476Y-26147260I-1122260J-78476D01*
G01*
X141403476Y-26147260D01*
G75*
G02*
X140202740Y-25103476I-78476J1122260D01*
G01*
X140162186Y-24523514D01*
G75*
G02*
X141205970Y-23322778I1122260J78476D01*
G01*
G37*
D21*
X142555000Y-34605000D03*
G36*
G01*
X139262228Y-27821038D02*
X139262228Y-27821038D01*
G75*
G02*
X139178962Y-26232228I752772J836038D01*
G01*
X140491500Y-24774508D01*
G75*
G02*
X142080310Y-24691242I836038J-752772D01*
G01*
X142080310Y-24691242D01*
G75*
G02*
X142163576Y-26280052I-752772J-836038D01*
G01*
X140851038Y-27737772D01*
G75*
G02*
X139262228Y-27821038I-836038J752772D01*
G01*
G37*
G36*
G01*
X145569690Y-24691242D02*
X145569690Y-24691242D01*
G75*
G02*
X147158500Y-24774508I752772J-836038D01*
G01*
X148471038Y-26232228D01*
G75*
G02*
X148387772Y-27821038I-836038J-752772D01*
G01*
X148387772Y-27821038D01*
G75*
G02*
X146798962Y-27737772I-752772J836038D01*
G01*
X145486424Y-26280052D01*
G75*
G02*
X145569690Y-24691242I836038J752772D01*
G01*
G37*
D19*
X141325000Y-25525000D03*
D20*
X148905000Y-29525000D03*
X138745000Y-29525000D03*
D22*
X143825000Y-29525000D03*
D19*
X127315000Y-24445000D03*
D23*
X126045000Y-34605000D03*
D19*
X122235000Y-24445000D03*
X127275000Y-25525000D03*
G36*
G01*
X127196524Y-26147259D02*
X127196524Y-26147260D01*
G75*
G02*
X126152740Y-24946524I78476J1122260D01*
G01*
X126193294Y-24366562D01*
G75*
G02*
X127394030Y-23322778I1122260J-78476D01*
G01*
X127394030Y-23322778D01*
G75*
G02*
X128437814Y-24523514I-78476J-1122260D01*
G01*
X128397260Y-25103476D01*
G75*
G02*
X127196524Y-26147260I-1122260J78476D01*
G01*
G37*
G36*
G01*
X122155970Y-23322779D02*
X122155970Y-23322778D01*
G75*
G02*
X123356706Y-24366562I78476J-1122260D01*
G01*
X123397260Y-24946524D01*
G75*
G02*
X122353476Y-26147260I-1122260J-78476D01*
G01*
X122353476Y-26147260D01*
G75*
G02*
X121152740Y-25103476I-78476J1122260D01*
G01*
X121112186Y-24523514D01*
G75*
G02*
X122155970Y-23322778I1122260J78476D01*
G01*
G37*
D21*
X123505000Y-34605000D03*
G36*
G01*
X120212228Y-27821038D02*
X120212228Y-27821038D01*
G75*
G02*
X120128962Y-26232228I752772J836038D01*
G01*
X121441500Y-24774508D01*
G75*
G02*
X123030310Y-24691242I836038J-752772D01*
G01*
X123030310Y-24691242D01*
G75*
G02*
X123113576Y-26280052I-752772J-836038D01*
G01*
X121801038Y-27737772D01*
G75*
G02*
X120212228Y-27821038I-836038J752772D01*
G01*
G37*
G36*
G01*
X126519690Y-24691242D02*
X126519690Y-24691242D01*
G75*
G02*
X128108500Y-24774508I752772J-836038D01*
G01*
X129421038Y-26232228D01*
G75*
G02*
X129337772Y-27821038I-836038J-752772D01*
G01*
X129337772Y-27821038D01*
G75*
G02*
X127748962Y-27737772I-752772J836038D01*
G01*
X126436424Y-26280052D01*
G75*
G02*
X126519690Y-24691242I836038J752772D01*
G01*
G37*
D19*
X122275000Y-25525000D03*
D20*
X129855000Y-29525000D03*
X119695000Y-29525000D03*
D22*
X124775000Y-29525000D03*
D19*
X93976250Y-43495000D03*
D23*
X92706250Y-53655000D03*
D19*
X88896250Y-43495000D03*
X93936250Y-44575000D03*
G36*
G01*
X93857774Y-45197259D02*
X93857774Y-45197260D01*
G75*
G02*
X92813990Y-43996524I78476J1122260D01*
G01*
X92854544Y-43416562D01*
G75*
G02*
X94055280Y-42372778I1122260J-78476D01*
G01*
X94055280Y-42372778D01*
G75*
G02*
X95099064Y-43573514I-78476J-1122260D01*
G01*
X95058510Y-44153476D01*
G75*
G02*
X93857774Y-45197260I-1122260J78476D01*
G01*
G37*
G36*
G01*
X88817220Y-42372779D02*
X88817220Y-42372778D01*
G75*
G02*
X90017956Y-43416562I78476J-1122260D01*
G01*
X90058510Y-43996524D01*
G75*
G02*
X89014726Y-45197260I-1122260J-78476D01*
G01*
X89014726Y-45197260D01*
G75*
G02*
X87813990Y-44153476I-78476J1122260D01*
G01*
X87773436Y-43573514D01*
G75*
G02*
X88817220Y-42372778I1122260J78476D01*
G01*
G37*
D21*
X90166250Y-53655000D03*
G36*
G01*
X86873478Y-46871038D02*
X86873478Y-46871038D01*
G75*
G02*
X86790212Y-45282228I752772J836038D01*
G01*
X88102750Y-43824508D01*
G75*
G02*
X89691560Y-43741242I836038J-752772D01*
G01*
X89691560Y-43741242D01*
G75*
G02*
X89774826Y-45330052I-752772J-836038D01*
G01*
X88462288Y-46787772D01*
G75*
G02*
X86873478Y-46871038I-836038J752772D01*
G01*
G37*
G36*
G01*
X93180940Y-43741242D02*
X93180940Y-43741242D01*
G75*
G02*
X94769750Y-43824508I752772J-836038D01*
G01*
X96082288Y-45282228D01*
G75*
G02*
X95999022Y-46871038I-836038J-752772D01*
G01*
X95999022Y-46871038D01*
G75*
G02*
X94410212Y-46787772I-752772J836038D01*
G01*
X93097674Y-45330052D01*
G75*
G02*
X93180940Y-43741242I836038J752772D01*
G01*
G37*
D19*
X88936250Y-44575000D03*
D20*
X96516250Y-48575000D03*
X86356250Y-48575000D03*
D22*
X91436250Y-48575000D03*
D19*
X55876250Y-43495000D03*
D23*
X54606250Y-53655000D03*
D19*
X50796250Y-43495000D03*
X55836250Y-44575000D03*
G36*
G01*
X55757774Y-45197259D02*
X55757774Y-45197260D01*
G75*
G02*
X54713990Y-43996524I78476J1122260D01*
G01*
X54754544Y-43416562D01*
G75*
G02*
X55955280Y-42372778I1122260J-78476D01*
G01*
X55955280Y-42372778D01*
G75*
G02*
X56999064Y-43573514I-78476J-1122260D01*
G01*
X56958510Y-44153476D01*
G75*
G02*
X55757774Y-45197260I-1122260J78476D01*
G01*
G37*
G36*
G01*
X50717220Y-42372779D02*
X50717220Y-42372778D01*
G75*
G02*
X51917956Y-43416562I78476J-1122260D01*
G01*
X51958510Y-43996524D01*
G75*
G02*
X50914726Y-45197260I-1122260J-78476D01*
G01*
X50914726Y-45197260D01*
G75*
G02*
X49713990Y-44153476I-78476J1122260D01*
G01*
X49673436Y-43573514D01*
G75*
G02*
X50717220Y-42372778I1122260J78476D01*
G01*
G37*
D21*
X52066250Y-53655000D03*
G36*
G01*
X48773478Y-46871038D02*
X48773478Y-46871038D01*
G75*
G02*
X48690212Y-45282228I752772J836038D01*
G01*
X50002750Y-43824508D01*
G75*
G02*
X51591560Y-43741242I836038J-752772D01*
G01*
X51591560Y-43741242D01*
G75*
G02*
X51674826Y-45330052I-752772J-836038D01*
G01*
X50362288Y-46787772D01*
G75*
G02*
X48773478Y-46871038I-836038J752772D01*
G01*
G37*
G36*
G01*
X55080940Y-43741242D02*
X55080940Y-43741242D01*
G75*
G02*
X56669750Y-43824508I752772J-836038D01*
G01*
X57982288Y-45282228D01*
G75*
G02*
X57899022Y-46871038I-836038J-752772D01*
G01*
X57899022Y-46871038D01*
G75*
G02*
X56310212Y-46787772I-752772J836038D01*
G01*
X54997674Y-45330052D01*
G75*
G02*
X55080940Y-43741242I836038J752772D01*
G01*
G37*
D19*
X50836250Y-44575000D03*
D20*
X58416250Y-48575000D03*
X48256250Y-48575000D03*
D22*
X53336250Y-48575000D03*
D19*
X74926250Y-43495000D03*
D23*
X73656250Y-53655000D03*
D19*
X69846250Y-43495000D03*
X74886250Y-44575000D03*
G36*
G01*
X74807774Y-45197259D02*
X74807774Y-45197260D01*
G75*
G02*
X73763990Y-43996524I78476J1122260D01*
G01*
X73804544Y-43416562D01*
G75*
G02*
X75005280Y-42372778I1122260J-78476D01*
G01*
X75005280Y-42372778D01*
G75*
G02*
X76049064Y-43573514I-78476J-1122260D01*
G01*
X76008510Y-44153476D01*
G75*
G02*
X74807774Y-45197260I-1122260J78476D01*
G01*
G37*
G36*
G01*
X69767220Y-42372779D02*
X69767220Y-42372778D01*
G75*
G02*
X70967956Y-43416562I78476J-1122260D01*
G01*
X71008510Y-43996524D01*
G75*
G02*
X69964726Y-45197260I-1122260J-78476D01*
G01*
X69964726Y-45197260D01*
G75*
G02*
X68763990Y-44153476I-78476J1122260D01*
G01*
X68723436Y-43573514D01*
G75*
G02*
X69767220Y-42372778I1122260J78476D01*
G01*
G37*
D21*
X71116250Y-53655000D03*
G36*
G01*
X67823478Y-46871038D02*
X67823478Y-46871038D01*
G75*
G02*
X67740212Y-45282228I752772J836038D01*
G01*
X69052750Y-43824508D01*
G75*
G02*
X70641560Y-43741242I836038J-752772D01*
G01*
X70641560Y-43741242D01*
G75*
G02*
X70724826Y-45330052I-752772J-836038D01*
G01*
X69412288Y-46787772D01*
G75*
G02*
X67823478Y-46871038I-836038J752772D01*
G01*
G37*
G36*
G01*
X74130940Y-43741242D02*
X74130940Y-43741242D01*
G75*
G02*
X75719750Y-43824508I752772J-836038D01*
G01*
X77032288Y-45282228D01*
G75*
G02*
X76949022Y-46871038I-836038J-752772D01*
G01*
X76949022Y-46871038D01*
G75*
G02*
X75360212Y-46787772I-752772J836038D01*
G01*
X74047674Y-45330052D01*
G75*
G02*
X74130940Y-43741242I836038J752772D01*
G01*
G37*
D19*
X69886250Y-44575000D03*
D20*
X77466250Y-48575000D03*
X67306250Y-48575000D03*
D22*
X72386250Y-48575000D03*
G36*
G01*
X36709024Y-64247259D02*
X36709024Y-64247260D01*
G75*
G02*
X35665240Y-63046524I78476J1122260D01*
G01*
X35705794Y-62466562D01*
G75*
G02*
X36906530Y-61422778I1122260J-78476D01*
G01*
X36906530Y-61422778D01*
G75*
G02*
X37950314Y-62623514I-78476J-1122260D01*
G01*
X37909760Y-63203476D01*
G75*
G02*
X36709024Y-64247260I-1122260J78476D01*
G01*
G37*
G36*
G01*
X31668470Y-61422779D02*
X31668470Y-61422778D01*
G75*
G02*
X32869206Y-62466562I78476J-1122260D01*
G01*
X32909760Y-63046524D01*
G75*
G02*
X31865976Y-64247260I-1122260J-78476D01*
G01*
X31865976Y-64247260D01*
G75*
G02*
X30665240Y-63203476I-78476J1122260D01*
G01*
X30624686Y-62623514D01*
G75*
G02*
X31668470Y-61422778I1122260J78476D01*
G01*
G37*
D19*
X36827500Y-62545000D03*
D20*
X29207500Y-67625000D03*
D19*
X31787500Y-63625000D03*
D21*
X33017500Y-72705000D03*
D19*
X36787500Y-63625000D03*
G36*
G01*
X29724728Y-65921038D02*
X29724728Y-65921038D01*
G75*
G02*
X29641462Y-64332228I752772J836038D01*
G01*
X30954000Y-62874508D01*
G75*
G02*
X32542810Y-62791242I836038J-752772D01*
G01*
X32542810Y-62791242D01*
G75*
G02*
X32626076Y-64380052I-752772J-836038D01*
G01*
X31313538Y-65837772D01*
G75*
G02*
X29724728Y-65921038I-836038J752772D01*
G01*
G37*
D22*
X34287500Y-67625000D03*
D19*
X31747500Y-62545000D03*
G36*
G01*
X36032190Y-62791242D02*
X36032190Y-62791242D01*
G75*
G02*
X37621000Y-62874508I752772J-836038D01*
G01*
X38933538Y-64332228D01*
G75*
G02*
X38850272Y-65921038I-836038J-752772D01*
G01*
X38850272Y-65921038D01*
G75*
G02*
X37261462Y-65837772I-752772J836038D01*
G01*
X35948924Y-64380052D01*
G75*
G02*
X36032190Y-62791242I836038J752772D01*
G01*
G37*
D20*
X39367500Y-67625000D03*
D23*
X35557500Y-72705000D03*
G36*
G01*
X34327774Y-45197259D02*
X34327774Y-45197260D01*
G75*
G02*
X33283990Y-43996524I78476J1122260D01*
G01*
X33324544Y-43416562D01*
G75*
G02*
X34525280Y-42372778I1122260J-78476D01*
G01*
X34525280Y-42372778D01*
G75*
G02*
X35569064Y-43573514I-78476J-1122260D01*
G01*
X35528510Y-44153476D01*
G75*
G02*
X34327774Y-45197260I-1122260J78476D01*
G01*
G37*
G36*
G01*
X29287220Y-42372779D02*
X29287220Y-42372778D01*
G75*
G02*
X30487956Y-43416562I78476J-1122260D01*
G01*
X30528510Y-43996524D01*
G75*
G02*
X29484726Y-45197260I-1122260J-78476D01*
G01*
X29484726Y-45197260D01*
G75*
G02*
X28283990Y-44153476I-78476J1122260D01*
G01*
X28243436Y-43573514D01*
G75*
G02*
X29287220Y-42372778I1122260J78476D01*
G01*
G37*
D19*
X34446250Y-43495000D03*
D20*
X26826250Y-48575000D03*
D19*
X29406250Y-44575000D03*
D21*
X30636250Y-53655000D03*
D19*
X34406250Y-44575000D03*
G36*
G01*
X27343478Y-46871038D02*
X27343478Y-46871038D01*
G75*
G02*
X27260212Y-45282228I752772J836038D01*
G01*
X28572750Y-43824508D01*
G75*
G02*
X30161560Y-43741242I836038J-752772D01*
G01*
X30161560Y-43741242D01*
G75*
G02*
X30244826Y-45330052I-752772J-836038D01*
G01*
X28932288Y-46787772D01*
G75*
G02*
X27343478Y-46871038I-836038J752772D01*
G01*
G37*
D22*
X31906250Y-48575000D03*
D19*
X29366250Y-43495000D03*
G36*
G01*
X33650940Y-43741242D02*
X33650940Y-43741242D01*
G75*
G02*
X35239750Y-43824508I752772J-836038D01*
G01*
X36552288Y-45282228D01*
G75*
G02*
X36469022Y-46871038I-836038J-752772D01*
G01*
X36469022Y-46871038D01*
G75*
G02*
X34880212Y-46787772I-752772J836038D01*
G01*
X33567674Y-45330052D01*
G75*
G02*
X33650940Y-43741242I836038J752772D01*
G01*
G37*
D20*
X36986250Y-48575000D03*
D23*
X33176250Y-53655000D03*
M02*
