M48
; DRILL file {KiCad (5.99.0-1941-g4629b701e)} date Fri Jun 12 19:14:58 2020
; FORMAT={-:-/ absolute / inch / decimal}
; #@! TF.CreationDate,2020-06-12T19:14:58+08:00
; #@! TF.GenerationSoftware,Kicad,Pcbnew,(5.99.0-1941-g4629b701e)
; #@! TF.FileFunction,Plated,1,2,PTH
FMAT,2
INCH
T1C0.0157
T2C0.0276
T3C0.0300
T4C0.0315
T5C0.0394
T6C0.0400
T7C0.0409
T8C0.0512
T9C0.0579
%
G90
G05
T1
X5.9134Y-4.2084
X6.45Y-1.56
X6.515Y-1.475
X6.5235Y-2.2842
X6.5521Y-2.4305
X6.565Y-1.52
X6.585Y-2.175
X7.24Y-3.24
X7.25Y-1.405
X7.28Y-3.325
X7.455Y-2.565
X7.505Y-2.325
X7.555Y-2.27
X7.585Y-2.6248
X7.605Y-2.35
X7.675Y-2.685
X7.69Y-2.6248
X7.76Y-2.08
T2
X6.0571Y-1.0215
X6.0571Y-1.3285
X4.35Y-3.2715
X4.35Y-3.5785
X7.3452Y-5.6175
X7.4987Y-5.3516
X5.49Y-1.764
X5.49Y-2.071
X4.5464Y-1.0215
X4.5464Y-1.3285
X3.97Y-1.764
X3.97Y-2.071
X3.791Y-1.0215
X3.791Y-1.3285
X4.15Y-2.5215
X4.15Y-2.8285
X4.9Y-2.5215
X4.9Y-2.8285
X1.725Y-2.5215
X1.725Y-2.8285
X4.5Y-3.9965
X4.5Y-4.3035
X2.65Y-2.5215
X2.65Y-2.8285
X3.4Y-2.5215
X3.4Y-2.8285
X7.025Y-1.0215
X7.025Y-1.3285
X5.3017Y-1.0215
X5.3017Y-1.3285
X5.85Y-3.2715
X5.85Y-3.5785
X3.0357Y-1.0215
X3.0357Y-1.3285
X5.1Y-3.2715
X5.1Y-3.5785
X2.2803Y-1.0215
X2.2803Y-1.3285
X6.4Y-2.5215
X6.4Y-2.8285
X7.18Y-2.5215
X7.18Y-2.8285
X6.9785Y-6.2526
X7.132Y-5.9867
X6.25Y-1.764
X6.25Y-2.071
X1.5Y-3.9965
X1.5Y-4.3035
X3.0Y-3.9965
X3.0Y-4.3035
X1.65Y-1.764
X1.65Y-2.071
X6.3289Y-5.8776
X6.4825Y-5.6117
X3.6Y-3.2715
X3.6Y-3.5785
X5.25Y-3.9965
X5.25Y-4.3035
X1.8Y-3.2715
X1.8Y-3.5785
X7.7119Y-4.9824
X7.8654Y-4.7164
X2.25Y-3.9965
X2.25Y-4.3035
X4.73Y-1.764
X4.73Y-2.071
X6.6Y-3.2715
X6.6Y-3.5785
X5.317Y-5.1482
X5.583Y-5.3018
X3.21Y-1.764
X3.21Y-2.071
X2.85Y-3.2715
X2.85Y-3.5785
X1.525Y-1.0215
X1.525Y-1.3285
X7.0623Y-4.6074
X7.2159Y-4.3414
X7.1075Y-1.764
X7.1075Y-2.071
X6.6956Y-5.2425
X6.8492Y-4.9766
X2.45Y-1.764
X2.45Y-2.071
X3.75Y-3.9965
X3.75Y-4.3035
X5.65Y-2.5215
X5.65Y-2.8285
T3
X6.775Y-3.225
X6.775Y-3.325
X6.775Y-3.425
X6.775Y-3.525
X8.075Y-3.225
X8.075Y-3.325
X8.075Y-3.425
X8.075Y-3.525
T4
X7.385Y-3.1
X7.785Y-3.1
X7.475Y-3.1
X7.875Y-3.1
T5
X8.0429Y-2.3454
X8.0429Y-3.0246
X7.8766Y-0.84
X8.0734Y-0.84
X8.0429Y-2.3454
X8.0429Y-3.0246
T6
X7.405Y-1.09
X7.405Y-1.19
X7.405Y-1.29
X7.405Y-1.39
X7.405Y-1.49
X7.405Y-1.59
X7.405Y-1.69
X7.405Y-1.79
X7.405Y-1.89
X7.405Y-1.99
X7.405Y-2.09
X7.405Y-2.19
X8.005Y-1.09
X8.005Y-1.19
X8.005Y-1.29
X8.005Y-1.39
X8.005Y-1.49
X8.005Y-1.59
X8.005Y-1.69
X8.005Y-1.79
X8.005Y-1.89
X8.005Y-1.99
X8.005Y-2.09
X8.005Y-2.19
T7
X6.175Y-3.6124
X6.275Y-3.6124
X3.3624Y-4.3624
X3.4624Y-4.3624
X1.2999Y-2.8624
X1.3999Y-2.8624
X5.2373Y-2.8624
X5.3373Y-2.8624
X1.8624Y-4.3624
X1.9624Y-4.3624
X6.6437Y-1.3624
X6.7437Y-1.3624
X5.9875Y-2.8624
X6.0875Y-2.8624
X2.7999Y-2.1124
X2.8999Y-2.1124
X5.425Y-3.6124
X5.525Y-3.6124
X6.8312Y-2.8624
X6.9312Y-2.8624
X2.0499Y-2.1124
X2.1499Y-2.1124
X2.425Y-3.6124
X2.525Y-3.6124
X6.7375Y-2.1124
X6.8375Y-2.1124
X5.0499Y-2.1124
X5.1499Y-2.1124
X4.675Y-3.6124
X4.775Y-3.6124
X4.1124Y-1.3624
X4.2124Y-1.3624
X6.6858Y-4.4649
X6.7724Y-4.5149
X2.9873Y-2.8624
X3.0873Y-2.8624
X3.5499Y-2.1124
X3.6499Y-2.1124
X6.5853Y-6.1389
X6.6719Y-6.1889
X2.6124Y-1.3624
X2.7124Y-1.3624
X2.6124Y-4.3624
X2.7124Y-4.3624
X3.925Y-3.6124
X4.025Y-3.6124
X1.3937Y-3.6124
X1.4937Y-3.6124
X3.3624Y-1.3624
X3.4624Y-1.3624
X7.3353Y-4.8399
X7.4219Y-4.8899
X5.4189Y-4.8592
X5.4689Y-4.7726
X1.2062Y-2.1124
X1.3062Y-2.1124
X2.2373Y-2.8624
X2.3373Y-2.8624
X5.6124Y-1.3624
X5.7124Y-1.3624
X3.175Y-3.6124
X3.275Y-3.6124
X5.9358Y-5.7639
X6.0224Y-5.8139
X5.7999Y-2.1124
X5.8999Y-2.1124
X4.8624Y-4.3624
X4.9624Y-4.3624
X3.7373Y-2.8624
X3.8373Y-2.8624
X4.2999Y-2.1124
X4.3999Y-2.1124
X1.1124Y-1.3624
X1.2124Y-1.3624
X4.4873Y-2.8624
X4.5873Y-2.8624
X1.1124Y-4.3624
X1.2124Y-4.3624
X6.3108Y-5.1144
X6.3974Y-5.1644
X6.9603Y-5.4894
X7.0469Y-5.5394
X1.8624Y-1.3624
X1.9624Y-1.3624
X4.1124Y-4.3624
X4.2124Y-4.3624
X4.8624Y-1.3624
X4.9624Y-1.3624
T8
X7.8372Y-0.9384
X8.1128Y-0.9404
T9
X3.075Y-3.3124
X3.125Y-3.2124
X3.1265Y-3.2352
X3.1265Y-3.2549
X3.3234Y-3.2352
X3.3234Y-3.2549
X3.325Y-3.2124
X3.375Y-3.3124
X5.9992Y-5.4541
X6.0726Y-5.4301
X6.0825Y-5.4131
X6.0925Y-5.3925
X6.2431Y-5.5285
X6.2529Y-5.5115
X6.259Y-5.6041
X6.2657Y-5.4925
X5.6999Y-1.8124
X5.7499Y-1.7124
X5.7514Y-1.7352
X5.7514Y-1.7549
X5.9483Y-1.7352
X5.9483Y-1.7549
X5.9499Y-1.7124
X5.9999Y-1.8124
X4.7624Y-4.0624
X4.8124Y-3.9624
X4.814Y-3.9852
X4.814Y-4.0049
X5.0108Y-3.9852
X5.0108Y-4.0049
X5.0124Y-3.9624
X5.0624Y-4.0624
X3.6373Y-2.5624
X3.6873Y-2.4624
X3.6889Y-2.4852
X3.6889Y-2.5049
X3.8857Y-2.4852
X3.8857Y-2.5049
X3.8873Y-2.4624
X3.9373Y-2.5624
X4.1999Y-1.8124
X4.2499Y-1.7124
X4.2514Y-1.7352
X4.2514Y-1.7549
X4.4483Y-1.7352
X4.4483Y-1.7549
X4.4499Y-1.7124
X4.4999Y-1.8124
X1.0124Y-1.0624
X1.0624Y-0.9624
X1.064Y-0.9852
X1.064Y-1.0049
X1.2608Y-0.9852
X1.2608Y-1.0049
X1.2624Y-0.9624
X1.3124Y-1.0624
X4.3873Y-2.5624
X4.4373Y-2.4624
X4.4389Y-2.4852
X4.4389Y-2.5049
X4.6357Y-2.4852
X4.6357Y-2.5049
X4.6373Y-2.4624
X4.6873Y-2.5624
X1.0124Y-4.0624
X1.0624Y-3.9624
X1.064Y-3.9852
X1.064Y-4.0049
X1.2608Y-3.9852
X1.2608Y-4.0049
X1.2624Y-3.9624
X1.3124Y-4.0624
X6.3742Y-4.8046
X6.4476Y-4.7806
X6.4575Y-4.7635
X6.4675Y-4.743
X6.6181Y-4.879
X6.6279Y-4.862
X6.634Y-4.9546
X6.6407Y-4.843
X7.0237Y-5.1796
X7.0971Y-5.1556
X7.107Y-5.1385
X7.117Y-5.118
X7.2676Y-5.254
X7.2775Y-5.237
X7.2835Y-5.3296
X7.2902Y-5.218
X1.7624Y-1.0624
X1.8124Y-0.9624
X1.814Y-0.9852
X1.814Y-1.0049
X2.0108Y-0.9852
X2.0108Y-1.0049
X2.0124Y-0.9624
X2.0624Y-1.0624
X4.0124Y-4.0624
X4.0624Y-3.9624
X4.064Y-3.9852
X4.064Y-4.0049
X4.2608Y-3.9852
X4.2608Y-4.0049
X4.2624Y-3.9624
X4.3124Y-4.0624
X4.7624Y-1.0624
X4.8124Y-0.9624
X4.814Y-0.9852
X4.814Y-1.0049
X5.0108Y-0.9852
X5.0108Y-1.0049
X5.0124Y-0.9624
X5.0624Y-1.0624
X6.075Y-3.3124
X6.125Y-3.2124
X6.1265Y-3.2352
X6.1265Y-3.2549
X6.3234Y-3.2352
X6.3234Y-3.2549
X6.325Y-3.2124
X6.375Y-3.3124
X3.2624Y-4.0624
X3.3124Y-3.9624
X3.314Y-3.9852
X3.314Y-4.0049
X3.5108Y-3.9852
X3.5108Y-4.0049
X3.5124Y-3.9624
X3.5624Y-4.0624
X1.1999Y-2.5624
X1.2499Y-2.4624
X1.2515Y-2.4852
X1.2515Y-2.5049
X1.4483Y-2.4852
X1.4483Y-2.5049
X1.4499Y-2.4624
X1.4999Y-2.5624
X5.1373Y-2.5624
X5.1873Y-2.4624
X5.1889Y-2.4852
X5.1889Y-2.5049
X5.3857Y-2.4852
X5.3857Y-2.5049
X5.3873Y-2.4624
X5.4373Y-2.5624
X1.7624Y-4.0624
X1.8124Y-3.9624
X1.814Y-3.9852
X1.814Y-4.0049
X2.0108Y-3.9852
X2.0108Y-4.0049
X2.0124Y-3.9624
X2.0624Y-4.0624
X6.5437Y-1.0624
X6.5937Y-0.9624
X6.5953Y-0.9852
X6.5953Y-1.0049
X6.7921Y-0.9852
X6.7921Y-1.0049
X6.7937Y-0.9624
X6.8437Y-1.0624
X5.8875Y-2.5624
X5.9375Y-2.4624
X5.9391Y-2.4852
X5.9391Y-2.5049
X6.1359Y-2.4852
X6.1359Y-2.5049
X6.1375Y-2.4624
X6.1875Y-2.5624
X2.6999Y-1.8124
X2.7499Y-1.7124
X2.7514Y-1.7352
X2.7514Y-1.7549
X2.9483Y-1.7352
X2.9483Y-1.7549
X2.9499Y-1.7124
X2.9999Y-1.8124
X5.325Y-3.3124
X5.375Y-3.2124
X5.3765Y-3.2352
X5.3765Y-3.2549
X5.5734Y-3.2352
X5.5734Y-3.2549
X5.575Y-3.2124
X5.625Y-3.3124
X6.7312Y-2.5624
X6.7812Y-2.4624
X6.7828Y-2.4852
X6.7828Y-2.5049
X6.9796Y-2.4852
X6.9796Y-2.5049
X6.9812Y-2.4624
X7.0312Y-2.5624
X1.9499Y-1.8124
X1.9999Y-1.7124
X2.0014Y-1.7352
X2.0014Y-1.7549
X2.1983Y-1.7352
X2.1983Y-1.7549
X2.1999Y-1.7124
X2.2499Y-1.8124
X2.325Y-3.3124
X2.375Y-3.2124
X2.3765Y-3.2352
X2.3765Y-3.2549
X2.5734Y-3.2352
X2.5734Y-3.2549
X2.575Y-3.2124
X2.625Y-3.3124
X6.6375Y-1.8124
X6.6875Y-1.7124
X6.689Y-1.7352
X6.689Y-1.7549
X6.8859Y-1.7352
X6.8859Y-1.7549
X6.8875Y-1.7124
X6.9375Y-1.8124
X4.9499Y-1.8124
X4.9999Y-1.7124
X5.0014Y-1.7352
X5.0014Y-1.7549
X5.1983Y-1.7352
X5.1983Y-1.7549
X5.1999Y-1.7124
X5.2499Y-1.8124
X4.575Y-3.3124
X4.625Y-3.2124
X4.6265Y-3.2352
X4.6265Y-3.2549
X4.8234Y-3.2352
X4.8234Y-3.2549
X4.825Y-3.2124
X4.875Y-3.3124
X4.0124Y-1.0624
X4.0624Y-0.9624
X4.064Y-0.9852
X4.064Y-1.0049
X4.2608Y-0.9852
X4.2608Y-1.0049
X4.2624Y-0.9624
X4.3124Y-1.0624
X6.7492Y-4.1551
X6.8226Y-4.1311
X6.8325Y-4.114
X6.8425Y-4.0935
X6.9931Y-4.2295
X7.0029Y-4.2125
X7.009Y-4.3051
X7.0157Y-4.1935
X2.8873Y-2.5624
X2.9373Y-2.4624
X2.9389Y-2.4852
X2.9389Y-2.5049
X3.1357Y-2.4852
X3.1357Y-2.5049
X3.1373Y-2.4624
X3.1873Y-2.5624
X3.4499Y-1.8124
X3.4999Y-1.7124
X3.5014Y-1.7352
X3.5014Y-1.7549
X3.6983Y-1.7352
X3.6983Y-1.7549
X3.6999Y-1.7124
X3.7499Y-1.8124
X6.6487Y-5.8291
X6.7221Y-5.8051
X6.732Y-5.7881
X6.742Y-5.7675
X6.8926Y-5.9035
X6.9025Y-5.8865
X6.9085Y-5.9791
X6.9152Y-5.8675
X2.5124Y-1.0624
X2.5624Y-0.9624
X2.564Y-0.9852
X2.564Y-1.0049
X2.7608Y-0.9852
X2.7608Y-1.0049
X2.7624Y-0.9624
X2.8124Y-1.0624
X2.5124Y-4.0624
X2.5624Y-3.9624
X2.564Y-3.9852
X2.564Y-4.0049
X2.7608Y-3.9852
X2.7608Y-4.0049
X2.7624Y-3.9624
X2.8124Y-4.0624
X3.825Y-3.3124
X3.875Y-3.2124
X3.8765Y-3.2352
X3.8765Y-3.2549
X4.0734Y-3.2352
X4.0734Y-3.2549
X4.075Y-3.2124
X4.125Y-3.3124
X1.2937Y-3.3124
X1.3437Y-3.2124
X1.3452Y-3.2352
X1.3452Y-3.2549
X1.5421Y-3.2352
X1.5421Y-3.2549
X1.5437Y-3.2124
X1.5937Y-3.3124
X3.2624Y-1.0624
X3.3124Y-0.9624
X3.314Y-0.9852
X3.314Y-1.0049
X3.5108Y-0.9852
X3.5108Y-1.0049
X3.5124Y-0.9624
X3.5624Y-1.0624
X7.3987Y-4.5301
X7.4721Y-4.5061
X7.482Y-4.489
X7.492Y-4.4685
X7.6426Y-4.6045
X7.6525Y-4.5875
X7.6585Y-4.6801
X7.6652Y-4.5685
X5.6287Y-5.0959
X5.7043Y-5.0799
X5.7213Y-5.0898
X5.7403Y-5.1025
X5.7787Y-4.836
X5.8027Y-4.9094
X5.8197Y-4.9193
X5.8403Y-4.9293
X1.1062Y-1.8124
X1.1562Y-1.7124
X1.1577Y-1.7352
X1.1577Y-1.7549
X1.3546Y-1.7352
X1.3546Y-1.7549
X1.3562Y-1.7124
X1.4062Y-1.8124
X2.1373Y-2.5624
X2.1873Y-2.4624
X2.1889Y-2.4852
X2.1889Y-2.5049
X2.3857Y-2.4852
X2.3857Y-2.5049
X2.3873Y-2.4624
X2.4373Y-2.5624
X5.5124Y-1.0624
X5.5624Y-0.9624
X5.564Y-0.9852
X5.564Y-1.0049
X5.7608Y-0.9852
X5.7608Y-1.0049
X5.7624Y-0.9624
X5.8124Y-1.0624
T0
M30
