G04 #@! TF.GenerationSoftware,KiCad,Pcbnew,(5.99.0-2039-g05a89863c)*
G04 #@! TF.CreationDate,2020-06-27T09:00:49+08:00*
G04 #@! TF.ProjectId,Keyboard-layout,4b657962-6f61-4726-942d-6c61796f7574,rev?*
G04 #@! TF.SameCoordinates,Original*
G04 #@! TF.FileFunction,Paste,Bot*
G04 #@! TF.FilePolarity,Positive*
%FSLAX46Y46*%
G04 Gerber Fmt 4.6, Leading zero omitted, Abs format (unit mm)*
G04 Created by KiCad (PCBNEW (5.99.0-2039-g05a89863c)) date 2020-06-27 09:00:49*
%MOMM*%
%LPD*%
G01*
G04 APERTURE LIST*
%ADD10R,2.400000X0.700000*%
G04 APERTURE END LIST*
G36*
G01*
X183365000Y-67459000D02*
X183665000Y-67459000D01*
G75*
G02*
X183815000Y-67609000I0J-150000D01*
G01*
X183815000Y-68959000D01*
G75*
G02*
X183665000Y-69109000I-150000J0D01*
G01*
X183365000Y-69109000D01*
G75*
G02*
X183215000Y-68959000I0J150000D01*
G01*
X183215000Y-67609000D01*
G75*
G02*
X183365000Y-67459000I150000J0D01*
G01*
G37*
G36*
G01*
X184635000Y-67459000D02*
X184935000Y-67459000D01*
G75*
G02*
X185085000Y-67609000I0J-150000D01*
G01*
X185085000Y-68959000D01*
G75*
G02*
X184935000Y-69109000I-150000J0D01*
G01*
X184635000Y-69109000D01*
G75*
G02*
X184485000Y-68959000I0J150000D01*
G01*
X184485000Y-67609000D01*
G75*
G02*
X184635000Y-67459000I150000J0D01*
G01*
G37*
G36*
G01*
X185905000Y-67459000D02*
X186205000Y-67459000D01*
G75*
G02*
X186355000Y-67609000I0J-150000D01*
G01*
X186355000Y-68959000D01*
G75*
G02*
X186205000Y-69109000I-150000J0D01*
G01*
X185905000Y-69109000D01*
G75*
G02*
X185755000Y-68959000I0J150000D01*
G01*
X185755000Y-67609000D01*
G75*
G02*
X185905000Y-67459000I150000J0D01*
G01*
G37*
G36*
G01*
X187175000Y-67459000D02*
X187475000Y-67459000D01*
G75*
G02*
X187625000Y-67609000I0J-150000D01*
G01*
X187625000Y-68959000D01*
G75*
G02*
X187475000Y-69109000I-150000J0D01*
G01*
X187175000Y-69109000D01*
G75*
G02*
X187025000Y-68959000I0J150000D01*
G01*
X187025000Y-67609000D01*
G75*
G02*
X187175000Y-67459000I150000J0D01*
G01*
G37*
G36*
G01*
X187175000Y-62209000D02*
X187475000Y-62209000D01*
G75*
G02*
X187625000Y-62359000I0J-150000D01*
G01*
X187625000Y-63709000D01*
G75*
G02*
X187475000Y-63859000I-150000J0D01*
G01*
X187175000Y-63859000D01*
G75*
G02*
X187025000Y-63709000I0J150000D01*
G01*
X187025000Y-62359000D01*
G75*
G02*
X187175000Y-62209000I150000J0D01*
G01*
G37*
G36*
G01*
X185905000Y-62209000D02*
X186205000Y-62209000D01*
G75*
G02*
X186355000Y-62359000I0J-150000D01*
G01*
X186355000Y-63709000D01*
G75*
G02*
X186205000Y-63859000I-150000J0D01*
G01*
X185905000Y-63859000D01*
G75*
G02*
X185755000Y-63709000I0J150000D01*
G01*
X185755000Y-62359000D01*
G75*
G02*
X185905000Y-62209000I150000J0D01*
G01*
G37*
G36*
G01*
X184635000Y-62209000D02*
X184935000Y-62209000D01*
G75*
G02*
X185085000Y-62359000I0J-150000D01*
G01*
X185085000Y-63709000D01*
G75*
G02*
X184935000Y-63859000I-150000J0D01*
G01*
X184635000Y-63859000D01*
G75*
G02*
X184485000Y-63709000I0J150000D01*
G01*
X184485000Y-62359000D01*
G75*
G02*
X184635000Y-62209000I150000J0D01*
G01*
G37*
G36*
G01*
X183365000Y-62209000D02*
X183665000Y-62209000D01*
G75*
G02*
X183815000Y-62359000I0J-150000D01*
G01*
X183815000Y-63709000D01*
G75*
G02*
X183665000Y-63859000I-150000J0D01*
G01*
X183365000Y-63859000D01*
G75*
G02*
X183215000Y-63709000I0J150000D01*
G01*
X183215000Y-62359000D01*
G75*
G02*
X183365000Y-62209000I150000J0D01*
G01*
G37*
D10*
X193405000Y-71769000D03*
X193405000Y-70749000D03*
X193405000Y-69729000D03*
X193405000Y-68709000D03*
X193405000Y-67689000D03*
X193405000Y-66669000D03*
X193405000Y-65649000D03*
X193405000Y-64629000D03*
M02*
