M48
; DRILL file {KiCad (5.99.0-1966-g9d78aa604)} date Tue Jun 16 15:11:16 2020
; FORMAT={-:-/ absolute / inch / decimal}
; #@! TF.CreationDate,2020-06-16T15:11:16+08:00
; #@! TF.GenerationSoftware,Kicad,Pcbnew,(5.99.0-1966-g9d78aa604)
; #@! TF.FileFunction,Plated,1,2,PTH
FMAT,2
INCH
T1C0.0157
T2C0.0236
T3C0.0276
T4C0.0300
T5C0.0315
T6C0.0394
T7C0.0400
T8C0.0409
T9C0.0512
T10C0.0579
%
G90
G05
T1
X5.94Y-3.75
X6.845Y-2.775
X6.845Y-3.14
X7.0011Y-3.3889
X7.08Y-2.69
X7.225Y-2.55
X7.3035Y-2.402
X7.3729Y-2.373
X7.375Y-2.625
X7.4296Y-2.7854
X7.43Y-1.5
X7.48Y-1.35
X7.485Y-2.305
X7.53Y-1.6
X7.54Y-2.625
X7.54Y-2.855
X7.575Y-1.45
X7.575Y-2.87
X7.73Y-1.9
T2
X7.535Y-2.685
T3
X2.0123Y-1.7215
X2.0123Y-2.0285
X6.7782Y-4.968
X6.9318Y-4.702
X5.477Y-4.8832
X5.743Y-5.0368
X5.8282Y-5.118
X5.9818Y-4.852
X2.1998Y-3.9715
X2.1998Y-4.2785
X2.9498Y-3.9715
X2.9498Y-4.2785
X6.3248Y-3.2215
X6.3248Y-3.5285
X3.5123Y-2.4715
X3.5123Y-2.7785
X4.4498Y-3.9715
X4.4498Y-4.2785
X5.9498Y-1.7215
X5.9498Y-2.0285
X6.7018Y-2.4715
X6.7018Y-2.7785
X1.8248Y-2.4715
X1.8248Y-2.7785
X1.6373Y-3.2215
X1.6373Y-3.5285
X1.4498Y-3.9715
X1.4498Y-4.2785
X4.6373Y-0.9715
X4.6373Y-1.2785
X3.3248Y-3.2215
X3.3248Y-3.5285
X3.6998Y-1.7215
X3.6998Y-2.0285
X2.3873Y-0.9715
X2.3873Y-1.2785
X2.9498Y-1.7215
X2.9498Y-2.0285
X3.6998Y-3.9715
X3.6998Y-4.2785
X3.8873Y-0.9715
X3.8873Y-1.2785
X4.4498Y-1.7215
X4.4498Y-2.0285
X4.0748Y-3.2215
X4.0748Y-3.5285
X2.5748Y-3.2215
X2.5748Y-3.5285
X5.0123Y-2.4715
X5.0123Y-2.7785
X6.9811Y-0.9715
X6.9811Y-1.2785
X6.8873Y-1.7215
X6.8873Y-2.0285
X2.7623Y-2.4715
X2.7623Y-2.7785
X5.3873Y-0.9715
X5.3873Y-1.2785
X5.1998Y-1.7215
X5.1998Y-2.0285
X5.1998Y-3.9715
X5.1998Y-4.2785
X5.7623Y-2.4715
X5.7623Y-2.7785
X6.4832Y-5.488
X6.6368Y-5.222
X6.1373Y-0.9715
X6.1373Y-1.2785
X5.5748Y-3.2215
X5.5748Y-3.5285
X7.1582Y-4.323
X7.3118Y-4.057
X6.5082Y-3.933
X6.6618Y-3.667
X4.2623Y-2.4715
X4.2623Y-2.7785
X1.6373Y-0.9715
X1.6373Y-1.2785
X3.1373Y-0.9715
X3.1373Y-1.2785
X4.8248Y-3.2215
X4.8248Y-3.5285
X6.1332Y-4.598
X6.2868Y-4.332
T4
X7.43Y-2.15
X7.53Y-2.15
X7.63Y-2.15
X7.73Y-2.15
X7.43Y-0.85
X7.53Y-0.85
X7.63Y-0.85
X7.73Y-0.85
T5
X7.125Y-2.92
X7.525Y-2.92
X7.03Y-2.92
X7.43Y-2.92
T6
X7.805Y-3.2116
X7.805Y-3.4084
X7.8929Y-2.3454
X7.8929Y-3.0246
X7.8929Y-2.3454
X7.8929Y-3.0246
T7
X7.28Y-1.1
X7.28Y-1.2
X7.28Y-1.3
X7.28Y-1.4
X7.28Y-1.5
X7.28Y-1.6
X7.28Y-1.7
X7.28Y-1.8
X7.28Y-1.9
X7.28Y-2.0
X7.28Y-2.1
X7.28Y-2.2
X7.88Y-1.1
X7.88Y-1.2
X7.88Y-1.3
X7.88Y-1.4
X7.88Y-1.5
X7.88Y-1.6
X7.88Y-1.7
X7.88Y-1.8
X7.88Y-1.9
X7.88Y-2.0
X7.88Y-2.1
X7.88Y-2.2
T8
X6.7067Y-4.1482
X6.7933Y-4.1982
X3.7Y-3.575
X3.8Y-3.575
X5.2Y-3.575
X5.3Y-3.575
X4.6375Y-2.825
X4.7375Y-2.825
X1.6375Y-2.075
X1.7375Y-2.075
X5.575Y-2.075
X5.675Y-2.075
X6.6063Y-1.325
X6.7062Y-1.325
X5.7625Y-1.325
X5.8625Y-1.325
X4.45Y-3.575
X4.55Y-3.575
X2.3875Y-2.825
X2.4875Y-2.825
X5.9567Y-5.4472
X6.0433Y-5.4972
X2.7625Y-1.325
X2.8625Y-1.325
X2.2Y-3.575
X2.3Y-3.575
X5.3875Y-2.825
X5.4875Y-2.825
X1.2625Y-3.575
X1.3625Y-3.575
X3.5125Y-1.325
X3.6125Y-1.325
X6.6062Y-5.8222
X6.6928Y-5.8722
X3.8875Y-2.825
X3.9875Y-2.825
X2.95Y-3.575
X3.05Y-3.575
X1.2625Y-1.325
X1.3625Y-1.325
X1.45Y-2.825
X1.55Y-2.825
X4.075Y-4.325
X4.175Y-4.325
X6.327Y-2.825
X6.427Y-2.825
X1.075Y-4.325
X1.175Y-4.325
X6.3317Y-4.7977
X6.4183Y-4.8477
X3.325Y-4.325
X3.425Y-4.325
X2.575Y-2.075
X2.675Y-2.075
X4.825Y-4.325
X4.925Y-4.325
X6.5125Y-2.075
X6.6125Y-2.075
X2.575Y-4.325
X2.675Y-4.325
X2.0125Y-1.325
X2.1125Y-1.325
X4.825Y-2.075
X4.925Y-2.075
X5.4398Y-4.5426
X5.4898Y-4.456
X4.075Y-2.075
X4.175Y-2.075
X6.9812Y-5.1727
X7.0678Y-5.2227
X1.825Y-4.325
X1.925Y-4.325
X3.1375Y-2.825
X3.2375Y-2.825
X5.0125Y-1.325
X5.1125Y-1.325
X3.325Y-2.075
X3.425Y-2.075
X5.95Y-3.575
X6.05Y-3.575
X4.2625Y-1.325
X4.3625Y-1.325
X7.3562Y-4.5232
X7.4428Y-4.5732
T9
X7.7046Y-3.4478
X7.7066Y-3.1722
T10
X6.7701Y-3.8384
X6.8435Y-3.8144
X6.8533Y-3.7974
X6.8634Y-3.7768
X7.014Y-3.9128
X7.0238Y-3.8958
X7.0299Y-3.9884
X7.0366Y-3.8768
X3.6Y-3.275
X3.65Y-3.175
X3.6516Y-3.1978
X3.6516Y-3.2175
X3.8484Y-3.1978
X3.8484Y-3.2175
X3.85Y-3.175
X3.9Y-3.275
X5.1Y-3.275
X5.15Y-3.175
X5.1516Y-3.1978
X5.1516Y-3.2175
X5.3484Y-3.1978
X5.3484Y-3.2175
X5.35Y-3.175
X5.4Y-3.275
X4.5375Y-2.525
X4.5875Y-2.425
X4.5891Y-2.4478
X4.5891Y-2.4675
X4.7859Y-2.4478
X4.7859Y-2.4675
X4.7875Y-2.425
X4.8375Y-2.525
X1.5375Y-1.775
X1.5875Y-1.675
X1.5891Y-1.6978
X1.5891Y-1.7175
X1.7859Y-1.6978
X1.7859Y-1.7175
X1.7875Y-1.675
X1.8375Y-1.775
X5.475Y-1.775
X5.525Y-1.675
X5.5266Y-1.6978
X5.5266Y-1.7175
X5.7234Y-1.6978
X5.7234Y-1.7175
X5.725Y-1.675
X5.775Y-1.775
X6.5062Y-1.025
X6.5562Y-0.925
X6.5578Y-0.9478
X6.5578Y-0.9675
X6.7547Y-0.9478
X6.7547Y-0.9675
X6.7562Y-0.925
X6.8062Y-1.025
X5.6625Y-1.025
X5.7125Y-0.925
X5.7141Y-0.9478
X5.7141Y-0.9675
X5.9109Y-0.9478
X5.9109Y-0.9675
X5.9125Y-0.925
X5.9625Y-1.025
X4.35Y-3.275
X4.4Y-3.175
X4.4016Y-3.1978
X4.4016Y-3.2175
X4.5984Y-3.1978
X4.5984Y-3.2175
X4.6Y-3.175
X4.65Y-3.275
X2.2875Y-2.525
X2.3375Y-2.425
X2.3391Y-2.4478
X2.3391Y-2.4675
X2.5359Y-2.4478
X2.5359Y-2.4675
X2.5375Y-2.425
X2.5875Y-2.525
X6.0201Y-5.1374
X6.0935Y-5.1134
X6.1033Y-5.0964
X6.1134Y-5.0758
X6.264Y-5.2119
X6.2738Y-5.1948
X6.2799Y-5.2874
X6.2866Y-5.1758
X2.6625Y-1.025
X2.7125Y-0.925
X2.7141Y-0.9478
X2.7141Y-0.9675
X2.9109Y-0.9478
X2.9109Y-0.9675
X2.9125Y-0.925
X2.9625Y-1.025
X2.1Y-3.275
X2.15Y-3.175
X2.1516Y-3.1978
X2.1516Y-3.2175
X2.3484Y-3.1978
X2.3484Y-3.2175
X2.35Y-3.175
X2.4Y-3.275
X5.2875Y-2.525
X5.3375Y-2.425
X5.3391Y-2.4478
X5.3391Y-2.4675
X5.5359Y-2.4478
X5.5359Y-2.4675
X5.5375Y-2.425
X5.5875Y-2.525
X1.1625Y-3.275
X1.2125Y-3.175
X1.2141Y-3.1978
X1.2141Y-3.2175
X1.4109Y-3.1978
X1.4109Y-3.2175
X1.4125Y-3.175
X1.4625Y-3.275
X3.4125Y-1.025
X3.4625Y-0.925
X3.4641Y-0.9478
X3.4641Y-0.9675
X3.6609Y-0.9478
X3.6609Y-0.9675
X3.6625Y-0.925
X3.7125Y-1.025
X6.6696Y-5.5124
X6.743Y-5.4884
X6.7529Y-5.4714
X6.7629Y-5.4508
X6.9135Y-5.5869
X6.9233Y-5.5698
X6.9294Y-5.6624
X6.9361Y-5.5508
X3.7875Y-2.525
X3.8375Y-2.425
X3.8391Y-2.4478
X3.8391Y-2.4675
X4.0359Y-2.4478
X4.0359Y-2.4675
X4.0375Y-2.425
X4.0875Y-2.525
X2.85Y-3.275
X2.9Y-3.175
X2.9016Y-3.1978
X2.9016Y-3.2175
X3.0984Y-3.1978
X3.0984Y-3.2175
X3.1Y-3.175
X3.15Y-3.275
X1.1625Y-1.025
X1.2125Y-0.925
X1.2141Y-0.9478
X1.2141Y-0.9675
X1.4109Y-0.9478
X1.4109Y-0.9675
X1.4125Y-0.925
X1.4625Y-1.025
X1.35Y-2.525
X1.4Y-2.425
X1.4016Y-2.4478
X1.4016Y-2.4675
X1.5984Y-2.4478
X1.5984Y-2.4675
X1.6Y-2.425
X1.65Y-2.525
X3.975Y-4.025
X4.025Y-3.925
X4.0266Y-3.9478
X4.0266Y-3.9675
X4.2234Y-3.9478
X4.2234Y-3.9675
X4.225Y-3.925
X4.275Y-4.025
X6.227Y-2.525
X6.277Y-2.425
X6.2786Y-2.4478
X6.2786Y-2.4675
X6.4754Y-2.4478
X6.4754Y-2.4675
X6.477Y-2.425
X6.527Y-2.525
X0.975Y-4.025
X1.025Y-3.925
X1.0266Y-3.9478
X1.0266Y-3.9675
X1.2234Y-3.9478
X1.2234Y-3.9675
X1.225Y-3.925
X1.275Y-4.025
X6.3951Y-4.4879
X6.4685Y-4.4639
X6.4783Y-4.4469
X6.4884Y-4.4263
X6.639Y-4.5623
X6.6488Y-4.5453
X6.6549Y-4.6379
X6.6616Y-4.5263
X3.225Y-4.025
X3.275Y-3.925
X3.2766Y-3.9478
X3.2766Y-3.9675
X3.4734Y-3.9478
X3.4734Y-3.9675
X3.475Y-3.925
X3.525Y-4.025
X2.475Y-1.775
X2.525Y-1.675
X2.5266Y-1.6978
X2.5266Y-1.7175
X2.7234Y-1.6978
X2.7234Y-1.7175
X2.725Y-1.675
X2.775Y-1.775
X4.725Y-4.025
X4.775Y-3.925
X4.7766Y-3.9478
X4.7766Y-3.9675
X4.9734Y-3.9478
X4.9734Y-3.9675
X4.975Y-3.925
X5.025Y-4.025
X6.4125Y-1.775
X6.4625Y-1.675
X6.4641Y-1.6978
X6.4641Y-1.7175
X6.6609Y-1.6978
X6.6609Y-1.7175
X6.6625Y-1.675
X6.7125Y-1.775
X2.475Y-4.025
X2.525Y-3.925
X2.5266Y-3.9478
X2.5266Y-3.9675
X2.7234Y-3.9478
X2.7234Y-3.9675
X2.725Y-3.925
X2.775Y-4.025
X1.9125Y-1.025
X1.9625Y-0.925
X1.9641Y-0.9478
X1.9641Y-0.9675
X2.1609Y-0.9478
X2.1609Y-0.9675
X2.1625Y-0.925
X2.2125Y-1.025
X4.725Y-1.775
X4.775Y-1.675
X4.7766Y-1.6978
X4.7766Y-1.7175
X4.9734Y-1.6978
X4.9734Y-1.7175
X4.975Y-1.675
X5.025Y-1.775
X5.6496Y-4.7792
X5.7252Y-4.7633
X5.7422Y-4.7731
X5.7612Y-4.7859
X5.7996Y-4.5194
X5.8236Y-4.5928
X5.8406Y-4.6026
X5.8612Y-4.6127
X3.975Y-1.775
X4.025Y-1.675
X4.0266Y-1.6978
X4.0266Y-1.7175
X4.2234Y-1.6978
X4.2234Y-1.7175
X4.225Y-1.675
X4.275Y-1.775
X7.0446Y-4.8629
X7.118Y-4.8389
X7.1279Y-4.8219
X7.1379Y-4.8013
X7.2885Y-4.9373
X7.2983Y-4.9203
X7.3044Y-5.0129
X7.3111Y-4.9013
X1.725Y-4.025
X1.775Y-3.925
X1.7766Y-3.9478
X1.7766Y-3.9675
X1.9734Y-3.9478
X1.9734Y-3.9675
X1.975Y-3.925
X2.025Y-4.025
X3.0375Y-2.525
X3.0875Y-2.425
X3.0891Y-2.4478
X3.0891Y-2.4675
X3.2859Y-2.4478
X3.2859Y-2.4675
X3.2875Y-2.425
X3.3375Y-2.525
X4.9125Y-1.025
X4.9625Y-0.925
X4.9641Y-0.9478
X4.9641Y-0.9675
X5.1609Y-0.9478
X5.1609Y-0.9675
X5.1625Y-0.925
X5.2125Y-1.025
X3.225Y-1.775
X3.275Y-1.675
X3.2766Y-1.6978
X3.2766Y-1.7175
X3.4734Y-1.6978
X3.4734Y-1.7175
X3.475Y-1.675
X3.525Y-1.775
X5.85Y-3.275
X5.9Y-3.175
X5.9016Y-3.1978
X5.9016Y-3.2175
X6.0984Y-3.1978
X6.0984Y-3.2175
X6.1Y-3.175
X6.15Y-3.275
X4.1625Y-1.025
X4.2125Y-0.925
X4.2141Y-0.9478
X4.2141Y-0.9675
X4.4109Y-0.9478
X4.4109Y-0.9675
X4.4125Y-0.925
X4.4625Y-1.025
X7.4196Y-4.2134
X7.493Y-4.1894
X7.5029Y-4.1724
X7.5129Y-4.1518
X7.6635Y-4.2878
X7.6733Y-4.2708
X7.6794Y-4.3634
X7.6861Y-4.2518
T0
M30
