M48
; DRILL file {KiCad (5.99.0-1966-g9d78aa604)} date Tue Jun 16 15:11:16 2020
; FORMAT={-:-/ absolute / inch / decimal}
; #@! TF.CreationDate,2020-06-16T15:11:16+08:00
; #@! TF.GenerationSoftware,Kicad,Pcbnew,(5.99.0-1966-g9d78aa604)
; #@! TF.FileFunction,NonPlated,1,2,NPTH
FMAT,2
INCH
T1C0.0689
T2C0.0728
T3C0.1200
T4C0.1570
T5C0.3110
%
G90
G05
T1
X6.3018Y-4.5495
X6.6482Y-4.7495
X3.175Y-4.125
X3.575Y-4.125
X2.425Y-1.875
X2.825Y-1.875
X4.675Y-4.125
X5.075Y-4.125
X6.3625Y-1.875
X6.7625Y-1.875
X2.425Y-4.125
X2.825Y-4.125
X1.8625Y-1.125
X2.2625Y-1.125
X4.675Y-1.875
X5.075Y-1.875
X5.538Y-4.7725
X5.738Y-4.4261
X3.925Y-1.875
X4.325Y-1.875
X6.9513Y-4.9245
X7.2977Y-5.1245
X1.675Y-4.125
X2.075Y-4.125
X2.9875Y-2.625
X3.3875Y-2.625
X4.8625Y-1.125
X5.2625Y-1.125
X3.175Y-1.875
X3.575Y-1.875
X5.8Y-3.375
X6.2Y-3.375
X4.1125Y-1.125
X4.5125Y-1.125
X7.3263Y-4.275
X7.6727Y-4.475
X6.6768Y-3.9
X7.0232Y-4.1
X3.55Y-3.375
X3.95Y-3.375
X5.05Y-3.375
X5.45Y-3.375
X4.4875Y-2.625
X4.8875Y-2.625
X1.4875Y-1.875
X1.8875Y-1.875
X5.425Y-1.875
X5.825Y-1.875
X6.4562Y-1.125
X6.8563Y-1.125
X5.6125Y-1.125
X6.0125Y-1.125
X4.3Y-3.375
X4.7Y-3.375
X2.2375Y-2.625
X2.6375Y-2.625
X5.9268Y-5.199
X6.2732Y-5.399
X2.6125Y-1.125
X3.0125Y-1.125
X2.05Y-3.375
X2.45Y-3.375
X5.2375Y-2.625
X5.6375Y-2.625
X1.1125Y-3.375
X1.5125Y-3.375
X3.3625Y-1.125
X3.7625Y-1.125
X6.5763Y-5.574
X6.9227Y-5.774
X3.7375Y-2.625
X4.1375Y-2.625
X2.8Y-3.375
X3.2Y-3.375
X1.1125Y-1.125
X1.5125Y-1.125
X1.3Y-2.625
X1.7Y-2.625
X3.925Y-4.125
X4.325Y-4.125
X6.177Y-2.625
X6.577Y-2.625
X0.925Y-4.125
X1.325Y-4.125
T2
X7.6252Y-2.45
X7.6252Y-2.92
X7.6252Y-2.45
X7.6252Y-2.92
T3
X5.6411Y-5.1438
X6.1111Y-4.3297
T4
X6.6562Y-1.125
X5.8125Y-1.125
X4.5Y-3.375
X2.4375Y-2.625
X6.1Y-5.299
X2.8125Y-1.125
X2.25Y-3.375
X5.4375Y-2.625
X1.3125Y-3.375
X3.5625Y-1.125
X6.7495Y-5.674
X3.9375Y-2.625
X3.0Y-3.375
X1.3125Y-1.125
X1.5Y-2.625
X4.125Y-4.125
X6.377Y-2.625
X1.125Y-4.125
X6.475Y-4.6495
X3.375Y-4.125
X2.625Y-1.875
X4.875Y-4.125
X6.5625Y-1.875
X2.625Y-4.125
X2.0625Y-1.125
X4.875Y-1.875
X5.1215Y-4.8438
X5.5915Y-4.0297
X5.638Y-4.5993
X4.125Y-1.875
X7.1245Y-5.0245
X1.875Y-4.125
X3.1875Y-2.625
X5.0625Y-1.125
X3.375Y-1.875
X6.0Y-3.375
X4.3125Y-1.125
X7.4995Y-4.375
X6.85Y-4.0
X3.75Y-3.375
X5.25Y-3.375
X4.6875Y-2.625
X1.6875Y-1.875
X5.625Y-1.875
T5
G00X7.8555Y-2.573
M15
G01X7.8555Y-2.797
M16
G05
G00X7.8555Y-2.797
M15
G01X7.8555Y-2.573
M16
G05
T0
M30
