G04 #@! TF.GenerationSoftware,KiCad,Pcbnew,(5.99.0-2039-g05a89863c)*
G04 #@! TF.CreationDate,2020-06-27T09:00:50+08:00*
G04 #@! TF.ProjectId,Keyboard-layout,4b657962-6f61-4726-942d-6c61796f7574,rev?*
G04 #@! TF.SameCoordinates,Original*
G04 #@! TF.FileFunction,Soldermask,Top*
G04 #@! TF.FilePolarity,Negative*
%FSLAX46Y46*%
G04 Gerber Fmt 4.6, Leading zero omitted, Abs format (unit mm)*
G04 Created by KiCad (PCBNEW (5.99.0-2039-g05a89863c)) date 2020-06-27 09:00:50*
%MOMM*%
%LPD*%
G01*
G04 APERTURE LIST*
%ADD10C,2.250000*%
%ADD11R,1.905000X1.905000*%
%ADD12C,1.905000*%
%ADD13C,1.750000*%
%ADD14C,3.987800*%
%ADD15C,1.600000*%
%ADD16R,1.600000X1.600000*%
%ADD17R,1.200000X1.200000*%
%ADD18C,1.524000*%
%ADD19R,1.524000X1.524000*%
%ADD20O,1.600000X1.600000*%
%ADD21C,2.082800*%
%ADD22C,2.000000*%
%ADD23R,2.400000X0.700000*%
%ADD24C,1.850000*%
%ADD25C,3.048000*%
G04 APERTURE END LIST*
D10*
X121602500Y-61595000D03*
D11*
X120332500Y-71755000D03*
D10*
X116522500Y-61595000D03*
X121562500Y-62675000D03*
G36*
G01*
X121484024Y-63297260D02*
X121484024Y-63297260D01*
G75*
G02*
X120440240Y-62096524I78476J1122260D01*
G01*
X120480794Y-61516562D01*
G75*
G02*
X121681530Y-60472778I1122260J-78476D01*
G01*
X121681530Y-60472778D01*
G75*
G02*
X122725314Y-61673514I-78476J-1122260D01*
G01*
X122684760Y-62253476D01*
G75*
G02*
X121484024Y-63297260I-1122260J78476D01*
G01*
G37*
G36*
G01*
X116443470Y-60472778D02*
X116443470Y-60472778D01*
G75*
G02*
X117644206Y-61516562I78476J-1122260D01*
G01*
X117684760Y-62096524D01*
G75*
G02*
X116640976Y-63297260I-1122260J-78476D01*
G01*
X116640976Y-63297260D01*
G75*
G02*
X115440240Y-62253476I-78476J1122260D01*
G01*
X115399686Y-61673514D01*
G75*
G02*
X116443470Y-60472778I1122260J78476D01*
G01*
G37*
D12*
X117792500Y-71755000D03*
G36*
G01*
X114499728Y-64971038D02*
X114499728Y-64971038D01*
G75*
G02*
X114416462Y-63382228I752772J836038D01*
G01*
X115729000Y-61924508D01*
G75*
G02*
X117317810Y-61841242I836038J-752772D01*
G01*
X117317810Y-61841242D01*
G75*
G02*
X117401076Y-63430052I-752772J-836038D01*
G01*
X116088538Y-64887772D01*
G75*
G02*
X114499728Y-64971038I-836038J752772D01*
G01*
G37*
G36*
G01*
X120807190Y-61841242D02*
X120807190Y-61841242D01*
G75*
G02*
X122396000Y-61924508I752772J-836038D01*
G01*
X123708538Y-63382228D01*
G75*
G02*
X123625272Y-64971038I-836038J-752772D01*
G01*
X123625272Y-64971038D01*
G75*
G02*
X122036462Y-64887772I-752772J836038D01*
G01*
X120723924Y-63430052D01*
G75*
G02*
X120807190Y-61841242I836038J752772D01*
G01*
G37*
D10*
X116562500Y-62675000D03*
D13*
X124142500Y-66675000D03*
X113982500Y-66675000D03*
D14*
X119062500Y-66675000D03*
D15*
X139116501Y-124034000D03*
G36*
X146964319Y-127641180D02*
G01*
X146164319Y-129026820D01*
X144778679Y-128226820D01*
X145578679Y-126841180D01*
X146964319Y-127641180D01*
G37*
G36*
X144677605Y-126551885D02*
G01*
X144077605Y-127591115D01*
X143038375Y-126991115D01*
X143638375Y-125951885D01*
X144677605Y-126551885D01*
G37*
G36*
X141949625Y-124976885D02*
G01*
X141349625Y-126016115D01*
X140310395Y-125416115D01*
X140910395Y-124376885D01*
X141949625Y-124976885D01*
G37*
X174937500Y-43725000D03*
D16*
X174937500Y-51525000D03*
D17*
X174937500Y-49200000D03*
X174937500Y-46050000D03*
D15*
X177318750Y-24675000D03*
D16*
X177318750Y-32475000D03*
D17*
X177318750Y-30150000D03*
X177318750Y-27000000D03*
D15*
X36825000Y-100875000D03*
D16*
X36825000Y-108675000D03*
D17*
X36825000Y-106350000D03*
X36825000Y-103200000D03*
D15*
X127312500Y-62775000D03*
D16*
X127312500Y-70575000D03*
D17*
X127312500Y-68250000D03*
X127312500Y-65100000D03*
G36*
G01*
X171490274Y-25197260D02*
X171490274Y-25197260D01*
G75*
G02*
X170446490Y-23996524I78476J1122260D01*
G01*
X170487044Y-23416562D01*
G75*
G02*
X171687780Y-22372778I1122260J-78476D01*
G01*
X171687780Y-22372778D01*
G75*
G02*
X172731564Y-23573514I-78476J-1122260D01*
G01*
X172691010Y-24153476D01*
G75*
G02*
X171490274Y-25197260I-1122260J78476D01*
G01*
G37*
G36*
G01*
X166449720Y-22372778D02*
X166449720Y-22372778D01*
G75*
G02*
X167650456Y-23416562I78476J-1122260D01*
G01*
X167691010Y-23996524D01*
G75*
G02*
X166647226Y-25197260I-1122260J-78476D01*
G01*
X166647226Y-25197260D01*
G75*
G02*
X165446490Y-24153476I-78476J1122260D01*
G01*
X165405936Y-23573514D01*
G75*
G02*
X166449720Y-22372778I1122260J78476D01*
G01*
G37*
D10*
X171608750Y-23495000D03*
D13*
X163988750Y-28575000D03*
D10*
X166568750Y-24575000D03*
D12*
X167798750Y-33655000D03*
D10*
X171568750Y-24575000D03*
G36*
G01*
X164505978Y-26871038D02*
X164505978Y-26871038D01*
G75*
G02*
X164422712Y-25282228I752772J836038D01*
G01*
X165735250Y-23824508D01*
G75*
G02*
X167324060Y-23741242I836038J-752772D01*
G01*
X167324060Y-23741242D01*
G75*
G02*
X167407326Y-25330052I-752772J-836038D01*
G01*
X166094788Y-26787772D01*
G75*
G02*
X164505978Y-26871038I-836038J752772D01*
G01*
G37*
D14*
X169068750Y-28575000D03*
D10*
X166528750Y-23495000D03*
G36*
G01*
X170813440Y-23741242D02*
X170813440Y-23741242D01*
G75*
G02*
X172402250Y-23824508I752772J-836038D01*
G01*
X173714788Y-25282228D01*
G75*
G02*
X173631522Y-26871038I-836038J-752772D01*
G01*
X173631522Y-26871038D01*
G75*
G02*
X172042712Y-26787772I-752772J836038D01*
G01*
X170730174Y-25330052D01*
G75*
G02*
X170813440Y-23741242I836038J752772D01*
G01*
G37*
D13*
X174148750Y-28575000D03*
D11*
X170338750Y-33655000D03*
D10*
X35877500Y-23495000D03*
D11*
X34607500Y-33655000D03*
D10*
X30797500Y-23495000D03*
X35837500Y-24575000D03*
G36*
G01*
X35759024Y-25197260D02*
X35759024Y-25197260D01*
G75*
G02*
X34715240Y-23996524I78476J1122260D01*
G01*
X34755794Y-23416562D01*
G75*
G02*
X35956530Y-22372778I1122260J-78476D01*
G01*
X35956530Y-22372778D01*
G75*
G02*
X37000314Y-23573514I-78476J-1122260D01*
G01*
X36959760Y-24153476D01*
G75*
G02*
X35759024Y-25197260I-1122260J78476D01*
G01*
G37*
G36*
G01*
X30718470Y-22372778D02*
X30718470Y-22372778D01*
G75*
G02*
X31919206Y-23416562I78476J-1122260D01*
G01*
X31959760Y-23996524D01*
G75*
G02*
X30915976Y-25197260I-1122260J-78476D01*
G01*
X30915976Y-25197260D01*
G75*
G02*
X29715240Y-24153476I-78476J1122260D01*
G01*
X29674686Y-23573514D01*
G75*
G02*
X30718470Y-22372778I1122260J78476D01*
G01*
G37*
D12*
X32067500Y-33655000D03*
G36*
G01*
X28774728Y-26871038D02*
X28774728Y-26871038D01*
G75*
G02*
X28691462Y-25282228I752772J836038D01*
G01*
X30004000Y-23824508D01*
G75*
G02*
X31592810Y-23741242I836038J-752772D01*
G01*
X31592810Y-23741242D01*
G75*
G02*
X31676076Y-25330052I-752772J-836038D01*
G01*
X30363538Y-26787772D01*
G75*
G02*
X28774728Y-26871038I-836038J752772D01*
G01*
G37*
G36*
G01*
X35082190Y-23741242D02*
X35082190Y-23741242D01*
G75*
G02*
X36671000Y-23824508I752772J-836038D01*
G01*
X37983538Y-25282228D01*
G75*
G02*
X37900272Y-26871038I-836038J-752772D01*
G01*
X37900272Y-26871038D01*
G75*
G02*
X36311462Y-26787772I-752772J836038D01*
G01*
X34998924Y-25330052D01*
G75*
G02*
X35082190Y-23741242I836038J752772D01*
G01*
G37*
D10*
X30837500Y-24575000D03*
D13*
X38417500Y-28575000D03*
X28257500Y-28575000D03*
D14*
X33337500Y-28575000D03*
D10*
X150177500Y-23495000D03*
D11*
X148907500Y-33655000D03*
D10*
X145097500Y-23495000D03*
X150137500Y-24575000D03*
G36*
G01*
X150059024Y-25197260D02*
X150059024Y-25197260D01*
G75*
G02*
X149015240Y-23996524I78476J1122260D01*
G01*
X149055794Y-23416562D01*
G75*
G02*
X150256530Y-22372778I1122260J-78476D01*
G01*
X150256530Y-22372778D01*
G75*
G02*
X151300314Y-23573514I-78476J-1122260D01*
G01*
X151259760Y-24153476D01*
G75*
G02*
X150059024Y-25197260I-1122260J78476D01*
G01*
G37*
G36*
G01*
X145018470Y-22372778D02*
X145018470Y-22372778D01*
G75*
G02*
X146219206Y-23416562I78476J-1122260D01*
G01*
X146259760Y-23996524D01*
G75*
G02*
X145215976Y-25197260I-1122260J-78476D01*
G01*
X145215976Y-25197260D01*
G75*
G02*
X144015240Y-24153476I-78476J1122260D01*
G01*
X143974686Y-23573514D01*
G75*
G02*
X145018470Y-22372778I1122260J78476D01*
G01*
G37*
D12*
X146367500Y-33655000D03*
G36*
G01*
X143074728Y-26871038D02*
X143074728Y-26871038D01*
G75*
G02*
X142991462Y-25282228I752772J836038D01*
G01*
X144304000Y-23824508D01*
G75*
G02*
X145892810Y-23741242I836038J-752772D01*
G01*
X145892810Y-23741242D01*
G75*
G02*
X145976076Y-25330052I-752772J-836038D01*
G01*
X144663538Y-26787772D01*
G75*
G02*
X143074728Y-26871038I-836038J752772D01*
G01*
G37*
G36*
G01*
X149382190Y-23741242D02*
X149382190Y-23741242D01*
G75*
G02*
X150971000Y-23824508I752772J-836038D01*
G01*
X152283538Y-25282228D01*
G75*
G02*
X152200272Y-26871038I-836038J-752772D01*
G01*
X152200272Y-26871038D01*
G75*
G02*
X150611462Y-26787772I-752772J836038D01*
G01*
X149298924Y-25330052D01*
G75*
G02*
X149382190Y-23741242I836038J752772D01*
G01*
G37*
D10*
X145137500Y-24575000D03*
D13*
X152717500Y-28575000D03*
X142557500Y-28575000D03*
D14*
X147637500Y-28575000D03*
D10*
X131127500Y-23495000D03*
D11*
X129857500Y-33655000D03*
D10*
X126047500Y-23495000D03*
X131087500Y-24575000D03*
G36*
G01*
X131009024Y-25197260D02*
X131009024Y-25197260D01*
G75*
G02*
X129965240Y-23996524I78476J1122260D01*
G01*
X130005794Y-23416562D01*
G75*
G02*
X131206530Y-22372778I1122260J-78476D01*
G01*
X131206530Y-22372778D01*
G75*
G02*
X132250314Y-23573514I-78476J-1122260D01*
G01*
X132209760Y-24153476D01*
G75*
G02*
X131009024Y-25197260I-1122260J78476D01*
G01*
G37*
G36*
G01*
X125968470Y-22372778D02*
X125968470Y-22372778D01*
G75*
G02*
X127169206Y-23416562I78476J-1122260D01*
G01*
X127209760Y-23996524D01*
G75*
G02*
X126165976Y-25197260I-1122260J-78476D01*
G01*
X126165976Y-25197260D01*
G75*
G02*
X124965240Y-24153476I-78476J1122260D01*
G01*
X124924686Y-23573514D01*
G75*
G02*
X125968470Y-22372778I1122260J78476D01*
G01*
G37*
D12*
X127317500Y-33655000D03*
G36*
G01*
X124024728Y-26871038D02*
X124024728Y-26871038D01*
G75*
G02*
X123941462Y-25282228I752772J836038D01*
G01*
X125254000Y-23824508D01*
G75*
G02*
X126842810Y-23741242I836038J-752772D01*
G01*
X126842810Y-23741242D01*
G75*
G02*
X126926076Y-25330052I-752772J-836038D01*
G01*
X125613538Y-26787772D01*
G75*
G02*
X124024728Y-26871038I-836038J752772D01*
G01*
G37*
G36*
G01*
X130332190Y-23741242D02*
X130332190Y-23741242D01*
G75*
G02*
X131921000Y-23824508I752772J-836038D01*
G01*
X133233538Y-25282228D01*
G75*
G02*
X133150272Y-26871038I-836038J-752772D01*
G01*
X133150272Y-26871038D01*
G75*
G02*
X131561462Y-26787772I-752772J836038D01*
G01*
X130248924Y-25330052D01*
G75*
G02*
X130332190Y-23741242I836038J752772D01*
G01*
G37*
D10*
X126087500Y-24575000D03*
D13*
X133667500Y-28575000D03*
X123507500Y-28575000D03*
D14*
X128587500Y-28575000D03*
D10*
X112077500Y-23495000D03*
D11*
X110807500Y-33655000D03*
D10*
X106997500Y-23495000D03*
X112037500Y-24575000D03*
G36*
G01*
X111959024Y-25197260D02*
X111959024Y-25197260D01*
G75*
G02*
X110915240Y-23996524I78476J1122260D01*
G01*
X110955794Y-23416562D01*
G75*
G02*
X112156530Y-22372778I1122260J-78476D01*
G01*
X112156530Y-22372778D01*
G75*
G02*
X113200314Y-23573514I-78476J-1122260D01*
G01*
X113159760Y-24153476D01*
G75*
G02*
X111959024Y-25197260I-1122260J78476D01*
G01*
G37*
G36*
G01*
X106918470Y-22372778D02*
X106918470Y-22372778D01*
G75*
G02*
X108119206Y-23416562I78476J-1122260D01*
G01*
X108159760Y-23996524D01*
G75*
G02*
X107115976Y-25197260I-1122260J-78476D01*
G01*
X107115976Y-25197260D01*
G75*
G02*
X105915240Y-24153476I-78476J1122260D01*
G01*
X105874686Y-23573514D01*
G75*
G02*
X106918470Y-22372778I1122260J78476D01*
G01*
G37*
D12*
X108267500Y-33655000D03*
G36*
G01*
X104974728Y-26871038D02*
X104974728Y-26871038D01*
G75*
G02*
X104891462Y-25282228I752772J836038D01*
G01*
X106204000Y-23824508D01*
G75*
G02*
X107792810Y-23741242I836038J-752772D01*
G01*
X107792810Y-23741242D01*
G75*
G02*
X107876076Y-25330052I-752772J-836038D01*
G01*
X106563538Y-26787772D01*
G75*
G02*
X104974728Y-26871038I-836038J752772D01*
G01*
G37*
G36*
G01*
X111282190Y-23741242D02*
X111282190Y-23741242D01*
G75*
G02*
X112871000Y-23824508I752772J-836038D01*
G01*
X114183538Y-25282228D01*
G75*
G02*
X114100272Y-26871038I-836038J-752772D01*
G01*
X114100272Y-26871038D01*
G75*
G02*
X112511462Y-26787772I-752772J836038D01*
G01*
X111198924Y-25330052D01*
G75*
G02*
X111282190Y-23741242I836038J752772D01*
G01*
G37*
D10*
X107037500Y-24575000D03*
D13*
X114617500Y-28575000D03*
X104457500Y-28575000D03*
D14*
X109537500Y-28575000D03*
D10*
X93027500Y-23495000D03*
D11*
X91757500Y-33655000D03*
D10*
X87947500Y-23495000D03*
X92987500Y-24575000D03*
G36*
G01*
X92909024Y-25197260D02*
X92909024Y-25197260D01*
G75*
G02*
X91865240Y-23996524I78476J1122260D01*
G01*
X91905794Y-23416562D01*
G75*
G02*
X93106530Y-22372778I1122260J-78476D01*
G01*
X93106530Y-22372778D01*
G75*
G02*
X94150314Y-23573514I-78476J-1122260D01*
G01*
X94109760Y-24153476D01*
G75*
G02*
X92909024Y-25197260I-1122260J78476D01*
G01*
G37*
G36*
G01*
X87868470Y-22372778D02*
X87868470Y-22372778D01*
G75*
G02*
X89069206Y-23416562I78476J-1122260D01*
G01*
X89109760Y-23996524D01*
G75*
G02*
X88065976Y-25197260I-1122260J-78476D01*
G01*
X88065976Y-25197260D01*
G75*
G02*
X86865240Y-24153476I-78476J1122260D01*
G01*
X86824686Y-23573514D01*
G75*
G02*
X87868470Y-22372778I1122260J78476D01*
G01*
G37*
D12*
X89217500Y-33655000D03*
G36*
G01*
X85924728Y-26871038D02*
X85924728Y-26871038D01*
G75*
G02*
X85841462Y-25282228I752772J836038D01*
G01*
X87154000Y-23824508D01*
G75*
G02*
X88742810Y-23741242I836038J-752772D01*
G01*
X88742810Y-23741242D01*
G75*
G02*
X88826076Y-25330052I-752772J-836038D01*
G01*
X87513538Y-26787772D01*
G75*
G02*
X85924728Y-26871038I-836038J752772D01*
G01*
G37*
G36*
G01*
X92232190Y-23741242D02*
X92232190Y-23741242D01*
G75*
G02*
X93821000Y-23824508I752772J-836038D01*
G01*
X95133538Y-25282228D01*
G75*
G02*
X95050272Y-26871038I-836038J-752772D01*
G01*
X95050272Y-26871038D01*
G75*
G02*
X93461462Y-26787772I-752772J836038D01*
G01*
X92148924Y-25330052D01*
G75*
G02*
X92232190Y-23741242I836038J752772D01*
G01*
G37*
D10*
X87987500Y-24575000D03*
D13*
X95567500Y-28575000D03*
X85407500Y-28575000D03*
D14*
X90487500Y-28575000D03*
D10*
X73977500Y-23495000D03*
D11*
X72707500Y-33655000D03*
D10*
X68897500Y-23495000D03*
X73937500Y-24575000D03*
G36*
G01*
X73859024Y-25197260D02*
X73859024Y-25197260D01*
G75*
G02*
X72815240Y-23996524I78476J1122260D01*
G01*
X72855794Y-23416562D01*
G75*
G02*
X74056530Y-22372778I1122260J-78476D01*
G01*
X74056530Y-22372778D01*
G75*
G02*
X75100314Y-23573514I-78476J-1122260D01*
G01*
X75059760Y-24153476D01*
G75*
G02*
X73859024Y-25197260I-1122260J78476D01*
G01*
G37*
G36*
G01*
X68818470Y-22372778D02*
X68818470Y-22372778D01*
G75*
G02*
X70019206Y-23416562I78476J-1122260D01*
G01*
X70059760Y-23996524D01*
G75*
G02*
X69015976Y-25197260I-1122260J-78476D01*
G01*
X69015976Y-25197260D01*
G75*
G02*
X67815240Y-24153476I-78476J1122260D01*
G01*
X67774686Y-23573514D01*
G75*
G02*
X68818470Y-22372778I1122260J78476D01*
G01*
G37*
D12*
X70167500Y-33655000D03*
G36*
G01*
X66874728Y-26871038D02*
X66874728Y-26871038D01*
G75*
G02*
X66791462Y-25282228I752772J836038D01*
G01*
X68104000Y-23824508D01*
G75*
G02*
X69692810Y-23741242I836038J-752772D01*
G01*
X69692810Y-23741242D01*
G75*
G02*
X69776076Y-25330052I-752772J-836038D01*
G01*
X68463538Y-26787772D01*
G75*
G02*
X66874728Y-26871038I-836038J752772D01*
G01*
G37*
G36*
G01*
X73182190Y-23741242D02*
X73182190Y-23741242D01*
G75*
G02*
X74771000Y-23824508I752772J-836038D01*
G01*
X76083538Y-25282228D01*
G75*
G02*
X76000272Y-26871038I-836038J-752772D01*
G01*
X76000272Y-26871038D01*
G75*
G02*
X74411462Y-26787772I-752772J836038D01*
G01*
X73098924Y-25330052D01*
G75*
G02*
X73182190Y-23741242I836038J752772D01*
G01*
G37*
D10*
X68937500Y-24575000D03*
D13*
X76517500Y-28575000D03*
X66357500Y-28575000D03*
D14*
X71437500Y-28575000D03*
D10*
X54927500Y-23495000D03*
D11*
X53657500Y-33655000D03*
D10*
X49847500Y-23495000D03*
X54887500Y-24575000D03*
G36*
G01*
X54809024Y-25197260D02*
X54809024Y-25197260D01*
G75*
G02*
X53765240Y-23996524I78476J1122260D01*
G01*
X53805794Y-23416562D01*
G75*
G02*
X55006530Y-22372778I1122260J-78476D01*
G01*
X55006530Y-22372778D01*
G75*
G02*
X56050314Y-23573514I-78476J-1122260D01*
G01*
X56009760Y-24153476D01*
G75*
G02*
X54809024Y-25197260I-1122260J78476D01*
G01*
G37*
G36*
G01*
X49768470Y-22372778D02*
X49768470Y-22372778D01*
G75*
G02*
X50969206Y-23416562I78476J-1122260D01*
G01*
X51009760Y-23996524D01*
G75*
G02*
X49965976Y-25197260I-1122260J-78476D01*
G01*
X49965976Y-25197260D01*
G75*
G02*
X48765240Y-24153476I-78476J1122260D01*
G01*
X48724686Y-23573514D01*
G75*
G02*
X49768470Y-22372778I1122260J78476D01*
G01*
G37*
D12*
X51117500Y-33655000D03*
G36*
G01*
X47824728Y-26871038D02*
X47824728Y-26871038D01*
G75*
G02*
X47741462Y-25282228I752772J836038D01*
G01*
X49054000Y-23824508D01*
G75*
G02*
X50642810Y-23741242I836038J-752772D01*
G01*
X50642810Y-23741242D01*
G75*
G02*
X50726076Y-25330052I-752772J-836038D01*
G01*
X49413538Y-26787772D01*
G75*
G02*
X47824728Y-26871038I-836038J752772D01*
G01*
G37*
G36*
G01*
X54132190Y-23741242D02*
X54132190Y-23741242D01*
G75*
G02*
X55721000Y-23824508I752772J-836038D01*
G01*
X57033538Y-25282228D01*
G75*
G02*
X56950272Y-26871038I-836038J-752772D01*
G01*
X56950272Y-26871038D01*
G75*
G02*
X55361462Y-26787772I-752772J836038D01*
G01*
X54048924Y-25330052D01*
G75*
G02*
X54132190Y-23741242I836038J752772D01*
G01*
G37*
D10*
X49887500Y-24575000D03*
D13*
X57467500Y-28575000D03*
X47307500Y-28575000D03*
D14*
X52387500Y-28575000D03*
D15*
X41587500Y-24675000D03*
D16*
X41587500Y-32475000D03*
D17*
X41587500Y-30150000D03*
X41587500Y-27000000D03*
D15*
X60637500Y-24675000D03*
D16*
X60637500Y-32475000D03*
D17*
X60637500Y-30150000D03*
X60637500Y-27000000D03*
G36*
G01*
X45284024Y-44247260D02*
X45284024Y-44247260D01*
G75*
G02*
X44240240Y-43046524I78476J1122260D01*
G01*
X44280794Y-42466562D01*
G75*
G02*
X45481530Y-41422778I1122260J-78476D01*
G01*
X45481530Y-41422778D01*
G75*
G02*
X46525314Y-42623514I-78476J-1122260D01*
G01*
X46484760Y-43203476D01*
G75*
G02*
X45284024Y-44247260I-1122260J78476D01*
G01*
G37*
G36*
G01*
X40243470Y-41422778D02*
X40243470Y-41422778D01*
G75*
G02*
X41444206Y-42466562I78476J-1122260D01*
G01*
X41484760Y-43046524D01*
G75*
G02*
X40440976Y-44247260I-1122260J-78476D01*
G01*
X40440976Y-44247260D01*
G75*
G02*
X39240240Y-43203476I-78476J1122260D01*
G01*
X39199686Y-42623514D01*
G75*
G02*
X40243470Y-41422778I1122260J78476D01*
G01*
G37*
D10*
X45402500Y-42545000D03*
D13*
X37782500Y-47625000D03*
D10*
X40362500Y-43625000D03*
D12*
X41592500Y-52705000D03*
D10*
X45362500Y-43625000D03*
G36*
G01*
X38299728Y-45921038D02*
X38299728Y-45921038D01*
G75*
G02*
X38216462Y-44332228I752772J836038D01*
G01*
X39529000Y-42874508D01*
G75*
G02*
X41117810Y-42791242I836038J-752772D01*
G01*
X41117810Y-42791242D01*
G75*
G02*
X41201076Y-44380052I-752772J-836038D01*
G01*
X39888538Y-45837772D01*
G75*
G02*
X38299728Y-45921038I-836038J752772D01*
G01*
G37*
D14*
X42862500Y-47625000D03*
D10*
X40322500Y-42545000D03*
G36*
G01*
X44607190Y-42791242D02*
X44607190Y-42791242D01*
G75*
G02*
X46196000Y-42874508I752772J-836038D01*
G01*
X47508538Y-44332228D01*
G75*
G02*
X47425272Y-45921038I-836038J-752772D01*
G01*
X47425272Y-45921038D01*
G75*
G02*
X45836462Y-45837772I-752772J836038D01*
G01*
X44523924Y-44380052D01*
G75*
G02*
X44607190Y-42791242I836038J752772D01*
G01*
G37*
D13*
X47942500Y-47625000D03*
D11*
X44132500Y-52705000D03*
G36*
G01*
X35759024Y-82347260D02*
X35759024Y-82347260D01*
G75*
G02*
X34715240Y-81146524I78476J1122260D01*
G01*
X34755794Y-80566562D01*
G75*
G02*
X35956530Y-79522778I1122260J-78476D01*
G01*
X35956530Y-79522778D01*
G75*
G02*
X37000314Y-80723514I-78476J-1122260D01*
G01*
X36959760Y-81303476D01*
G75*
G02*
X35759024Y-82347260I-1122260J78476D01*
G01*
G37*
G36*
G01*
X30718470Y-79522778D02*
X30718470Y-79522778D01*
G75*
G02*
X31919206Y-80566562I78476J-1122260D01*
G01*
X31959760Y-81146524D01*
G75*
G02*
X30915976Y-82347260I-1122260J-78476D01*
G01*
X30915976Y-82347260D01*
G75*
G02*
X29715240Y-81303476I-78476J1122260D01*
G01*
X29674686Y-80723514D01*
G75*
G02*
X30718470Y-79522778I1122260J78476D01*
G01*
G37*
D10*
X35877500Y-80645000D03*
D13*
X28257500Y-85725000D03*
D10*
X30837500Y-81725000D03*
D12*
X32067500Y-90805000D03*
D10*
X35837500Y-81725000D03*
G36*
G01*
X28774728Y-84021038D02*
X28774728Y-84021038D01*
G75*
G02*
X28691462Y-82432228I752772J836038D01*
G01*
X30004000Y-80974508D01*
G75*
G02*
X31592810Y-80891242I836038J-752772D01*
G01*
X31592810Y-80891242D01*
G75*
G02*
X31676076Y-82480052I-752772J-836038D01*
G01*
X30363538Y-83937772D01*
G75*
G02*
X28774728Y-84021038I-836038J752772D01*
G01*
G37*
D14*
X33337500Y-85725000D03*
D10*
X30797500Y-80645000D03*
G36*
G01*
X35082190Y-80891242D02*
X35082190Y-80891242D01*
G75*
G02*
X36671000Y-80974508I752772J-836038D01*
G01*
X37983538Y-82432228D01*
G75*
G02*
X37900272Y-84021038I-836038J-752772D01*
G01*
X37900272Y-84021038D01*
G75*
G02*
X36311462Y-83937772I-752772J836038D01*
G01*
X34998924Y-82480052D01*
G75*
G02*
X35082190Y-80891242I836038J752772D01*
G01*
G37*
D13*
X38417500Y-85725000D03*
D11*
X34607500Y-90805000D03*
G36*
G01*
X169109024Y-44247260D02*
X169109024Y-44247260D01*
G75*
G02*
X168065240Y-43046524I78476J1122260D01*
G01*
X168105794Y-42466562D01*
G75*
G02*
X169306530Y-41422778I1122260J-78476D01*
G01*
X169306530Y-41422778D01*
G75*
G02*
X170350314Y-42623514I-78476J-1122260D01*
G01*
X170309760Y-43203476D01*
G75*
G02*
X169109024Y-44247260I-1122260J78476D01*
G01*
G37*
G36*
G01*
X164068470Y-41422778D02*
X164068470Y-41422778D01*
G75*
G02*
X165269206Y-42466562I78476J-1122260D01*
G01*
X165309760Y-43046524D01*
G75*
G02*
X164265976Y-44247260I-1122260J-78476D01*
G01*
X164265976Y-44247260D01*
G75*
G02*
X163065240Y-43203476I-78476J1122260D01*
G01*
X163024686Y-42623514D01*
G75*
G02*
X164068470Y-41422778I1122260J78476D01*
G01*
G37*
D10*
X169227500Y-42545000D03*
D13*
X161607500Y-47625000D03*
D10*
X164187500Y-43625000D03*
D12*
X165417500Y-52705000D03*
D10*
X169187500Y-43625000D03*
G36*
G01*
X162124728Y-45921038D02*
X162124728Y-45921038D01*
G75*
G02*
X162041462Y-44332228I752772J836038D01*
G01*
X163354000Y-42874508D01*
G75*
G02*
X164942810Y-42791242I836038J-752772D01*
G01*
X164942810Y-42791242D01*
G75*
G02*
X165026076Y-44380052I-752772J-836038D01*
G01*
X163713538Y-45837772D01*
G75*
G02*
X162124728Y-45921038I-836038J752772D01*
G01*
G37*
D14*
X166687500Y-47625000D03*
D10*
X164147500Y-42545000D03*
G36*
G01*
X168432190Y-42791242D02*
X168432190Y-42791242D01*
G75*
G02*
X170021000Y-42874508I752772J-836038D01*
G01*
X171333538Y-44332228D01*
G75*
G02*
X171250272Y-45921038I-836038J-752772D01*
G01*
X171250272Y-45921038D01*
G75*
G02*
X169661462Y-45837772I-752772J836038D01*
G01*
X168348924Y-44380052D01*
G75*
G02*
X168432190Y-42791242I836038J752772D01*
G01*
G37*
D13*
X171767500Y-47625000D03*
D11*
X167957500Y-52705000D03*
D10*
X31115000Y-99695000D03*
D11*
X29845000Y-109855000D03*
D10*
X26035000Y-99695000D03*
X31075000Y-100775000D03*
G36*
G01*
X30996524Y-101397260D02*
X30996524Y-101397260D01*
G75*
G02*
X29952740Y-100196524I78476J1122260D01*
G01*
X29993294Y-99616562D01*
G75*
G02*
X31194030Y-98572778I1122260J-78476D01*
G01*
X31194030Y-98572778D01*
G75*
G02*
X32237814Y-99773514I-78476J-1122260D01*
G01*
X32197260Y-100353476D01*
G75*
G02*
X30996524Y-101397260I-1122260J78476D01*
G01*
G37*
G36*
G01*
X25955970Y-98572778D02*
X25955970Y-98572778D01*
G75*
G02*
X27156706Y-99616562I78476J-1122260D01*
G01*
X27197260Y-100196524D01*
G75*
G02*
X26153476Y-101397260I-1122260J-78476D01*
G01*
X26153476Y-101397260D01*
G75*
G02*
X24952740Y-100353476I-78476J1122260D01*
G01*
X24912186Y-99773514D01*
G75*
G02*
X25955970Y-98572778I1122260J78476D01*
G01*
G37*
D12*
X27305000Y-109855000D03*
G36*
G01*
X24012228Y-103071038D02*
X24012228Y-103071038D01*
G75*
G02*
X23928962Y-101482228I752772J836038D01*
G01*
X25241500Y-100024508D01*
G75*
G02*
X26830310Y-99941242I836038J-752772D01*
G01*
X26830310Y-99941242D01*
G75*
G02*
X26913576Y-101530052I-752772J-836038D01*
G01*
X25601038Y-102987772D01*
G75*
G02*
X24012228Y-103071038I-836038J752772D01*
G01*
G37*
G36*
G01*
X30319690Y-99941242D02*
X30319690Y-99941242D01*
G75*
G02*
X31908500Y-100024508I752772J-836038D01*
G01*
X33221038Y-101482228D01*
G75*
G02*
X33137772Y-103071038I-836038J-752772D01*
G01*
X33137772Y-103071038D01*
G75*
G02*
X31548962Y-102987772I-752772J836038D01*
G01*
X30236424Y-101530052D01*
G75*
G02*
X30319690Y-99941242I836038J752772D01*
G01*
G37*
D10*
X26075000Y-100775000D03*
D13*
X33655000Y-104775000D03*
X23495000Y-104775000D03*
D14*
X28575000Y-104775000D03*
D18*
X188722000Y-21590000D03*
X191262000Y-21590000D03*
X193802000Y-21590000D03*
D19*
X196342000Y-21590000D03*
D20*
X191135000Y-74168000D03*
D16*
X180975000Y-74168000D03*
D20*
X188722000Y-74168000D03*
D16*
X178562000Y-74168000D03*
G36*
G01*
X187175000Y-67459000D02*
X187475000Y-67459000D01*
G75*
G02*
X187625000Y-67609000I0J-150000D01*
G01*
X187625000Y-68959000D01*
G75*
G02*
X187475000Y-69109000I-150000J0D01*
G01*
X187175000Y-69109000D01*
G75*
G02*
X187025000Y-68959000I0J150000D01*
G01*
X187025000Y-67609000D01*
G75*
G02*
X187175000Y-67459000I150000J0D01*
G01*
G37*
G36*
G01*
X185905000Y-67459000D02*
X186205000Y-67459000D01*
G75*
G02*
X186355000Y-67609000I0J-150000D01*
G01*
X186355000Y-68959000D01*
G75*
G02*
X186205000Y-69109000I-150000J0D01*
G01*
X185905000Y-69109000D01*
G75*
G02*
X185755000Y-68959000I0J150000D01*
G01*
X185755000Y-67609000D01*
G75*
G02*
X185905000Y-67459000I150000J0D01*
G01*
G37*
G36*
G01*
X184635000Y-67459000D02*
X184935000Y-67459000D01*
G75*
G02*
X185085000Y-67609000I0J-150000D01*
G01*
X185085000Y-68959000D01*
G75*
G02*
X184935000Y-69109000I-150000J0D01*
G01*
X184635000Y-69109000D01*
G75*
G02*
X184485000Y-68959000I0J150000D01*
G01*
X184485000Y-67609000D01*
G75*
G02*
X184635000Y-67459000I150000J0D01*
G01*
G37*
G36*
G01*
X183365000Y-67459000D02*
X183665000Y-67459000D01*
G75*
G02*
X183815000Y-67609000I0J-150000D01*
G01*
X183815000Y-68959000D01*
G75*
G02*
X183665000Y-69109000I-150000J0D01*
G01*
X183365000Y-69109000D01*
G75*
G02*
X183215000Y-68959000I0J150000D01*
G01*
X183215000Y-67609000D01*
G75*
G02*
X183365000Y-67459000I150000J0D01*
G01*
G37*
G36*
G01*
X183365000Y-62209000D02*
X183665000Y-62209000D01*
G75*
G02*
X183815000Y-62359000I0J-150000D01*
G01*
X183815000Y-63709000D01*
G75*
G02*
X183665000Y-63859000I-150000J0D01*
G01*
X183365000Y-63859000D01*
G75*
G02*
X183215000Y-63709000I0J150000D01*
G01*
X183215000Y-62359000D01*
G75*
G02*
X183365000Y-62209000I150000J0D01*
G01*
G37*
G36*
G01*
X184635000Y-62209000D02*
X184935000Y-62209000D01*
G75*
G02*
X185085000Y-62359000I0J-150000D01*
G01*
X185085000Y-63709000D01*
G75*
G02*
X184935000Y-63859000I-150000J0D01*
G01*
X184635000Y-63859000D01*
G75*
G02*
X184485000Y-63709000I0J150000D01*
G01*
X184485000Y-62359000D01*
G75*
G02*
X184635000Y-62209000I150000J0D01*
G01*
G37*
G36*
G01*
X185905000Y-62209000D02*
X186205000Y-62209000D01*
G75*
G02*
X186355000Y-62359000I0J-150000D01*
G01*
X186355000Y-63709000D01*
G75*
G02*
X186205000Y-63859000I-150000J0D01*
G01*
X185905000Y-63859000D01*
G75*
G02*
X185755000Y-63709000I0J150000D01*
G01*
X185755000Y-62359000D01*
G75*
G02*
X185905000Y-62209000I150000J0D01*
G01*
G37*
G36*
G01*
X187175000Y-62209000D02*
X187475000Y-62209000D01*
G75*
G02*
X187625000Y-62359000I0J-150000D01*
G01*
X187625000Y-63709000D01*
G75*
G02*
X187475000Y-63859000I-150000J0D01*
G01*
X187175000Y-63859000D01*
G75*
G02*
X187025000Y-63709000I0J150000D01*
G01*
X187025000Y-62359000D01*
G75*
G02*
X187175000Y-62209000I150000J0D01*
G01*
G37*
D21*
X200152000Y-27940000D03*
X200152000Y-30480000D03*
X200152000Y-33020000D03*
X200152000Y-35560000D03*
X200152000Y-38100000D03*
X200152000Y-40640000D03*
X200152000Y-43180000D03*
X200152000Y-45720000D03*
X200152000Y-48260000D03*
X200152000Y-50800000D03*
X200152000Y-53340000D03*
X200152000Y-55880000D03*
X184912000Y-55880000D03*
X184912000Y-53340000D03*
X184912000Y-50800000D03*
X184912000Y-48260000D03*
X184912000Y-45720000D03*
X184912000Y-43180000D03*
X184912000Y-40640000D03*
X184912000Y-38100000D03*
X184912000Y-35560000D03*
X184912000Y-33020000D03*
X184912000Y-30480000D03*
X184912000Y-27940000D03*
D18*
X188722000Y-54610000D03*
X191262000Y-54610000D03*
X193802000Y-54610000D03*
D19*
X196342000Y-54610000D03*
D22*
X195697000Y-87574000D03*
X195747000Y-80574000D03*
D15*
X198247000Y-86574000D03*
X198247000Y-81574000D03*
D23*
X193405000Y-71769000D03*
X193405000Y-70749000D03*
X193405000Y-69729000D03*
X193405000Y-68709000D03*
X193405000Y-67689000D03*
X193405000Y-66669000D03*
X193405000Y-65649000D03*
X193405000Y-64629000D03*
D24*
X193680000Y-74169000D03*
X193680000Y-62229000D03*
G36*
G01*
X202579000Y-61049000D02*
X198381000Y-61049000D01*
G75*
G02*
X198330000Y-60998000I0J51000D01*
G01*
X198330000Y-58550000D01*
G75*
G02*
X198381000Y-58499000I51000J0D01*
G01*
X202579000Y-58499000D01*
G75*
G02*
X202630000Y-58550000I0J-51000D01*
G01*
X202630000Y-60998000D01*
G75*
G02*
X202579000Y-61049000I-51000J0D01*
G01*
G37*
G36*
G01*
X202579000Y-77899000D02*
X198381000Y-77899000D01*
G75*
G02*
X198330000Y-77848000I0J51000D01*
G01*
X198330000Y-75400000D01*
G75*
G02*
X198381000Y-75349000I51000J0D01*
G01*
X202579000Y-75349000D01*
G75*
G02*
X202630000Y-75400000I0J-51000D01*
G01*
X202630000Y-77848000D01*
G75*
G02*
X202579000Y-77899000I-51000J0D01*
G01*
G37*
G36*
G01*
X198381000Y-58499000D02*
X202579000Y-58499000D01*
G75*
G02*
X202630000Y-58550000I0J-51000D01*
G01*
X202630000Y-60998000D01*
G75*
G02*
X202579000Y-61049000I-51000J0D01*
G01*
X198381000Y-61049000D01*
G75*
G02*
X198330000Y-60998000I0J51000D01*
G01*
X198330000Y-58550000D01*
G75*
G02*
X198381000Y-58499000I51000J0D01*
G01*
G37*
G36*
G01*
X198381000Y-75349000D02*
X202579000Y-75349000D01*
G75*
G02*
X202630000Y-75400000I0J-51000D01*
G01*
X202630000Y-77848000D01*
G75*
G02*
X202579000Y-77899000I-51000J0D01*
G01*
X198381000Y-77899000D01*
G75*
G02*
X198330000Y-77848000I0J51000D01*
G01*
X198330000Y-75400000D01*
G75*
G02*
X198381000Y-75349000I51000J0D01*
G01*
G37*
X193680000Y-74169000D03*
X193680000Y-62229000D03*
G36*
G01*
X164397324Y-63297260D02*
X164397324Y-63297260D01*
G75*
G02*
X163353540Y-62096524I78476J1122260D01*
G01*
X163394094Y-61516562D01*
G75*
G02*
X164594830Y-60472778I1122260J-78476D01*
G01*
X164594830Y-60472778D01*
G75*
G02*
X165638614Y-61673514I-78476J-1122260D01*
G01*
X165598060Y-62253476D01*
G75*
G02*
X164397324Y-63297260I-1122260J78476D01*
G01*
G37*
G36*
G01*
X159356770Y-60472778D02*
X159356770Y-60472778D01*
G75*
G02*
X160557506Y-61516562I78476J-1122260D01*
G01*
X160598060Y-62096524D01*
G75*
G02*
X159554276Y-63297260I-1122260J-78476D01*
G01*
X159554276Y-63297260D01*
G75*
G02*
X158353540Y-62253476I-78476J1122260D01*
G01*
X158312986Y-61673514D01*
G75*
G02*
X159356770Y-60472778I1122260J78476D01*
G01*
G37*
D10*
X164515800Y-61595000D03*
D13*
X156895800Y-66675000D03*
D10*
X159475800Y-62675000D03*
D12*
X160705800Y-71755000D03*
D10*
X164475800Y-62675000D03*
G36*
G01*
X157413028Y-64971038D02*
X157413028Y-64971038D01*
G75*
G02*
X157329762Y-63382228I752772J836038D01*
G01*
X158642300Y-61924508D01*
G75*
G02*
X160231110Y-61841242I836038J-752772D01*
G01*
X160231110Y-61841242D01*
G75*
G02*
X160314376Y-63430052I-752772J-836038D01*
G01*
X159001838Y-64887772D01*
G75*
G02*
X157413028Y-64971038I-836038J752772D01*
G01*
G37*
D14*
X161975800Y-66675000D03*
D10*
X159435800Y-61595000D03*
G36*
G01*
X163720490Y-61841242D02*
X163720490Y-61841242D01*
G75*
G02*
X165309300Y-61924508I752772J-836038D01*
G01*
X166621838Y-63382228D01*
G75*
G02*
X166538572Y-64971038I-836038J-752772D01*
G01*
X166538572Y-64971038D01*
G75*
G02*
X164949762Y-64887772I-752772J836038D01*
G01*
X163637224Y-63430052D01*
G75*
G02*
X163720490Y-61841242I836038J752772D01*
G01*
G37*
D13*
X167055800Y-66675000D03*
D11*
X163245800Y-71755000D03*
D10*
X181303079Y-121953375D03*
G36*
X178624071Y-131038554D02*
G01*
X177671571Y-132688332D01*
X176021793Y-131735832D01*
X176974293Y-130086054D01*
X178624071Y-131038554D01*
G37*
X185702489Y-124493375D03*
X180797720Y-122908682D03*
G36*
G01*
X180554552Y-123486813D02*
X180554552Y-123486813D01*
G75*
G02*
X180036577Y-121982502I493168J1011143D01*
G01*
X180291437Y-121459962D01*
G75*
G02*
X181795748Y-120941987I1011143J-493168D01*
G01*
X181795748Y-120941987D01*
G75*
G02*
X182313723Y-122446298I-493168J-1011143D01*
G01*
X182058863Y-122968838D01*
G75*
G02*
X180554552Y-123486813I-1011143J493168D01*
G01*
G37*
G36*
G01*
X186332042Y-123561019D02*
X186332042Y-123561019D01*
G75*
G02*
X186635617Y-125122778I-629092J-932667D01*
G01*
X186310515Y-125604762D01*
G75*
G02*
X184748756Y-125908337I-932667J629092D01*
G01*
X184748756Y-125908337D01*
G75*
G02*
X184445181Y-124346578I629092J932667D01*
G01*
X184770283Y-123864594D01*
G75*
G02*
X186332042Y-123561019I932667J-629092D01*
G01*
G37*
D12*
X179522636Y-132657193D03*
G36*
G01*
X185766242Y-128428495D02*
X185766242Y-128428495D01*
G75*
G02*
X184431925Y-127561980I-233901J1100416D01*
G01*
X184024095Y-125643288D01*
G75*
G02*
X184890610Y-124308971I1100416J233901D01*
G01*
X184890610Y-124308971D01*
G75*
G02*
X186224927Y-125175486I233901J-1100416D01*
G01*
X186632757Y-127094178D01*
G75*
G02*
X185766242Y-128428495I-1100416J-233901D01*
G01*
G37*
G36*
G01*
X181868716Y-122564281D02*
X181868716Y-122564281D01*
G75*
G02*
X181146421Y-123981864I-1069939J-347644D01*
G01*
X179280871Y-124588018D01*
G75*
G02*
X177863288Y-123865723I-347644J1069939D01*
G01*
X177863288Y-123865723D01*
G75*
G02*
X178585583Y-122448140I1069939J347644D01*
G01*
X180451133Y-121841986D01*
G75*
G02*
X181868716Y-122564281I347644J-1069939D01*
G01*
G37*
D10*
X185127848Y-125408682D03*
D13*
X176563375Y-125082784D03*
X185362193Y-130162784D03*
D14*
X180962784Y-127622784D03*
D10*
X140652500Y-61595000D03*
D11*
X139382500Y-71755000D03*
D10*
X135572500Y-61595000D03*
X140612500Y-62675000D03*
G36*
G01*
X140534024Y-63297260D02*
X140534024Y-63297260D01*
G75*
G02*
X139490240Y-62096524I78476J1122260D01*
G01*
X139530794Y-61516562D01*
G75*
G02*
X140731530Y-60472778I1122260J-78476D01*
G01*
X140731530Y-60472778D01*
G75*
G02*
X141775314Y-61673514I-78476J-1122260D01*
G01*
X141734760Y-62253476D01*
G75*
G02*
X140534024Y-63297260I-1122260J78476D01*
G01*
G37*
G36*
G01*
X135493470Y-60472778D02*
X135493470Y-60472778D01*
G75*
G02*
X136694206Y-61516562I78476J-1122260D01*
G01*
X136734760Y-62096524D01*
G75*
G02*
X135690976Y-63297260I-1122260J-78476D01*
G01*
X135690976Y-63297260D01*
G75*
G02*
X134490240Y-62253476I-78476J1122260D01*
G01*
X134449686Y-61673514D01*
G75*
G02*
X135493470Y-60472778I1122260J78476D01*
G01*
G37*
D12*
X136842500Y-71755000D03*
G36*
G01*
X133549728Y-64971038D02*
X133549728Y-64971038D01*
G75*
G02*
X133466462Y-63382228I752772J836038D01*
G01*
X134779000Y-61924508D01*
G75*
G02*
X136367810Y-61841242I836038J-752772D01*
G01*
X136367810Y-61841242D01*
G75*
G02*
X136451076Y-63430052I-752772J-836038D01*
G01*
X135138538Y-64887772D01*
G75*
G02*
X133549728Y-64971038I-836038J752772D01*
G01*
G37*
G36*
G01*
X139857190Y-61841242D02*
X139857190Y-61841242D01*
G75*
G02*
X141446000Y-61924508I752772J-836038D01*
G01*
X142758538Y-63382228D01*
G75*
G02*
X142675272Y-64971038I-836038J-752772D01*
G01*
X142675272Y-64971038D01*
G75*
G02*
X141086462Y-64887772I-752772J836038D01*
G01*
X139773924Y-63430052D01*
G75*
G02*
X139857190Y-61841242I836038J752772D01*
G01*
G37*
D10*
X135612500Y-62675000D03*
D13*
X143192500Y-66675000D03*
X133032500Y-66675000D03*
D14*
X138112500Y-66675000D03*
X61912500Y-66675000D03*
D13*
X56832500Y-66675000D03*
X66992500Y-66675000D03*
D10*
X59412500Y-62675000D03*
G36*
G01*
X63657190Y-61841242D02*
X63657190Y-61841242D01*
G75*
G02*
X65246000Y-61924508I752772J-836038D01*
G01*
X66558538Y-63382228D01*
G75*
G02*
X66475272Y-64971038I-836038J-752772D01*
G01*
X66475272Y-64971038D01*
G75*
G02*
X64886462Y-64887772I-752772J836038D01*
G01*
X63573924Y-63430052D01*
G75*
G02*
X63657190Y-61841242I836038J752772D01*
G01*
G37*
G36*
G01*
X57349728Y-64971038D02*
X57349728Y-64971038D01*
G75*
G02*
X57266462Y-63382228I752772J836038D01*
G01*
X58579000Y-61924508D01*
G75*
G02*
X60167810Y-61841242I836038J-752772D01*
G01*
X60167810Y-61841242D01*
G75*
G02*
X60251076Y-63430052I-752772J-836038D01*
G01*
X58938538Y-64887772D01*
G75*
G02*
X57349728Y-64971038I-836038J752772D01*
G01*
G37*
D12*
X60642500Y-71755000D03*
G36*
G01*
X59293470Y-60472778D02*
X59293470Y-60472778D01*
G75*
G02*
X60494206Y-61516562I78476J-1122260D01*
G01*
X60534760Y-62096524D01*
G75*
G02*
X59490976Y-63297260I-1122260J-78476D01*
G01*
X59490976Y-63297260D01*
G75*
G02*
X58290240Y-62253476I-78476J1122260D01*
G01*
X58249686Y-61673514D01*
G75*
G02*
X59293470Y-60472778I1122260J78476D01*
G01*
G37*
G36*
G01*
X64334024Y-63297260D02*
X64334024Y-63297260D01*
G75*
G02*
X63290240Y-62096524I78476J1122260D01*
G01*
X63330794Y-61516562D01*
G75*
G02*
X64531530Y-60472778I1122260J-78476D01*
G01*
X64531530Y-60472778D01*
G75*
G02*
X65575314Y-61673514I-78476J-1122260D01*
G01*
X65534760Y-62253476D01*
G75*
G02*
X64334024Y-63297260I-1122260J78476D01*
G01*
G37*
D10*
X64412500Y-62675000D03*
X59372500Y-61595000D03*
D11*
X63182500Y-71755000D03*
D10*
X64452500Y-61595000D03*
X50165000Y-99695000D03*
D11*
X48895000Y-109855000D03*
D10*
X45085000Y-99695000D03*
X50125000Y-100775000D03*
G36*
G01*
X50046524Y-101397260D02*
X50046524Y-101397260D01*
G75*
G02*
X49002740Y-100196524I78476J1122260D01*
G01*
X49043294Y-99616562D01*
G75*
G02*
X50244030Y-98572778I1122260J-78476D01*
G01*
X50244030Y-98572778D01*
G75*
G02*
X51287814Y-99773514I-78476J-1122260D01*
G01*
X51247260Y-100353476D01*
G75*
G02*
X50046524Y-101397260I-1122260J78476D01*
G01*
G37*
G36*
G01*
X45005970Y-98572778D02*
X45005970Y-98572778D01*
G75*
G02*
X46206706Y-99616562I78476J-1122260D01*
G01*
X46247260Y-100196524D01*
G75*
G02*
X45203476Y-101397260I-1122260J-78476D01*
G01*
X45203476Y-101397260D01*
G75*
G02*
X44002740Y-100353476I-78476J1122260D01*
G01*
X43962186Y-99773514D01*
G75*
G02*
X45005970Y-98572778I1122260J78476D01*
G01*
G37*
D12*
X46355000Y-109855000D03*
G36*
G01*
X43062228Y-103071038D02*
X43062228Y-103071038D01*
G75*
G02*
X42978962Y-101482228I752772J836038D01*
G01*
X44291500Y-100024508D01*
G75*
G02*
X45880310Y-99941242I836038J-752772D01*
G01*
X45880310Y-99941242D01*
G75*
G02*
X45963576Y-101530052I-752772J-836038D01*
G01*
X44651038Y-102987772D01*
G75*
G02*
X43062228Y-103071038I-836038J752772D01*
G01*
G37*
G36*
G01*
X49369690Y-99941242D02*
X49369690Y-99941242D01*
G75*
G02*
X50958500Y-100024508I752772J-836038D01*
G01*
X52271038Y-101482228D01*
G75*
G02*
X52187772Y-103071038I-836038J-752772D01*
G01*
X52187772Y-103071038D01*
G75*
G02*
X50598962Y-102987772I-752772J836038D01*
G01*
X49286424Y-101530052D01*
G75*
G02*
X49369690Y-99941242I836038J752772D01*
G01*
G37*
D10*
X45125000Y-100775000D03*
D13*
X52705000Y-104775000D03*
X42545000Y-104775000D03*
D14*
X47625000Y-104775000D03*
D10*
X69215000Y-99695000D03*
D11*
X67945000Y-109855000D03*
D10*
X64135000Y-99695000D03*
X69175000Y-100775000D03*
G36*
G01*
X69096524Y-101397260D02*
X69096524Y-101397260D01*
G75*
G02*
X68052740Y-100196524I78476J1122260D01*
G01*
X68093294Y-99616562D01*
G75*
G02*
X69294030Y-98572778I1122260J-78476D01*
G01*
X69294030Y-98572778D01*
G75*
G02*
X70337814Y-99773514I-78476J-1122260D01*
G01*
X70297260Y-100353476D01*
G75*
G02*
X69096524Y-101397260I-1122260J78476D01*
G01*
G37*
G36*
G01*
X64055970Y-98572778D02*
X64055970Y-98572778D01*
G75*
G02*
X65256706Y-99616562I78476J-1122260D01*
G01*
X65297260Y-100196524D01*
G75*
G02*
X64253476Y-101397260I-1122260J-78476D01*
G01*
X64253476Y-101397260D01*
G75*
G02*
X63052740Y-100353476I-78476J1122260D01*
G01*
X63012186Y-99773514D01*
G75*
G02*
X64055970Y-98572778I1122260J78476D01*
G01*
G37*
D12*
X65405000Y-109855000D03*
G36*
G01*
X62112228Y-103071038D02*
X62112228Y-103071038D01*
G75*
G02*
X62028962Y-101482228I752772J836038D01*
G01*
X63341500Y-100024508D01*
G75*
G02*
X64930310Y-99941242I836038J-752772D01*
G01*
X64930310Y-99941242D01*
G75*
G02*
X65013576Y-101530052I-752772J-836038D01*
G01*
X63701038Y-102987772D01*
G75*
G02*
X62112228Y-103071038I-836038J752772D01*
G01*
G37*
G36*
G01*
X68419690Y-99941242D02*
X68419690Y-99941242D01*
G75*
G02*
X70008500Y-100024508I752772J-836038D01*
G01*
X71321038Y-101482228D01*
G75*
G02*
X71237772Y-103071038I-836038J-752772D01*
G01*
X71237772Y-103071038D01*
G75*
G02*
X69648962Y-102987772I-752772J836038D01*
G01*
X68336424Y-101530052D01*
G75*
G02*
X68419690Y-99941242I836038J752772D01*
G01*
G37*
D10*
X64175000Y-100775000D03*
D13*
X71755000Y-104775000D03*
X61595000Y-104775000D03*
D14*
X66675000Y-104775000D03*
D10*
X155280295Y-128926159D03*
G36*
X152601287Y-138011338D02*
G01*
X151648787Y-139661116D01*
X149999009Y-138708616D01*
X150951509Y-137058838D01*
X152601287Y-138011338D01*
G37*
X159679705Y-131466159D03*
X154774936Y-129881466D03*
G36*
G01*
X154531768Y-130459597D02*
X154531768Y-130459597D01*
G75*
G02*
X154013793Y-128955286I493168J1011143D01*
G01*
X154268653Y-128432746D01*
G75*
G02*
X155772964Y-127914771I1011143J-493168D01*
G01*
X155772964Y-127914771D01*
G75*
G02*
X156290939Y-129419082I-493168J-1011143D01*
G01*
X156036079Y-129941622D01*
G75*
G02*
X154531768Y-130459597I-1011143J493168D01*
G01*
G37*
G36*
G01*
X160309258Y-130533803D02*
X160309258Y-130533803D01*
G75*
G02*
X160612833Y-132095562I-629092J-932667D01*
G01*
X160287731Y-132577546D01*
G75*
G02*
X158725972Y-132881121I-932667J629092D01*
G01*
X158725972Y-132881121D01*
G75*
G02*
X158422397Y-131319362I629092J932667D01*
G01*
X158747499Y-130837378D01*
G75*
G02*
X160309258Y-130533803I932667J-629092D01*
G01*
G37*
D12*
X153499852Y-139629977D03*
G36*
G01*
X159743458Y-135401279D02*
X159743458Y-135401279D01*
G75*
G02*
X158409141Y-134534764I-233901J1100416D01*
G01*
X158001311Y-132616072D01*
G75*
G02*
X158867826Y-131281755I1100416J233901D01*
G01*
X158867826Y-131281755D01*
G75*
G02*
X160202143Y-132148270I233901J-1100416D01*
G01*
X160609973Y-134066962D01*
G75*
G02*
X159743458Y-135401279I-1100416J-233901D01*
G01*
G37*
G36*
G01*
X155845932Y-129537065D02*
X155845932Y-129537065D01*
G75*
G02*
X155123637Y-130954648I-1069939J-347644D01*
G01*
X153258087Y-131560802D01*
G75*
G02*
X151840504Y-130838507I-347644J1069939D01*
G01*
X151840504Y-130838507D01*
G75*
G02*
X152562799Y-129420924I1069939J347644D01*
G01*
X154428349Y-128814770D01*
G75*
G02*
X155845932Y-129537065I347644J-1069939D01*
G01*
G37*
D10*
X159105064Y-132381466D03*
D13*
X150540591Y-132055568D03*
X159339409Y-137135568D03*
D14*
X154940000Y-134595568D03*
X152400000Y-85725000D03*
D13*
X147320000Y-85725000D03*
X157480000Y-85725000D03*
D10*
X149900000Y-81725000D03*
G36*
G01*
X154144690Y-80891242D02*
X154144690Y-80891242D01*
G75*
G02*
X155733500Y-80974508I752772J-836038D01*
G01*
X157046038Y-82432228D01*
G75*
G02*
X156962772Y-84021038I-836038J-752772D01*
G01*
X156962772Y-84021038D01*
G75*
G02*
X155373962Y-83937772I-752772J836038D01*
G01*
X154061424Y-82480052D01*
G75*
G02*
X154144690Y-80891242I836038J752772D01*
G01*
G37*
G36*
G01*
X147837228Y-84021038D02*
X147837228Y-84021038D01*
G75*
G02*
X147753962Y-82432228I752772J836038D01*
G01*
X149066500Y-80974508D01*
G75*
G02*
X150655310Y-80891242I836038J-752772D01*
G01*
X150655310Y-80891242D01*
G75*
G02*
X150738576Y-82480052I-752772J-836038D01*
G01*
X149426038Y-83937772D01*
G75*
G02*
X147837228Y-84021038I-836038J752772D01*
G01*
G37*
D12*
X151130000Y-90805000D03*
G36*
G01*
X149780970Y-79522778D02*
X149780970Y-79522778D01*
G75*
G02*
X150981706Y-80566562I78476J-1122260D01*
G01*
X151022260Y-81146524D01*
G75*
G02*
X149978476Y-82347260I-1122260J-78476D01*
G01*
X149978476Y-82347260D01*
G75*
G02*
X148777740Y-81303476I-78476J1122260D01*
G01*
X148737186Y-80723514D01*
G75*
G02*
X149780970Y-79522778I1122260J78476D01*
G01*
G37*
G36*
G01*
X154821524Y-82347260D02*
X154821524Y-82347260D01*
G75*
G02*
X153777740Y-81146524I78476J1122260D01*
G01*
X153818294Y-80566562D01*
G75*
G02*
X155019030Y-79522778I1122260J-78476D01*
G01*
X155019030Y-79522778D01*
G75*
G02*
X156062814Y-80723514I-78476J-1122260D01*
G01*
X156022260Y-81303476D01*
G75*
G02*
X154821524Y-82347260I-1122260J78476D01*
G01*
G37*
D10*
X154900000Y-81725000D03*
X149860000Y-80645000D03*
D11*
X153670000Y-90805000D03*
D10*
X154940000Y-80645000D03*
X174330295Y-95930591D03*
G36*
X171651287Y-105015770D02*
G01*
X170698787Y-106665548D01*
X169049009Y-105713048D01*
X170001509Y-104063270D01*
X171651287Y-105015770D01*
G37*
X178729705Y-98470591D03*
X173824936Y-96885898D03*
G36*
G01*
X173581768Y-97464029D02*
X173581768Y-97464029D01*
G75*
G02*
X173063793Y-95959718I493168J1011143D01*
G01*
X173318653Y-95437178D01*
G75*
G02*
X174822964Y-94919203I1011143J-493168D01*
G01*
X174822964Y-94919203D01*
G75*
G02*
X175340939Y-96423514I-493168J-1011143D01*
G01*
X175086079Y-96946054D01*
G75*
G02*
X173581768Y-97464029I-1011143J493168D01*
G01*
G37*
G36*
G01*
X179359258Y-97538235D02*
X179359258Y-97538235D01*
G75*
G02*
X179662833Y-99099994I-629092J-932667D01*
G01*
X179337731Y-99581978D01*
G75*
G02*
X177775972Y-99885553I-932667J629092D01*
G01*
X177775972Y-99885553D01*
G75*
G02*
X177472397Y-98323794I629092J932667D01*
G01*
X177797499Y-97841810D01*
G75*
G02*
X179359258Y-97538235I932667J-629092D01*
G01*
G37*
D12*
X172549852Y-106634409D03*
G36*
G01*
X178793458Y-102405711D02*
X178793458Y-102405711D01*
G75*
G02*
X177459141Y-101539196I-233901J1100416D01*
G01*
X177051311Y-99620504D01*
G75*
G02*
X177917826Y-98286187I1100416J233901D01*
G01*
X177917826Y-98286187D01*
G75*
G02*
X179252143Y-99152702I233901J-1100416D01*
G01*
X179659973Y-101071394D01*
G75*
G02*
X178793458Y-102405711I-1100416J-233901D01*
G01*
G37*
G36*
G01*
X174895932Y-96541497D02*
X174895932Y-96541497D01*
G75*
G02*
X174173637Y-97959080I-1069939J-347644D01*
G01*
X172308087Y-98565234D01*
G75*
G02*
X170890504Y-97842939I-347644J1069939D01*
G01*
X170890504Y-97842939D01*
G75*
G02*
X171612799Y-96425356I1069939J347644D01*
G01*
X173478349Y-95819202D01*
G75*
G02*
X174895932Y-96541497I347644J-1069939D01*
G01*
G37*
D10*
X178155064Y-99385898D03*
D13*
X169590591Y-99060000D03*
X178389409Y-104140000D03*
D14*
X173990000Y-101600000D03*
D10*
X190828079Y-105455591D03*
G36*
X188149071Y-114540770D02*
G01*
X187196571Y-116190548D01*
X185546793Y-115238048D01*
X186499293Y-113588270D01*
X188149071Y-114540770D01*
G37*
X195227489Y-107995591D03*
X190322720Y-106410898D03*
G36*
G01*
X190079552Y-106989029D02*
X190079552Y-106989029D01*
G75*
G02*
X189561577Y-105484718I493168J1011143D01*
G01*
X189816437Y-104962178D01*
G75*
G02*
X191320748Y-104444203I1011143J-493168D01*
G01*
X191320748Y-104444203D01*
G75*
G02*
X191838723Y-105948514I-493168J-1011143D01*
G01*
X191583863Y-106471054D01*
G75*
G02*
X190079552Y-106989029I-1011143J493168D01*
G01*
G37*
G36*
G01*
X195857042Y-107063235D02*
X195857042Y-107063235D01*
G75*
G02*
X196160617Y-108624994I-629092J-932667D01*
G01*
X195835515Y-109106978D01*
G75*
G02*
X194273756Y-109410553I-932667J629092D01*
G01*
X194273756Y-109410553D01*
G75*
G02*
X193970181Y-107848794I629092J932667D01*
G01*
X194295283Y-107366810D01*
G75*
G02*
X195857042Y-107063235I932667J-629092D01*
G01*
G37*
D12*
X189047636Y-116159409D03*
G36*
G01*
X195291242Y-111930711D02*
X195291242Y-111930711D01*
G75*
G02*
X193956925Y-111064196I-233901J1100416D01*
G01*
X193549095Y-109145504D01*
G75*
G02*
X194415610Y-107811187I1100416J233901D01*
G01*
X194415610Y-107811187D01*
G75*
G02*
X195749927Y-108677702I233901J-1100416D01*
G01*
X196157757Y-110596394D01*
G75*
G02*
X195291242Y-111930711I-1100416J-233901D01*
G01*
G37*
G36*
G01*
X191393716Y-106066497D02*
X191393716Y-106066497D01*
G75*
G02*
X190671421Y-107484080I-1069939J-347644D01*
G01*
X188805871Y-108090234D01*
G75*
G02*
X187388288Y-107367939I-347644J1069939D01*
G01*
X187388288Y-107367939D01*
G75*
G02*
X188110583Y-105950356I1069939J347644D01*
G01*
X189976133Y-105344202D01*
G75*
G02*
X191393716Y-106066497I347644J-1069939D01*
G01*
G37*
D10*
X194652848Y-108910898D03*
D13*
X186088375Y-108585000D03*
X194887193Y-113665000D03*
D14*
X190487784Y-111125000D03*
D10*
X126365000Y-99695000D03*
D11*
X125095000Y-109855000D03*
D10*
X121285000Y-99695000D03*
X126325000Y-100775000D03*
G36*
G01*
X126246524Y-101397260D02*
X126246524Y-101397260D01*
G75*
G02*
X125202740Y-100196524I78476J1122260D01*
G01*
X125243294Y-99616562D01*
G75*
G02*
X126444030Y-98572778I1122260J-78476D01*
G01*
X126444030Y-98572778D01*
G75*
G02*
X127487814Y-99773514I-78476J-1122260D01*
G01*
X127447260Y-100353476D01*
G75*
G02*
X126246524Y-101397260I-1122260J78476D01*
G01*
G37*
G36*
G01*
X121205970Y-98572778D02*
X121205970Y-98572778D01*
G75*
G02*
X122406706Y-99616562I78476J-1122260D01*
G01*
X122447260Y-100196524D01*
G75*
G02*
X121403476Y-101397260I-1122260J-78476D01*
G01*
X121403476Y-101397260D01*
G75*
G02*
X120202740Y-100353476I-78476J1122260D01*
G01*
X120162186Y-99773514D01*
G75*
G02*
X121205970Y-98572778I1122260J78476D01*
G01*
G37*
D12*
X122555000Y-109855000D03*
G36*
G01*
X119262228Y-103071038D02*
X119262228Y-103071038D01*
G75*
G02*
X119178962Y-101482228I752772J836038D01*
G01*
X120491500Y-100024508D01*
G75*
G02*
X122080310Y-99941242I836038J-752772D01*
G01*
X122080310Y-99941242D01*
G75*
G02*
X122163576Y-101530052I-752772J-836038D01*
G01*
X120851038Y-102987772D01*
G75*
G02*
X119262228Y-103071038I-836038J752772D01*
G01*
G37*
G36*
G01*
X125569690Y-99941242D02*
X125569690Y-99941242D01*
G75*
G02*
X127158500Y-100024508I752772J-836038D01*
G01*
X128471038Y-101482228D01*
G75*
G02*
X128387772Y-103071038I-836038J-752772D01*
G01*
X128387772Y-103071038D01*
G75*
G02*
X126798962Y-102987772I-752772J836038D01*
G01*
X125486424Y-101530052D01*
G75*
G02*
X125569690Y-99941242I836038J752772D01*
G01*
G37*
D10*
X121325000Y-100775000D03*
D13*
X128905000Y-104775000D03*
X118745000Y-104775000D03*
D14*
X123825000Y-104775000D03*
X133350000Y-85725000D03*
D13*
X128270000Y-85725000D03*
X138430000Y-85725000D03*
D10*
X130850000Y-81725000D03*
G36*
G01*
X135094690Y-80891242D02*
X135094690Y-80891242D01*
G75*
G02*
X136683500Y-80974508I752772J-836038D01*
G01*
X137996038Y-82432228D01*
G75*
G02*
X137912772Y-84021038I-836038J-752772D01*
G01*
X137912772Y-84021038D01*
G75*
G02*
X136323962Y-83937772I-752772J836038D01*
G01*
X135011424Y-82480052D01*
G75*
G02*
X135094690Y-80891242I836038J752772D01*
G01*
G37*
G36*
G01*
X128787228Y-84021038D02*
X128787228Y-84021038D01*
G75*
G02*
X128703962Y-82432228I752772J836038D01*
G01*
X130016500Y-80974508D01*
G75*
G02*
X131605310Y-80891242I836038J-752772D01*
G01*
X131605310Y-80891242D01*
G75*
G02*
X131688576Y-82480052I-752772J-836038D01*
G01*
X130376038Y-83937772D01*
G75*
G02*
X128787228Y-84021038I-836038J752772D01*
G01*
G37*
D12*
X132080000Y-90805000D03*
G36*
G01*
X130730970Y-79522778D02*
X130730970Y-79522778D01*
G75*
G02*
X131931706Y-80566562I78476J-1122260D01*
G01*
X131972260Y-81146524D01*
G75*
G02*
X130928476Y-82347260I-1122260J-78476D01*
G01*
X130928476Y-82347260D01*
G75*
G02*
X129727740Y-81303476I-78476J1122260D01*
G01*
X129687186Y-80723514D01*
G75*
G02*
X130730970Y-79522778I1122260J78476D01*
G01*
G37*
G36*
G01*
X135771524Y-82347260D02*
X135771524Y-82347260D01*
G75*
G02*
X134727740Y-81146524I78476J1122260D01*
G01*
X134768294Y-80566562D01*
G75*
G02*
X135969030Y-79522778I1122260J-78476D01*
G01*
X135969030Y-79522778D01*
G75*
G02*
X137012814Y-80723514I-78476J-1122260D01*
G01*
X136972260Y-81303476D01*
G75*
G02*
X135771524Y-82347260I-1122260J78476D01*
G01*
G37*
D10*
X135850000Y-81725000D03*
X130810000Y-80645000D03*
D11*
X134620000Y-90805000D03*
D10*
X135890000Y-80645000D03*
X97790000Y-80645000D03*
D11*
X96520000Y-90805000D03*
D10*
X92710000Y-80645000D03*
X97750000Y-81725000D03*
G36*
G01*
X97671524Y-82347260D02*
X97671524Y-82347260D01*
G75*
G02*
X96627740Y-81146524I78476J1122260D01*
G01*
X96668294Y-80566562D01*
G75*
G02*
X97869030Y-79522778I1122260J-78476D01*
G01*
X97869030Y-79522778D01*
G75*
G02*
X98912814Y-80723514I-78476J-1122260D01*
G01*
X98872260Y-81303476D01*
G75*
G02*
X97671524Y-82347260I-1122260J78476D01*
G01*
G37*
G36*
G01*
X92630970Y-79522778D02*
X92630970Y-79522778D01*
G75*
G02*
X93831706Y-80566562I78476J-1122260D01*
G01*
X93872260Y-81146524D01*
G75*
G02*
X92828476Y-82347260I-1122260J-78476D01*
G01*
X92828476Y-82347260D01*
G75*
G02*
X91627740Y-81303476I-78476J1122260D01*
G01*
X91587186Y-80723514D01*
G75*
G02*
X92630970Y-79522778I1122260J78476D01*
G01*
G37*
D12*
X93980000Y-90805000D03*
G36*
G01*
X90687228Y-84021038D02*
X90687228Y-84021038D01*
G75*
G02*
X90603962Y-82432228I752772J836038D01*
G01*
X91916500Y-80974508D01*
G75*
G02*
X93505310Y-80891242I836038J-752772D01*
G01*
X93505310Y-80891242D01*
G75*
G02*
X93588576Y-82480052I-752772J-836038D01*
G01*
X92276038Y-83937772D01*
G75*
G02*
X90687228Y-84021038I-836038J752772D01*
G01*
G37*
G36*
G01*
X96994690Y-80891242D02*
X96994690Y-80891242D01*
G75*
G02*
X98583500Y-80974508I752772J-836038D01*
G01*
X99896038Y-82432228D01*
G75*
G02*
X99812772Y-84021038I-836038J-752772D01*
G01*
X99812772Y-84021038D01*
G75*
G02*
X98223962Y-83937772I-752772J836038D01*
G01*
X96911424Y-82480052D01*
G75*
G02*
X96994690Y-80891242I836038J752772D01*
G01*
G37*
D10*
X92750000Y-81725000D03*
D13*
X100330000Y-85725000D03*
X90170000Y-85725000D03*
D14*
X95250000Y-85725000D03*
D10*
X102552500Y-61595000D03*
D11*
X101282500Y-71755000D03*
D10*
X97472500Y-61595000D03*
X102512500Y-62675000D03*
G36*
G01*
X102434024Y-63297260D02*
X102434024Y-63297260D01*
G75*
G02*
X101390240Y-62096524I78476J1122260D01*
G01*
X101430794Y-61516562D01*
G75*
G02*
X102631530Y-60472778I1122260J-78476D01*
G01*
X102631530Y-60472778D01*
G75*
G02*
X103675314Y-61673514I-78476J-1122260D01*
G01*
X103634760Y-62253476D01*
G75*
G02*
X102434024Y-63297260I-1122260J78476D01*
G01*
G37*
G36*
G01*
X97393470Y-60472778D02*
X97393470Y-60472778D01*
G75*
G02*
X98594206Y-61516562I78476J-1122260D01*
G01*
X98634760Y-62096524D01*
G75*
G02*
X97590976Y-63297260I-1122260J-78476D01*
G01*
X97590976Y-63297260D01*
G75*
G02*
X96390240Y-62253476I-78476J1122260D01*
G01*
X96349686Y-61673514D01*
G75*
G02*
X97393470Y-60472778I1122260J78476D01*
G01*
G37*
D12*
X98742500Y-71755000D03*
G36*
G01*
X95449728Y-64971038D02*
X95449728Y-64971038D01*
G75*
G02*
X95366462Y-63382228I752772J836038D01*
G01*
X96679000Y-61924508D01*
G75*
G02*
X98267810Y-61841242I836038J-752772D01*
G01*
X98267810Y-61841242D01*
G75*
G02*
X98351076Y-63430052I-752772J-836038D01*
G01*
X97038538Y-64887772D01*
G75*
G02*
X95449728Y-64971038I-836038J752772D01*
G01*
G37*
G36*
G01*
X101757190Y-61841242D02*
X101757190Y-61841242D01*
G75*
G02*
X103346000Y-61924508I752772J-836038D01*
G01*
X104658538Y-63382228D01*
G75*
G02*
X104575272Y-64971038I-836038J-752772D01*
G01*
X104575272Y-64971038D01*
G75*
G02*
X102986462Y-64887772I-752772J836038D01*
G01*
X101673924Y-63430052D01*
G75*
G02*
X101757190Y-61841242I836038J752772D01*
G01*
G37*
D10*
X97512500Y-62675000D03*
D13*
X105092500Y-66675000D03*
X94932500Y-66675000D03*
D14*
X100012500Y-66675000D03*
D10*
X171778079Y-138451159D03*
G36*
X169099071Y-147536338D02*
G01*
X168146571Y-149186116D01*
X166496793Y-148233616D01*
X167449293Y-146583838D01*
X169099071Y-147536338D01*
G37*
X176177489Y-140991159D03*
X171272720Y-139406466D03*
G36*
G01*
X171029552Y-139984597D02*
X171029552Y-139984597D01*
G75*
G02*
X170511577Y-138480286I493168J1011143D01*
G01*
X170766437Y-137957746D01*
G75*
G02*
X172270748Y-137439771I1011143J-493168D01*
G01*
X172270748Y-137439771D01*
G75*
G02*
X172788723Y-138944082I-493168J-1011143D01*
G01*
X172533863Y-139466622D01*
G75*
G02*
X171029552Y-139984597I-1011143J493168D01*
G01*
G37*
G36*
G01*
X176807042Y-140058803D02*
X176807042Y-140058803D01*
G75*
G02*
X177110617Y-141620562I-629092J-932667D01*
G01*
X176785515Y-142102546D01*
G75*
G02*
X175223756Y-142406121I-932667J629092D01*
G01*
X175223756Y-142406121D01*
G75*
G02*
X174920181Y-140844362I629092J932667D01*
G01*
X175245283Y-140362378D01*
G75*
G02*
X176807042Y-140058803I932667J-629092D01*
G01*
G37*
D12*
X169997636Y-149154977D03*
G36*
G01*
X176241242Y-144926279D02*
X176241242Y-144926279D01*
G75*
G02*
X174906925Y-144059764I-233901J1100416D01*
G01*
X174499095Y-142141072D01*
G75*
G02*
X175365610Y-140806755I1100416J233901D01*
G01*
X175365610Y-140806755D01*
G75*
G02*
X176699927Y-141673270I233901J-1100416D01*
G01*
X177107757Y-143591962D01*
G75*
G02*
X176241242Y-144926279I-1100416J-233901D01*
G01*
G37*
G36*
G01*
X172343716Y-139062065D02*
X172343716Y-139062065D01*
G75*
G02*
X171621421Y-140479648I-1069939J-347644D01*
G01*
X169755871Y-141085802D01*
G75*
G02*
X168338288Y-140363507I-347644J1069939D01*
G01*
X168338288Y-140363507D01*
G75*
G02*
X169060583Y-138945924I1069939J347644D01*
G01*
X170926133Y-138339770D01*
G75*
G02*
X172343716Y-139062065I347644J-1069939D01*
G01*
G37*
D10*
X175602848Y-141906466D03*
D13*
X167038375Y-141580568D03*
X175837193Y-146660568D03*
D14*
X171437784Y-144120568D03*
D10*
X164805295Y-112428375D03*
G36*
X162126287Y-121513554D02*
G01*
X161173787Y-123163332D01*
X159524009Y-122210832D01*
X160476509Y-120561054D01*
X162126287Y-121513554D01*
G37*
X169204705Y-114968375D03*
X164299936Y-113383682D03*
G36*
G01*
X164056768Y-113961813D02*
X164056768Y-113961813D01*
G75*
G02*
X163538793Y-112457502I493168J1011143D01*
G01*
X163793653Y-111934962D01*
G75*
G02*
X165297964Y-111416987I1011143J-493168D01*
G01*
X165297964Y-111416987D01*
G75*
G02*
X165815939Y-112921298I-493168J-1011143D01*
G01*
X165561079Y-113443838D01*
G75*
G02*
X164056768Y-113961813I-1011143J493168D01*
G01*
G37*
G36*
G01*
X169834258Y-114036019D02*
X169834258Y-114036019D01*
G75*
G02*
X170137833Y-115597778I-629092J-932667D01*
G01*
X169812731Y-116079762D01*
G75*
G02*
X168250972Y-116383337I-932667J629092D01*
G01*
X168250972Y-116383337D01*
G75*
G02*
X167947397Y-114821578I629092J932667D01*
G01*
X168272499Y-114339594D01*
G75*
G02*
X169834258Y-114036019I932667J-629092D01*
G01*
G37*
D12*
X163024852Y-123132193D03*
G36*
G01*
X169268458Y-118903495D02*
X169268458Y-118903495D01*
G75*
G02*
X167934141Y-118036980I-233901J1100416D01*
G01*
X167526311Y-116118288D01*
G75*
G02*
X168392826Y-114783971I1100416J233901D01*
G01*
X168392826Y-114783971D01*
G75*
G02*
X169727143Y-115650486I233901J-1100416D01*
G01*
X170134973Y-117569178D01*
G75*
G02*
X169268458Y-118903495I-1100416J-233901D01*
G01*
G37*
G36*
G01*
X165370932Y-113039281D02*
X165370932Y-113039281D01*
G75*
G02*
X164648637Y-114456864I-1069939J-347644D01*
G01*
X162783087Y-115063018D01*
G75*
G02*
X161365504Y-114340723I-347644J1069939D01*
G01*
X161365504Y-114340723D01*
G75*
G02*
X162087799Y-112923140I1069939J347644D01*
G01*
X163953349Y-112316986D01*
G75*
G02*
X165370932Y-113039281I347644J-1069939D01*
G01*
G37*
D10*
X168630064Y-115883682D03*
D13*
X160065591Y-115557784D03*
X168864409Y-120637784D03*
D14*
X164465000Y-118097784D03*
D15*
X136837500Y-24675000D03*
D16*
X136837500Y-32475000D03*
D17*
X136837500Y-30150000D03*
X136837500Y-27000000D03*
D15*
X164674000Y-139394499D03*
G36*
X168281180Y-131546681D02*
G01*
X169666820Y-132346681D01*
X168866820Y-133732321D01*
X167481180Y-132932321D01*
X168281180Y-131546681D01*
G37*
G36*
X167191885Y-133833395D02*
G01*
X168231115Y-134433395D01*
X167631115Y-135472625D01*
X166591885Y-134872625D01*
X167191885Y-133833395D01*
G37*
G36*
X165616885Y-136561375D02*
G01*
X166656115Y-137161375D01*
X166056115Y-138200605D01*
X165016885Y-137600605D01*
X165616885Y-136561375D01*
G37*
X103500000Y-81825000D03*
D16*
X103500000Y-89625000D03*
D17*
X103500000Y-87300000D03*
X103500000Y-84150000D03*
D15*
X132075000Y-43725000D03*
D16*
X132075000Y-51525000D03*
D17*
X132075000Y-49200000D03*
X132075000Y-46050000D03*
D15*
X132075000Y-100875000D03*
D16*
X132075000Y-108675000D03*
D17*
X132075000Y-106350000D03*
X132075000Y-103200000D03*
D15*
X176067000Y-119431501D03*
G36*
X172459820Y-127279319D02*
G01*
X171074180Y-126479319D01*
X171874180Y-125093679D01*
X173259820Y-125893679D01*
X172459820Y-127279319D01*
G37*
G36*
X173549115Y-124992605D02*
G01*
X172509885Y-124392605D01*
X173109885Y-123353375D01*
X174149115Y-123953375D01*
X173549115Y-124992605D01*
G37*
G36*
X175124115Y-122264625D02*
G01*
X174084885Y-121664625D01*
X174684885Y-120625395D01*
X175724115Y-121225395D01*
X175124115Y-122264625D01*
G37*
X185719000Y-103048501D03*
G36*
X182111820Y-110896319D02*
G01*
X180726180Y-110096319D01*
X181526180Y-108710679D01*
X182911820Y-109510679D01*
X182111820Y-110896319D01*
G37*
G36*
X183201115Y-108609605D02*
G01*
X182161885Y-108009605D01*
X182761885Y-106970375D01*
X183801115Y-107570375D01*
X183201115Y-108609605D01*
G37*
G36*
X184776115Y-105881625D02*
G01*
X183736885Y-105281625D01*
X184336885Y-104242395D01*
X185376115Y-104842395D01*
X184776115Y-105881625D01*
G37*
X98737500Y-24675000D03*
D16*
X98737500Y-32475000D03*
D17*
X98737500Y-30150000D03*
X98737500Y-27000000D03*
D15*
X169209000Y-93142501D03*
G36*
X165601820Y-100990319D02*
G01*
X164216180Y-100190319D01*
X165016180Y-98804679D01*
X166401820Y-99604679D01*
X165601820Y-100990319D01*
G37*
G36*
X166691115Y-98703605D02*
G01*
X165651885Y-98103605D01*
X166251885Y-97064375D01*
X167291115Y-97664375D01*
X166691115Y-98703605D01*
G37*
G36*
X168266115Y-95975625D02*
G01*
X167226885Y-95375625D01*
X167826885Y-94336395D01*
X168866115Y-94936395D01*
X168266115Y-95975625D01*
G37*
X155887500Y-24675000D03*
D16*
X155887500Y-32475000D03*
D17*
X155887500Y-30150000D03*
X155887500Y-27000000D03*
D15*
X79687500Y-24675000D03*
D16*
X79687500Y-32475000D03*
D17*
X79687500Y-30150000D03*
X79687500Y-27000000D03*
D15*
X148037000Y-129996499D03*
G36*
X151644180Y-122148681D02*
G01*
X153029820Y-122948681D01*
X152229820Y-124334321D01*
X150844180Y-123534321D01*
X151644180Y-122148681D01*
G37*
G36*
X150554885Y-124435395D02*
G01*
X151594115Y-125035395D01*
X150994115Y-126074625D01*
X149954885Y-125474625D01*
X150554885Y-124435395D01*
G37*
G36*
X148979885Y-127163375D02*
G01*
X150019115Y-127763375D01*
X149419115Y-128802605D01*
X148379885Y-128202605D01*
X148979885Y-127163375D01*
G37*
X170225800Y-62775000D03*
D16*
X170225800Y-70575000D03*
D17*
X170225800Y-68250000D03*
X170225800Y-65100000D03*
D15*
X117787500Y-24675000D03*
D16*
X117787500Y-32475000D03*
D17*
X117787500Y-30150000D03*
X117787500Y-27000000D03*
D15*
X74925000Y-43725000D03*
D16*
X74925000Y-51525000D03*
D17*
X74925000Y-49200000D03*
X74925000Y-46050000D03*
D15*
X160650000Y-81825000D03*
D16*
X160650000Y-89625000D03*
D17*
X160650000Y-87300000D03*
X160650000Y-84150000D03*
D15*
X146362500Y-62775000D03*
D16*
X146362500Y-70575000D03*
D17*
X146362500Y-68250000D03*
X146362500Y-65100000D03*
D15*
X113025000Y-43725000D03*
D16*
X113025000Y-51525000D03*
D17*
X113025000Y-49200000D03*
X113025000Y-46050000D03*
D15*
X46350000Y-62775000D03*
D16*
X46350000Y-70575000D03*
D17*
X46350000Y-68250000D03*
X46350000Y-65100000D03*
D15*
X74925000Y-100875000D03*
D16*
X74925000Y-108675000D03*
D17*
X74925000Y-106350000D03*
X74925000Y-103200000D03*
D15*
X108262500Y-62775000D03*
D16*
X108262500Y-70575000D03*
D17*
X108262500Y-68250000D03*
X108262500Y-65100000D03*
D15*
X70162500Y-62775000D03*
D16*
X70162500Y-70575000D03*
D17*
X70162500Y-68250000D03*
X70162500Y-65100000D03*
D15*
X55875000Y-100875000D03*
D16*
X55875000Y-108675000D03*
D17*
X55875000Y-106350000D03*
X55875000Y-103200000D03*
D15*
X141600000Y-81825000D03*
D16*
X141600000Y-89625000D03*
D17*
X141600000Y-87300000D03*
X141600000Y-84150000D03*
D15*
X65400000Y-81825000D03*
D16*
X65400000Y-89625000D03*
D17*
X65400000Y-87300000D03*
X65400000Y-84150000D03*
D15*
X41587500Y-81825000D03*
D16*
X41587500Y-89625000D03*
D17*
X41587500Y-87300000D03*
X41587500Y-84150000D03*
D15*
X113025000Y-100875000D03*
D16*
X113025000Y-108675000D03*
D17*
X113025000Y-106350000D03*
X113025000Y-103200000D03*
D15*
X51112500Y-43725000D03*
D16*
X51112500Y-51525000D03*
D17*
X51112500Y-49200000D03*
X51112500Y-46050000D03*
D15*
X122550000Y-81825000D03*
D16*
X122550000Y-89625000D03*
D17*
X122550000Y-87300000D03*
X122550000Y-84150000D03*
D15*
X93975000Y-43725000D03*
D16*
X93975000Y-51525000D03*
D17*
X93975000Y-49200000D03*
X93975000Y-46050000D03*
D15*
X84450000Y-81825000D03*
D16*
X84450000Y-89625000D03*
D17*
X84450000Y-87300000D03*
X84450000Y-84150000D03*
G36*
G01*
X144919164Y-120607649D02*
X144919164Y-120607649D01*
G75*
G02*
X146480923Y-120304074I932667J-629092D01*
G01*
X146962907Y-120629176D01*
G75*
G02*
X147266482Y-122190935I-629092J-932667D01*
G01*
X147266482Y-122190935D01*
G75*
G02*
X145704723Y-122494510I-932667J629092D01*
G01*
X145222739Y-122169408D01*
G75*
G02*
X144919164Y-120607649I629092J932667D01*
G01*
G37*
G36*
G01*
X149885514Y-117654641D02*
X149885514Y-117654641D01*
G75*
G02*
X148381203Y-118172616I-1011143J493168D01*
G01*
X147858663Y-117917756D01*
G75*
G02*
X147340688Y-116413445I493168J1011143D01*
G01*
X147340688Y-116413445D01*
G75*
G02*
X148844999Y-115895470I1011143J-493168D01*
G01*
X149367539Y-116150330D01*
G75*
G02*
X149885514Y-117654641I-493168J-1011143D01*
G01*
G37*
D10*
X146334126Y-121561382D03*
D13*
X145744717Y-112422268D03*
D10*
X147918819Y-116656613D03*
D12*
X139440308Y-113181825D03*
D10*
X145418819Y-120986741D03*
G36*
G01*
X146961778Y-113722181D02*
X146961778Y-113722181D01*
G75*
G02*
X148379361Y-114444476I347644J-1069939D01*
G01*
X148985515Y-116310026D01*
G75*
G02*
X148263220Y-117727609I-1069939J-347644D01*
G01*
X148263220Y-117727609D01*
G75*
G02*
X146845637Y-117005314I-347644J1069939D01*
G01*
X146239483Y-115139764D01*
G75*
G02*
X146961778Y-113722181I1069939J347644D01*
G01*
G37*
D14*
X143204717Y-116821677D03*
D10*
X148874126Y-117161972D03*
G36*
G01*
X146518530Y-120749503D02*
X146518530Y-120749503D01*
G75*
G02*
X145652015Y-122083820I-1100416J-233901D01*
G01*
X143733323Y-122491650D01*
G75*
G02*
X142399006Y-121625135I-233901J1100416D01*
G01*
X142399006Y-121625135D01*
G75*
G02*
X143265521Y-120290818I1100416J233901D01*
G01*
X145184213Y-119882988D01*
G75*
G02*
X146518530Y-120749503I233901J-1100416D01*
G01*
G37*
D13*
X140664717Y-121221086D03*
G36*
X137821669Y-114080390D02*
G01*
X139471447Y-115032890D01*
X138518947Y-116682668D01*
X136869169Y-115730168D01*
X137821669Y-114080390D01*
G37*
D14*
X130086677Y-123032788D03*
X142024677Y-102355566D03*
D25*
X143284904Y-130652788D03*
X155222904Y-109975566D03*
D15*
X93975000Y-100875000D03*
D16*
X93975000Y-108675000D03*
D17*
X93975000Y-106350000D03*
X93975000Y-103200000D03*
D15*
X151125000Y-43725000D03*
D16*
X151125000Y-51525000D03*
D17*
X151125000Y-49200000D03*
X151125000Y-46050000D03*
D15*
X89212500Y-62775000D03*
D16*
X89212500Y-70575000D03*
D17*
X89212500Y-68250000D03*
X89212500Y-65100000D03*
D15*
X159684000Y-110033501D03*
G36*
X156076820Y-117881319D02*
G01*
X154691180Y-117081319D01*
X155491180Y-115695679D01*
X156876820Y-116495679D01*
X156076820Y-117881319D01*
G37*
G36*
X157166115Y-115594605D02*
G01*
X156126885Y-114994605D01*
X156726885Y-113955375D01*
X157766115Y-114555375D01*
X157166115Y-115594605D01*
G37*
G36*
X158741115Y-112866625D02*
G01*
X157701885Y-112266625D01*
X158301885Y-111227395D01*
X159341115Y-111827395D01*
X158741115Y-112866625D01*
G37*
D10*
X145415000Y-42545000D03*
D11*
X144145000Y-52705000D03*
D10*
X140335000Y-42545000D03*
X145375000Y-43625000D03*
G36*
G01*
X145296524Y-44247260D02*
X145296524Y-44247260D01*
G75*
G02*
X144252740Y-43046524I78476J1122260D01*
G01*
X144293294Y-42466562D01*
G75*
G02*
X145494030Y-41422778I1122260J-78476D01*
G01*
X145494030Y-41422778D01*
G75*
G02*
X146537814Y-42623514I-78476J-1122260D01*
G01*
X146497260Y-43203476D01*
G75*
G02*
X145296524Y-44247260I-1122260J78476D01*
G01*
G37*
G36*
G01*
X140255970Y-41422778D02*
X140255970Y-41422778D01*
G75*
G02*
X141456706Y-42466562I78476J-1122260D01*
G01*
X141497260Y-43046524D01*
G75*
G02*
X140453476Y-44247260I-1122260J-78476D01*
G01*
X140453476Y-44247260D01*
G75*
G02*
X139252740Y-43203476I-78476J1122260D01*
G01*
X139212186Y-42623514D01*
G75*
G02*
X140255970Y-41422778I1122260J78476D01*
G01*
G37*
D12*
X141605000Y-52705000D03*
G36*
G01*
X138312228Y-45921038D02*
X138312228Y-45921038D01*
G75*
G02*
X138228962Y-44332228I752772J836038D01*
G01*
X139541500Y-42874508D01*
G75*
G02*
X141130310Y-42791242I836038J-752772D01*
G01*
X141130310Y-42791242D01*
G75*
G02*
X141213576Y-44380052I-752772J-836038D01*
G01*
X139901038Y-45837772D01*
G75*
G02*
X138312228Y-45921038I-836038J752772D01*
G01*
G37*
G36*
G01*
X144619690Y-42791242D02*
X144619690Y-42791242D01*
G75*
G02*
X146208500Y-42874508I752772J-836038D01*
G01*
X147521038Y-44332228D01*
G75*
G02*
X147437772Y-45921038I-836038J-752772D01*
G01*
X147437772Y-45921038D01*
G75*
G02*
X145848962Y-45837772I-752772J836038D01*
G01*
X144536424Y-44380052D01*
G75*
G02*
X144619690Y-42791242I836038J752772D01*
G01*
G37*
D10*
X140375000Y-43625000D03*
D13*
X147955000Y-47625000D03*
X137795000Y-47625000D03*
D14*
X142875000Y-47625000D03*
D10*
X59690000Y-80645000D03*
D11*
X58420000Y-90805000D03*
D10*
X54610000Y-80645000D03*
X59650000Y-81725000D03*
G36*
G01*
X59571524Y-82347260D02*
X59571524Y-82347260D01*
G75*
G02*
X58527740Y-81146524I78476J1122260D01*
G01*
X58568294Y-80566562D01*
G75*
G02*
X59769030Y-79522778I1122260J-78476D01*
G01*
X59769030Y-79522778D01*
G75*
G02*
X60812814Y-80723514I-78476J-1122260D01*
G01*
X60772260Y-81303476D01*
G75*
G02*
X59571524Y-82347260I-1122260J78476D01*
G01*
G37*
G36*
G01*
X54530970Y-79522778D02*
X54530970Y-79522778D01*
G75*
G02*
X55731706Y-80566562I78476J-1122260D01*
G01*
X55772260Y-81146524D01*
G75*
G02*
X54728476Y-82347260I-1122260J-78476D01*
G01*
X54728476Y-82347260D01*
G75*
G02*
X53527740Y-81303476I-78476J1122260D01*
G01*
X53487186Y-80723514D01*
G75*
G02*
X54530970Y-79522778I1122260J78476D01*
G01*
G37*
D12*
X55880000Y-90805000D03*
G36*
G01*
X52587228Y-84021038D02*
X52587228Y-84021038D01*
G75*
G02*
X52503962Y-82432228I752772J836038D01*
G01*
X53816500Y-80974508D01*
G75*
G02*
X55405310Y-80891242I836038J-752772D01*
G01*
X55405310Y-80891242D01*
G75*
G02*
X55488576Y-82480052I-752772J-836038D01*
G01*
X54176038Y-83937772D01*
G75*
G02*
X52587228Y-84021038I-836038J752772D01*
G01*
G37*
G36*
G01*
X58894690Y-80891242D02*
X58894690Y-80891242D01*
G75*
G02*
X60483500Y-80974508I752772J-836038D01*
G01*
X61796038Y-82432228D01*
G75*
G02*
X61712772Y-84021038I-836038J-752772D01*
G01*
X61712772Y-84021038D01*
G75*
G02*
X60123962Y-83937772I-752772J836038D01*
G01*
X58811424Y-82480052D01*
G75*
G02*
X58894690Y-80891242I836038J752772D01*
G01*
G37*
D10*
X54650000Y-81725000D03*
D13*
X62230000Y-85725000D03*
X52070000Y-85725000D03*
D14*
X57150000Y-85725000D03*
D10*
X116840000Y-80645000D03*
D11*
X115570000Y-90805000D03*
D10*
X111760000Y-80645000D03*
X116800000Y-81725000D03*
G36*
G01*
X116721524Y-82347260D02*
X116721524Y-82347260D01*
G75*
G02*
X115677740Y-81146524I78476J1122260D01*
G01*
X115718294Y-80566562D01*
G75*
G02*
X116919030Y-79522778I1122260J-78476D01*
G01*
X116919030Y-79522778D01*
G75*
G02*
X117962814Y-80723514I-78476J-1122260D01*
G01*
X117922260Y-81303476D01*
G75*
G02*
X116721524Y-82347260I-1122260J78476D01*
G01*
G37*
G36*
G01*
X111680970Y-79522778D02*
X111680970Y-79522778D01*
G75*
G02*
X112881706Y-80566562I78476J-1122260D01*
G01*
X112922260Y-81146524D01*
G75*
G02*
X111878476Y-82347260I-1122260J-78476D01*
G01*
X111878476Y-82347260D01*
G75*
G02*
X110677740Y-81303476I-78476J1122260D01*
G01*
X110637186Y-80723514D01*
G75*
G02*
X111680970Y-79522778I1122260J78476D01*
G01*
G37*
D12*
X113030000Y-90805000D03*
G36*
G01*
X109737228Y-84021038D02*
X109737228Y-84021038D01*
G75*
G02*
X109653962Y-82432228I752772J836038D01*
G01*
X110966500Y-80974508D01*
G75*
G02*
X112555310Y-80891242I836038J-752772D01*
G01*
X112555310Y-80891242D01*
G75*
G02*
X112638576Y-82480052I-752772J-836038D01*
G01*
X111326038Y-83937772D01*
G75*
G02*
X109737228Y-84021038I-836038J752772D01*
G01*
G37*
G36*
G01*
X116044690Y-80891242D02*
X116044690Y-80891242D01*
G75*
G02*
X117633500Y-80974508I752772J-836038D01*
G01*
X118946038Y-82432228D01*
G75*
G02*
X118862772Y-84021038I-836038J-752772D01*
G01*
X118862772Y-84021038D01*
G75*
G02*
X117273962Y-83937772I-752772J836038D01*
G01*
X115961424Y-82480052D01*
G75*
G02*
X116044690Y-80891242I836038J752772D01*
G01*
G37*
D10*
X111800000Y-81725000D03*
D13*
X119380000Y-85725000D03*
X109220000Y-85725000D03*
D14*
X114300000Y-85725000D03*
D10*
X78740000Y-80645000D03*
D11*
X77470000Y-90805000D03*
D10*
X73660000Y-80645000D03*
X78700000Y-81725000D03*
G36*
G01*
X78621524Y-82347260D02*
X78621524Y-82347260D01*
G75*
G02*
X77577740Y-81146524I78476J1122260D01*
G01*
X77618294Y-80566562D01*
G75*
G02*
X78819030Y-79522778I1122260J-78476D01*
G01*
X78819030Y-79522778D01*
G75*
G02*
X79862814Y-80723514I-78476J-1122260D01*
G01*
X79822260Y-81303476D01*
G75*
G02*
X78621524Y-82347260I-1122260J78476D01*
G01*
G37*
G36*
G01*
X73580970Y-79522778D02*
X73580970Y-79522778D01*
G75*
G02*
X74781706Y-80566562I78476J-1122260D01*
G01*
X74822260Y-81146524D01*
G75*
G02*
X73778476Y-82347260I-1122260J-78476D01*
G01*
X73778476Y-82347260D01*
G75*
G02*
X72577740Y-81303476I-78476J1122260D01*
G01*
X72537186Y-80723514D01*
G75*
G02*
X73580970Y-79522778I1122260J78476D01*
G01*
G37*
D12*
X74930000Y-90805000D03*
G36*
G01*
X71637228Y-84021038D02*
X71637228Y-84021038D01*
G75*
G02*
X71553962Y-82432228I752772J836038D01*
G01*
X72866500Y-80974508D01*
G75*
G02*
X74455310Y-80891242I836038J-752772D01*
G01*
X74455310Y-80891242D01*
G75*
G02*
X74538576Y-82480052I-752772J-836038D01*
G01*
X73226038Y-83937772D01*
G75*
G02*
X71637228Y-84021038I-836038J752772D01*
G01*
G37*
G36*
G01*
X77944690Y-80891242D02*
X77944690Y-80891242D01*
G75*
G02*
X79533500Y-80974508I752772J-836038D01*
G01*
X80846038Y-82432228D01*
G75*
G02*
X80762772Y-84021038I-836038J-752772D01*
G01*
X80762772Y-84021038D01*
G75*
G02*
X79173962Y-83937772I-752772J836038D01*
G01*
X77861424Y-82480052D01*
G75*
G02*
X77944690Y-80891242I836038J752772D01*
G01*
G37*
D10*
X73700000Y-81725000D03*
D13*
X81280000Y-85725000D03*
X71120000Y-85725000D03*
D14*
X76200000Y-85725000D03*
D10*
X126365000Y-42545000D03*
D11*
X125095000Y-52705000D03*
D10*
X121285000Y-42545000D03*
X126325000Y-43625000D03*
G36*
G01*
X126246524Y-44247260D02*
X126246524Y-44247260D01*
G75*
G02*
X125202740Y-43046524I78476J1122260D01*
G01*
X125243294Y-42466562D01*
G75*
G02*
X126444030Y-41422778I1122260J-78476D01*
G01*
X126444030Y-41422778D01*
G75*
G02*
X127487814Y-42623514I-78476J-1122260D01*
G01*
X127447260Y-43203476D01*
G75*
G02*
X126246524Y-44247260I-1122260J78476D01*
G01*
G37*
G36*
G01*
X121205970Y-41422778D02*
X121205970Y-41422778D01*
G75*
G02*
X122406706Y-42466562I78476J-1122260D01*
G01*
X122447260Y-43046524D01*
G75*
G02*
X121403476Y-44247260I-1122260J-78476D01*
G01*
X121403476Y-44247260D01*
G75*
G02*
X120202740Y-43203476I-78476J1122260D01*
G01*
X120162186Y-42623514D01*
G75*
G02*
X121205970Y-41422778I1122260J78476D01*
G01*
G37*
D12*
X122555000Y-52705000D03*
G36*
G01*
X119262228Y-45921038D02*
X119262228Y-45921038D01*
G75*
G02*
X119178962Y-44332228I752772J836038D01*
G01*
X120491500Y-42874508D01*
G75*
G02*
X122080310Y-42791242I836038J-752772D01*
G01*
X122080310Y-42791242D01*
G75*
G02*
X122163576Y-44380052I-752772J-836038D01*
G01*
X120851038Y-45837772D01*
G75*
G02*
X119262228Y-45921038I-836038J752772D01*
G01*
G37*
G36*
G01*
X125569690Y-42791242D02*
X125569690Y-42791242D01*
G75*
G02*
X127158500Y-42874508I752772J-836038D01*
G01*
X128471038Y-44332228D01*
G75*
G02*
X128387772Y-45921038I-836038J-752772D01*
G01*
X128387772Y-45921038D01*
G75*
G02*
X126798962Y-45837772I-752772J836038D01*
G01*
X125486424Y-44380052D01*
G75*
G02*
X125569690Y-42791242I836038J752772D01*
G01*
G37*
D10*
X121325000Y-43625000D03*
D13*
X128905000Y-47625000D03*
X118745000Y-47625000D03*
D14*
X123825000Y-47625000D03*
D10*
X88265000Y-99695000D03*
D11*
X86995000Y-109855000D03*
D10*
X83185000Y-99695000D03*
X88225000Y-100775000D03*
G36*
G01*
X88146524Y-101397260D02*
X88146524Y-101397260D01*
G75*
G02*
X87102740Y-100196524I78476J1122260D01*
G01*
X87143294Y-99616562D01*
G75*
G02*
X88344030Y-98572778I1122260J-78476D01*
G01*
X88344030Y-98572778D01*
G75*
G02*
X89387814Y-99773514I-78476J-1122260D01*
G01*
X89347260Y-100353476D01*
G75*
G02*
X88146524Y-101397260I-1122260J78476D01*
G01*
G37*
G36*
G01*
X83105970Y-98572778D02*
X83105970Y-98572778D01*
G75*
G02*
X84306706Y-99616562I78476J-1122260D01*
G01*
X84347260Y-100196524D01*
G75*
G02*
X83303476Y-101397260I-1122260J-78476D01*
G01*
X83303476Y-101397260D01*
G75*
G02*
X82102740Y-100353476I-78476J1122260D01*
G01*
X82062186Y-99773514D01*
G75*
G02*
X83105970Y-98572778I1122260J78476D01*
G01*
G37*
D12*
X84455000Y-109855000D03*
G36*
G01*
X81162228Y-103071038D02*
X81162228Y-103071038D01*
G75*
G02*
X81078962Y-101482228I752772J836038D01*
G01*
X82391500Y-100024508D01*
G75*
G02*
X83980310Y-99941242I836038J-752772D01*
G01*
X83980310Y-99941242D01*
G75*
G02*
X84063576Y-101530052I-752772J-836038D01*
G01*
X82751038Y-102987772D01*
G75*
G02*
X81162228Y-103071038I-836038J752772D01*
G01*
G37*
G36*
G01*
X87469690Y-99941242D02*
X87469690Y-99941242D01*
G75*
G02*
X89058500Y-100024508I752772J-836038D01*
G01*
X90371038Y-101482228D01*
G75*
G02*
X90287772Y-103071038I-836038J-752772D01*
G01*
X90287772Y-103071038D01*
G75*
G02*
X88698962Y-102987772I-752772J836038D01*
G01*
X87386424Y-101530052D01*
G75*
G02*
X87469690Y-99941242I836038J752772D01*
G01*
G37*
D10*
X83225000Y-100775000D03*
D13*
X90805000Y-104775000D03*
X80645000Y-104775000D03*
D14*
X85725000Y-104775000D03*
D10*
X107315000Y-99695000D03*
D11*
X106045000Y-109855000D03*
D10*
X102235000Y-99695000D03*
X107275000Y-100775000D03*
G36*
G01*
X107196524Y-101397260D02*
X107196524Y-101397260D01*
G75*
G02*
X106152740Y-100196524I78476J1122260D01*
G01*
X106193294Y-99616562D01*
G75*
G02*
X107394030Y-98572778I1122260J-78476D01*
G01*
X107394030Y-98572778D01*
G75*
G02*
X108437814Y-99773514I-78476J-1122260D01*
G01*
X108397260Y-100353476D01*
G75*
G02*
X107196524Y-101397260I-1122260J78476D01*
G01*
G37*
G36*
G01*
X102155970Y-98572778D02*
X102155970Y-98572778D01*
G75*
G02*
X103356706Y-99616562I78476J-1122260D01*
G01*
X103397260Y-100196524D01*
G75*
G02*
X102353476Y-101397260I-1122260J-78476D01*
G01*
X102353476Y-101397260D01*
G75*
G02*
X101152740Y-100353476I-78476J1122260D01*
G01*
X101112186Y-99773514D01*
G75*
G02*
X102155970Y-98572778I1122260J78476D01*
G01*
G37*
D12*
X103505000Y-109855000D03*
G36*
G01*
X100212228Y-103071038D02*
X100212228Y-103071038D01*
G75*
G02*
X100128962Y-101482228I752772J836038D01*
G01*
X101441500Y-100024508D01*
G75*
G02*
X103030310Y-99941242I836038J-752772D01*
G01*
X103030310Y-99941242D01*
G75*
G02*
X103113576Y-101530052I-752772J-836038D01*
G01*
X101801038Y-102987772D01*
G75*
G02*
X100212228Y-103071038I-836038J752772D01*
G01*
G37*
G36*
G01*
X106519690Y-99941242D02*
X106519690Y-99941242D01*
G75*
G02*
X108108500Y-100024508I752772J-836038D01*
G01*
X109421038Y-101482228D01*
G75*
G02*
X109337772Y-103071038I-836038J-752772D01*
G01*
X109337772Y-103071038D01*
G75*
G02*
X107748962Y-102987772I-752772J836038D01*
G01*
X106436424Y-101530052D01*
G75*
G02*
X106519690Y-99941242I836038J752772D01*
G01*
G37*
D10*
X102275000Y-100775000D03*
D13*
X109855000Y-104775000D03*
X99695000Y-104775000D03*
D14*
X104775000Y-104775000D03*
D10*
X83502500Y-61595000D03*
D11*
X82232500Y-71755000D03*
D10*
X78422500Y-61595000D03*
X83462500Y-62675000D03*
G36*
G01*
X83384024Y-63297260D02*
X83384024Y-63297260D01*
G75*
G02*
X82340240Y-62096524I78476J1122260D01*
G01*
X82380794Y-61516562D01*
G75*
G02*
X83581530Y-60472778I1122260J-78476D01*
G01*
X83581530Y-60472778D01*
G75*
G02*
X84625314Y-61673514I-78476J-1122260D01*
G01*
X84584760Y-62253476D01*
G75*
G02*
X83384024Y-63297260I-1122260J78476D01*
G01*
G37*
G36*
G01*
X78343470Y-60472778D02*
X78343470Y-60472778D01*
G75*
G02*
X79544206Y-61516562I78476J-1122260D01*
G01*
X79584760Y-62096524D01*
G75*
G02*
X78540976Y-63297260I-1122260J-78476D01*
G01*
X78540976Y-63297260D01*
G75*
G02*
X77340240Y-62253476I-78476J1122260D01*
G01*
X77299686Y-61673514D01*
G75*
G02*
X78343470Y-60472778I1122260J78476D01*
G01*
G37*
D12*
X79692500Y-71755000D03*
G36*
G01*
X76399728Y-64971038D02*
X76399728Y-64971038D01*
G75*
G02*
X76316462Y-63382228I752772J836038D01*
G01*
X77629000Y-61924508D01*
G75*
G02*
X79217810Y-61841242I836038J-752772D01*
G01*
X79217810Y-61841242D01*
G75*
G02*
X79301076Y-63430052I-752772J-836038D01*
G01*
X77988538Y-64887772D01*
G75*
G02*
X76399728Y-64971038I-836038J752772D01*
G01*
G37*
G36*
G01*
X82707190Y-61841242D02*
X82707190Y-61841242D01*
G75*
G02*
X84296000Y-61924508I752772J-836038D01*
G01*
X85608538Y-63382228D01*
G75*
G02*
X85525272Y-64971038I-836038J-752772D01*
G01*
X85525272Y-64971038D01*
G75*
G02*
X83936462Y-64887772I-752772J836038D01*
G01*
X82623924Y-63430052D01*
G75*
G02*
X82707190Y-61841242I836038J752772D01*
G01*
G37*
D10*
X78462500Y-62675000D03*
D13*
X86042500Y-66675000D03*
X75882500Y-66675000D03*
D14*
X80962500Y-66675000D03*
D10*
X107315000Y-42545000D03*
D11*
X106045000Y-52705000D03*
D10*
X102235000Y-42545000D03*
X107275000Y-43625000D03*
G36*
G01*
X107196524Y-44247260D02*
X107196524Y-44247260D01*
G75*
G02*
X106152740Y-43046524I78476J1122260D01*
G01*
X106193294Y-42466562D01*
G75*
G02*
X107394030Y-41422778I1122260J-78476D01*
G01*
X107394030Y-41422778D01*
G75*
G02*
X108437814Y-42623514I-78476J-1122260D01*
G01*
X108397260Y-43203476D01*
G75*
G02*
X107196524Y-44247260I-1122260J78476D01*
G01*
G37*
G36*
G01*
X102155970Y-41422778D02*
X102155970Y-41422778D01*
G75*
G02*
X103356706Y-42466562I78476J-1122260D01*
G01*
X103397260Y-43046524D01*
G75*
G02*
X102353476Y-44247260I-1122260J-78476D01*
G01*
X102353476Y-44247260D01*
G75*
G02*
X101152740Y-43203476I-78476J1122260D01*
G01*
X101112186Y-42623514D01*
G75*
G02*
X102155970Y-41422778I1122260J78476D01*
G01*
G37*
D12*
X103505000Y-52705000D03*
G36*
G01*
X100212228Y-45921038D02*
X100212228Y-45921038D01*
G75*
G02*
X100128962Y-44332228I752772J836038D01*
G01*
X101441500Y-42874508D01*
G75*
G02*
X103030310Y-42791242I836038J-752772D01*
G01*
X103030310Y-42791242D01*
G75*
G02*
X103113576Y-44380052I-752772J-836038D01*
G01*
X101801038Y-45837772D01*
G75*
G02*
X100212228Y-45921038I-836038J752772D01*
G01*
G37*
G36*
G01*
X106519690Y-42791242D02*
X106519690Y-42791242D01*
G75*
G02*
X108108500Y-42874508I752772J-836038D01*
G01*
X109421038Y-44332228D01*
G75*
G02*
X109337772Y-45921038I-836038J-752772D01*
G01*
X109337772Y-45921038D01*
G75*
G02*
X107748962Y-45837772I-752772J836038D01*
G01*
X106436424Y-44380052D01*
G75*
G02*
X106519690Y-42791242I836038J752772D01*
G01*
G37*
D10*
X102275000Y-43625000D03*
D13*
X109855000Y-47625000D03*
X99695000Y-47625000D03*
D14*
X104775000Y-47625000D03*
D10*
X69215000Y-42545000D03*
D11*
X67945000Y-52705000D03*
D10*
X64135000Y-42545000D03*
X69175000Y-43625000D03*
G36*
G01*
X69096524Y-44247260D02*
X69096524Y-44247260D01*
G75*
G02*
X68052740Y-43046524I78476J1122260D01*
G01*
X68093294Y-42466562D01*
G75*
G02*
X69294030Y-41422778I1122260J-78476D01*
G01*
X69294030Y-41422778D01*
G75*
G02*
X70337814Y-42623514I-78476J-1122260D01*
G01*
X70297260Y-43203476D01*
G75*
G02*
X69096524Y-44247260I-1122260J78476D01*
G01*
G37*
G36*
G01*
X64055970Y-41422778D02*
X64055970Y-41422778D01*
G75*
G02*
X65256706Y-42466562I78476J-1122260D01*
G01*
X65297260Y-43046524D01*
G75*
G02*
X64253476Y-44247260I-1122260J-78476D01*
G01*
X64253476Y-44247260D01*
G75*
G02*
X63052740Y-43203476I-78476J1122260D01*
G01*
X63012186Y-42623514D01*
G75*
G02*
X64055970Y-41422778I1122260J78476D01*
G01*
G37*
D12*
X65405000Y-52705000D03*
G36*
G01*
X62112228Y-45921038D02*
X62112228Y-45921038D01*
G75*
G02*
X62028962Y-44332228I752772J836038D01*
G01*
X63341500Y-42874508D01*
G75*
G02*
X64930310Y-42791242I836038J-752772D01*
G01*
X64930310Y-42791242D01*
G75*
G02*
X65013576Y-44380052I-752772J-836038D01*
G01*
X63701038Y-45837772D01*
G75*
G02*
X62112228Y-45921038I-836038J752772D01*
G01*
G37*
G36*
G01*
X68419690Y-42791242D02*
X68419690Y-42791242D01*
G75*
G02*
X70008500Y-42874508I752772J-836038D01*
G01*
X71321038Y-44332228D01*
G75*
G02*
X71237772Y-45921038I-836038J-752772D01*
G01*
X71237772Y-45921038D01*
G75*
G02*
X69648962Y-45837772I-752772J836038D01*
G01*
X68336424Y-44380052D01*
G75*
G02*
X68419690Y-42791242I836038J752772D01*
G01*
G37*
D10*
X64175000Y-43625000D03*
D13*
X71755000Y-47625000D03*
X61595000Y-47625000D03*
D14*
X66675000Y-47625000D03*
D10*
X88265000Y-42545000D03*
D11*
X86995000Y-52705000D03*
D10*
X83185000Y-42545000D03*
X88225000Y-43625000D03*
G36*
G01*
X88146524Y-44247260D02*
X88146524Y-44247260D01*
G75*
G02*
X87102740Y-43046524I78476J1122260D01*
G01*
X87143294Y-42466562D01*
G75*
G02*
X88344030Y-41422778I1122260J-78476D01*
G01*
X88344030Y-41422778D01*
G75*
G02*
X89387814Y-42623514I-78476J-1122260D01*
G01*
X89347260Y-43203476D01*
G75*
G02*
X88146524Y-44247260I-1122260J78476D01*
G01*
G37*
G36*
G01*
X83105970Y-41422778D02*
X83105970Y-41422778D01*
G75*
G02*
X84306706Y-42466562I78476J-1122260D01*
G01*
X84347260Y-43046524D01*
G75*
G02*
X83303476Y-44247260I-1122260J-78476D01*
G01*
X83303476Y-44247260D01*
G75*
G02*
X82102740Y-43203476I-78476J1122260D01*
G01*
X82062186Y-42623514D01*
G75*
G02*
X83105970Y-41422778I1122260J78476D01*
G01*
G37*
D12*
X84455000Y-52705000D03*
G36*
G01*
X81162228Y-45921038D02*
X81162228Y-45921038D01*
G75*
G02*
X81078962Y-44332228I752772J836038D01*
G01*
X82391500Y-42874508D01*
G75*
G02*
X83980310Y-42791242I836038J-752772D01*
G01*
X83980310Y-42791242D01*
G75*
G02*
X84063576Y-44380052I-752772J-836038D01*
G01*
X82751038Y-45837772D01*
G75*
G02*
X81162228Y-45921038I-836038J752772D01*
G01*
G37*
G36*
G01*
X87469690Y-42791242D02*
X87469690Y-42791242D01*
G75*
G02*
X89058500Y-42874508I752772J-836038D01*
G01*
X90371038Y-44332228D01*
G75*
G02*
X90287772Y-45921038I-836038J-752772D01*
G01*
X90287772Y-45921038D01*
G75*
G02*
X88698962Y-45837772I-752772J836038D01*
G01*
X87386424Y-44380052D01*
G75*
G02*
X87469690Y-42791242I836038J752772D01*
G01*
G37*
D10*
X83225000Y-43625000D03*
D13*
X90805000Y-47625000D03*
X80645000Y-47625000D03*
D14*
X85725000Y-47625000D03*
D11*
X39370000Y-71755000D03*
D13*
X43180000Y-66675000D03*
G36*
G01*
X39844690Y-61841242D02*
X39844690Y-61841242D01*
G75*
G02*
X41433500Y-61924508I752772J-836038D01*
G01*
X42746038Y-63382228D01*
G75*
G02*
X42662772Y-64971038I-836038J-752772D01*
G01*
X42662772Y-64971038D01*
G75*
G02*
X41073962Y-64887772I-752772J836038D01*
G01*
X39761424Y-63430052D01*
G75*
G02*
X39844690Y-61841242I836038J752772D01*
G01*
G37*
D10*
X35560000Y-61595000D03*
D14*
X38100000Y-66675000D03*
G36*
G01*
X33537228Y-64971038D02*
X33537228Y-64971038D01*
G75*
G02*
X33453962Y-63382228I752772J836038D01*
G01*
X34766500Y-61924508D01*
G75*
G02*
X36355310Y-61841242I836038J-752772D01*
G01*
X36355310Y-61841242D01*
G75*
G02*
X36438576Y-63430052I-752772J-836038D01*
G01*
X35126038Y-64887772D01*
G75*
G02*
X33537228Y-64971038I-836038J752772D01*
G01*
G37*
D10*
X40600000Y-62675000D03*
D12*
X36830000Y-71755000D03*
D10*
X35600000Y-62675000D03*
D13*
X33020000Y-66675000D03*
D10*
X40640000Y-61595000D03*
G36*
G01*
X35480970Y-60472778D02*
X35480970Y-60472778D01*
G75*
G02*
X36681706Y-61516562I78476J-1122260D01*
G01*
X36722260Y-62096524D01*
G75*
G02*
X35678476Y-63297260I-1122260J-78476D01*
G01*
X35678476Y-63297260D01*
G75*
G02*
X34477740Y-62253476I-78476J1122260D01*
G01*
X34437186Y-61673514D01*
G75*
G02*
X35480970Y-60472778I1122260J78476D01*
G01*
G37*
G36*
G01*
X40521524Y-63297260D02*
X40521524Y-63297260D01*
G75*
G02*
X39477740Y-62096524I78476J1122260D01*
G01*
X39518294Y-61516562D01*
G75*
G02*
X40719030Y-60472778I1122260J-78476D01*
G01*
X40719030Y-60472778D01*
G75*
G02*
X41762814Y-61673514I-78476J-1122260D01*
G01*
X41722260Y-62253476D01*
G75*
G02*
X40521524Y-63297260I-1122260J78476D01*
G01*
G37*
M02*
