G04 #@! TF.GenerationSoftware,KiCad,Pcbnew,(5.99.0-2039-g05a89863c)*
G04 #@! TF.CreationDate,2020-06-27T09:00:49+08:00*
G04 #@! TF.ProjectId,Keyboard-layout,4b657962-6f61-4726-942d-6c61796f7574,rev?*
G04 #@! TF.SameCoordinates,Original*
G04 #@! TF.FileFunction,Legend,Bot*
G04 #@! TF.FilePolarity,Positive*
%FSLAX46Y46*%
G04 Gerber Fmt 4.6, Leading zero omitted, Abs format (unit mm)*
G04 Created by KiCad (PCBNEW (5.99.0-2039-g05a89863c)) date 2020-06-27 09:00:49*
%MOMM*%
%LPD*%
G01*
G04 APERTURE LIST*
%ADD10C,0.150000*%
%ADD11C,0.120000*%
G04 APERTURE END LIST*
D10*
X196032380Y-37361904D02*
X195032380Y-37361904D01*
X195032380Y-37600000D01*
X195080000Y-37742857D01*
X195175238Y-37838095D01*
X195270476Y-37885714D01*
X195460952Y-37933333D01*
X195603809Y-37933333D01*
X195794285Y-37885714D01*
X195889523Y-37838095D01*
X195984761Y-37742857D01*
X196032380Y-37600000D01*
X196032380Y-37361904D01*
X195127619Y-38314285D02*
X195080000Y-38361904D01*
X195032380Y-38457142D01*
X195032380Y-38695238D01*
X195080000Y-38790476D01*
X195127619Y-38838095D01*
X195222857Y-38885714D01*
X195318095Y-38885714D01*
X195460952Y-38838095D01*
X196032380Y-38266666D01*
X196032380Y-38885714D01*
X186602619Y-76740380D02*
X186935952Y-76264190D01*
X187174047Y-76740380D02*
X187174047Y-75740380D01*
X186793095Y-75740380D01*
X186697857Y-75788000D01*
X186650238Y-75835619D01*
X186602619Y-75930857D01*
X186602619Y-76073714D01*
X186650238Y-76168952D01*
X186697857Y-76216571D01*
X186793095Y-76264190D01*
X187174047Y-76264190D01*
X186316904Y-75740380D02*
X185745476Y-75740380D01*
X186031190Y-76740380D02*
X186031190Y-75740380D01*
X184888333Y-76740380D02*
X185459761Y-76740380D01*
X185174047Y-76740380D02*
X185174047Y-75740380D01*
X185269285Y-75883238D01*
X185364523Y-75978476D01*
X185459761Y-76026095D01*
X181236904Y-76420380D02*
X181236904Y-75420380D01*
X180665476Y-76420380D02*
X181094047Y-75848952D01*
X180665476Y-75420380D02*
X181236904Y-75991809D01*
X182472380Y-64682809D02*
X181472380Y-64682809D01*
X182377142Y-65730428D02*
X182424761Y-65682809D01*
X182472380Y-65539952D01*
X182472380Y-65444714D01*
X182424761Y-65301857D01*
X182329523Y-65206619D01*
X182234285Y-65159000D01*
X182043809Y-65111380D01*
X181900952Y-65111380D01*
X181710476Y-65159000D01*
X181615238Y-65206619D01*
X181520000Y-65301857D01*
X181472380Y-65444714D01*
X181472380Y-65539952D01*
X181520000Y-65682809D01*
X181567619Y-65730428D01*
X182472380Y-66682809D02*
X182472380Y-66111380D01*
X182472380Y-66397095D02*
X181472380Y-66397095D01*
X181615238Y-66301857D01*
X181710476Y-66206619D01*
X181758095Y-66111380D01*
X189825380Y-67865666D02*
X190539666Y-67865666D01*
X190682523Y-67818047D01*
X190777761Y-67722809D01*
X190825380Y-67579952D01*
X190825380Y-67484714D01*
X190825380Y-68865666D02*
X190825380Y-68294238D01*
X190825380Y-68579952D02*
X189825380Y-68579952D01*
X189968238Y-68484714D01*
X190063476Y-68389476D01*
X190111095Y-68294238D01*
X180489370Y-131537997D02*
X180989370Y-130671972D01*
X179994499Y-131252283D02*
X180651367Y-130971697D01*
X180494499Y-130386258D02*
X180703656Y-131166844D01*
X179781923Y-131239524D02*
X179122094Y-130858571D01*
X178936746Y-130036746D02*
X179225421Y-130203413D01*
X178963516Y-130657045D02*
X179463516Y-129791020D01*
X179051123Y-129552924D01*
X178183388Y-129436838D02*
X177850055Y-130014188D01*
X178580061Y-129225971D02*
X178429115Y-129963608D01*
X177893004Y-129654084D01*
X154466586Y-138510781D02*
X154966586Y-137644756D01*
X153971715Y-138225067D02*
X154628583Y-137944481D01*
X154471715Y-137359042D02*
X154680872Y-138139628D01*
X153759139Y-138212308D02*
X153099310Y-137831355D01*
X152913962Y-137009530D02*
X153202637Y-137176197D01*
X152940732Y-137629829D02*
X153440732Y-136763804D01*
X153028339Y-136525708D01*
X152286032Y-136097137D02*
X152698425Y-136335232D01*
X152501569Y-136771435D01*
X152484139Y-136706386D01*
X152425470Y-136617528D01*
X152219273Y-136498480D01*
X152112985Y-136492100D01*
X152047936Y-136509530D01*
X151959078Y-136568199D01*
X151840030Y-136774396D01*
X151833651Y-136880684D01*
X151851080Y-136945733D01*
X151909750Y-137034591D01*
X152115946Y-137153639D01*
X152222234Y-137160018D01*
X152287283Y-137142589D01*
X173516586Y-105515213D02*
X174016586Y-104649188D01*
X173021715Y-105229499D02*
X173678583Y-104948913D01*
X173521715Y-104363474D02*
X173730872Y-105144060D01*
X172809139Y-105216740D02*
X172149310Y-104835787D01*
X171963962Y-104013962D02*
X172252637Y-104180629D01*
X171990732Y-104634261D02*
X172490732Y-103768236D01*
X172078339Y-103530140D01*
X170794792Y-103943785D02*
X171289664Y-104229499D01*
X171042228Y-104086642D02*
X171542228Y-103220617D01*
X171553278Y-103391954D01*
X171588138Y-103522051D01*
X171646807Y-103610910D01*
X190014370Y-115040213D02*
X190514370Y-114174188D01*
X189519499Y-114754499D02*
X190176367Y-114473913D01*
X190019499Y-113888474D02*
X190228656Y-114669060D01*
X189306923Y-114741740D02*
X188647094Y-114360787D01*
X188461746Y-113538962D02*
X188750421Y-113705629D01*
X188488516Y-114159261D02*
X188988516Y-113293236D01*
X188576123Y-113055140D01*
X188239829Y-112970952D02*
X188222399Y-112905904D01*
X188163730Y-112817045D01*
X187957534Y-112697998D01*
X187851245Y-112691618D01*
X187786197Y-112709048D01*
X187697338Y-112767717D01*
X187649719Y-112850195D01*
X187619530Y-112997723D01*
X187828687Y-113778309D01*
X187292576Y-113468785D01*
X170964370Y-148035781D02*
X171464370Y-147169756D01*
X170469499Y-147750067D02*
X171126367Y-147469481D01*
X170969499Y-146884042D02*
X171178656Y-147664628D01*
X170256923Y-147737308D02*
X169597094Y-147356355D01*
X169411746Y-146534530D02*
X169700421Y-146701197D01*
X169438516Y-147154829D02*
X169938516Y-146288804D01*
X169526123Y-146050708D01*
X168825055Y-145645946D02*
X168990012Y-145741185D01*
X169048681Y-145830043D01*
X169066111Y-145895092D01*
X169077161Y-146066429D01*
X169023162Y-146255195D01*
X168832686Y-146585110D01*
X168743828Y-146643779D01*
X168678779Y-146661209D01*
X168572491Y-146654829D01*
X168407534Y-146559591D01*
X168348864Y-146470733D01*
X168331435Y-146405684D01*
X168337814Y-146299396D01*
X168456862Y-146093199D01*
X168545720Y-146034530D01*
X168610769Y-146017100D01*
X168717057Y-146023480D01*
X168882015Y-146118718D01*
X168940684Y-146207576D01*
X168958113Y-146272625D01*
X168951734Y-146378913D01*
X163991586Y-122012997D02*
X164491586Y-121146972D01*
X163496715Y-121727283D02*
X164153583Y-121446697D01*
X163996715Y-120861258D02*
X164205872Y-121641844D01*
X163284139Y-121714524D02*
X162624310Y-121333571D01*
X162438962Y-120511746D02*
X162727637Y-120678413D01*
X162465732Y-121132045D02*
X162965732Y-120266020D01*
X162553339Y-120027924D01*
X162305903Y-119885067D02*
X161769792Y-119575543D01*
X161867991Y-120072125D01*
X161744273Y-120000696D01*
X161637985Y-119994316D01*
X161572936Y-120011746D01*
X161484078Y-120070415D01*
X161365030Y-120276612D01*
X161358651Y-120382900D01*
X161376080Y-120447949D01*
X161434750Y-120536807D01*
X161682185Y-120679664D01*
X161788473Y-120686044D01*
X161853522Y-120668614D01*
G36*
X174331891Y-82504755D02*
G01*
X174298672Y-82645937D01*
X174257917Y-82768110D01*
X174200669Y-82863294D01*
X174110482Y-82957560D01*
X173970908Y-83076980D01*
X173816785Y-83204717D01*
X173945992Y-82956342D01*
X174019421Y-82820873D01*
X174130746Y-82627028D01*
X174237946Y-82450663D01*
X174400693Y-82193358D01*
X174331891Y-82504755D01*
G37*
G36*
X191393149Y-92750437D02*
G01*
X191071222Y-93311050D01*
X191202140Y-92642032D01*
X191458609Y-92415928D01*
X191715077Y-92189823D01*
X191393149Y-92750437D01*
G37*
G36*
X186158157Y-85155613D02*
G01*
X186097427Y-85237498D01*
X186028620Y-85325698D01*
X185994434Y-85356418D01*
X185985857Y-85335975D01*
X185993876Y-85270678D01*
X185996969Y-85184411D01*
X185968739Y-85112287D01*
X185915957Y-85102333D01*
X185852767Y-85165129D01*
X185795962Y-85256746D01*
X185808906Y-85119740D01*
X185809395Y-85114559D01*
X185814439Y-85042086D01*
X185804713Y-85025158D01*
X185770789Y-85069072D01*
X185703236Y-85179130D01*
X185640736Y-85272943D01*
X185603096Y-85305077D01*
X185597910Y-85267056D01*
X185625516Y-85162513D01*
X185686247Y-84995082D01*
X185691923Y-84979235D01*
X185922416Y-84979235D01*
X185937379Y-85025354D01*
X185945185Y-85026851D01*
X185991684Y-84992122D01*
X186048100Y-84908679D01*
X186054586Y-84896694D01*
X186093418Y-84819729D01*
X186089398Y-84805310D01*
X186085814Y-84808269D01*
X186041649Y-84844754D01*
X185983168Y-84901579D01*
X185930926Y-84961428D01*
X185922416Y-84979235D01*
X185691923Y-84979235D01*
X185711542Y-84924471D01*
X185727964Y-84854317D01*
X185714951Y-84844025D01*
X185710535Y-84847693D01*
X185679293Y-84846832D01*
X185671947Y-84771037D01*
X185671301Y-84715638D01*
X185656700Y-84698699D01*
X185615943Y-84737103D01*
X185537180Y-84836619D01*
X185465786Y-84927348D01*
X185420826Y-84973094D01*
X185403231Y-84962869D01*
X185401003Y-84902477D01*
X185410508Y-84814814D01*
X185438193Y-84725109D01*
X185452141Y-84696993D01*
X185453306Y-84656663D01*
X185400610Y-84643455D01*
X185279848Y-84650687D01*
X185253462Y-84653754D01*
X185149679Y-84685224D01*
X185120345Y-84736971D01*
X185169729Y-84803089D01*
X185200265Y-84829229D01*
X185230838Y-84880943D01*
X185206851Y-84942402D01*
X185123920Y-85035883D01*
X185098153Y-85062658D01*
X185038116Y-85137786D01*
X185028097Y-85199880D01*
X185059124Y-85283183D01*
X185092869Y-85346174D01*
X185172603Y-85471920D01*
X185266626Y-85603225D01*
X185438984Y-85855387D01*
X185569214Y-86121755D01*
X185654817Y-86412996D01*
X185706300Y-86756676D01*
X185721613Y-86904212D01*
X185745154Y-87114623D01*
X185767504Y-87297684D01*
X185785373Y-87425543D01*
X185817906Y-87629251D01*
X186185495Y-87733494D01*
X186341310Y-87778839D01*
X186467665Y-87821904D01*
X186554888Y-87865076D01*
X186625389Y-87919822D01*
X186701580Y-87997613D01*
X186832339Y-88135081D01*
X187076027Y-88368116D01*
X187311933Y-88555018D01*
X187552970Y-88700711D01*
X187812047Y-88810114D01*
X188102074Y-88888152D01*
X188435965Y-88939747D01*
X188826627Y-88969820D01*
X189286973Y-88983293D01*
X189292191Y-88983368D01*
X189534778Y-88992172D01*
X189823278Y-89010585D01*
X190122004Y-89035956D01*
X190395271Y-89065634D01*
X190449522Y-89072317D01*
X190693337Y-89100874D01*
X190927276Y-89126136D01*
X191127064Y-89145574D01*
X191268425Y-89156656D01*
X191398215Y-89166683D01*
X191515120Y-89181080D01*
X191575423Y-89195518D01*
X191577455Y-89197351D01*
X191603508Y-89253236D01*
X191646904Y-89375197D01*
X191703547Y-89550617D01*
X191769343Y-89766881D01*
X191840200Y-90011374D01*
X191915629Y-90271065D01*
X191991641Y-90520601D01*
X192062223Y-90740992D01*
X192121890Y-90915123D01*
X192165161Y-91025874D01*
X192265762Y-91247851D01*
X191914221Y-91856738D01*
X191844927Y-91724528D01*
X191837982Y-91710933D01*
X191785381Y-91597381D01*
X191718249Y-91440803D01*
X191649355Y-91270824D01*
X191627464Y-91215775D01*
X191572103Y-91083164D01*
X191531220Y-90994902D01*
X191512413Y-90967797D01*
X191507021Y-90995055D01*
X191497876Y-91086636D01*
X191489169Y-91216596D01*
X191480986Y-91306746D01*
X191456367Y-91444698D01*
X191424501Y-91537141D01*
X191411883Y-91556820D01*
X191347288Y-91644067D01*
X191244202Y-91774556D01*
X191111746Y-91937500D01*
X190959048Y-92122116D01*
X190795230Y-92317615D01*
X190629416Y-92513211D01*
X190470729Y-92698118D01*
X190328294Y-92861550D01*
X190211234Y-92992720D01*
X190128675Y-93080841D01*
X190089737Y-93115128D01*
X190062646Y-93113455D01*
X190029530Y-93060830D01*
X190029988Y-93036820D01*
X190042996Y-92936098D01*
X190069561Y-92775468D01*
X190106833Y-92569117D01*
X190151965Y-92331227D01*
X190202106Y-92075982D01*
X190254409Y-91817565D01*
X190306023Y-91570162D01*
X190354101Y-91347955D01*
X190395793Y-91165127D01*
X190428250Y-91035864D01*
X190448622Y-90974347D01*
X190458166Y-90959345D01*
X190539760Y-90864339D01*
X190658275Y-90754107D01*
X190790310Y-90647754D01*
X190912464Y-90564386D01*
X191001334Y-90523107D01*
X191078891Y-90491787D01*
X191150240Y-90427284D01*
X191194394Y-90377666D01*
X191287962Y-90323636D01*
X191322213Y-90311081D01*
X191360241Y-90278709D01*
X191368372Y-90214308D01*
X191353715Y-90092927D01*
X191345368Y-90041288D01*
X191314440Y-89884632D01*
X191282006Y-89756402D01*
X191240218Y-89619767D01*
X190747753Y-89589054D01*
X190557765Y-89580749D01*
X190394036Y-89580509D01*
X190278794Y-89588168D01*
X190229357Y-89603252D01*
X190226317Y-89610070D01*
X190218918Y-89687815D01*
X190229932Y-89799601D01*
X190236383Y-89842049D01*
X190247731Y-90039513D01*
X190236041Y-90246234D01*
X190204276Y-90431723D01*
X190155405Y-90565495D01*
X190121319Y-90615910D01*
X190039396Y-90725589D01*
X189922618Y-90876266D01*
X189780576Y-91056092D01*
X189622860Y-91253217D01*
X189459063Y-91455793D01*
X189298774Y-91651969D01*
X189151585Y-91829896D01*
X189027085Y-91977724D01*
X188934867Y-92083603D01*
X188884522Y-92135683D01*
X188866645Y-92149865D01*
X188828643Y-92174953D01*
X188801963Y-92178231D01*
X188787259Y-92152207D01*
X188785189Y-92089386D01*
X188796406Y-91982275D01*
X188821567Y-91823383D01*
X188861328Y-91605216D01*
X188916343Y-91320280D01*
X188987266Y-90961083D01*
X189180865Y-89984919D01*
X189403088Y-89785788D01*
X189404777Y-89784276D01*
X189527426Y-89680706D01*
X189636205Y-89599535D01*
X189707744Y-89558219D01*
X189784253Y-89519050D01*
X189817114Y-89461703D01*
X189774209Y-89407745D01*
X189725235Y-89391513D01*
X189599156Y-89371318D01*
X189424995Y-89355197D01*
X189223407Y-89344186D01*
X189015044Y-89339313D01*
X188820560Y-89341612D01*
X188660607Y-89352115D01*
X188517600Y-89376653D01*
X188380858Y-89434719D01*
X188322636Y-89520130D01*
X188342692Y-89633100D01*
X188345958Y-89641195D01*
X188362072Y-89737880D01*
X188365896Y-89884735D01*
X188356499Y-90053349D01*
X188325406Y-90377275D01*
X187661966Y-91182298D01*
X187516262Y-91358056D01*
X187344340Y-91562591D01*
X187194353Y-91737865D01*
X187073984Y-91875023D01*
X186990916Y-91965207D01*
X186952834Y-91999564D01*
X186943054Y-92001448D01*
X186923440Y-91995320D01*
X186913076Y-91966578D01*
X186913105Y-91906794D01*
X186924673Y-91807541D01*
X186948920Y-91660391D01*
X186986992Y-91456914D01*
X187040031Y-91188682D01*
X187109183Y-90847268D01*
X187316911Y-89827704D01*
X187558873Y-89614466D01*
X187579635Y-89596279D01*
X187701590Y-89493727D01*
X187801840Y-89416164D01*
X187860404Y-89379183D01*
X187863703Y-89377939D01*
X187895422Y-89359372D01*
X187896948Y-89332745D01*
X187860203Y-89290778D01*
X187777110Y-89226194D01*
X187639589Y-89131714D01*
X187439560Y-89000061D01*
X187258423Y-88884489D01*
X187088398Y-88784523D01*
X186969040Y-88727127D01*
X186891810Y-88707741D01*
X186786892Y-88704361D01*
X186828358Y-88838631D01*
X186844083Y-88945321D01*
X186845972Y-89102107D01*
X186833133Y-89272833D01*
X186796443Y-89572764D01*
X186117993Y-90345940D01*
X185909124Y-90582853D01*
X185718356Y-90795624D01*
X185571451Y-90953781D01*
X185463158Y-91062204D01*
X185388231Y-91125770D01*
X185341420Y-91149363D01*
X185317478Y-91137860D01*
X185311157Y-91096141D01*
X185316098Y-91061825D01*
X185338264Y-90952187D01*
X185375739Y-90782110D01*
X185425788Y-90563679D01*
X185485671Y-90308981D01*
X185552648Y-90030105D01*
X185793138Y-89038830D01*
X186025275Y-88830810D01*
X186031745Y-88825043D01*
X186163471Y-88718832D01*
X186288107Y-88636223D01*
X186379474Y-88594670D01*
X186380055Y-88594535D01*
X186468446Y-88553418D01*
X186479836Y-88491723D01*
X186417054Y-88413005D01*
X186282927Y-88320818D01*
X186080285Y-88218719D01*
X185841217Y-88111450D01*
X185772348Y-88230735D01*
X185772124Y-88231123D01*
X185685699Y-88337778D01*
X185574802Y-88426917D01*
X185546175Y-88444132D01*
X185479170Y-88494166D01*
X185467723Y-88547869D01*
X185498966Y-88641685D01*
X185529670Y-88741039D01*
X185520836Y-88816564D01*
X185452152Y-88862284D01*
X185311847Y-88894077D01*
X185119419Y-88926273D01*
X185030751Y-89296085D01*
X185024454Y-89321834D01*
X184961658Y-89548181D01*
X184884741Y-89788508D01*
X184808909Y-89994917D01*
X184675734Y-90323937D01*
X184791633Y-90547635D01*
X184827493Y-90623330D01*
X184894382Y-90776870D01*
X184981052Y-90984174D01*
X185082008Y-91231878D01*
X185191749Y-91506615D01*
X185304777Y-91795020D01*
X185403487Y-92048090D01*
X185505361Y-92306419D01*
X185595441Y-92531882D01*
X185669192Y-92713228D01*
X185722081Y-92839210D01*
X185749575Y-92898580D01*
X185773939Y-92931046D01*
X185845842Y-92971054D01*
X185972222Y-92987541D01*
X185996808Y-92989295D01*
X186121826Y-93014373D01*
X186266962Y-93073096D01*
X186455043Y-93174295D01*
X186652395Y-93301275D01*
X186813542Y-93433549D01*
X186921051Y-93556526D01*
X186969915Y-93662748D01*
X186955126Y-93744753D01*
X186871680Y-93795083D01*
X186832195Y-93802399D01*
X186768030Y-93784483D01*
X186695138Y-93710205D01*
X186620326Y-93633416D01*
X186548218Y-93607399D01*
X186492651Y-93656368D01*
X186476715Y-93743994D01*
X186519319Y-93867355D01*
X186625110Y-94028187D01*
X186796757Y-94231538D01*
X186945637Y-94388882D01*
X187208837Y-94629095D01*
X187454474Y-94799268D01*
X187689761Y-94904837D01*
X187722210Y-94915694D01*
X187874976Y-94981969D01*
X187957842Y-95048812D01*
X187964305Y-95111330D01*
X187950304Y-95123547D01*
X187865899Y-95148073D01*
X187726699Y-95163795D01*
X187552838Y-95169755D01*
X187364448Y-95164997D01*
X187181666Y-95148561D01*
X186978189Y-95109777D01*
X186730061Y-95036082D01*
X186492923Y-94941049D01*
X186290788Y-94834487D01*
X186147664Y-94726204D01*
X186099684Y-94674034D01*
X185999886Y-94555621D01*
X185878609Y-94404268D01*
X185752317Y-94240212D01*
X185675053Y-94138777D01*
X185532137Y-93955656D01*
X185396078Y-93786215D01*
X185288173Y-93657200D01*
X185248254Y-93609748D01*
X185154266Y-93485975D01*
X185053259Y-93334936D01*
X184940626Y-93148529D01*
X184811759Y-92918655D01*
X184662053Y-92637211D01*
X184486900Y-92296096D01*
X184281693Y-91887209D01*
X184271043Y-91865793D01*
X184099346Y-91511701D01*
X183966813Y-91216544D01*
X183869779Y-90968453D01*
X183804575Y-90755559D01*
X183767534Y-90565992D01*
X183754988Y-90387882D01*
X183763270Y-90209361D01*
X183768852Y-90149913D01*
X183777495Y-90027766D01*
X183771839Y-89970355D01*
X183748018Y-89964156D01*
X183702164Y-89995642D01*
X183696586Y-90000029D01*
X183598605Y-90076226D01*
X183488164Y-90161047D01*
X183464851Y-90179590D01*
X183403211Y-90241140D01*
X183346016Y-90325403D01*
X183282064Y-90450859D01*
X183200145Y-90635984D01*
X183153539Y-90741444D01*
X183085604Y-90882645D01*
X183031625Y-90979733D01*
X183000322Y-91016122D01*
X182995724Y-91016694D01*
X182951210Y-91066234D01*
X182909307Y-91189139D01*
X182872397Y-91376289D01*
X182842864Y-91618561D01*
X182838944Y-91659474D01*
X182775054Y-92183928D01*
X182689857Y-92680891D01*
X182588020Y-93122834D01*
X182561812Y-93219646D01*
X182519038Y-93373156D01*
X182486436Y-93484367D01*
X182469531Y-93534094D01*
X182465600Y-93533705D01*
X182407658Y-93506431D01*
X182285466Y-93441689D01*
X182105110Y-93342898D01*
X181872675Y-93213477D01*
X181594248Y-93056846D01*
X181275911Y-92876423D01*
X180923752Y-92675626D01*
X180543855Y-92457876D01*
X180142306Y-92226590D01*
X180021928Y-92157035D01*
X179626919Y-91928025D01*
X179256274Y-91711972D01*
X178915990Y-91512443D01*
X178612067Y-91333006D01*
X178350506Y-91177229D01*
X178137306Y-91048681D01*
X177978466Y-90950930D01*
X177879987Y-90887542D01*
X177847867Y-90862086D01*
X177872768Y-90833398D01*
X177947339Y-90756111D01*
X178058220Y-90644799D01*
X178192400Y-90512663D01*
X178318984Y-90391343D01*
X178629170Y-90114736D01*
X178961288Y-89849597D01*
X179342649Y-89573631D01*
X179465316Y-89485210D01*
X179599040Y-89373001D01*
X179701831Y-89257900D01*
X179798829Y-89114608D01*
X179899020Y-88961191D01*
X180029759Y-88774493D01*
X180156230Y-88605192D01*
X180162115Y-88597637D01*
X180265059Y-88456743D01*
X180331659Y-88348600D01*
X180358452Y-88281678D01*
X180341978Y-88264445D01*
X180278774Y-88305369D01*
X180249027Y-88328589D01*
X180201423Y-88341839D01*
X180169343Y-88286543D01*
X180142712Y-88236687D01*
X180101715Y-88234855D01*
X180009310Y-88295242D01*
X179814102Y-88367641D01*
X179552887Y-88422244D01*
X179235130Y-88457237D01*
X178870295Y-88470808D01*
X178457180Y-88472435D01*
X178032490Y-88471763D01*
X177678512Y-88468065D01*
X177388339Y-88461169D01*
X177155067Y-88450901D01*
X176971791Y-88437086D01*
X176831608Y-88419552D01*
X176665724Y-88400398D01*
X176444940Y-88385439D01*
X176198359Y-88376214D01*
X175954797Y-88374211D01*
X175903406Y-88374532D01*
X175608518Y-88367971D01*
X175368973Y-88342522D01*
X175161267Y-88292836D01*
X174961892Y-88213561D01*
X174747344Y-88099346D01*
X174651491Y-88037246D01*
X174495546Y-87913191D01*
X174342548Y-87767999D01*
X174202676Y-87614099D01*
X174086113Y-87463928D01*
X174003042Y-87329915D01*
X173963642Y-87224492D01*
X173978097Y-87160092D01*
X174028615Y-87158665D01*
X174146200Y-87203349D01*
X174325854Y-87295887D01*
X174354387Y-87311463D01*
X174526943Y-87398321D01*
X174692587Y-87471252D01*
X174818970Y-87515827D01*
X174885879Y-87531386D01*
X175066698Y-87559994D01*
X175274180Y-87579782D01*
X175486504Y-87589979D01*
X175681847Y-87589812D01*
X175838388Y-87578510D01*
X175934304Y-87555300D01*
X176007581Y-87506861D01*
X176036397Y-87443731D01*
X175985883Y-87389427D01*
X175858376Y-87350264D01*
X175760472Y-87327931D01*
X175703348Y-87292083D01*
X175675090Y-87226204D01*
X175664388Y-87160487D01*
X175693346Y-87122457D01*
X175783076Y-87089935D01*
X175846366Y-87073923D01*
X175949255Y-87064513D01*
X176070839Y-87077580D01*
X176230752Y-87115839D01*
X176448624Y-87182003D01*
X176506780Y-87201048D01*
X176675955Y-87266247D01*
X176808901Y-87340395D01*
X176941462Y-87442431D01*
X176984693Y-87479135D01*
X177048119Y-87529323D01*
X177109565Y-87565025D01*
X177181164Y-87587040D01*
X177275047Y-87596167D01*
X177403345Y-87593204D01*
X177578190Y-87578949D01*
X177811712Y-87554203D01*
X178116042Y-87519761D01*
X178430023Y-87486170D01*
X178762542Y-87454586D01*
X179076314Y-87428585D01*
X179350019Y-87409929D01*
X179562341Y-87400378D01*
X179568656Y-87400188D01*
X179638899Y-87389649D01*
X179699401Y-87353607D01*
X179767960Y-87276869D01*
X179862372Y-87144241D01*
X179886152Y-87110478D01*
X180005100Y-86957197D01*
X180153585Y-86782122D01*
X180311731Y-86607401D01*
X180459655Y-86455176D01*
X180577483Y-86347592D01*
X180581837Y-86343521D01*
X180591783Y-86273825D01*
X180543004Y-86156964D01*
X180541223Y-86153792D01*
X180491843Y-86026039D01*
X180500717Y-85933553D01*
X180532039Y-85894130D01*
X180576602Y-85879422D01*
X180578891Y-85880473D01*
X180636885Y-85869669D01*
X180724403Y-85823115D01*
X180792797Y-85772825D01*
X180821240Y-85721085D01*
X180806063Y-85646078D01*
X180799239Y-85553831D01*
X180850974Y-85410306D01*
X180896262Y-85317096D01*
X180890414Y-85254359D01*
X180828710Y-85188197D01*
X180777615Y-85147671D01*
X180656836Y-85064224D01*
X180521086Y-84980491D01*
X180511345Y-84974908D01*
X180355154Y-84900686D01*
X180250705Y-84883479D01*
X180201431Y-84922866D01*
X180210767Y-85018429D01*
X180216622Y-85056130D01*
X180212124Y-85175633D01*
X180190877Y-85332599D01*
X180157975Y-85499087D01*
X180118515Y-85647156D01*
X180077588Y-85748865D01*
X180077343Y-85749272D01*
X180038081Y-85792161D01*
X179947574Y-85881594D01*
X179815948Y-86008145D01*
X179653327Y-86162391D01*
X179469836Y-86334906D01*
X179275602Y-86516266D01*
X179080748Y-86697048D01*
X178895399Y-86867824D01*
X178729682Y-87019172D01*
X178593720Y-87141667D01*
X178497637Y-87225885D01*
X178451561Y-87262400D01*
X178434626Y-87269616D01*
X178407746Y-87261881D01*
X178402602Y-87213390D01*
X178420880Y-87118086D01*
X178464265Y-86969912D01*
X178534445Y-86762813D01*
X178633106Y-86490733D01*
X178761933Y-86147614D01*
X179147406Y-85131966D01*
X179417643Y-84939204D01*
X179444987Y-84920051D01*
X179584381Y-84832394D01*
X179704987Y-84771477D01*
X179783262Y-84749513D01*
X179843783Y-84739224D01*
X179889027Y-84687076D01*
X179889303Y-84674208D01*
X179867824Y-84633134D01*
X179804871Y-84578856D01*
X179689558Y-84503032D01*
X179510996Y-84397315D01*
X179398159Y-84333339D01*
X179216043Y-84234397D01*
X179055131Y-84151829D01*
X178940632Y-84098829D01*
X178877823Y-84073795D01*
X178800609Y-84050449D01*
X178773363Y-84064378D01*
X178778696Y-84117599D01*
X178779197Y-84120125D01*
X178780392Y-84209451D01*
X178766055Y-84349507D01*
X178739122Y-84511117D01*
X178679533Y-84811628D01*
X177881361Y-85529022D01*
X177693749Y-85696406D01*
X177488282Y-85876716D01*
X177307831Y-86031852D01*
X177161554Y-86154059D01*
X177058607Y-86235579D01*
X177008148Y-86268660D01*
X177005176Y-86269530D01*
X176975804Y-86275202D01*
X176957533Y-86267139D01*
X176952754Y-86237343D01*
X176963861Y-86177812D01*
X176993245Y-86080543D01*
X177043299Y-85937537D01*
X177116414Y-85740793D01*
X177214984Y-85482309D01*
X177341401Y-85154084D01*
X177709540Y-84200043D01*
X177982013Y-84009712D01*
X178009904Y-83990577D01*
X178150009Y-83904132D01*
X178270801Y-83844067D01*
X178348720Y-83822416D01*
X178414162Y-83808196D01*
X178493032Y-83738717D01*
X178497408Y-83730430D01*
X178509047Y-83670361D01*
X178491711Y-83583032D01*
X178440963Y-83453563D01*
X178352364Y-83267072D01*
X178335324Y-83233102D01*
X178222075Y-83024005D01*
X178101429Y-82824848D01*
X177984310Y-82651923D01*
X177881645Y-82521521D01*
X177804356Y-82449930D01*
X177803894Y-82449654D01*
X177750967Y-82451658D01*
X177719988Y-82507818D01*
X177726964Y-82589307D01*
X177728942Y-82596812D01*
X177728720Y-82679589D01*
X177711646Y-82813618D01*
X177680742Y-82973781D01*
X177609801Y-83291469D01*
X176933670Y-83904518D01*
X176813874Y-84013076D01*
X176567309Y-84235853D01*
X176372966Y-84410036D01*
X176224316Y-84541120D01*
X176114828Y-84634600D01*
X176037970Y-84695969D01*
X175987213Y-84730724D01*
X175956024Y-84744359D01*
X175937875Y-84742368D01*
X175936791Y-84741732D01*
X175919899Y-84725098D01*
X175913432Y-84694490D01*
X175920106Y-84640752D01*
X175942635Y-84554731D01*
X175983736Y-84427274D01*
X176046121Y-84249227D01*
X176132507Y-84011434D01*
X176245607Y-83704745D01*
X176305572Y-83542251D01*
X176397086Y-83292438D01*
X176476231Y-83074142D01*
X176538819Y-82899025D01*
X176580661Y-82778747D01*
X176597565Y-82724973D01*
X176621934Y-82690581D01*
X176703386Y-82619530D01*
X176823203Y-82530626D01*
X176961979Y-82436855D01*
X177100306Y-82351204D01*
X177218779Y-82286662D01*
X177297992Y-82256215D01*
X177348911Y-82243825D01*
X177402245Y-82207574D01*
X177412789Y-82143838D01*
X177378313Y-82043129D01*
X177296579Y-81895957D01*
X177165354Y-81692832D01*
X176878560Y-81264119D01*
X176670036Y-81336368D01*
X176640846Y-81346507D01*
X176463198Y-81410761D01*
X176350552Y-81459950D01*
X176290023Y-81502784D01*
X176268724Y-81547975D01*
X176273770Y-81604233D01*
X176275215Y-81670122D01*
X176230151Y-81766332D01*
X176195071Y-81823412D01*
X176215638Y-81911994D01*
X176230601Y-81970200D01*
X176233361Y-82094756D01*
X176221484Y-82252613D01*
X176198030Y-82417396D01*
X176166060Y-82562725D01*
X176128630Y-82662224D01*
X176114903Y-82680043D01*
X176043992Y-82753277D01*
X175925449Y-82866388D01*
X175770155Y-83009760D01*
X175588993Y-83173776D01*
X175392846Y-83348819D01*
X175192595Y-83525271D01*
X174999125Y-83693514D01*
X174823317Y-83843932D01*
X174676053Y-83966907D01*
X174568216Y-84052822D01*
X174510691Y-84092059D01*
X174450937Y-84108219D01*
X174410866Y-84092472D01*
X174410812Y-84081624D01*
X174428559Y-84005344D01*
X174468130Y-83879188D01*
X174523185Y-83723955D01*
X174553380Y-83642575D01*
X174623237Y-83452984D01*
X174708698Y-83219920D01*
X174801659Y-82965499D01*
X174894016Y-82711840D01*
X175142066Y-82029195D01*
X175420981Y-81860246D01*
X175506440Y-81808186D01*
X175604806Y-81745371D01*
X175642622Y-81713086D01*
X175627122Y-81703817D01*
X175565541Y-81710046D01*
X175291861Y-81748369D01*
X175044155Y-81781619D01*
X174864525Y-81800810D01*
X174745068Y-81803917D01*
X174677882Y-81788923D01*
X174655065Y-81753803D01*
X174668715Y-81696536D01*
X174710930Y-81615100D01*
X174773809Y-81507473D01*
X174947486Y-81208732D01*
X175292133Y-81166914D01*
X175384126Y-81153617D01*
X175582766Y-81118105D01*
X175825519Y-81069060D01*
X176089884Y-81011102D01*
X176353364Y-80948857D01*
X176556682Y-80900154D01*
X176767678Y-80852684D01*
X176939242Y-80817482D01*
X177057583Y-80797356D01*
X177108906Y-80795111D01*
X177112189Y-80797430D01*
X177157913Y-80849401D01*
X177232276Y-80949645D01*
X177320887Y-81078896D01*
X177411981Y-81211949D01*
X177539269Y-81391391D01*
X177683678Y-81590412D01*
X177828194Y-81785323D01*
X177836324Y-81796182D01*
X177990908Y-82011682D01*
X178164385Y-82267097D01*
X178336119Y-82531403D01*
X178485475Y-82773574D01*
X178539665Y-82864377D01*
X178709648Y-83142605D01*
X178853439Y-83362784D01*
X178981284Y-83537009D01*
X179103426Y-83677376D01*
X179230110Y-83795979D01*
X179371581Y-83904913D01*
X179538084Y-84016273D01*
X179661426Y-84093607D01*
X179822569Y-84185722D01*
X179974423Y-84256327D01*
X180147179Y-84318844D01*
X180371024Y-84386701D01*
X180833639Y-84520434D01*
X181051115Y-84749681D01*
X181065561Y-84764850D01*
X181177494Y-84878507D01*
X181270718Y-84966939D01*
X181326314Y-85012101D01*
X181334209Y-85014309D01*
X181408953Y-85004380D01*
X181540528Y-84967938D01*
X181712942Y-84909836D01*
X181910205Y-84834926D01*
X182193663Y-84722323D01*
X182417535Y-84636790D01*
X182594837Y-84575838D01*
X182740972Y-84536021D01*
X182871342Y-84513896D01*
X183001350Y-84506016D01*
X183146400Y-84508939D01*
X183321894Y-84519219D01*
X183497836Y-84528924D01*
X183670880Y-84534501D01*
X183799430Y-84534163D01*
X183864151Y-84527612D01*
X183911340Y-84486880D01*
X183952431Y-84367469D01*
X183963355Y-84319686D01*
X184012035Y-84210455D01*
X184075622Y-84170789D01*
X184145754Y-84207603D01*
X184182134Y-84237445D01*
X184230505Y-84236889D01*
X184254079Y-84187833D01*
X184246271Y-84111667D01*
X184200497Y-84029780D01*
X184144346Y-83970568D01*
X184104448Y-83961239D01*
X184066372Y-84011846D01*
X184008435Y-84087255D01*
X183960071Y-84094575D01*
X183933201Y-84024011D01*
X183930740Y-84006025D01*
X183915627Y-83960365D01*
X183887923Y-83986579D01*
X183881936Y-83993632D01*
X183862346Y-83975542D01*
X183860472Y-83955469D01*
X184559819Y-83955469D01*
X184604359Y-84009346D01*
X184718654Y-84103119D01*
X184863037Y-84195055D01*
X185008202Y-84267199D01*
X185124844Y-84301601D01*
X185131266Y-84302246D01*
X185181852Y-84304030D01*
X185190760Y-84291510D01*
X185150209Y-84258088D01*
X185052413Y-84197163D01*
X184889590Y-84102138D01*
X184794963Y-84048422D01*
X184651082Y-83972665D01*
X184571945Y-83941344D01*
X184559819Y-83955469D01*
X183860472Y-83955469D01*
X183854846Y-83895242D01*
X183855643Y-83751222D01*
X183726985Y-83941822D01*
X183598329Y-84132421D01*
X183635271Y-83961110D01*
X183672214Y-83789799D01*
X183583171Y-83931030D01*
X183568379Y-83954376D01*
X183521348Y-84022992D01*
X183506389Y-84024785D01*
X183514939Y-83963877D01*
X183519753Y-83940242D01*
X183548620Y-83817222D01*
X183584922Y-83679202D01*
X183603576Y-83602205D01*
X183609003Y-83507605D01*
X183574836Y-83484762D01*
X183501765Y-83534871D01*
X183470169Y-83563526D01*
X183439933Y-83575374D01*
X183442108Y-83520944D01*
X183441261Y-83473021D01*
X183412284Y-83431485D01*
X183404767Y-83426525D01*
X183396654Y-83368397D01*
X183415560Y-83268380D01*
X183432315Y-83190402D01*
X183433710Y-83112654D01*
X183414866Y-83081683D01*
X183379948Y-83115380D01*
X183355881Y-83143598D01*
X183326547Y-83131263D01*
X183313633Y-83064937D01*
X183323723Y-82962519D01*
X183328372Y-82938476D01*
X183338911Y-82843645D01*
X183330640Y-82798092D01*
X183326172Y-82796826D01*
X183266601Y-82810245D01*
X183171610Y-82850617D01*
X183109620Y-82878585D01*
X183026613Y-82900531D01*
X183003700Y-82878725D01*
X183047433Y-82815043D01*
X183070348Y-82790153D01*
X183150969Y-82699052D01*
X183243615Y-82591190D01*
X183373616Y-82437486D01*
X182996224Y-82219598D01*
X182817121Y-82476987D01*
X182710164Y-82618397D01*
X182573443Y-82777506D01*
X182449037Y-82902593D01*
X182324295Y-83018353D01*
X182143742Y-83203231D01*
X181994192Y-83377484D01*
X181893432Y-83521300D01*
X181856193Y-83574214D01*
X181819503Y-83591325D01*
X181805633Y-83553484D01*
X181818145Y-83476451D01*
X181860598Y-83375982D01*
X181904613Y-83283696D01*
X181903837Y-83253554D01*
X181864135Y-83281439D01*
X181791377Y-83363228D01*
X181691429Y-83494801D01*
X181676605Y-83515182D01*
X181595306Y-83618182D01*
X181537589Y-83676521D01*
X181515136Y-83678053D01*
X181501405Y-83621029D01*
X181445386Y-83604662D01*
X181346202Y-83659592D01*
X181243895Y-83736286D01*
X181299614Y-83636016D01*
X181327935Y-83561528D01*
X181319213Y-83514892D01*
X181316706Y-83513015D01*
X181312921Y-83461354D01*
X181346113Y-83373903D01*
X181409133Y-83253768D01*
X181309534Y-83364824D01*
X181290098Y-83385985D01*
X181241278Y-83431689D01*
X181233242Y-83424532D01*
X181246973Y-83349568D01*
X181247364Y-83240045D01*
X181249694Y-83127580D01*
X181275739Y-82932260D01*
X181321749Y-82708378D01*
X181381055Y-82483528D01*
X181446991Y-82285306D01*
X181489590Y-82192214D01*
X183037853Y-82192214D01*
X183122240Y-82213443D01*
X183269551Y-82183754D01*
X183422361Y-82076760D01*
X183456359Y-82044183D01*
X183513597Y-81982141D01*
X183553006Y-81916957D01*
X183582106Y-81828790D01*
X183608422Y-81697797D01*
X183639476Y-81504137D01*
X183658634Y-81365263D01*
X183672005Y-81220670D01*
X183672310Y-81126870D01*
X183658802Y-81099533D01*
X183650434Y-81104982D01*
X183586572Y-81172365D01*
X183497578Y-81291721D01*
X183395215Y-81444847D01*
X183291249Y-81613536D01*
X183197442Y-81779581D01*
X183125559Y-81924777D01*
X183124940Y-81926177D01*
X183071696Y-82056030D01*
X183040416Y-82151573D01*
X183037853Y-82192214D01*
X181489590Y-82192214D01*
X181512886Y-82141307D01*
X181551058Y-82075545D01*
X181588952Y-81999500D01*
X181585125Y-81974090D01*
X181541952Y-81986694D01*
X181503544Y-82003012D01*
X181473979Y-82004437D01*
X181498386Y-81953985D01*
X181531127Y-81907853D01*
X181616118Y-81803681D01*
X181735506Y-81665280D01*
X181875809Y-81507565D01*
X182023548Y-81345461D01*
X182165243Y-81193884D01*
X182287414Y-81067755D01*
X182376580Y-80981994D01*
X182452858Y-80912514D01*
X182503679Y-80852181D01*
X182512316Y-80800463D01*
X182490527Y-80731514D01*
X182476779Y-80691729D01*
X182475508Y-80620251D01*
X182532468Y-80567721D01*
X182566035Y-80543395D01*
X182659112Y-80460674D01*
X182760066Y-80356958D01*
X182839072Y-80262217D01*
X182891907Y-80166765D01*
X182909654Y-80066385D01*
X182916889Y-80001636D01*
X182977564Y-79794687D01*
X183086506Y-79569930D01*
X183229459Y-79350325D01*
X183392166Y-79158831D01*
X183560370Y-79018409D01*
X183592489Y-78999409D01*
X183761366Y-78951793D01*
X183935182Y-78985973D01*
X184108937Y-79101195D01*
X184149737Y-79140349D01*
X184259547Y-79264926D01*
X184340241Y-79382221D01*
X184347232Y-79394510D01*
X184434319Y-79508013D01*
X184532991Y-79590997D01*
X184536064Y-79592793D01*
X184615791Y-79653505D01*
X184649640Y-79706685D01*
X184657645Y-79743454D01*
X184698910Y-79777851D01*
X184745182Y-79749806D01*
X184745209Y-79749760D01*
X184790964Y-79704473D01*
X184885644Y-79629241D01*
X185008783Y-79540325D01*
X185053228Y-79510584D01*
X185379579Y-79347481D01*
X185729550Y-79262889D01*
X186096765Y-79257708D01*
X186474850Y-79332841D01*
X186568075Y-79369793D01*
X186730233Y-79449124D01*
X186935586Y-79559157D01*
X187169981Y-79691439D01*
X187419265Y-79837516D01*
X187669285Y-79988937D01*
X187905888Y-80137246D01*
X188114924Y-80273990D01*
X188282236Y-80390716D01*
X188393675Y-80478971D01*
X188593366Y-80708701D01*
X188741301Y-80995625D01*
X188820377Y-81315905D01*
X188825911Y-81656776D01*
X188820902Y-81703568D01*
X188747815Y-82059173D01*
X188619457Y-82409155D01*
X188446734Y-82728619D01*
X188240558Y-82992669D01*
X188212292Y-83039263D01*
X188193211Y-83164402D01*
X188210065Y-83321817D01*
X188257066Y-83487081D01*
X188328430Y-83635766D01*
X188418371Y-83743444D01*
X188494891Y-83814165D01*
X188516672Y-83872851D01*
X188487998Y-83944169D01*
X188459846Y-84031464D01*
X188465829Y-84149398D01*
X188485313Y-84227205D01*
X188486444Y-84280522D01*
X188478003Y-84285923D01*
X188407105Y-84305639D01*
X188282483Y-84330501D01*
X188125266Y-84357083D01*
X187956584Y-84381962D01*
X187846258Y-84395667D01*
X187797568Y-84401716D01*
X187669347Y-84412918D01*
X187647733Y-84414071D01*
X187561935Y-84412732D01*
X187525212Y-84383819D01*
X187508369Y-84308373D01*
X187490573Y-84195996D01*
X187384408Y-84233442D01*
X187365817Y-84240720D01*
X187299052Y-84291199D01*
X187268488Y-84377523D01*
X187271856Y-84513769D01*
X187306883Y-84714006D01*
X187330351Y-84830740D01*
X187337205Y-84897058D01*
X187321066Y-84905680D01*
X187279746Y-84869107D01*
X187262939Y-84852144D01*
X187156812Y-84745174D01*
X187092153Y-84692179D01*
X187050707Y-84691497D01*
X187014218Y-84741471D01*
X186964429Y-84840439D01*
X186896212Y-84964486D01*
X186845302Y-85028100D01*
X186818017Y-85015602D01*
X186812093Y-84928298D01*
X186807450Y-84843021D01*
X186789460Y-84794904D01*
X186771141Y-84797029D01*
X186700625Y-84834440D01*
X186602470Y-84903484D01*
X186521648Y-84961416D01*
X186436898Y-85005451D01*
X186401823Y-84997003D01*
X186423033Y-84934914D01*
X186436635Y-84897026D01*
X186401054Y-84888899D01*
X186396820Y-84890479D01*
X186340587Y-84937162D01*
X186257393Y-85029514D01*
X186255473Y-85031645D01*
X186158157Y-85155613D01*
G37*
D11*
X185912000Y-57150000D02*
X198612000Y-57150000D01*
X185912000Y-19050000D02*
X185912000Y-57150000D01*
X198612000Y-19050000D02*
X185912000Y-19050000D01*
X198612000Y-57150000D02*
X198612000Y-19050000D01*
X184535000Y-75288000D02*
X184535000Y-73048000D01*
X184775000Y-75288000D02*
X184775000Y-73048000D01*
X184655000Y-75288000D02*
X184655000Y-73048000D01*
X190095000Y-74168000D02*
X188175000Y-74168000D01*
X182015000Y-74168000D02*
X183935000Y-74168000D01*
X188175000Y-75288000D02*
X183935000Y-75288000D01*
X188175000Y-73048000D02*
X188175000Y-75288000D01*
X183935000Y-73048000D02*
X188175000Y-73048000D01*
X183935000Y-75288000D02*
X183935000Y-73048000D01*
X182860000Y-65659000D02*
X182860000Y-62209000D01*
X182860000Y-65659000D02*
X182860000Y-67609000D01*
X187980000Y-65659000D02*
X187980000Y-63709000D01*
X187980000Y-65659000D02*
X187980000Y-67609000D01*
M02*
